solid OpenSCAD_Model
  facet normal -1 0 0
    outer loop
      vertex 0 20.4 0
      vertex 0 25 5
      vertex 0 25 0
    endloop
  endfacet
  facet normal -1 0 0
    outer loop
      vertex 0 20.4 5.5
      vertex 0 25 5
      vertex 0 20.4 0
    endloop
  endfacet
  facet normal -1 0 0
    outer loop
      vertex 0 25 5
      vertex 0 20.4 5.5
      vertex 0 25 5.5
    endloop
  endfacet
  facet normal -1 0 0
    outer loop
      vertex 0 10.2 0
      vertex 0 19.4 5.5
      vertex 0 19.4 0
    endloop
  endfacet
  facet normal -1 -0 0
    outer loop
      vertex 0 19.4 5.5
      vertex 0 10.2 0
      vertex 0 10.2 5.5
    endloop
  endfacet
  facet normal -1 0 0
    outer loop
      vertex 0 0 0
      vertex 0 9.2 5.5
      vertex 0 9.2 0
    endloop
  endfacet
  facet normal -1 -0 0
    outer loop
      vertex 0 9.2 5.5
      vertex 0 0 0
      vertex 0 0 5.5
    endloop
  endfacet
  facet normal 0 0 1
    outer loop
      vertex 1 9.2 5.5
      vertex 0 9.2 5.5
      vertex 1 1 5.5
    endloop
  endfacet
  facet normal -0 0 1
    outer loop
      vertex 1 1 5.5
      vertex 9.2 0 5.5
      vertex 9.2 1 5.5
    endloop
  endfacet
  facet normal 0 0 1
    outer loop
      vertex 1 1 5.5
      vertex 0 0 5.5
      vertex 9.2 0 5.5
    endloop
  endfacet
  facet normal 0 0 1
    outer loop
      vertex 0 0 5.5
      vertex 1 1 5.5
      vertex 0 9.2 5.5
    endloop
  endfacet
  facet normal 1 -0 0
    outer loop
      vertex 9.2 0 5.5
      vertex 9.2 1 0
      vertex 9.2 1 5.5
    endloop
  endfacet
  facet normal 1 0 0
    outer loop
      vertex 9.2 1 0
      vertex 9.2 0 5.5
      vertex 9.2 0 0
    endloop
  endfacet
  facet normal 0 0 -1
    outer loop
      vertex 10.2 1 0
      vertex 19.4 1 0
      vertex 19.4 0 0
    endloop
  endfacet
  facet normal 0 0 -1
    outer loop
      vertex 19.4 1 0
      vertex 17.9706 12.8277 0
      vertex 18.6777 13.5348 0
    endloop
  endfacet
  facet normal 0 0 -1
    outer loop
      vertex 19.4 1 0
      vertex 10.2 1 0
      vertex 17.9706 12.8277 0
    endloop
  endfacet
  facet normal -0 0 -1
    outer loop
      vertex 17.9706 12.8277 0
      vertex 10.2 1 0
      vertex 17.2635 13.5348 0
    endloop
  endfacet
  facet normal 0 0 -1
    outer loop
      vertex 17.2635 13.5348 0
      vertex 10.7581 20.0402 0
      vertex 11.4652 20.7473 0
    endloop
  endfacet
  facet normal 0 0 -1
    outer loop
      vertex 10.2 1 0
      vertex 19.4 0 0
      vertex 10.2 0 0
    endloop
  endfacet
  facet normal 0 0 -1
    outer loop
      vertex 9.2 1 0
      vertex 17.2635 13.5348 0
      vertex 10.2 1 0
    endloop
  endfacet
  facet normal -0 0 -1
    outer loop
      vertex 17.2635 13.5348 0
      vertex 1 10.2 0
      vertex 10.7581 20.0402 0
    endloop
  endfacet
  facet normal 0 0 -1
    outer loop
      vertex 1 9.2 0
      vertex 17.2635 13.5348 0
      vertex 9.2 1 0
    endloop
  endfacet
  facet normal -0 0 -1
    outer loop
      vertex 17.9706 14.2419 0
      vertex 17.2635 13.5348 0
      vertex 11.4652 20.7473 0
    endloop
  endfacet
  facet normal 0 0 -1
    outer loop
      vertex 20.4 1 0
      vertex 25 5.79828 0
      vertex 25 0 0
    endloop
  endfacet
  facet normal 0 0 -1
    outer loop
      vertex 20.4 1 0
      vertex 25 0 0
      vertex 20.4 0 0
    endloop
  endfacet
  facet normal 0 0 -1
    outer loop
      vertex 24.4759 6.32233 0
      vertex 25 7.21249 0
      vertex 25 6.84639 0
    endloop
  endfacet
  facet normal -0 0 -1
    outer loop
      vertex 25 5.79828 0
      vertex 20.4 1 0
      vertex 24.4759 6.32233 0
    endloop
  endfacet
  facet normal 0 0 -1
    outer loop
      vertex 19.4 1 0
      vertex 24.4759 6.32233 0
      vertex 20.4 1 0
    endloop
  endfacet
  facet normal 0 0 -1
    outer loop
      vertex 18.6777 13.5348 0
      vertex 24.4759 6.32233 0
      vertex 19.4 1 0
    endloop
  endfacet
  facet normal 0 0 -1
    outer loop
      vertex 24.4759 6.32233 0
      vertex 18.6777 13.5348 0
      vertex 25 7.21249 0
    endloop
  endfacet
  facet normal 0 0 -1
    outer loop
      vertex 10.051 20.7473 0
      vertex 7.21249 25 0
      vertex 10.7581 21.4544 0
    endloop
  endfacet
  facet normal 0 0 -1
    outer loop
      vertex 1 19.4 0
      vertex 10.7581 20.0402 0
      vertex 1 10.2 0
    endloop
  endfacet
  facet normal 0 0 -1
    outer loop
      vertex 0 10.2 0
      vertex 1 19.4 0
      vertex 1 10.2 0
    endloop
  endfacet
  facet normal -0 0 -1
    outer loop
      vertex 1 19.4 0
      vertex 0 10.2 0
      vertex 0 19.4 0
    endloop
  endfacet
  facet normal 0 0 -1
    outer loop
      vertex 0 0 0
      vertex 9.2 1 0
      vertex 9.2 0 0
    endloop
  endfacet
  facet normal 0 0 -1
    outer loop
      vertex 17.2635 13.5348 0
      vertex 1 9.2 0
      vertex 1 10.2 0
    endloop
  endfacet
  facet normal -0 0 -1
    outer loop
      vertex 9.2 1 0
      vertex 0 0 0
      vertex 1 9.2 0
    endloop
  endfacet
  facet normal -0 0 -1
    outer loop
      vertex 1 9.2 0
      vertex 0 0 0
      vertex 0 9.2 0
    endloop
  endfacet
  facet normal -0 0 -1
    outer loop
      vertex 10.7581 20.0402 0
      vertex 1 19.4 0
      vertex 10.051 20.7473 0
    endloop
  endfacet
  facet normal 0 0 -1
    outer loop
      vertex 1 20.4 0
      vertex 10.051 20.7473 0
      vertex 1 19.4 0
    endloop
  endfacet
  facet normal -0 0 -1
    outer loop
      vertex 10.051 20.7473 0
      vertex 1 20.4 0
      vertex 7.21249 25 0
    endloop
  endfacet
  facet normal 0 0 -1
    outer loop
      vertex 0 25 0
      vertex 1 20.4 0
      vertex 0 20.4 0
    endloop
  endfacet
  facet normal 0 0 -1
    outer loop
      vertex 1 20.4 0
      vertex 0 25 0
      vertex 7.21249 25 0
    endloop
  endfacet
  facet normal 0 -1 0
    outer loop
      vertex 20.4 0 5.5
      vertex 25 0 5
      vertex 25 0 5.5
    endloop
  endfacet
  facet normal 0 -1 0
    outer loop
      vertex 20.4 0 0
      vertex 25 0 5
      vertex 20.4 0 5.5
    endloop
  endfacet
  facet normal 0 -1 -0
    outer loop
      vertex 25 0 5
      vertex 20.4 0 0
      vertex 25 0 0
    endloop
  endfacet
  facet normal 0 -1 0
    outer loop
      vertex 10.2 0 0
      vertex 19.4 0 5.5
      vertex 10.2 0 5.5
    endloop
  endfacet
  facet normal 0 -1 -0
    outer loop
      vertex 19.4 0 5.5
      vertex 10.2 0 0
      vertex 19.4 0 0
    endloop
  endfacet
  facet normal 0 -1 0
    outer loop
      vertex 0 0 0
      vertex 9.2 0 5.5
      vertex 0 0 5.5
    endloop
  endfacet
  facet normal 0 -1 -0
    outer loop
      vertex 9.2 0 5.5
      vertex 0 0 0
      vertex 9.2 0 0
    endloop
  endfacet
  facet normal 0 1 -0
    outer loop
      vertex 1 9.2 0
      vertex 0 9.2 5.5
      vertex 1 9.2 5.5
    endloop
  endfacet
  facet normal 0 1 0
    outer loop
      vertex 0 9.2 5.5
      vertex 1 9.2 0
      vertex 0 9.2 0
    endloop
  endfacet
  facet normal -0 0 1
    outer loop
      vertex 0 19.4 5.5
      vertex 1 10.2 5.5
      vertex 1 19.4 5.5
    endloop
  endfacet
  facet normal 0 0 1
    outer loop
      vertex 1 10.2 5.5
      vertex 0 19.4 5.5
      vertex 0 10.2 5.5
    endloop
  endfacet
  facet normal 0 1 -0
    outer loop
      vertex 1 19.4 0
      vertex 0 19.4 5.5
      vertex 1 19.4 5.5
    endloop
  endfacet
  facet normal 0 1 0
    outer loop
      vertex 0 19.4 5.5
      vertex 1 19.4 0
      vertex 0 19.4 0
    endloop
  endfacet
  facet normal 0 -1 0
    outer loop
      vertex 0 10.2 0
      vertex 1 10.2 5.5
      vertex 0 10.2 5.5
    endloop
  endfacet
  facet normal 0 -1 -0
    outer loop
      vertex 1 10.2 5.5
      vertex 0 10.2 0
      vertex 1 10.2 0
    endloop
  endfacet
  facet normal 0 0 1
    outer loop
      vertex 0 20.4 5.5
      vertex 1 24 5.5
      vertex 0 25 5.5
    endloop
  endfacet
  facet normal 0 0 1
    outer loop
      vertex 1 24 5.5
      vertex 0 20.4 5.5
      vertex 1 20.4 5.5
    endloop
  endfacet
  facet normal 0 -1 0
    outer loop
      vertex 0 20.4 0
      vertex 1 20.4 5.5
      vertex 0 20.4 5.5
    endloop
  endfacet
  facet normal 0 -1 -0
    outer loop
      vertex 1 20.4 5.5
      vertex 0 20.4 0
      vertex 1 20.4 0
    endloop
  endfacet
  facet normal -1 0 0
    outer loop
      vertex 10.2 0 0
      vertex 10.2 1 5.5
      vertex 10.2 1 0
    endloop
  endfacet
  facet normal -1 -0 0
    outer loop
      vertex 10.2 1 5.5
      vertex 10.2 0 0
      vertex 10.2 0 5.5
    endloop
  endfacet
  facet normal -0 0 1
    outer loop
      vertex 10.2 1 5.5
      vertex 19.4 0 5.5
      vertex 19.4 1 5.5
    endloop
  endfacet
  facet normal 0 0 1
    outer loop
      vertex 19.4 0 5.5
      vertex 10.2 1 5.5
      vertex 10.2 0 5.5
    endloop
  endfacet
  facet normal 1 -0 0
    outer loop
      vertex 19.4 0 5.5
      vertex 19.4 1 0
      vertex 19.4 1 5.5
    endloop
  endfacet
  facet normal 1 0 0
    outer loop
      vertex 19.4 1 0
      vertex 19.4 0 5.5
      vertex 19.4 0 0
    endloop
  endfacet
  facet normal -1 0 0
    outer loop
      vertex 20.4 0 0
      vertex 20.4 1 5.5
      vertex 20.4 1 0
    endloop
  endfacet
  facet normal -1 -0 0
    outer loop
      vertex 20.4 1 5.5
      vertex 20.4 0 0
      vertex 20.4 0 5.5
    endloop
  endfacet
  facet normal 0 0 1
    outer loop
      vertex 20.4 0 5.5
      vertex 24 1 5.5
      vertex 20.4 1 5.5
    endloop
  endfacet
  facet normal 0 0 1
    outer loop
      vertex 24 1 5.5
      vertex 20.4 0 5.5
      vertex 25 0 5.5
    endloop
  endfacet
  facet normal -1 0 0
    outer loop
      vertex 1 10.2 0
      vertex 1 9.2 0
      vertex 1 10.2 5.5
    endloop
  endfacet
  facet normal -1 0 0
    outer loop
      vertex 1 20.4 0
      vertex 1 19.4 0
      vertex 1 20.4 5.5
    endloop
  endfacet
  facet normal -1 0 0
    outer loop
      vertex 1 20.4 5.5
      vertex 1 24 6
      vertex 1 24 5.5
    endloop
  endfacet
  facet normal -1 0 0
    outer loop
      vertex 1 19.4 5.5
      vertex 1 20.4 5.5
      vertex 1 19.4 0
    endloop
  endfacet
  facet normal -1 0 0
    outer loop
      vertex 1 19.4 5.5
      vertex 1 24 6
      vertex 1 20.4 5.5
    endloop
  endfacet
  facet normal -1 0 0
    outer loop
      vertex 1 10.2 5.5
      vertex 1 24 6
      vertex 1 19.4 5.5
    endloop
  endfacet
  facet normal -1 0 0
    outer loop
      vertex 1 9.2 5.5
      vertex 1 10.2 5.5
      vertex 1 9.2 0
    endloop
  endfacet
  facet normal -1 0 0
    outer loop
      vertex 1 1 6
      vertex 1 10.2 5.5
      vertex 1 9.2 5.5
    endloop
  endfacet
  facet normal -1 0 0
    outer loop
      vertex 1 1 6
      vertex 1 9.2 5.5
      vertex 1 1 5.5
    endloop
  endfacet
  facet normal -1 0 0
    outer loop
      vertex 1 10.2 5.5
      vertex 1 1 6
      vertex 1 24 6
    endloop
  endfacet
  facet normal 0 0 1
    outer loop
      vertex 1 1 6
      vertex 24 6.79828 6
      vertex 6.79828 24 6
    endloop
  endfacet
  facet normal 0 0 1
    outer loop
      vertex 1 1 6
      vertex 6.79828 24 6
      vertex 1 24 6
    endloop
  endfacet
  facet normal 0 0 1
    outer loop
      vertex 24 6.79828 6
      vertex 1 1 6
      vertex 24 1 6
    endloop
  endfacet
  facet normal 0 -1 0
    outer loop
      vertex 19.4 1 0
      vertex 20.4 1 5.5
      vertex 19.4 1 5.5
    endloop
  endfacet
  facet normal 0 -1 -0
    outer loop
      vertex 20.4 1 5.5
      vertex 19.4 1 0
      vertex 20.4 1 0
    endloop
  endfacet
  facet normal 0 -1 0
    outer loop
      vertex 9.2 1 0
      vertex 10.2 1 5.5
      vertex 9.2 1 5.5
    endloop
  endfacet
  facet normal 0 -1 -0
    outer loop
      vertex 10.2 1 5.5
      vertex 9.2 1 0
      vertex 10.2 1 0
    endloop
  endfacet
  facet normal 0 -1 0
    outer loop
      vertex 9.2 1 5.5
      vertex 1 1 6
      vertex 1 1 5.5
    endloop
  endfacet
  facet normal 0 -1 0
    outer loop
      vertex 10.2 1 5.5
      vertex 1 1 6
      vertex 9.2 1 5.5
    endloop
  endfacet
  facet normal 0 -1 0
    outer loop
      vertex 1 1 6
      vertex 10.2 1 5.5
      vertex 24 1 6
    endloop
  endfacet
  facet normal 0 -1 0
    outer loop
      vertex 19.4 1 5.5
      vertex 24 1 6
      vertex 10.2 1 5.5
    endloop
  endfacet
  facet normal 0 -1 0
    outer loop
      vertex 20.4 1 5.5
      vertex 24 1 6
      vertex 19.4 1 5.5
    endloop
  endfacet
  facet normal 0 -1 -0
    outer loop
      vertex 24 1 6
      vertex 20.4 1 5.5
      vertex 24 1 5.5
    endloop
  endfacet
  facet normal 0.707107 0.707107 0
    outer loop
      vertex 25 0 5.5
      vertex 24 1 5
      vertex 24 1 5.5
    endloop
  endfacet
  facet normal 0.707107 0.707107 0
    outer loop
      vertex 24 1 5
      vertex 25 0 5.5
      vertex 25 0 5
    endloop
  endfacet
  facet normal 0.707107 0.707107 0
    outer loop
      vertex 1 24 5.5
      vertex 0 25 5
      vertex 0 25 5.5
    endloop
  endfacet
  facet normal 0.707107 0.707107 0
    outer loop
      vertex 0 25 5
      vertex 1 24 5.5
      vertex 1 24 5
    endloop
  endfacet
  facet normal 0.707107 0.707107 0
    outer loop
      vertex 6.79828 24 6
      vertex 10.051 20.7473 5
      vertex 6.79828 24 5
    endloop
  endfacet
  facet normal 0.707107 0.707106 0
    outer loop
      vertex 10.051 20.7473 5
      vertex 10.7581 20.0402 5
      vertex 10.051 20.7473 0
    endloop
  endfacet
  facet normal 0.707107 0.707106 2.76483e-06
    outer loop
      vertex 6.79828 24 6
      vertex 10.7581 20.0402 5
      vertex 10.051 20.7473 5
    endloop
  endfacet
  facet normal 0.707107 0.707107 -1.83247e-06
    outer loop
      vertex 6.79828 24 6
      vertex 17.2635 13.5348 5
      vertex 10.7581 20.0402 5
    endloop
  endfacet
  facet normal 0.707107 0.707106 0
    outer loop
      vertex 17.2635 13.5348 5
      vertex 17.9706 12.8277 5
      vertex 17.2635 13.5348 0
    endloop
  endfacet
  facet normal 0.707107 0.707107 3.37175e-07
    outer loop
      vertex 24 6.79828 6
      vertex 17.2635 13.5348 5
      vertex 6.79828 24 6
    endloop
  endfacet
  facet normal 0.707107 0.707106 -6.0873e-06
    outer loop
      vertex 17.2635 13.5348 5
      vertex 24 6.79828 6
      vertex 17.9706 12.8277 5
    endloop
  endfacet
  facet normal 0.707107 0.707107 0
    outer loop
      vertex 17.9706 12.8277 5
      vertex 24 6.79828 6
      vertex 24 6.79828 5
    endloop
  endfacet
  facet normal 0.707107 0.707106 0
    outer loop
      vertex 10.051 20.7473 0
      vertex 10.7581 20.0402 5
      vertex 10.7581 20.0402 0
    endloop
  endfacet
  facet normal 0.707107 0.707106 0
    outer loop
      vertex 17.2635 13.5348 0
      vertex 17.9706 12.8277 5
      vertex 17.9706 12.8277 0
    endloop
  endfacet
  facet normal 0.707107 0.707107 0
    outer loop
      vertex 25 5.79828 5
      vertex 24.4759 6.32233 0
      vertex 24.4759 6.32233 5
    endloop
  endfacet
  facet normal 0.707107 0.707107 0
    outer loop
      vertex 24.4759 6.32233 0
      vertex 25 5.79828 5
      vertex 25 5.79828 0
    endloop
  endfacet
  facet normal 0 0 1
    outer loop
      vertex 24 6.79828 5
      vertex 25 6.84639 5
      vertex 25 7.21249 5
    endloop
  endfacet
  facet normal 0 0 1
    outer loop
      vertex 25 6.84639 5
      vertex 24 6.79828 5
      vertex 24.4759 6.32233 5
    endloop
  endfacet
  facet normal 0 0 1
    outer loop
      vertex 18.6777 13.5348 5
      vertex 24 6.79828 5
      vertex 25 7.21249 5
    endloop
  endfacet
  facet normal 0 0 1
    outer loop
      vertex 24 6.79828 5
      vertex 18.6777 13.5348 5
      vertex 17.9706 12.8277 5
    endloop
  endfacet
  facet normal 0 0 1
    outer loop
      vertex 24 1 5
      vertex 25 5.79828 5
      vertex 24.4759 6.32233 5
    endloop
  endfacet
  facet normal 0 0 1
    outer loop
      vertex 24 1 5
      vertex 24.4759 6.32233 5
      vertex 24 6.79828 5
    endloop
  endfacet
  facet normal 0 0 1
    outer loop
      vertex 25 5.79828 5
      vertex 24 1 5
      vertex 25 0 5
    endloop
  endfacet
  facet normal -0 0 1
    outer loop
      vertex 6.79828 24 5
      vertex 10.7581 21.4544 5
      vertex 7.21249 25 5
    endloop
  endfacet
  facet normal 0 0 1
    outer loop
      vertex 10.7581 21.4544 5
      vertex 6.79828 24 5
      vertex 10.051 20.7473 5
    endloop
  endfacet
  facet normal 0 0 1
    outer loop
      vertex 7.21249 25 5
      vertex 1 24 5
      vertex 6.79828 24 5
    endloop
  endfacet
  facet normal 0 -0 1
    outer loop
      vertex 1 24 5
      vertex 7.21249 25 5
      vertex 0 25 5
    endloop
  endfacet
  facet normal 0.707107 -0.707106 0
    outer loop
      vertex 10.051 20.7473 5
      vertex 10.7581 21.4544 0
      vertex 10.7581 21.4544 5
    endloop
  endfacet
  facet normal 0.707107 -0.707106 0
    outer loop
      vertex 10.7581 21.4544 0
      vertex 10.051 20.7473 5
      vertex 10.051 20.7473 0
    endloop
  endfacet
  facet normal 0.707107 0.707107 0
    outer loop
      vertex 10.7581 21.4544 5
      vertex 7.21249 25 0
      vertex 7.21249 25 5
    endloop
  endfacet
  facet normal 0.707107 0.707107 0
    outer loop
      vertex 7.21249 25 0
      vertex 10.7581 21.4544 5
      vertex 10.7581 21.4544 0
    endloop
  endfacet
  facet normal -0.707107 0.707107 0
    outer loop
      vertex 10.7581 20.0402 0
      vertex 11.4652 20.7473 5
      vertex 11.4652 20.7473 0
    endloop
  endfacet
  facet normal -0.707107 0.707107 0
    outer loop
      vertex 11.4652 20.7473 5
      vertex 10.7581 20.0402 0
      vertex 10.7581 20.0402 5
    endloop
  endfacet
  facet normal 0 0 1
    outer loop
      vertex 11.4652 20.7473 5
      vertex 17.2635 13.5348 5
      vertex 17.9706 14.2419 5
    endloop
  endfacet
  facet normal 0 0 1
    outer loop
      vertex 17.2635 13.5348 5
      vertex 11.4652 20.7473 5
      vertex 10.7581 20.0402 5
    endloop
  endfacet
  facet normal 0.707107 -0.707106 0
    outer loop
      vertex 17.2635 13.5348 5
      vertex 17.9706 14.2419 0
      vertex 17.9706 14.2419 5
    endloop
  endfacet
  facet normal 0.707107 -0.707106 0
    outer loop
      vertex 17.9706 14.2419 0
      vertex 17.2635 13.5348 5
      vertex 17.2635 13.5348 0
    endloop
  endfacet
  facet normal 0.707107 0.707107 0
    outer loop
      vertex 17.9706 14.2419 5
      vertex 11.4652 20.7473 0
      vertex 11.4652 20.7473 5
    endloop
  endfacet
  facet normal 0.707107 0.707107 0
    outer loop
      vertex 11.4652 20.7473 0
      vertex 17.9706 14.2419 5
      vertex 17.9706 14.2419 0
    endloop
  endfacet
  facet normal -0.707106 0.707107 0
    outer loop
      vertex 18.6777 13.5348 0
      vertex 17.9706 12.8277 5
      vertex 18.6777 13.5348 5
    endloop
  endfacet
  facet normal -0.707106 0.707107 0
    outer loop
      vertex 17.9706 12.8277 5
      vertex 18.6777 13.5348 0
      vertex 17.9706 12.8277 0
    endloop
  endfacet
  facet normal 0.707106 -0.707107 0
    outer loop
      vertex 24.4759 6.32233 0
      vertex 25 6.84639 5
      vertex 24.4759 6.32233 5
    endloop
  endfacet
  facet normal 0.707106 -0.707107 0
    outer loop
      vertex 25 6.84639 5
      vertex 24.4759 6.32233 0
      vertex 25 6.84639 0
    endloop
  endfacet
  facet normal 0.707107 0.707107 0
    outer loop
      vertex 25 7.21249 5
      vertex 18.6777 13.5348 0
      vertex 18.6777 13.5348 5
    endloop
  endfacet
  facet normal 0.707107 0.707107 0
    outer loop
      vertex 18.6777 13.5348 0
      vertex 25 7.21249 5
      vertex 25 7.21249 0
    endloop
  endfacet
  facet normal 1 0 0
    outer loop
      vertex 24 1 5.5
      vertex 24 6.79828 6
      vertex 24 1 6
    endloop
  endfacet
  facet normal 1 0 0
    outer loop
      vertex 24 6.79828 6
      vertex 24 1 5.5
      vertex 24 6.79828 5
    endloop
  endfacet
  facet normal 1 0 0
    outer loop
      vertex 24 6.79828 5
      vertex 24 1 5.5
      vertex 24 1 5
    endloop
  endfacet
  facet normal 0 1 0
    outer loop
      vertex 6.79828 24 6
      vertex 1 24 5.5
      vertex 1 24 6
    endloop
  endfacet
  facet normal 0 1 -0
    outer loop
      vertex 6.79828 24 5
      vertex 1 24 5.5
      vertex 6.79828 24 6
    endloop
  endfacet
  facet normal 0 1 0
    outer loop
      vertex 1 24 5.5
      vertex 6.79828 24 5
      vertex 1 24 5
    endloop
  endfacet
  facet normal 1 -0 0
    outer loop
      vertex 25 0 5
      vertex 25 5.79828 0
      vertex 25 5.79828 5
    endloop
  endfacet
  facet normal 1 0 0
    outer loop
      vertex 25 5.79828 0
      vertex 25 0 5
      vertex 25 0 0
    endloop
  endfacet
  facet normal 1 -0 0
    outer loop
      vertex 25 6.84639 5
      vertex 25 7.21249 0
      vertex 25 7.21249 5
    endloop
  endfacet
  facet normal 1 0 0
    outer loop
      vertex 25 7.21249 0
      vertex 25 6.84639 5
      vertex 25 6.84639 0
    endloop
  endfacet
  facet normal 0 1 -0
    outer loop
      vertex 7.21249 25 0
      vertex 0 25 5
      vertex 7.21249 25 5
    endloop
  endfacet
  facet normal 0 1 0
    outer loop
      vertex 0 25 5
      vertex 7.21249 25 0
      vertex 0 25 0
    endloop
  endfacet
endsolid OpenSCAD_Model
