solid OpenSCAD_Model
  facet normal -1 0 0
    outer loop
      vertex 0 71.4 0
      vertex 0 75 5
      vertex 0 75 0
    endloop
  endfacet
  facet normal -1 0 0
    outer loop
      vertex 0 71.4 5.5
      vertex 0 75 5
      vertex 0 71.4 0
    endloop
  endfacet
  facet normal -1 0 0
    outer loop
      vertex 0 75 5
      vertex 0 71.4 5.5
      vertex 0 75 5.5
    endloop
  endfacet
  facet normal -1 0 0
    outer loop
      vertex 0 61.2 0
      vertex 0 70.4 5.5
      vertex 0 70.4 0
    endloop
  endfacet
  facet normal -1 -0 0
    outer loop
      vertex 0 70.4 5.5
      vertex 0 61.2 0
      vertex 0 61.2 5.5
    endloop
  endfacet
  facet normal -1 0 0
    outer loop
      vertex 0 51 0
      vertex 0 60.2 5.5
      vertex 0 60.2 0
    endloop
  endfacet
  facet normal -1 -0 0
    outer loop
      vertex 0 60.2 5.5
      vertex 0 51 0
      vertex 0 51 5.5
    endloop
  endfacet
  facet normal -1 0 0
    outer loop
      vertex 0 40.8 0
      vertex 0 50 5.5
      vertex 0 50 0
    endloop
  endfacet
  facet normal -1 -0 0
    outer loop
      vertex 0 50 5.5
      vertex 0 40.8 0
      vertex 0 40.8 5.5
    endloop
  endfacet
  facet normal -1 0 0
    outer loop
      vertex 0 30.6 0
      vertex 0 39.8 5.5
      vertex 0 39.8 0
    endloop
  endfacet
  facet normal -1 -0 0
    outer loop
      vertex 0 39.8 5.5
      vertex 0 30.6 0
      vertex 0 30.6 5.5
    endloop
  endfacet
  facet normal -1 0 0
    outer loop
      vertex 0 20.4 0
      vertex 0 29.6 5.5
      vertex 0 29.6 0
    endloop
  endfacet
  facet normal -1 -0 0
    outer loop
      vertex 0 29.6 5.5
      vertex 0 20.4 0
      vertex 0 20.4 5.5
    endloop
  endfacet
  facet normal -1 0 0
    outer loop
      vertex 0 10.2 0
      vertex 0 19.4 5.5
      vertex 0 19.4 0
    endloop
  endfacet
  facet normal -1 -0 0
    outer loop
      vertex 0 19.4 5.5
      vertex 0 10.2 0
      vertex 0 10.2 5.5
    endloop
  endfacet
  facet normal -1 0 0
    outer loop
      vertex 0 0 0
      vertex 0 9.2 5.5
      vertex 0 9.2 0
    endloop
  endfacet
  facet normal -1 -0 0
    outer loop
      vertex 0 9.2 5.5
      vertex 0 0 0
      vertex 0 0 5.5
    endloop
  endfacet
  facet normal 0 0 1
    outer loop
      vertex 1 9.2 5.5
      vertex 0 9.2 5.5
      vertex 1 1 5.5
    endloop
  endfacet
  facet normal -0 0 1
    outer loop
      vertex 1 1 5.5
      vertex 9.2 0 5.5
      vertex 9.2 1 5.5
    endloop
  endfacet
  facet normal 0 0 1
    outer loop
      vertex 1 1 5.5
      vertex 0 0 5.5
      vertex 9.2 0 5.5
    endloop
  endfacet
  facet normal 0 0 1
    outer loop
      vertex 0 0 5.5
      vertex 1 1 5.5
      vertex 0 9.2 5.5
    endloop
  endfacet
  facet normal 1 -0 0
    outer loop
      vertex 9.2 0 5.5
      vertex 9.2 1 0
      vertex 9.2 1 5.5
    endloop
  endfacet
  facet normal 1 0 0
    outer loop
      vertex 9.2 1 0
      vertex 9.2 0 5.5
      vertex 9.2 0 0
    endloop
  endfacet
  facet normal 0 0 -1
    outer loop
      vertex 10.2 1 0
      vertex 19.4 1 0
      vertex 19.4 0 0
    endloop
  endfacet
  facet normal 0 0 -1
    outer loop
      vertex 19.4 1 0
      vertex 17.9706 62.8277 0
      vertex 18.6777 63.5348 0
    endloop
  endfacet
  facet normal 0 0 -1
    outer loop
      vertex 19.4 1 0
      vertex 1 30.6 0
      vertex 17.9706 62.8277 0
    endloop
  endfacet
  facet normal 0 0 -1
    outer loop
      vertex 1 39.8 0
      vertex 17.9706 62.8277 0
      vertex 1 30.6 0
    endloop
  endfacet
  facet normal 0 0 -1
    outer loop
      vertex 1 50 0
      vertex 17.9706 62.8277 0
      vertex 1 40.8 0
    endloop
  endfacet
  facet normal 0 0 -1
    outer loop
      vertex 10.2 1 0
      vertex 19.4 0 0
      vertex 10.2 0 0
    endloop
  endfacet
  facet normal 0 0 -1
    outer loop
      vertex 19.4 1 0
      vertex 10.2 1 0
      vertex 1 19.4 0
    endloop
  endfacet
  facet normal 0 0 -1
    outer loop
      vertex 1 51 0
      vertex 17.9706 62.8277 0
      vertex 1 50 0
    endloop
  endfacet
  facet normal 0 0 -1
    outer loop
      vertex 1 10.2 0
      vertex 10.2 1 0
      vertex 9.2 1 0
    endloop
  endfacet
  facet normal -0 0 -1
    outer loop
      vertex 17.9706 64.2419 0
      vertex 17.2635 63.5348 0
      vertex 11.4652 70.7473 0
    endloop
  endfacet
  facet normal 0 0 -1
    outer loop
      vertex 20.4 1 0
      vertex 29.6 1 0
      vertex 29.6 0 0
    endloop
  endfacet
  facet normal 0 0 -1
    outer loop
      vertex 29.6 1 0
      vertex 25.1831 55.6152 0
      vertex 25.8902 56.3223 0
    endloop
  endfacet
  facet normal 0 0 -1
    outer loop
      vertex 29.6 1 0
      vertex 20.4 1 0
      vertex 25.1831 55.6152 0
    endloop
  endfacet
  facet normal 0 0 -1
    outer loop
      vertex 20.4 1 0
      vertex 29.6 0 0
      vertex 20.4 0 0
    endloop
  endfacet
  facet normal 0 0 -1
    outer loop
      vertex 30.6 1 0
      vertex 39.8 1 0
      vertex 39.8 0 0
    endloop
  endfacet
  facet normal 0 0 -1
    outer loop
      vertex 39.8 1 0
      vertex 30.6 1 0
      vertex 39.608 41.1902 0
    endloop
  endfacet
  facet normal 0 0 -1
    outer loop
      vertex 29.6 1 0
      vertex 39.608 41.1902 0
      vertex 30.6 1 0
    endloop
  endfacet
  facet normal 0 0 -1
    outer loop
      vertex 38.9009 41.8974 0
      vertex 32.3955 48.4027 0
      vertex 33.1026 49.1098 0
    endloop
  endfacet
  facet normal -0 0 -1
    outer loop
      vertex 39.608 41.1902 0
      vertex 29.6 1 0
      vertex 38.9009 41.8974 0
    endloop
  endfacet
  facet normal 0 0 -1
    outer loop
      vertex 30.6 1 0
      vertex 39.8 0 0
      vertex 30.6 0 0
    endloop
  endfacet
  facet normal -0 0 -1
    outer loop
      vertex 39.608 42.6045 0
      vertex 38.9009 41.8974 0
      vertex 33.1026 49.1098 0
    endloop
  endfacet
  facet normal 0 0 -1
    outer loop
      vertex 40.8 1 0
      vertex 50 1 0
      vertex 50 0 0
    endloop
  endfacet
  facet normal 0 0 -1
    outer loop
      vertex 50 1 0
      vertex 46.8205 33.9778 0
      vertex 47.5276 34.6849 0
    endloop
  endfacet
  facet normal 0 0 -1
    outer loop
      vertex 50 1 0
      vertex 40.8 1 0
      vertex 46.8205 33.9778 0
    endloop
  endfacet
  facet normal 0 0 -1
    outer loop
      vertex 40.8 1 0
      vertex 50 0 0
      vertex 40.8 0 0
    endloop
  endfacet
  facet normal 0 0 -1
    outer loop
      vertex 51 1 0
      vertex 60.2 1 0
      vertex 60.2 0 0
    endloop
  endfacet
  facet normal 0 0 -1
    outer loop
      vertex 60.2 1 0
      vertex 54.033 26.7653 0
      vertex 54.7401 27.4724 0
    endloop
  endfacet
  facet normal 0 0 -1
    outer loop
      vertex 60.2 1 0
      vertex 51 1 0
      vertex 54.033 26.7653 0
    endloop
  endfacet
  facet normal 0 0 -1
    outer loop
      vertex 51 1 0
      vertex 60.2 0 0
      vertex 51 0 0
    endloop
  endfacet
  facet normal 0 0 -1
    outer loop
      vertex 61.2 1 0
      vertex 70.4 1 0
      vertex 70.4 0 0
    endloop
  endfacet
  facet normal 0 0 -1
    outer loop
      vertex 70.4 1 0
      vertex 68.458 12.3403 0
      vertex 69.1651 13.0474 0
    endloop
  endfacet
  facet normal 0 0 -1
    outer loop
      vertex 70.4 1 0
      vertex 61.2 1 0
      vertex 68.458 12.3403 0
    endloop
  endfacet
  facet normal -0 0 -1
    outer loop
      vertex 68.458 12.3403 0
      vertex 61.2 1 0
      vertex 67.7509 13.0474 0
    endloop
  endfacet
  facet normal 0 0 -1
    outer loop
      vertex 67.7509 13.0474 0
      vertex 61.2455 19.5528 0
      vertex 61.9526 20.2599 0
    endloop
  endfacet
  facet normal 0 0 -1
    outer loop
      vertex 61.2 1 0
      vertex 70.4 0 0
      vertex 61.2 0 0
    endloop
  endfacet
  facet normal 0 0 -1
    outer loop
      vertex 60.2 1 0
      vertex 67.7509 13.0474 0
      vertex 61.2 1 0
    endloop
  endfacet
  facet normal -0 0 -1
    outer loop
      vertex 67.7509 13.0474 0
      vertex 60.2 1 0
      vertex 61.2455 19.5528 0
    endloop
  endfacet
  facet normal -0 0 -1
    outer loop
      vertex 61.2455 19.5528 0
      vertex 60.2 1 0
      vertex 60.5384 20.2599 0
    endloop
  endfacet
  facet normal -0 0 -1
    outer loop
      vertex 68.458 13.7545 0
      vertex 67.7509 13.0474 0
      vertex 61.9526 20.2599 0
    endloop
  endfacet
  facet normal 0 0 -1
    outer loop
      vertex 71.4 1 0
      vertex 75 5.79828 0
      vertex 75 0 0
    endloop
  endfacet
  facet normal 0 0 -1
    outer loop
      vertex 71.4 1 0
      vertex 75 0 0
      vertex 71.4 0 0
    endloop
  endfacet
  facet normal 0 0 -1
    outer loop
      vertex 74.9634 5.83491 0
      vertex 75 7.21249 0
      vertex 75 5.87154 0
    endloop
  endfacet
  facet normal -0 0 -1
    outer loop
      vertex 75 5.79828 0
      vertex 71.4 1 0
      vertex 74.9634 5.83491 0
    endloop
  endfacet
  facet normal 0 0 -1
    outer loop
      vertex 70.4 1 0
      vertex 74.9634 5.83491 0
      vertex 71.4 1 0
    endloop
  endfacet
  facet normal -0 0 -1
    outer loop
      vertex 74.9634 5.83491 0
      vertex 70.4 1 0
      vertex 75 7.21249 0
    endloop
  endfacet
  facet normal -0 0 -1
    outer loop
      vertex 75 7.21249 0
      vertex 70.4 1 0
      vertex 69.1651 13.0474 0
    endloop
  endfacet
  facet normal 0 0 -1
    outer loop
      vertex 60.5384 20.2599 0
      vertex 54.7401 27.4724 0
      vertex 61.2455 20.967 0
    endloop
  endfacet
  facet normal 0 0 -1
    outer loop
      vertex 54.7401 27.4724 0
      vertex 60.5384 20.2599 0
      vertex 60.2 1 0
    endloop
  endfacet
  facet normal 0 0 -1
    outer loop
      vertex 50 1 0
      vertex 54.033 26.7653 0
      vertex 51 1 0
    endloop
  endfacet
  facet normal -0 0 -1
    outer loop
      vertex 54.033 26.7653 0
      vertex 50 1 0
      vertex 53.3259 27.4724 0
    endloop
  endfacet
  facet normal 0 0 -1
    outer loop
      vertex 53.3259 27.4724 0
      vertex 47.5276 34.6849 0
      vertex 54.033 28.1795 0
    endloop
  endfacet
  facet normal 0 0 -1
    outer loop
      vertex 47.5276 34.6849 0
      vertex 53.3259 27.4724 0
      vertex 50 1 0
    endloop
  endfacet
  facet normal 0 0 -1
    outer loop
      vertex 39.8 1 0
      vertex 46.8205 33.9778 0
      vertex 40.8 1 0
    endloop
  endfacet
  facet normal 0 0 -1
    outer loop
      vertex 46.1134 34.6849 0
      vertex 40.3151 41.8974 0
      vertex 46.8205 35.392 0
    endloop
  endfacet
  facet normal -0 0 -1
    outer loop
      vertex 46.8205 33.9778 0
      vertex 39.8 1 0
      vertex 46.1134 34.6849 0
    endloop
  endfacet
  facet normal -0 0 -1
    outer loop
      vertex 46.1134 34.6849 0
      vertex 39.8 1 0
      vertex 39.608 41.1902 0
    endloop
  endfacet
  facet normal 0 0 -1
    outer loop
      vertex 46.1134 34.6849 0
      vertex 39.608 41.1902 0
      vertex 40.3151 41.8974 0
    endloop
  endfacet
  facet normal -0 0 -1
    outer loop
      vertex 38.9009 41.8974 0
      vertex 29.6 1 0
      vertex 32.3955 48.4027 0
    endloop
  endfacet
  facet normal -0 0 -1
    outer loop
      vertex 32.3955 48.4027 0
      vertex 29.6 1 0
      vertex 31.6884 49.1098 0
    endloop
  endfacet
  facet normal 0 0 -1
    outer loop
      vertex 31.6884 49.1098 0
      vertex 25.8902 56.3223 0
      vertex 32.3955 49.8169 0
    endloop
  endfacet
  facet normal 0 0 -1
    outer loop
      vertex 25.8902 56.3223 0
      vertex 31.6884 49.1098 0
      vertex 29.6 1 0
    endloop
  endfacet
  facet normal 0 0 -1
    outer loop
      vertex 19.4 1 0
      vertex 25.1831 55.6152 0
      vertex 20.4 1 0
    endloop
  endfacet
  facet normal -0 0 -1
    outer loop
      vertex 25.1831 55.6152 0
      vertex 19.4 1 0
      vertex 24.4759 56.3223 0
    endloop
  endfacet
  facet normal 0 0 -1
    outer loop
      vertex 24.4759 56.3223 0
      vertex 18.6777 63.5348 0
      vertex 25.1831 57.0294 0
    endloop
  endfacet
  facet normal 0 0 -1
    outer loop
      vertex 18.6777 63.5348 0
      vertex 24.4759 56.3223 0
      vertex 19.4 1 0
    endloop
  endfacet
  facet normal 0 0 -1
    outer loop
      vertex 10.051 70.7473 0
      vertex 7.21249 75 0
      vertex 10.7581 71.4544 0
    endloop
  endfacet
  facet normal 0 0 -1
    outer loop
      vertex 17.2635 63.5348 0
      vertex 10.7581 70.0402 0
      vertex 11.4652 70.7473 0
    endloop
  endfacet
  facet normal 0 0 -1
    outer loop
      vertex 0 61.2 0
      vertex 1 70.4 0
      vertex 1 61.2 0
    endloop
  endfacet
  facet normal -0 0 -1
    outer loop
      vertex 1 70.4 0
      vertex 0 61.2 0
      vertex 0 70.4 0
    endloop
  endfacet
  facet normal 0 0 -1
    outer loop
      vertex 0 51 0
      vertex 1 60.2 0
      vertex 1 51 0
    endloop
  endfacet
  facet normal -0 0 -1
    outer loop
      vertex 1 60.2 0
      vertex 0 51 0
      vertex 0 60.2 0
    endloop
  endfacet
  facet normal 0 0 -1
    outer loop
      vertex 0 40.8 0
      vertex 1 50 0
      vertex 1 40.8 0
    endloop
  endfacet
  facet normal -0 0 -1
    outer loop
      vertex 1 50 0
      vertex 0 40.8 0
      vertex 0 50 0
    endloop
  endfacet
  facet normal 0 0 -1
    outer loop
      vertex 0 30.6 0
      vertex 1 39.8 0
      vertex 1 30.6 0
    endloop
  endfacet
  facet normal -0 0 -1
    outer loop
      vertex 1 39.8 0
      vertex 0 30.6 0
      vertex 0 39.8 0
    endloop
  endfacet
  facet normal 0 0 -1
    outer loop
      vertex 0 20.4 0
      vertex 1 29.6 0
      vertex 1 20.4 0
    endloop
  endfacet
  facet normal -0 0 -1
    outer loop
      vertex 1 29.6 0
      vertex 0 20.4 0
      vertex 0 29.6 0
    endloop
  endfacet
  facet normal 0 0 -1
    outer loop
      vertex 0 10.2 0
      vertex 1 19.4 0
      vertex 1 10.2 0
    endloop
  endfacet
  facet normal -0 0 -1
    outer loop
      vertex 1 19.4 0
      vertex 0 10.2 0
      vertex 0 19.4 0
    endloop
  endfacet
  facet normal 0 0 -1
    outer loop
      vertex 0 0 0
      vertex 9.2 1 0
      vertex 9.2 0 0
    endloop
  endfacet
  facet normal 0 0 -1
    outer loop
      vertex 9.2 1 0
      vertex 1 9.2 0
      vertex 1 10.2 0
    endloop
  endfacet
  facet normal -0 0 -1
    outer loop
      vertex 9.2 1 0
      vertex 0 0 0
      vertex 1 9.2 0
    endloop
  endfacet
  facet normal -0 0 -1
    outer loop
      vertex 1 9.2 0
      vertex 0 0 0
      vertex 0 9.2 0
    endloop
  endfacet
  facet normal 0 0 -1
    outer loop
      vertex 10.2 1 0
      vertex 1 10.2 0
      vertex 1 19.4 0
    endloop
  endfacet
  facet normal 0 0 -1
    outer loop
      vertex 19.4 1 0
      vertex 1 19.4 0
      vertex 1 20.4 0
    endloop
  endfacet
  facet normal 0 0 -1
    outer loop
      vertex 19.4 1 0
      vertex 1 20.4 0
      vertex 1 29.6 0
    endloop
  endfacet
  facet normal 0 0 -1
    outer loop
      vertex 19.4 1 0
      vertex 1 29.6 0
      vertex 1 30.6 0
    endloop
  endfacet
  facet normal 0 0 -1
    outer loop
      vertex 1 40.8 0
      vertex 17.9706 62.8277 0
      vertex 1 39.8 0
    endloop
  endfacet
  facet normal 0 0 -1
    outer loop
      vertex 1 60.2 0
      vertex 17.9706 62.8277 0
      vertex 1 51 0
    endloop
  endfacet
  facet normal -0 0 -1
    outer loop
      vertex 17.9706 62.8277 0
      vertex 1 60.2 0
      vertex 17.2635 63.5348 0
    endloop
  endfacet
  facet normal 0 0 -1
    outer loop
      vertex 1 61.2 0
      vertex 17.2635 63.5348 0
      vertex 1 60.2 0
    endloop
  endfacet
  facet normal -0 0 -1
    outer loop
      vertex 17.2635 63.5348 0
      vertex 1 61.2 0
      vertex 10.7581 70.0402 0
    endloop
  endfacet
  facet normal -0 0 -1
    outer loop
      vertex 10.7581 70.0402 0
      vertex 1 61.2 0
      vertex 10.051 70.7473 0
    endloop
  endfacet
  facet normal 0 0 -1
    outer loop
      vertex 1 70.4 0
      vertex 10.051 70.7473 0
      vertex 1 61.2 0
    endloop
  endfacet
  facet normal -0 0 -1
    outer loop
      vertex 10.051 70.7473 0
      vertex 1 70.4 0
      vertex 7.21249 75 0
    endloop
  endfacet
  facet normal 0 0 -1
    outer loop
      vertex 1 71.4 0
      vertex 7.21249 75 0
      vertex 1 70.4 0
    endloop
  endfacet
  facet normal 0 0 -1
    outer loop
      vertex 0 75 0
      vertex 1 71.4 0
      vertex 0 71.4 0
    endloop
  endfacet
  facet normal 0 0 -1
    outer loop
      vertex 1 71.4 0
      vertex 0 75 0
      vertex 7.21249 75 0
    endloop
  endfacet
  facet normal 0 -1 0
    outer loop
      vertex 71.4 0 5.5
      vertex 75 0 5
      vertex 75 0 5.5
    endloop
  endfacet
  facet normal 0 -1 0
    outer loop
      vertex 71.4 0 0
      vertex 75 0 5
      vertex 71.4 0 5.5
    endloop
  endfacet
  facet normal 0 -1 -0
    outer loop
      vertex 75 0 5
      vertex 71.4 0 0
      vertex 75 0 0
    endloop
  endfacet
  facet normal 0 -1 0
    outer loop
      vertex 61.2 0 0
      vertex 70.4 0 5.5
      vertex 61.2 0 5.5
    endloop
  endfacet
  facet normal 0 -1 -0
    outer loop
      vertex 70.4 0 5.5
      vertex 61.2 0 0
      vertex 70.4 0 0
    endloop
  endfacet
  facet normal 0 -1 0
    outer loop
      vertex 51 0 0
      vertex 60.2 0 5.5
      vertex 51 0 5.5
    endloop
  endfacet
  facet normal 0 -1 -0
    outer loop
      vertex 60.2 0 5.5
      vertex 51 0 0
      vertex 60.2 0 0
    endloop
  endfacet
  facet normal 0 -1 0
    outer loop
      vertex 40.8 0 0
      vertex 50 0 5.5
      vertex 40.8 0 5.5
    endloop
  endfacet
  facet normal 0 -1 -0
    outer loop
      vertex 50 0 5.5
      vertex 40.8 0 0
      vertex 50 0 0
    endloop
  endfacet
  facet normal 0 -1 0
    outer loop
      vertex 30.6 0 0
      vertex 39.8 0 5.5
      vertex 30.6 0 5.5
    endloop
  endfacet
  facet normal 0 -1 -0
    outer loop
      vertex 39.8 0 5.5
      vertex 30.6 0 0
      vertex 39.8 0 0
    endloop
  endfacet
  facet normal 0 -1 0
    outer loop
      vertex 20.4 0 0
      vertex 29.6 0 5.5
      vertex 20.4 0 5.5
    endloop
  endfacet
  facet normal 0 -1 -0
    outer loop
      vertex 29.6 0 5.5
      vertex 20.4 0 0
      vertex 29.6 0 0
    endloop
  endfacet
  facet normal 0 -1 0
    outer loop
      vertex 10.2 0 0
      vertex 19.4 0 5.5
      vertex 10.2 0 5.5
    endloop
  endfacet
  facet normal 0 -1 -0
    outer loop
      vertex 19.4 0 5.5
      vertex 10.2 0 0
      vertex 19.4 0 0
    endloop
  endfacet
  facet normal 0 -1 0
    outer loop
      vertex 0 0 0
      vertex 9.2 0 5.5
      vertex 0 0 5.5
    endloop
  endfacet
  facet normal 0 -1 -0
    outer loop
      vertex 9.2 0 5.5
      vertex 0 0 0
      vertex 9.2 0 0
    endloop
  endfacet
  facet normal 0 1 -0
    outer loop
      vertex 1 9.2 0
      vertex 0 9.2 5.5
      vertex 1 9.2 5.5
    endloop
  endfacet
  facet normal 0 1 0
    outer loop
      vertex 0 9.2 5.5
      vertex 1 9.2 0
      vertex 0 9.2 0
    endloop
  endfacet
  facet normal -0 0 1
    outer loop
      vertex 0 19.4 5.5
      vertex 1 10.2 5.5
      vertex 1 19.4 5.5
    endloop
  endfacet
  facet normal 0 0 1
    outer loop
      vertex 1 10.2 5.5
      vertex 0 19.4 5.5
      vertex 0 10.2 5.5
    endloop
  endfacet
  facet normal 0 -1 0
    outer loop
      vertex 0 10.2 0
      vertex 1 10.2 5.5
      vertex 0 10.2 5.5
    endloop
  endfacet
  facet normal 0 -1 -0
    outer loop
      vertex 1 10.2 5.5
      vertex 0 10.2 0
      vertex 1 10.2 0
    endloop
  endfacet
  facet normal 0 1 -0
    outer loop
      vertex 1 19.4 0
      vertex 0 19.4 5.5
      vertex 1 19.4 5.5
    endloop
  endfacet
  facet normal 0 1 0
    outer loop
      vertex 0 19.4 5.5
      vertex 1 19.4 0
      vertex 0 19.4 0
    endloop
  endfacet
  facet normal -0 0 1
    outer loop
      vertex 0 29.6 5.5
      vertex 1 20.4 5.5
      vertex 1 29.6 5.5
    endloop
  endfacet
  facet normal 0 0 1
    outer loop
      vertex 1 20.4 5.5
      vertex 0 29.6 5.5
      vertex 0 20.4 5.5
    endloop
  endfacet
  facet normal 0 1 -0
    outer loop
      vertex 1 29.6 0
      vertex 0 29.6 5.5
      vertex 1 29.6 5.5
    endloop
  endfacet
  facet normal 0 1 0
    outer loop
      vertex 0 29.6 5.5
      vertex 1 29.6 0
      vertex 0 29.6 0
    endloop
  endfacet
  facet normal 0 -1 0
    outer loop
      vertex 0 20.4 0
      vertex 1 20.4 5.5
      vertex 0 20.4 5.5
    endloop
  endfacet
  facet normal 0 -1 -0
    outer loop
      vertex 1 20.4 5.5
      vertex 0 20.4 0
      vertex 1 20.4 0
    endloop
  endfacet
  facet normal -0 0 1
    outer loop
      vertex 0 39.8 5.5
      vertex 1 30.6 5.5
      vertex 1 39.8 5.5
    endloop
  endfacet
  facet normal 0 0 1
    outer loop
      vertex 1 30.6 5.5
      vertex 0 39.8 5.5
      vertex 0 30.6 5.5
    endloop
  endfacet
  facet normal 0 1 -0
    outer loop
      vertex 1 39.8 0
      vertex 0 39.8 5.5
      vertex 1 39.8 5.5
    endloop
  endfacet
  facet normal 0 1 0
    outer loop
      vertex 0 39.8 5.5
      vertex 1 39.8 0
      vertex 0 39.8 0
    endloop
  endfacet
  facet normal 0 -1 0
    outer loop
      vertex 0 30.6 0
      vertex 1 30.6 5.5
      vertex 0 30.6 5.5
    endloop
  endfacet
  facet normal 0 -1 -0
    outer loop
      vertex 1 30.6 5.5
      vertex 0 30.6 0
      vertex 1 30.6 0
    endloop
  endfacet
  facet normal -0 0 1
    outer loop
      vertex 0 50 5.5
      vertex 1 40.8 5.5
      vertex 1 50 5.5
    endloop
  endfacet
  facet normal 0 0 1
    outer loop
      vertex 1 40.8 5.5
      vertex 0 50 5.5
      vertex 0 40.8 5.5
    endloop
  endfacet
  facet normal 0 1 -0
    outer loop
      vertex 1 50 0
      vertex 0 50 5.5
      vertex 1 50 5.5
    endloop
  endfacet
  facet normal 0 1 0
    outer loop
      vertex 0 50 5.5
      vertex 1 50 0
      vertex 0 50 0
    endloop
  endfacet
  facet normal 0 -1 0
    outer loop
      vertex 0 40.8 0
      vertex 1 40.8 5.5
      vertex 0 40.8 5.5
    endloop
  endfacet
  facet normal 0 -1 -0
    outer loop
      vertex 1 40.8 5.5
      vertex 0 40.8 0
      vertex 1 40.8 0
    endloop
  endfacet
  facet normal -0 0 1
    outer loop
      vertex 0 60.2 5.5
      vertex 1 51 5.5
      vertex 1 60.2 5.5
    endloop
  endfacet
  facet normal 0 0 1
    outer loop
      vertex 1 51 5.5
      vertex 0 60.2 5.5
      vertex 0 51 5.5
    endloop
  endfacet
  facet normal 0 1 -0
    outer loop
      vertex 1 60.2 0
      vertex 0 60.2 5.5
      vertex 1 60.2 5.5
    endloop
  endfacet
  facet normal 0 1 0
    outer loop
      vertex 0 60.2 5.5
      vertex 1 60.2 0
      vertex 0 60.2 0
    endloop
  endfacet
  facet normal 0 -1 0
    outer loop
      vertex 0 51 0
      vertex 1 51 5.5
      vertex 0 51 5.5
    endloop
  endfacet
  facet normal 0 -1 -0
    outer loop
      vertex 1 51 5.5
      vertex 0 51 0
      vertex 1 51 0
    endloop
  endfacet
  facet normal -0 0 1
    outer loop
      vertex 0 70.4 5.5
      vertex 1 61.2 5.5
      vertex 1 70.4 5.5
    endloop
  endfacet
  facet normal 0 0 1
    outer loop
      vertex 1 61.2 5.5
      vertex 0 70.4 5.5
      vertex 0 61.2 5.5
    endloop
  endfacet
  facet normal 0 1 -0
    outer loop
      vertex 1 70.4 0
      vertex 0 70.4 5.5
      vertex 1 70.4 5.5
    endloop
  endfacet
  facet normal 0 1 0
    outer loop
      vertex 0 70.4 5.5
      vertex 1 70.4 0
      vertex 0 70.4 0
    endloop
  endfacet
  facet normal 0 -1 0
    outer loop
      vertex 0 61.2 0
      vertex 1 61.2 5.5
      vertex 0 61.2 5.5
    endloop
  endfacet
  facet normal 0 -1 -0
    outer loop
      vertex 1 61.2 5.5
      vertex 0 61.2 0
      vertex 1 61.2 0
    endloop
  endfacet
  facet normal 0 0 1
    outer loop
      vertex 0 71.4 5.5
      vertex 1 74 5.5
      vertex 0 75 5.5
    endloop
  endfacet
  facet normal 0 0 1
    outer loop
      vertex 1 74 5.5
      vertex 0 71.4 5.5
      vertex 1 71.4 5.5
    endloop
  endfacet
  facet normal 0 -1 0
    outer loop
      vertex 0 71.4 0
      vertex 1 71.4 5.5
      vertex 0 71.4 5.5
    endloop
  endfacet
  facet normal 0 -1 -0
    outer loop
      vertex 1 71.4 5.5
      vertex 0 71.4 0
      vertex 1 71.4 0
    endloop
  endfacet
  facet normal -1 0 0
    outer loop
      vertex 10.2 0 0
      vertex 10.2 1 5.5
      vertex 10.2 1 0
    endloop
  endfacet
  facet normal -1 -0 0
    outer loop
      vertex 10.2 1 5.5
      vertex 10.2 0 0
      vertex 10.2 0 5.5
    endloop
  endfacet
  facet normal -0 0 1
    outer loop
      vertex 10.2 1 5.5
      vertex 19.4 0 5.5
      vertex 19.4 1 5.5
    endloop
  endfacet
  facet normal 0 0 1
    outer loop
      vertex 19.4 0 5.5
      vertex 10.2 1 5.5
      vertex 10.2 0 5.5
    endloop
  endfacet
  facet normal 1 -0 0
    outer loop
      vertex 19.4 0 5.5
      vertex 19.4 1 0
      vertex 19.4 1 5.5
    endloop
  endfacet
  facet normal 1 0 0
    outer loop
      vertex 19.4 1 0
      vertex 19.4 0 5.5
      vertex 19.4 0 0
    endloop
  endfacet
  facet normal -1 0 0
    outer loop
      vertex 20.4 0 0
      vertex 20.4 1 5.5
      vertex 20.4 1 0
    endloop
  endfacet
  facet normal -1 -0 0
    outer loop
      vertex 20.4 1 5.5
      vertex 20.4 0 0
      vertex 20.4 0 5.5
    endloop
  endfacet
  facet normal -0 0 1
    outer loop
      vertex 20.4 1 5.5
      vertex 29.6 0 5.5
      vertex 29.6 1 5.5
    endloop
  endfacet
  facet normal 0 0 1
    outer loop
      vertex 29.6 0 5.5
      vertex 20.4 1 5.5
      vertex 20.4 0 5.5
    endloop
  endfacet
  facet normal 1 -0 0
    outer loop
      vertex 29.6 0 5.5
      vertex 29.6 1 0
      vertex 29.6 1 5.5
    endloop
  endfacet
  facet normal 1 0 0
    outer loop
      vertex 29.6 1 0
      vertex 29.6 0 5.5
      vertex 29.6 0 0
    endloop
  endfacet
  facet normal -1 0 0
    outer loop
      vertex 30.6 0 0
      vertex 30.6 1 5.5
      vertex 30.6 1 0
    endloop
  endfacet
  facet normal -1 -0 0
    outer loop
      vertex 30.6 1 5.5
      vertex 30.6 0 0
      vertex 30.6 0 5.5
    endloop
  endfacet
  facet normal -0 0 1
    outer loop
      vertex 30.6 1 5.5
      vertex 39.8 0 5.5
      vertex 39.8 1 5.5
    endloop
  endfacet
  facet normal 0 0 1
    outer loop
      vertex 39.8 0 5.5
      vertex 30.6 1 5.5
      vertex 30.6 0 5.5
    endloop
  endfacet
  facet normal 1 -0 0
    outer loop
      vertex 39.8 0 5.5
      vertex 39.8 1 0
      vertex 39.8 1 5.5
    endloop
  endfacet
  facet normal 1 0 0
    outer loop
      vertex 39.8 1 0
      vertex 39.8 0 5.5
      vertex 39.8 0 0
    endloop
  endfacet
  facet normal -1 0 0
    outer loop
      vertex 40.8 0 0
      vertex 40.8 1 5.5
      vertex 40.8 1 0
    endloop
  endfacet
  facet normal -1 -0 0
    outer loop
      vertex 40.8 1 5.5
      vertex 40.8 0 0
      vertex 40.8 0 5.5
    endloop
  endfacet
  facet normal -0 0 1
    outer loop
      vertex 40.8 1 5.5
      vertex 50 0 5.5
      vertex 50 1 5.5
    endloop
  endfacet
  facet normal 0 0 1
    outer loop
      vertex 50 0 5.5
      vertex 40.8 1 5.5
      vertex 40.8 0 5.5
    endloop
  endfacet
  facet normal 1 -0 0
    outer loop
      vertex 50 0 5.5
      vertex 50 1 0
      vertex 50 1 5.5
    endloop
  endfacet
  facet normal 1 0 0
    outer loop
      vertex 50 1 0
      vertex 50 0 5.5
      vertex 50 0 0
    endloop
  endfacet
  facet normal -1 0 0
    outer loop
      vertex 51 0 0
      vertex 51 1 5.5
      vertex 51 1 0
    endloop
  endfacet
  facet normal -1 -0 0
    outer loop
      vertex 51 1 5.5
      vertex 51 0 0
      vertex 51 0 5.5
    endloop
  endfacet
  facet normal -0 0 1
    outer loop
      vertex 51 1 5.5
      vertex 60.2 0 5.5
      vertex 60.2 1 5.5
    endloop
  endfacet
  facet normal 0 0 1
    outer loop
      vertex 60.2 0 5.5
      vertex 51 1 5.5
      vertex 51 0 5.5
    endloop
  endfacet
  facet normal 1 -0 0
    outer loop
      vertex 60.2 0 5.5
      vertex 60.2 1 0
      vertex 60.2 1 5.5
    endloop
  endfacet
  facet normal 1 0 0
    outer loop
      vertex 60.2 1 0
      vertex 60.2 0 5.5
      vertex 60.2 0 0
    endloop
  endfacet
  facet normal -1 0 0
    outer loop
      vertex 61.2 0 0
      vertex 61.2 1 5.5
      vertex 61.2 1 0
    endloop
  endfacet
  facet normal -1 -0 0
    outer loop
      vertex 61.2 1 5.5
      vertex 61.2 0 0
      vertex 61.2 0 5.5
    endloop
  endfacet
  facet normal -0 0 1
    outer loop
      vertex 61.2 1 5.5
      vertex 70.4 0 5.5
      vertex 70.4 1 5.5
    endloop
  endfacet
  facet normal 0 0 1
    outer loop
      vertex 70.4 0 5.5
      vertex 61.2 1 5.5
      vertex 61.2 0 5.5
    endloop
  endfacet
  facet normal 1 -0 0
    outer loop
      vertex 70.4 0 5.5
      vertex 70.4 1 0
      vertex 70.4 1 5.5
    endloop
  endfacet
  facet normal 1 0 0
    outer loop
      vertex 70.4 1 0
      vertex 70.4 0 5.5
      vertex 70.4 0 0
    endloop
  endfacet
  facet normal -1 0 0
    outer loop
      vertex 71.4 0 0
      vertex 71.4 1 5.5
      vertex 71.4 1 0
    endloop
  endfacet
  facet normal -1 -0 0
    outer loop
      vertex 71.4 1 5.5
      vertex 71.4 0 0
      vertex 71.4 0 5.5
    endloop
  endfacet
  facet normal 0 0 1
    outer loop
      vertex 71.4 0 5.5
      vertex 74 1 5.5
      vertex 71.4 1 5.5
    endloop
  endfacet
  facet normal 0 0 1
    outer loop
      vertex 74 1 5.5
      vertex 71.4 0 5.5
      vertex 75 0 5.5
    endloop
  endfacet
  facet normal -1 0 0
    outer loop
      vertex 1 10.2 0
      vertex 1 9.2 0
      vertex 1 10.2 5.5
    endloop
  endfacet
  facet normal -1 0 0
    outer loop
      vertex 1 20.4 0
      vertex 1 19.4 0
      vertex 1 20.4 5.5
    endloop
  endfacet
  facet normal -1 0 0
    outer loop
      vertex 1 30.6 0
      vertex 1 29.6 0
      vertex 1 30.6 5.5
    endloop
  endfacet
  facet normal -1 0 0
    outer loop
      vertex 1 40.8 0
      vertex 1 39.8 0
      vertex 1 40.8 5.5
    endloop
  endfacet
  facet normal -1 0 0
    outer loop
      vertex 1 51 0
      vertex 1 50 0
      vertex 1 51 5.5
    endloop
  endfacet
  facet normal -1 0 0
    outer loop
      vertex 1 61.2 0
      vertex 1 60.2 0
      vertex 1 61.2 5.5
    endloop
  endfacet
  facet normal -1 0 0
    outer loop
      vertex 1 71.4 0
      vertex 1 70.4 0
      vertex 1 71.4 5.5
    endloop
  endfacet
  facet normal -1 0 0
    outer loop
      vertex 1 71.4 5.5
      vertex 1 74 6
      vertex 1 74 5.5
    endloop
  endfacet
  facet normal -1 0 0
    outer loop
      vertex 1 70.4 5.5
      vertex 1 71.4 5.5
      vertex 1 70.4 0
    endloop
  endfacet
  facet normal -1 0 0
    outer loop
      vertex 1 70.4 5.5
      vertex 1 74 6
      vertex 1 71.4 5.5
    endloop
  endfacet
  facet normal -1 0 0
    outer loop
      vertex 1 61.2 5.5
      vertex 1 74 6
      vertex 1 70.4 5.5
    endloop
  endfacet
  facet normal -1 0 0
    outer loop
      vertex 1 60.2 5.5
      vertex 1 61.2 5.5
      vertex 1 60.2 0
    endloop
  endfacet
  facet normal -1 0 0
    outer loop
      vertex 1 60.2 5.5
      vertex 1 74 6
      vertex 1 61.2 5.5
    endloop
  endfacet
  facet normal -1 0 0
    outer loop
      vertex 1 51 5.5
      vertex 1 74 6
      vertex 1 60.2 5.5
    endloop
  endfacet
  facet normal -1 0 0
    outer loop
      vertex 1 50 5.5
      vertex 1 51 5.5
      vertex 1 50 0
    endloop
  endfacet
  facet normal -1 0 0
    outer loop
      vertex 1 50 5.5
      vertex 1 74 6
      vertex 1 51 5.5
    endloop
  endfacet
  facet normal -1 0 0
    outer loop
      vertex 1 40.8 5.5
      vertex 1 74 6
      vertex 1 50 5.5
    endloop
  endfacet
  facet normal -1 0 0
    outer loop
      vertex 1 39.8 5.5
      vertex 1 40.8 5.5
      vertex 1 39.8 0
    endloop
  endfacet
  facet normal -1 0 0
    outer loop
      vertex 1 39.8 5.5
      vertex 1 74 6
      vertex 1 40.8 5.5
    endloop
  endfacet
  facet normal -1 0 0
    outer loop
      vertex 1 30.6 5.5
      vertex 1 74 6
      vertex 1 39.8 5.5
    endloop
  endfacet
  facet normal -1 0 0
    outer loop
      vertex 1 29.6 5.5
      vertex 1 30.6 5.5
      vertex 1 29.6 0
    endloop
  endfacet
  facet normal -1 0 0
    outer loop
      vertex 1 29.6 5.5
      vertex 1 74 6
      vertex 1 30.6 5.5
    endloop
  endfacet
  facet normal -1 0 0
    outer loop
      vertex 1 1 6
      vertex 1 29.6 5.5
      vertex 1 20.4 5.5
    endloop
  endfacet
  facet normal -1 0 0
    outer loop
      vertex 1 19.4 5.5
      vertex 1 20.4 5.5
      vertex 1 19.4 0
    endloop
  endfacet
  facet normal -1 0 0
    outer loop
      vertex 1 1 6
      vertex 1 20.4 5.5
      vertex 1 19.4 5.5
    endloop
  endfacet
  facet normal -1 0 0
    outer loop
      vertex 1 1 6
      vertex 1 19.4 5.5
      vertex 1 10.2 5.5
    endloop
  endfacet
  facet normal -1 0 0
    outer loop
      vertex 1 9.2 5.5
      vertex 1 10.2 5.5
      vertex 1 9.2 0
    endloop
  endfacet
  facet normal -1 0 0
    outer loop
      vertex 1 1 6
      vertex 1 10.2 5.5
      vertex 1 9.2 5.5
    endloop
  endfacet
  facet normal -1 0 0
    outer loop
      vertex 1 1 6
      vertex 1 9.2 5.5
      vertex 1 1 5.5
    endloop
  endfacet
  facet normal -1 0 0
    outer loop
      vertex 1 29.6 5.5
      vertex 1 1 6
      vertex 1 74 6
    endloop
  endfacet
  facet normal 0 0 1
    outer loop
      vertex 1 1 6
      vertex 74 6.79828 6
      vertex 6.79828 74 6
    endloop
  endfacet
  facet normal 0 0 1
    outer loop
      vertex 1 1 6
      vertex 6.79828 74 6
      vertex 1 74 6
    endloop
  endfacet
  facet normal 0 0 1
    outer loop
      vertex 74 6.79828 6
      vertex 1 1 6
      vertex 74 1 6
    endloop
  endfacet
  facet normal 0 -1 0
    outer loop
      vertex 70.4 1 0
      vertex 71.4 1 5.5
      vertex 70.4 1 5.5
    endloop
  endfacet
  facet normal 0 -1 -0
    outer loop
      vertex 71.4 1 5.5
      vertex 70.4 1 0
      vertex 71.4 1 0
    endloop
  endfacet
  facet normal 0 -1 0
    outer loop
      vertex 60.2 1 0
      vertex 61.2 1 5.5
      vertex 60.2 1 5.5
    endloop
  endfacet
  facet normal 0 -1 -0
    outer loop
      vertex 61.2 1 5.5
      vertex 60.2 1 0
      vertex 61.2 1 0
    endloop
  endfacet
  facet normal 0 -1 0
    outer loop
      vertex 50 1 0
      vertex 51 1 5.5
      vertex 50 1 5.5
    endloop
  endfacet
  facet normal 0 -1 -0
    outer loop
      vertex 51 1 5.5
      vertex 50 1 0
      vertex 51 1 0
    endloop
  endfacet
  facet normal 0 -1 0
    outer loop
      vertex 39.8 1 0
      vertex 40.8 1 5.5
      vertex 39.8 1 5.5
    endloop
  endfacet
  facet normal 0 -1 -0
    outer loop
      vertex 40.8 1 5.5
      vertex 39.8 1 0
      vertex 40.8 1 0
    endloop
  endfacet
  facet normal 0 -1 0
    outer loop
      vertex 29.6 1 0
      vertex 30.6 1 5.5
      vertex 29.6 1 5.5
    endloop
  endfacet
  facet normal 0 -1 -0
    outer loop
      vertex 30.6 1 5.5
      vertex 29.6 1 0
      vertex 30.6 1 0
    endloop
  endfacet
  facet normal 0 -1 0
    outer loop
      vertex 19.4 1 0
      vertex 20.4 1 5.5
      vertex 19.4 1 5.5
    endloop
  endfacet
  facet normal 0 -1 -0
    outer loop
      vertex 20.4 1 5.5
      vertex 19.4 1 0
      vertex 20.4 1 0
    endloop
  endfacet
  facet normal 0 -1 0
    outer loop
      vertex 9.2 1 0
      vertex 10.2 1 5.5
      vertex 9.2 1 5.5
    endloop
  endfacet
  facet normal 0 -1 -0
    outer loop
      vertex 10.2 1 5.5
      vertex 9.2 1 0
      vertex 10.2 1 0
    endloop
  endfacet
  facet normal 0 -1 0
    outer loop
      vertex 9.2 1 5.5
      vertex 1 1 6
      vertex 1 1 5.5
    endloop
  endfacet
  facet normal 0 -1 0
    outer loop
      vertex 10.2 1 5.5
      vertex 1 1 6
      vertex 9.2 1 5.5
    endloop
  endfacet
  facet normal 0 -1 0
    outer loop
      vertex 19.4 1 5.5
      vertex 1 1 6
      vertex 10.2 1 5.5
    endloop
  endfacet
  facet normal 0 -1 0
    outer loop
      vertex 20.4 1 5.5
      vertex 1 1 6
      vertex 19.4 1 5.5
    endloop
  endfacet
  facet normal 0 -1 0
    outer loop
      vertex 29.6 1 5.5
      vertex 1 1 6
      vertex 20.4 1 5.5
    endloop
  endfacet
  facet normal 0 -1 0
    outer loop
      vertex 1 1 6
      vertex 29.6 1 5.5
      vertex 74 1 6
    endloop
  endfacet
  facet normal 0 -1 0
    outer loop
      vertex 30.6 1 5.5
      vertex 74 1 6
      vertex 29.6 1 5.5
    endloop
  endfacet
  facet normal 0 -1 0
    outer loop
      vertex 39.8 1 5.5
      vertex 74 1 6
      vertex 30.6 1 5.5
    endloop
  endfacet
  facet normal 0 -1 0
    outer loop
      vertex 40.8 1 5.5
      vertex 74 1 6
      vertex 39.8 1 5.5
    endloop
  endfacet
  facet normal 0 -1 0
    outer loop
      vertex 50 1 5.5
      vertex 74 1 6
      vertex 40.8 1 5.5
    endloop
  endfacet
  facet normal 0 -1 0
    outer loop
      vertex 51 1 5.5
      vertex 74 1 6
      vertex 50 1 5.5
    endloop
  endfacet
  facet normal 0 -1 0
    outer loop
      vertex 60.2 1 5.5
      vertex 74 1 6
      vertex 51 1 5.5
    endloop
  endfacet
  facet normal 0 -1 0
    outer loop
      vertex 61.2 1 5.5
      vertex 74 1 6
      vertex 60.2 1 5.5
    endloop
  endfacet
  facet normal 0 -1 0
    outer loop
      vertex 70.4 1 5.5
      vertex 74 1 6
      vertex 61.2 1 5.5
    endloop
  endfacet
  facet normal 0 -1 0
    outer loop
      vertex 71.4 1 5.5
      vertex 74 1 6
      vertex 70.4 1 5.5
    endloop
  endfacet
  facet normal 0 -1 -0
    outer loop
      vertex 74 1 6
      vertex 71.4 1 5.5
      vertex 74 1 5.5
    endloop
  endfacet
  facet normal 0.707107 0.707107 0
    outer loop
      vertex 75 0 5.5
      vertex 74 1 5
      vertex 74 1 5.5
    endloop
  endfacet
  facet normal 0.707107 0.707107 0
    outer loop
      vertex 74 1 5
      vertex 75 0 5.5
      vertex 75 0 5
    endloop
  endfacet
  facet normal 0.707107 0.707107 0
    outer loop
      vertex 1 74 5.5
      vertex 0 75 5
      vertex 0 75 5.5
    endloop
  endfacet
  facet normal 0.707107 0.707107 0
    outer loop
      vertex 0 75 5
      vertex 1 74 5.5
      vertex 1 74 5
    endloop
  endfacet
  facet normal 0.707107 0.707107 0
    outer loop
      vertex 6.79828 74 6
      vertex 10.051 70.7473 5
      vertex 6.79828 74 5
    endloop
  endfacet
  facet normal 0.707107 0.707106 0
    outer loop
      vertex 10.051 70.7473 5
      vertex 10.7581 70.0402 5
      vertex 10.051 70.7473 0
    endloop
  endfacet
  facet normal 0.707107 0.707106 1.41613e-06
    outer loop
      vertex 6.79828 74 6
      vertex 10.7581 70.0402 5
      vertex 10.051 70.7473 5
    endloop
  endfacet
  facet normal 0.707107 0.707107 -4.41259e-06
    outer loop
      vertex 6.79828 74 6
      vertex 17.2635 63.5348 5
      vertex 10.7581 70.0402 5
    endloop
  endfacet
  facet normal 0.707108 0.707106 0
    outer loop
      vertex 17.2635 63.5348 5
      vertex 17.9706 62.8277 5
      vertex 17.2635 63.5348 0
    endloop
  endfacet
  facet normal 0.707108 0.707106 2.09723e-05
    outer loop
      vertex 6.79828 74 6
      vertex 17.9706 62.8277 5
      vertex 17.2635 63.5348 5
    endloop
  endfacet
  facet normal 0.707107 0.707107 -3.37175e-07
    outer loop
      vertex 6.79828 74 6
      vertex 24.4759 56.3223 5
      vertex 17.9706 62.8277 5
    endloop
  endfacet
  facet normal 0.707107 0.707107 0
    outer loop
      vertex 24.4759 56.3223 5
      vertex 25.1831 55.6152 5
      vertex 24.4759 56.3223 0
    endloop
  endfacet
  facet normal 0.707107 0.707107 -3.37175e-07
    outer loop
      vertex 6.79828 74 6
      vertex 25.1831 55.6152 5
      vertex 24.4759 56.3223 5
    endloop
  endfacet
  facet normal 0.707107 0.707107 3.47437e-06
    outer loop
      vertex 6.79828 74 6
      vertex 31.6884 49.1098 5
      vertex 25.1831 55.6152 5
    endloop
  endfacet
  facet normal 0.707104 0.70711 0
    outer loop
      vertex 31.6884 49.1098 5
      vertex 32.3955 48.4027 5
      vertex 31.6884 49.1098 0
    endloop
  endfacet
  facet normal 0.707104 0.70711 -0.000144109
    outer loop
      vertex 6.79828 74 6
      vertex 32.3955 48.4027 5
      vertex 31.6884 49.1098 5
    endloop
  endfacet
  facet normal 0.707107 0.707107 1.29739e-05
    outer loop
      vertex 6.79828 74 6
      vertex 38.9009 41.8974 5
      vertex 32.3955 48.4027 5
    endloop
  endfacet
  facet normal 0.707107 0.707107 0
    outer loop
      vertex 38.9009 41.8974 5
      vertex 39.608 41.1902 5
      vertex 38.9009 41.8974 0
    endloop
  endfacet
  facet normal 0.707107 0.707107 -3.37175e-07
    outer loop
      vertex 6.79828 74 6
      vertex 39.608 41.1902 5
      vertex 38.9009 41.8974 5
    endloop
  endfacet
  facet normal 0.707107 0.707107 -3.37175e-07
    outer loop
      vertex 6.79828 74 6
      vertex 46.1134 34.6849 5
      vertex 39.608 41.1902 5
    endloop
  endfacet
  facet normal 0.707107 0.707107 0
    outer loop
      vertex 46.1134 34.6849 5
      vertex 46.8205 33.9778 5
      vertex 46.1134 34.6849 0
    endloop
  endfacet
  facet normal 0.707107 0.707107 -3.37175e-07
    outer loop
      vertex 74 6.79828 6
      vertex 46.1134 34.6849 5
      vertex 6.79828 74 6
    endloop
  endfacet
  facet normal 0.707107 0.707107 -3.37175e-07
    outer loop
      vertex 46.1134 34.6849 5
      vertex 74 6.79828 6
      vertex 46.8205 33.9778 5
    endloop
  endfacet
  facet normal 0.707107 0.707107 0
    outer loop
      vertex 53.3259 27.4724 5
      vertex 54.033 26.7653 5
      vertex 53.3259 27.4724 0
    endloop
  endfacet
  facet normal 0.707107 0.707107 -3.37175e-07
    outer loop
      vertex 46.8205 33.9778 5
      vertex 74 6.79828 6
      vertex 53.3259 27.4724 5
    endloop
  endfacet
  facet normal 0.707107 0.707107 -3.37175e-07
    outer loop
      vertex 53.3259 27.4724 5
      vertex 74 6.79828 6
      vertex 54.033 26.7653 5
    endloop
  endfacet
  facet normal 0.707107 0.707107 0
    outer loop
      vertex 60.5384 20.2599 5
      vertex 61.2455 19.5528 5
      vertex 60.5384 20.2599 0
    endloop
  endfacet
  facet normal 0.707107 0.707107 3.80239e-06
    outer loop
      vertex 54.033 26.7653 5
      vertex 74 6.79828 6
      vertex 60.5384 20.2599 5
    endloop
  endfacet
  facet normal 0.707107 0.707107 1.01152e-06
    outer loop
      vertex 60.5384 20.2599 5
      vertex 74 6.79828 6
      vertex 61.2455 19.5528 5
    endloop
  endfacet
  facet normal 0.707106 0.707107 0
    outer loop
      vertex 67.7509 13.0474 5
      vertex 68.458 12.3403 5
      vertex 67.7509 13.0474 0
    endloop
  endfacet
  facet normal 0.707107 0.707107 -4.27702e-06
    outer loop
      vertex 61.2455 19.5528 5
      vertex 74 6.79828 6
      vertex 67.7509 13.0474 5
    endloop
  endfacet
  facet normal 0.707106 0.707107 4.27375e-06
    outer loop
      vertex 67.7509 13.0474 5
      vertex 74 6.79828 6
      vertex 68.458 12.3403 5
    endloop
  endfacet
  facet normal 0.707107 0.707107 0
    outer loop
      vertex 68.458 12.3403 5
      vertex 74 6.79828 6
      vertex 74 6.79828 5
    endloop
  endfacet
  facet normal 0.707107 0.707106 0
    outer loop
      vertex 10.051 70.7473 0
      vertex 10.7581 70.0402 5
      vertex 10.7581 70.0402 0
    endloop
  endfacet
  facet normal 0.707108 0.707106 0
    outer loop
      vertex 17.2635 63.5348 0
      vertex 17.9706 62.8277 5
      vertex 17.9706 62.8277 0
    endloop
  endfacet
  facet normal 0.707107 0.707107 0
    outer loop
      vertex 24.4759 56.3223 0
      vertex 25.1831 55.6152 5
      vertex 25.1831 55.6152 0
    endloop
  endfacet
  facet normal 0.707104 0.70711 0
    outer loop
      vertex 31.6884 49.1098 0
      vertex 32.3955 48.4027 5
      vertex 32.3955 48.4027 0
    endloop
  endfacet
  facet normal 0.707107 0.707107 0
    outer loop
      vertex 38.9009 41.8974 0
      vertex 39.608 41.1902 5
      vertex 39.608 41.1902 0
    endloop
  endfacet
  facet normal 0.707107 0.707107 0
    outer loop
      vertex 46.1134 34.6849 0
      vertex 46.8205 33.9778 5
      vertex 46.8205 33.9778 0
    endloop
  endfacet
  facet normal 0.707107 0.707107 0
    outer loop
      vertex 53.3259 27.4724 0
      vertex 54.033 26.7653 5
      vertex 54.033 26.7653 0
    endloop
  endfacet
  facet normal 0.707107 0.707107 0
    outer loop
      vertex 60.5384 20.2599 0
      vertex 61.2455 19.5528 5
      vertex 61.2455 19.5528 0
    endloop
  endfacet
  facet normal 0.707106 0.707107 0
    outer loop
      vertex 67.7509 13.0474 0
      vertex 68.458 12.3403 5
      vertex 68.458 12.3403 0
    endloop
  endfacet
  facet normal 0.707125 0.707088 0
    outer loop
      vertex 75 5.79828 5
      vertex 74.9634 5.83491 0
      vertex 74.9634 5.83491 5
    endloop
  endfacet
  facet normal 0.707125 0.707088 0
    outer loop
      vertex 74.9634 5.83491 0
      vertex 75 5.79828 5
      vertex 75 5.79828 0
    endloop
  endfacet
  facet normal -0 0 1
    outer loop
      vertex 74 6.79828 5
      vertex 75 5.87154 5
      vertex 75 7.21249 5
    endloop
  endfacet
  facet normal 0 0 1
    outer loop
      vertex 75 5.87154 5
      vertex 74 6.79828 5
      vertex 74.9634 5.83491 5
    endloop
  endfacet
  facet normal 0 0 1
    outer loop
      vertex 69.1651 13.0474 5
      vertex 74 6.79828 5
      vertex 75 7.21249 5
    endloop
  endfacet
  facet normal 0 0 1
    outer loop
      vertex 74 6.79828 5
      vertex 69.1651 13.0474 5
      vertex 68.458 12.3403 5
    endloop
  endfacet
  facet normal 0 0 1
    outer loop
      vertex 74 1 5
      vertex 75 5.79828 5
      vertex 74.9634 5.83491 5
    endloop
  endfacet
  facet normal 0 0 1
    outer loop
      vertex 74 1 5
      vertex 74.9634 5.83491 5
      vertex 74 6.79828 5
    endloop
  endfacet
  facet normal 0 0 1
    outer loop
      vertex 75 5.79828 5
      vertex 74 1 5
      vertex 75 0 5
    endloop
  endfacet
  facet normal -0 0 1
    outer loop
      vertex 6.79828 74 5
      vertex 10.7581 71.4544 5
      vertex 7.21249 75 5
    endloop
  endfacet
  facet normal 0 0 1
    outer loop
      vertex 10.7581 71.4544 5
      vertex 6.79828 74 5
      vertex 10.051 70.7473 5
    endloop
  endfacet
  facet normal 0 0 1
    outer loop
      vertex 7.21249 75 5
      vertex 1 74 5
      vertex 6.79828 74 5
    endloop
  endfacet
  facet normal 0 -0 1
    outer loop
      vertex 1 74 5
      vertex 7.21249 75 5
      vertex 0 75 5
    endloop
  endfacet
  facet normal 0.707107 -0.707106 0
    outer loop
      vertex 10.051 70.7473 5
      vertex 10.7581 71.4544 0
      vertex 10.7581 71.4544 5
    endloop
  endfacet
  facet normal 0.707107 -0.707106 0
    outer loop
      vertex 10.7581 71.4544 0
      vertex 10.051 70.7473 5
      vertex 10.051 70.7473 0
    endloop
  endfacet
  facet normal 0.707107 0.707107 0
    outer loop
      vertex 10.7581 71.4544 5
      vertex 7.21249 75 0
      vertex 7.21249 75 5
    endloop
  endfacet
  facet normal 0.707107 0.707107 0
    outer loop
      vertex 7.21249 75 0
      vertex 10.7581 71.4544 5
      vertex 10.7581 71.4544 0
    endloop
  endfacet
  facet normal -0.707107 0.707107 0
    outer loop
      vertex 10.7581 70.0402 0
      vertex 11.4652 70.7473 5
      vertex 11.4652 70.7473 0
    endloop
  endfacet
  facet normal -0.707107 0.707107 0
    outer loop
      vertex 11.4652 70.7473 5
      vertex 10.7581 70.0402 0
      vertex 10.7581 70.0402 5
    endloop
  endfacet
  facet normal 0 0 1
    outer loop
      vertex 11.4652 70.7473 5
      vertex 17.2635 63.5348 5
      vertex 17.9706 64.2419 5
    endloop
  endfacet
  facet normal 0 0 1
    outer loop
      vertex 17.2635 63.5348 5
      vertex 11.4652 70.7473 5
      vertex 10.7581 70.0402 5
    endloop
  endfacet
  facet normal 0.707108 -0.707106 0
    outer loop
      vertex 17.2635 63.5348 5
      vertex 17.9706 64.2419 0
      vertex 17.9706 64.2419 5
    endloop
  endfacet
  facet normal 0.707108 -0.707106 0
    outer loop
      vertex 17.9706 64.2419 0
      vertex 17.2635 63.5348 5
      vertex 17.2635 63.5348 0
    endloop
  endfacet
  facet normal 0.707107 0.707107 -0
    outer loop
      vertex 17.9706 64.2419 0
      vertex 11.4652 70.7473 5
      vertex 17.9706 64.2419 5
    endloop
  endfacet
  facet normal 0.707107 0.707107 0
    outer loop
      vertex 11.4652 70.7473 5
      vertex 17.9706 64.2419 0
      vertex 11.4652 70.7473 0
    endloop
  endfacet
  facet normal -0.707107 0.707107 0
    outer loop
      vertex 17.9706 62.8277 0
      vertex 18.6777 63.5348 5
      vertex 18.6777 63.5348 0
    endloop
  endfacet
  facet normal -0.707107 0.707107 0
    outer loop
      vertex 18.6777 63.5348 5
      vertex 17.9706 62.8277 0
      vertex 17.9706 62.8277 5
    endloop
  endfacet
  facet normal 0 0 1
    outer loop
      vertex 18.6777 63.5348 5
      vertex 24.4759 56.3223 5
      vertex 25.1831 57.0294 5
    endloop
  endfacet
  facet normal 0 0 1
    outer loop
      vertex 24.4759 56.3223 5
      vertex 18.6777 63.5348 5
      vertex 17.9706 62.8277 5
    endloop
  endfacet
  facet normal 0.707107 -0.707107 0
    outer loop
      vertex 24.4759 56.3223 5
      vertex 25.1831 57.0294 0
      vertex 25.1831 57.0294 5
    endloop
  endfacet
  facet normal 0.707107 -0.707107 0
    outer loop
      vertex 25.1831 57.0294 0
      vertex 24.4759 56.3223 5
      vertex 24.4759 56.3223 0
    endloop
  endfacet
  facet normal 0.707107 0.707107 0
    outer loop
      vertex 25.1831 57.0294 5
      vertex 18.6777 63.5348 0
      vertex 18.6777 63.5348 5
    endloop
  endfacet
  facet normal 0.707107 0.707107 0
    outer loop
      vertex 18.6777 63.5348 0
      vertex 25.1831 57.0294 5
      vertex 25.1831 57.0294 0
    endloop
  endfacet
  facet normal -0.707108 0.707106 0
    outer loop
      vertex 25.1831 55.6152 0
      vertex 25.8902 56.3223 5
      vertex 25.8902 56.3223 0
    endloop
  endfacet
  facet normal -0.707108 0.707106 0
    outer loop
      vertex 25.8902 56.3223 5
      vertex 25.1831 55.6152 0
      vertex 25.1831 55.6152 5
    endloop
  endfacet
  facet normal 0 0 1
    outer loop
      vertex 25.8902 56.3223 5
      vertex 31.6884 49.1098 5
      vertex 32.3955 49.8169 5
    endloop
  endfacet
  facet normal 0 0 1
    outer loop
      vertex 31.6884 49.1098 5
      vertex 25.8902 56.3223 5
      vertex 25.1831 55.6152 5
    endloop
  endfacet
  facet normal 0.707106 -0.707108 0
    outer loop
      vertex 31.6884 49.1098 0
      vertex 32.3955 49.8169 5
      vertex 31.6884 49.1098 5
    endloop
  endfacet
  facet normal 0.707106 -0.707108 0
    outer loop
      vertex 32.3955 49.8169 5
      vertex 31.6884 49.1098 0
      vertex 32.3955 49.8169 0
    endloop
  endfacet
  facet normal 0.707107 0.707107 -0
    outer loop
      vertex 32.3955 49.8169 0
      vertex 25.8902 56.3223 5
      vertex 32.3955 49.8169 5
    endloop
  endfacet
  facet normal 0.707107 0.707107 0
    outer loop
      vertex 25.8902 56.3223 5
      vertex 32.3955 49.8169 0
      vertex 25.8902 56.3223 0
    endloop
  endfacet
  facet normal -0.707107 0.707107 0
    outer loop
      vertex 32.3955 48.4027 0
      vertex 33.1026 49.1098 5
      vertex 33.1026 49.1098 0
    endloop
  endfacet
  facet normal -0.707107 0.707107 0
    outer loop
      vertex 33.1026 49.1098 5
      vertex 32.3955 48.4027 0
      vertex 32.3955 48.4027 5
    endloop
  endfacet
  facet normal 0 0 1
    outer loop
      vertex 33.1026 49.1098 5
      vertex 38.9009 41.8974 5
      vertex 39.608 42.6045 5
    endloop
  endfacet
  facet normal 0 0 1
    outer loop
      vertex 38.9009 41.8974 5
      vertex 33.1026 49.1098 5
      vertex 32.3955 48.4027 5
    endloop
  endfacet
  facet normal 0.707109 -0.707105 0
    outer loop
      vertex 38.9009 41.8974 5
      vertex 39.608 42.6045 0
      vertex 39.608 42.6045 5
    endloop
  endfacet
  facet normal 0.707109 -0.707105 0
    outer loop
      vertex 39.608 42.6045 0
      vertex 38.9009 41.8974 5
      vertex 38.9009 41.8974 0
    endloop
  endfacet
  facet normal 0.707107 0.707107 0
    outer loop
      vertex 39.608 42.6045 5
      vertex 33.1026 49.1098 0
      vertex 33.1026 49.1098 5
    endloop
  endfacet
  facet normal 0.707107 0.707107 0
    outer loop
      vertex 33.1026 49.1098 0
      vertex 39.608 42.6045 5
      vertex 39.608 42.6045 0
    endloop
  endfacet
  facet normal -0.707105 0.707109 0
    outer loop
      vertex 40.3151 41.8974 0
      vertex 39.608 41.1902 5
      vertex 40.3151 41.8974 5
    endloop
  endfacet
  facet normal -0.707105 0.707109 0
    outer loop
      vertex 39.608 41.1902 5
      vertex 40.3151 41.8974 0
      vertex 39.608 41.1902 0
    endloop
  endfacet
  facet normal 0 0 1
    outer loop
      vertex 40.3151 41.8974 5
      vertex 46.1134 34.6849 5
      vertex 46.8205 35.392 5
    endloop
  endfacet
  facet normal 0 0 1
    outer loop
      vertex 46.1134 34.6849 5
      vertex 40.3151 41.8974 5
      vertex 39.608 41.1902 5
    endloop
  endfacet
  facet normal 0.707107 -0.707107 0
    outer loop
      vertex 46.1134 34.6849 5
      vertex 46.8205 35.392 0
      vertex 46.8205 35.392 5
    endloop
  endfacet
  facet normal 0.707107 -0.707107 0
    outer loop
      vertex 46.8205 35.392 0
      vertex 46.1134 34.6849 5
      vertex 46.1134 34.6849 0
    endloop
  endfacet
  facet normal 0.707107 0.707107 -0
    outer loop
      vertex 46.8205 35.392 0
      vertex 40.3151 41.8974 5
      vertex 46.8205 35.392 5
    endloop
  endfacet
  facet normal 0.707107 0.707107 0
    outer loop
      vertex 40.3151 41.8974 5
      vertex 46.8205 35.392 0
      vertex 40.3151 41.8974 0
    endloop
  endfacet
  facet normal -0.707107 0.707107 0
    outer loop
      vertex 46.8205 33.9778 0
      vertex 47.5276 34.6849 5
      vertex 47.5276 34.6849 0
    endloop
  endfacet
  facet normal -0.707107 0.707107 0
    outer loop
      vertex 47.5276 34.6849 5
      vertex 46.8205 33.9778 0
      vertex 46.8205 33.9778 5
    endloop
  endfacet
  facet normal 0 0 1
    outer loop
      vertex 47.5276 34.6849 5
      vertex 53.3259 27.4724 5
      vertex 54.033 28.1795 5
    endloop
  endfacet
  facet normal 0 0 1
    outer loop
      vertex 53.3259 27.4724 5
      vertex 47.5276 34.6849 5
      vertex 46.8205 33.9778 5
    endloop
  endfacet
  facet normal 0.707107 -0.707107 0
    outer loop
      vertex 53.3259 27.4724 5
      vertex 54.033 28.1795 0
      vertex 54.033 28.1795 5
    endloop
  endfacet
  facet normal 0.707107 -0.707107 0
    outer loop
      vertex 54.033 28.1795 0
      vertex 53.3259 27.4724 5
      vertex 53.3259 27.4724 0
    endloop
  endfacet
  facet normal 0.707107 0.707107 0
    outer loop
      vertex 54.033 28.1795 5
      vertex 47.5276 34.6849 0
      vertex 47.5276 34.6849 5
    endloop
  endfacet
  facet normal 0.707107 0.707107 0
    outer loop
      vertex 47.5276 34.6849 0
      vertex 54.033 28.1795 5
      vertex 54.033 28.1795 0
    endloop
  endfacet
  facet normal -0.707107 0.707107 0
    outer loop
      vertex 54.033 26.7653 0
      vertex 54.7401 27.4724 5
      vertex 54.7401 27.4724 0
    endloop
  endfacet
  facet normal -0.707107 0.707107 0
    outer loop
      vertex 54.7401 27.4724 5
      vertex 54.033 26.7653 0
      vertex 54.033 26.7653 5
    endloop
  endfacet
  facet normal 0 0 1
    outer loop
      vertex 54.7401 27.4724 5
      vertex 60.5384 20.2599 5
      vertex 61.2455 20.967 5
    endloop
  endfacet
  facet normal 0 0 1
    outer loop
      vertex 60.5384 20.2599 5
      vertex 54.7401 27.4724 5
      vertex 54.033 26.7653 5
    endloop
  endfacet
  facet normal 0.707106 -0.707108 0
    outer loop
      vertex 60.5384 20.2599 0
      vertex 61.2455 20.967 5
      vertex 60.5384 20.2599 5
    endloop
  endfacet
  facet normal 0.707106 -0.707108 0
    outer loop
      vertex 61.2455 20.967 5
      vertex 60.5384 20.2599 0
      vertex 61.2455 20.967 0
    endloop
  endfacet
  facet normal 0.707107 0.707107 0
    outer loop
      vertex 61.2455 20.967 5
      vertex 54.7401 27.4724 0
      vertex 54.7401 27.4724 5
    endloop
  endfacet
  facet normal 0.707107 0.707107 0
    outer loop
      vertex 54.7401 27.4724 0
      vertex 61.2455 20.967 5
      vertex 61.2455 20.967 0
    endloop
  endfacet
  facet normal -0.707109 0.707105 0
    outer loop
      vertex 61.2455 19.5528 0
      vertex 61.9526 20.2599 5
      vertex 61.9526 20.2599 0
    endloop
  endfacet
  facet normal -0.707109 0.707105 0
    outer loop
      vertex 61.9526 20.2599 5
      vertex 61.2455 19.5528 0
      vertex 61.2455 19.5528 5
    endloop
  endfacet
  facet normal 0 0 1
    outer loop
      vertex 61.9526 20.2599 5
      vertex 67.7509 13.0474 5
      vertex 68.458 13.7545 5
    endloop
  endfacet
  facet normal 0 0 1
    outer loop
      vertex 67.7509 13.0474 5
      vertex 61.9526 20.2599 5
      vertex 61.2455 19.5528 5
    endloop
  endfacet
  facet normal 0.707106 -0.707107 0
    outer loop
      vertex 67.7509 13.0474 0
      vertex 68.458 13.7545 5
      vertex 67.7509 13.0474 5
    endloop
  endfacet
  facet normal 0.707106 -0.707107 0
    outer loop
      vertex 68.458 13.7545 5
      vertex 67.7509 13.0474 0
      vertex 68.458 13.7545 0
    endloop
  endfacet
  facet normal 0.707107 0.707107 0
    outer loop
      vertex 68.458 13.7545 5
      vertex 61.9526 20.2599 0
      vertex 61.9526 20.2599 5
    endloop
  endfacet
  facet normal 0.707107 0.707107 0
    outer loop
      vertex 61.9526 20.2599 0
      vertex 68.458 13.7545 5
      vertex 68.458 13.7545 0
    endloop
  endfacet
  facet normal -0.707106 0.707107 0
    outer loop
      vertex 69.1651 13.0474 0
      vertex 68.458 12.3403 5
      vertex 69.1651 13.0474 5
    endloop
  endfacet
  facet normal -0.707106 0.707107 0
    outer loop
      vertex 68.458 12.3403 5
      vertex 69.1651 13.0474 0
      vertex 68.458 12.3403 0
    endloop
  endfacet
  facet normal 0.70713 -0.707084 0
    outer loop
      vertex 74.9634 5.83491 5
      vertex 75 5.87154 0
      vertex 75 5.87154 5
    endloop
  endfacet
  facet normal 0.70713 -0.707084 0
    outer loop
      vertex 75 5.87154 0
      vertex 74.9634 5.83491 5
      vertex 74.9634 5.83491 0
    endloop
  endfacet
  facet normal 0.707107 0.707107 -0
    outer loop
      vertex 75 7.21249 0
      vertex 69.1651 13.0474 5
      vertex 75 7.21249 5
    endloop
  endfacet
  facet normal 0.707107 0.707107 0
    outer loop
      vertex 69.1651 13.0474 5
      vertex 75 7.21249 0
      vertex 69.1651 13.0474 0
    endloop
  endfacet
  facet normal 1 0 0
    outer loop
      vertex 74 1 5.5
      vertex 74 6.79828 6
      vertex 74 1 6
    endloop
  endfacet
  facet normal 1 0 0
    outer loop
      vertex 74 6.79828 6
      vertex 74 1 5.5
      vertex 74 6.79828 5
    endloop
  endfacet
  facet normal 1 0 0
    outer loop
      vertex 74 6.79828 5
      vertex 74 1 5.5
      vertex 74 1 5
    endloop
  endfacet
  facet normal 0 1 0
    outer loop
      vertex 6.79828 74 6
      vertex 1 74 5.5
      vertex 1 74 6
    endloop
  endfacet
  facet normal 0 1 -0
    outer loop
      vertex 6.79828 74 5
      vertex 1 74 5.5
      vertex 6.79828 74 6
    endloop
  endfacet
  facet normal 0 1 0
    outer loop
      vertex 1 74 5.5
      vertex 6.79828 74 5
      vertex 1 74 5
    endloop
  endfacet
  facet normal 1 -0 0
    outer loop
      vertex 75 0 5
      vertex 75 5.79828 0
      vertex 75 5.79828 5
    endloop
  endfacet
  facet normal 1 0 0
    outer loop
      vertex 75 5.79828 0
      vertex 75 0 5
      vertex 75 0 0
    endloop
  endfacet
  facet normal 1 -0 0
    outer loop
      vertex 75 5.87154 5
      vertex 75 7.21249 0
      vertex 75 7.21249 5
    endloop
  endfacet
  facet normal 1 0 0
    outer loop
      vertex 75 7.21249 0
      vertex 75 5.87154 5
      vertex 75 5.87154 0
    endloop
  endfacet
  facet normal 0 1 -0
    outer loop
      vertex 7.21249 75 0
      vertex 0 75 5
      vertex 7.21249 75 5
    endloop
  endfacet
  facet normal 0 1 0
    outer loop
      vertex 0 75 5
      vertex 7.21249 75 0
      vertex 0 75 0
    endloop
  endfacet
endsolid OpenSCAD_Model
