solid OpenSCAD_Model
  facet normal 0 0 -1
    outer loop
      vertex 0 5.7 5.6
      vertex 2 6.7 5.6
      vertex 2 5.7 5.6
    endloop
  endfacet
  facet normal -0 0 -1
    outer loop
      vertex 2 6.7 5.6
      vertex 0 5.7 5.6
      vertex 2 18.7 5.6
    endloop
  endfacet
  facet normal 0 0 -1
    outer loop
      vertex 0 19.7 5.6
      vertex 2 18.7 5.6
      vertex 0 5.7 5.6
    endloop
  endfacet
  facet normal 0 0 -1
    outer loop
      vertex 2 18.7 5.6
      vertex 0 19.7 5.6
      vertex 2 19.7 5.6
    endloop
  endfacet
  facet normal 0 0 -1
    outer loop
      vertex 5.01 7.7 5.6
      vertex 7.55 17.7 5.6
      vertex 7.55 7.7 5.6
    endloop
  endfacet
  facet normal 0 0 -1
    outer loop
      vertex 5.01 7.7 5.6
      vertex 5.01 17.7 5.6
      vertex 7.55 17.7 5.6
    endloop
  endfacet
  facet normal 0 0 -1
    outer loop
      vertex 2 6.7 5.6
      vertex 5.01 17.7 5.6
      vertex 5.01 7.7 5.6
    endloop
  endfacet
  facet normal -0 0 -1
    outer loop
      vertex 5.01 17.7 5.6
      vertex 2 6.7 5.6
      vertex 2 18.7 5.6
    endloop
  endfacet
  facet normal -1 0 0
    outer loop
      vertex 2 5.7 1.4
      vertex 2 6.7 5.6
      vertex 2 6.7 1.4
    endloop
  endfacet
  facet normal -1 -0 0
    outer loop
      vertex 2 6.7 5.6
      vertex 2 5.7 1.4
      vertex 2 5.7 5.6
    endloop
  endfacet
  facet normal -1 0 0
    outer loop
      vertex 2 18.7 1.4
      vertex 2 19.7 5.6
      vertex 2 19.7 1.4
    endloop
  endfacet
  facet normal -1 -0 0
    outer loop
      vertex 2 19.7 5.6
      vertex 2 18.7 1.4
      vertex 2 18.7 5.6
    endloop
  endfacet
  facet normal 0 -1 0
    outer loop
      vertex 0 19.7 1.4
      vertex 2 19.7 5.6
      vertex 0 19.7 5.6
    endloop
  endfacet
  facet normal 0 -1 -0
    outer loop
      vertex 2 19.7 5.6
      vertex 0 19.7 1.4
      vertex 2 19.7 1.4
    endloop
  endfacet
  facet normal -0 0 1
    outer loop
      vertex 0 19.7 1.4
      vertex 2 18.7 1.4
      vertex 2 19.7 1.4
    endloop
  endfacet
  facet normal 0 0 1
    outer loop
      vertex 2 18.7 1.4
      vertex 0 19.7 1.4
      vertex 2 6.7 1.4
    endloop
  endfacet
  facet normal 0 0 1
    outer loop
      vertex 0 5.7 1.4
      vertex 2 6.7 1.4
      vertex 0 19.7 1.4
    endloop
  endfacet
  facet normal 0 0 1
    outer loop
      vertex 2 6.7 1.4
      vertex 0 5.7 1.4
      vertex 2 5.7 1.4
    endloop
  endfacet
  facet normal -0 0 1
    outer loop
      vertex 5.01 17.7 1.4
      vertex 7.55 7.7 1.4
      vertex 7.55 17.7 1.4
    endloop
  endfacet
  facet normal 0 0 1
    outer loop
      vertex 5.01 17.7 1.4
      vertex 5.01 7.7 1.4
      vertex 7.55 7.7 1.4
    endloop
  endfacet
  facet normal 0 0 1
    outer loop
      vertex 2 18.7 1.4
      vertex 5.01 7.7 1.4
      vertex 5.01 17.7 1.4
    endloop
  endfacet
  facet normal 0 0 1
    outer loop
      vertex 5.01 7.7 1.4
      vertex 2 18.7 1.4
      vertex 2 6.7 1.4
    endloop
  endfacet
  facet normal 0 1 -0
    outer loop
      vertex 2 5.7 1.4
      vertex 0 5.7 5.6
      vertex 2 5.7 5.6
    endloop
  endfacet
  facet normal 0 1 0
    outer loop
      vertex 0 5.7 5.6
      vertex 2 5.7 1.4
      vertex 0 5.7 1.4
    endloop
  endfacet
  facet normal -0.315282 0.948998 0
    outer loop
      vertex 5.01 7.7 1.4
      vertex 2 6.7 5.6
      vertex 5.01 7.7 5.6
    endloop
  endfacet
  facet normal -0.315282 0.948998 0
    outer loop
      vertex 2 6.7 5.6
      vertex 5.01 7.7 1.4
      vertex 2 6.7 1.4
    endloop
  endfacet
  facet normal -0.315282 -0.948998 0
    outer loop
      vertex 2 18.7 1.4
      vertex 5.01 17.7 5.6
      vertex 2 18.7 5.6
    endloop
  endfacet
  facet normal -0.315282 -0.948998 -0
    outer loop
      vertex 5.01 17.7 5.6
      vertex 2 18.7 1.4
      vertex 5.01 17.7 1.4
    endloop
  endfacet
  facet normal 0 -1 0
    outer loop
      vertex 5.01 17.7 1.4
      vertex 7.55 17.7 5.6
      vertex 5.01 17.7 5.6
    endloop
  endfacet
  facet normal 0 -1 -0
    outer loop
      vertex 7.55 17.7 5.6
      vertex 5.01 17.7 1.4
      vertex 7.55 17.7 1.4
    endloop
  endfacet
  facet normal 0 1 -0
    outer loop
      vertex 7.55 7.7 1.4
      vertex 5.01 7.7 5.6
      vertex 7.55 7.7 5.6
    endloop
  endfacet
  facet normal 0 1 0
    outer loop
      vertex 5.01 7.7 5.6
      vertex 7.55 7.7 1.4
      vertex 5.01 7.7 1.4
    endloop
  endfacet
  facet normal 0 0 -1
    outer loop
      vertex 32.4 0 5.6
      vertex 31.4 2 5.6
      vertex 32.4 2 5.6
    endloop
  endfacet
  facet normal 0 0 -1
    outer loop
      vertex 30.4 5.01 5.6
      vertex 20.4 5.01 5.6
      vertex 30.4 7.55 5.6
    endloop
  endfacet
  facet normal 0 0 -1
    outer loop
      vertex 31.4 2 5.6
      vertex 20.4 5.01 5.6
      vertex 30.4 5.01 5.6
    endloop
  endfacet
  facet normal 0 0 -1
    outer loop
      vertex 19.4 2 5.6
      vertex 31.4 2 5.6
      vertex 32.4 0 5.6
    endloop
  endfacet
  facet normal 0 0 -1
    outer loop
      vertex 31.4 2 5.6
      vertex 19.4 2 5.6
      vertex 20.4 5.01 5.6
    endloop
  endfacet
  facet normal 0 0 -1
    outer loop
      vertex 18.4 0 5.6
      vertex 19.4 2 5.6
      vertex 32.4 0 5.6
    endloop
  endfacet
  facet normal -0 0 -1
    outer loop
      vertex 19.4 2 5.6
      vertex 18.4 0 5.6
      vertex 18.4 2 5.6
    endloop
  endfacet
  facet normal -0 0 -1
    outer loop
      vertex 30.4 7.55 5.6
      vertex 20.4 5.01 5.6
      vertex 20.4 7.55 5.6
    endloop
  endfacet
  facet normal 0 -1 0
    outer loop
      vertex 31.4 2 1.4
      vertex 32.4 2 5.6
      vertex 31.4 2 5.6
    endloop
  endfacet
  facet normal 0 -1 -0
    outer loop
      vertex 32.4 2 5.6
      vertex 31.4 2 1.4
      vertex 32.4 2 1.4
    endloop
  endfacet
  facet normal 0 -1 0
    outer loop
      vertex 18.4 2 1.4
      vertex 19.4 2 5.6
      vertex 18.4 2 5.6
    endloop
  endfacet
  facet normal 0 -1 -0
    outer loop
      vertex 19.4 2 5.6
      vertex 18.4 2 1.4
      vertex 19.4 2 1.4
    endloop
  endfacet
  facet normal 1 -0 0
    outer loop
      vertex 18.4 0 5.6
      vertex 18.4 2 1.4
      vertex 18.4 2 5.6
    endloop
  endfacet
  facet normal 1 0 0
    outer loop
      vertex 18.4 2 1.4
      vertex 18.4 0 5.6
      vertex 18.4 0 1.4
    endloop
  endfacet
  facet normal 0 0 1
    outer loop
      vertex 30.4 7.55 1.4
      vertex 20.4 7.55 1.4
      vertex 30.4 5.01 1.4
    endloop
  endfacet
  facet normal -0 0 1
    outer loop
      vertex 31.4 2 1.4
      vertex 32.4 0 1.4
      vertex 32.4 2 1.4
    endloop
  endfacet
  facet normal 0 0 1
    outer loop
      vertex 20.4 5.01 1.4
      vertex 30.4 5.01 1.4
      vertex 20.4 7.55 1.4
    endloop
  endfacet
  facet normal 0 0 1
    outer loop
      vertex 30.4 5.01 1.4
      vertex 20.4 5.01 1.4
      vertex 31.4 2 1.4
    endloop
  endfacet
  facet normal 0 0 1
    outer loop
      vertex 19.4 2 1.4
      vertex 31.4 2 1.4
      vertex 20.4 5.01 1.4
    endloop
  endfacet
  facet normal 0 0 1
    outer loop
      vertex 31.4 2 1.4
      vertex 19.4 2 1.4
      vertex 32.4 0 1.4
    endloop
  endfacet
  facet normal 0 0 1
    outer loop
      vertex 18.4 0 1.4
      vertex 19.4 2 1.4
      vertex 18.4 2 1.4
    endloop
  endfacet
  facet normal 0 0 1
    outer loop
      vertex 19.4 2 1.4
      vertex 18.4 0 1.4
      vertex 32.4 0 1.4
    endloop
  endfacet
  facet normal -1 0 0
    outer loop
      vertex 32.4 0 1.4
      vertex 32.4 2 5.6
      vertex 32.4 2 1.4
    endloop
  endfacet
  facet normal -1 -0 0
    outer loop
      vertex 32.4 2 5.6
      vertex 32.4 0 1.4
      vertex 32.4 0 5.6
    endloop
  endfacet
  facet normal -0.948998 -0.315282 0
    outer loop
      vertex 31.4 2 1.4
      vertex 30.4 5.01 5.6
      vertex 30.4 5.01 1.4
    endloop
  endfacet
  facet normal -0.948998 -0.315282 0
    outer loop
      vertex 30.4 5.01 5.6
      vertex 31.4 2 1.4
      vertex 31.4 2 5.6
    endloop
  endfacet
  facet normal 0.948998 -0.315282 0
    outer loop
      vertex 19.4 2 5.6
      vertex 20.4 5.01 1.4
      vertex 20.4 5.01 5.6
    endloop
  endfacet
  facet normal 0.948998 -0.315282 0
    outer loop
      vertex 20.4 5.01 1.4
      vertex 19.4 2 5.6
      vertex 19.4 2 1.4
    endloop
  endfacet
  facet normal 1 -0 0
    outer loop
      vertex 20.4 5.01 5.6
      vertex 20.4 7.55 1.4
      vertex 20.4 7.55 5.6
    endloop
  endfacet
  facet normal 1 0 0
    outer loop
      vertex 20.4 7.55 1.4
      vertex 20.4 5.01 5.6
      vertex 20.4 5.01 1.4
    endloop
  endfacet
  facet normal -1 0 0
    outer loop
      vertex 30.4 5.01 1.4
      vertex 30.4 7.55 5.6
      vertex 30.4 7.55 1.4
    endloop
  endfacet
  facet normal -1 -0 0
    outer loop
      vertex 30.4 7.55 5.6
      vertex 30.4 5.01 1.4
      vertex 30.4 5.01 5.6
    endloop
  endfacet
  facet normal 0 0 -1
    outer loop
      vertex 30.4 17.85 5.6
      vertex 20.4 17.85 5.6
      vertex 30.4 20.39 5.6
    endloop
  endfacet
  facet normal 0 0 -1
    outer loop
      vertex 31.4 23.4 5.6
      vertex 32.4 25.4 5.6
      vertex 32.4 23.4 5.6
    endloop
  endfacet
  facet normal 0 0 -1
    outer loop
      vertex 20.4 20.39 5.6
      vertex 30.4 20.39 5.6
      vertex 20.4 17.85 5.6
    endloop
  endfacet
  facet normal 0 0 -1
    outer loop
      vertex 30.4 20.39 5.6
      vertex 20.4 20.39 5.6
      vertex 31.4 23.4 5.6
    endloop
  endfacet
  facet normal 0 0 -1
    outer loop
      vertex 19.4 23.4 5.6
      vertex 31.4 23.4 5.6
      vertex 20.4 20.39 5.6
    endloop
  endfacet
  facet normal 0 0 -1
    outer loop
      vertex 31.4 23.4 5.6
      vertex 19.4 23.4 5.6
      vertex 32.4 25.4 5.6
    endloop
  endfacet
  facet normal 0 0 -1
    outer loop
      vertex 18.4 25.4 5.6
      vertex 19.4 23.4 5.6
      vertex 18.4 23.4 5.6
    endloop
  endfacet
  facet normal 0 0 -1
    outer loop
      vertex 19.4 23.4 5.6
      vertex 18.4 25.4 5.6
      vertex 32.4 25.4 5.6
    endloop
  endfacet
  facet normal 0 1 -0
    outer loop
      vertex 19.4 23.4 1.4
      vertex 18.4 23.4 5.6
      vertex 19.4 23.4 5.6
    endloop
  endfacet
  facet normal 0 1 0
    outer loop
      vertex 18.4 23.4 5.6
      vertex 19.4 23.4 1.4
      vertex 18.4 23.4 1.4
    endloop
  endfacet
  facet normal 0 1 -0
    outer loop
      vertex 32.4 23.4 1.4
      vertex 31.4 23.4 5.6
      vertex 32.4 23.4 5.6
    endloop
  endfacet
  facet normal 0 1 0
    outer loop
      vertex 31.4 23.4 5.6
      vertex 32.4 23.4 1.4
      vertex 31.4 23.4 1.4
    endloop
  endfacet
  facet normal -1 0 0
    outer loop
      vertex 32.4 23.4 1.4
      vertex 32.4 25.4 5.6
      vertex 32.4 25.4 1.4
    endloop
  endfacet
  facet normal -1 -0 0
    outer loop
      vertex 32.4 25.4 5.6
      vertex 32.4 23.4 1.4
      vertex 32.4 23.4 5.6
    endloop
  endfacet
  facet normal 0 0 1
    outer loop
      vertex 32.4 25.4 1.4
      vertex 31.4 23.4 1.4
      vertex 32.4 23.4 1.4
    endloop
  endfacet
  facet normal 0 0 1
    outer loop
      vertex 30.4 20.39 1.4
      vertex 20.4 20.39 1.4
      vertex 30.4 17.85 1.4
    endloop
  endfacet
  facet normal 0 0 1
    outer loop
      vertex 31.4 23.4 1.4
      vertex 20.4 20.39 1.4
      vertex 30.4 20.39 1.4
    endloop
  endfacet
  facet normal 0 0 1
    outer loop
      vertex 19.4 23.4 1.4
      vertex 31.4 23.4 1.4
      vertex 32.4 25.4 1.4
    endloop
  endfacet
  facet normal 0 0 1
    outer loop
      vertex 31.4 23.4 1.4
      vertex 19.4 23.4 1.4
      vertex 20.4 20.39 1.4
    endloop
  endfacet
  facet normal -0 0 1
    outer loop
      vertex 18.4 25.4 1.4
      vertex 19.4 23.4 1.4
      vertex 32.4 25.4 1.4
    endloop
  endfacet
  facet normal 0 0 1
    outer loop
      vertex 19.4 23.4 1.4
      vertex 18.4 25.4 1.4
      vertex 18.4 23.4 1.4
    endloop
  endfacet
  facet normal 0 0 1
    outer loop
      vertex 30.4 17.85 1.4
      vertex 20.4 20.39 1.4
      vertex 20.4 17.85 1.4
    endloop
  endfacet
  facet normal 1 -0 0
    outer loop
      vertex 18.4 23.4 5.6
      vertex 18.4 25.4 1.4
      vertex 18.4 25.4 5.6
    endloop
  endfacet
  facet normal 1 0 0
    outer loop
      vertex 18.4 25.4 1.4
      vertex 18.4 23.4 5.6
      vertex 18.4 23.4 1.4
    endloop
  endfacet
  facet normal 0.948998 0.315282 0
    outer loop
      vertex 20.4 20.39 5.6
      vertex 19.4 23.4 1.4
      vertex 19.4 23.4 5.6
    endloop
  endfacet
  facet normal 0.948998 0.315282 0
    outer loop
      vertex 19.4 23.4 1.4
      vertex 20.4 20.39 5.6
      vertex 20.4 20.39 1.4
    endloop
  endfacet
  facet normal -0.948998 0.315282 0
    outer loop
      vertex 30.4 20.39 1.4
      vertex 31.4 23.4 5.6
      vertex 31.4 23.4 1.4
    endloop
  endfacet
  facet normal -0.948998 0.315282 0
    outer loop
      vertex 31.4 23.4 5.6
      vertex 30.4 20.39 1.4
      vertex 30.4 20.39 5.6
    endloop
  endfacet
  facet normal -1 0 0
    outer loop
      vertex 30.4 17.85 1.4
      vertex 30.4 20.39 5.6
      vertex 30.4 20.39 1.4
    endloop
  endfacet
  facet normal -1 -0 0
    outer loop
      vertex 30.4 20.39 5.6
      vertex 30.4 17.85 1.4
      vertex 30.4 17.85 5.6
    endloop
  endfacet
  facet normal 1 -0 0
    outer loop
      vertex 20.4 17.85 5.6
      vertex 20.4 20.39 1.4
      vertex 20.4 20.39 5.6
    endloop
  endfacet
  facet normal 1 0 0
    outer loop
      vertex 20.4 20.39 1.4
      vertex 20.4 17.85 5.6
      vertex 20.4 17.85 1.4
    endloop
  endfacet
  facet normal 0 0 -1
    outer loop
      vertex 57.8 0 5.6
      vertex 56.8 2 5.6
      vertex 57.8 2 5.6
    endloop
  endfacet
  facet normal 0 0 -1
    outer loop
      vertex 55.8 5.01 5.6
      vertex 45.8 5.01 5.6
      vertex 55.8 7.55 5.6
    endloop
  endfacet
  facet normal 0 0 -1
    outer loop
      vertex 56.8 2 5.6
      vertex 45.8 5.01 5.6
      vertex 55.8 5.01 5.6
    endloop
  endfacet
  facet normal 0 0 -1
    outer loop
      vertex 44.8 2 5.6
      vertex 56.8 2 5.6
      vertex 57.8 0 5.6
    endloop
  endfacet
  facet normal 0 0 -1
    outer loop
      vertex 56.8 2 5.6
      vertex 44.8 2 5.6
      vertex 45.8 5.01 5.6
    endloop
  endfacet
  facet normal 0 0 -1
    outer loop
      vertex 43.8 0 5.6
      vertex 44.8 2 5.6
      vertex 57.8 0 5.6
    endloop
  endfacet
  facet normal -0 0 -1
    outer loop
      vertex 44.8 2 5.6
      vertex 43.8 0 5.6
      vertex 43.8 2 5.6
    endloop
  endfacet
  facet normal -0 0 -1
    outer loop
      vertex 55.8 7.55 5.6
      vertex 45.8 5.01 5.6
      vertex 45.8 7.55 5.6
    endloop
  endfacet
  facet normal 0 -1 0
    outer loop
      vertex 56.8 2 1.4
      vertex 57.8 2 5.6
      vertex 56.8 2 5.6
    endloop
  endfacet
  facet normal 0 -1 -0
    outer loop
      vertex 57.8 2 5.6
      vertex 56.8 2 1.4
      vertex 57.8 2 1.4
    endloop
  endfacet
  facet normal 0 -1 0
    outer loop
      vertex 43.8 2 1.4
      vertex 44.8 2 5.6
      vertex 43.8 2 5.6
    endloop
  endfacet
  facet normal 0 -1 -0
    outer loop
      vertex 44.8 2 5.6
      vertex 43.8 2 1.4
      vertex 44.8 2 1.4
    endloop
  endfacet
  facet normal 1 -0 0
    outer loop
      vertex 43.8 0 5.6
      vertex 43.8 2 1.4
      vertex 43.8 2 5.6
    endloop
  endfacet
  facet normal 1 0 0
    outer loop
      vertex 43.8 2 1.4
      vertex 43.8 0 5.6
      vertex 43.8 0 1.4
    endloop
  endfacet
  facet normal 0 0 1
    outer loop
      vertex 55.8 7.55 1.4
      vertex 45.8 7.55 1.4
      vertex 55.8 5.01 1.4
    endloop
  endfacet
  facet normal -0 0 1
    outer loop
      vertex 56.8 2 1.4
      vertex 57.8 0 1.4
      vertex 57.8 2 1.4
    endloop
  endfacet
  facet normal 0 0 1
    outer loop
      vertex 45.8 5.01 1.4
      vertex 55.8 5.01 1.4
      vertex 45.8 7.55 1.4
    endloop
  endfacet
  facet normal 0 0 1
    outer loop
      vertex 55.8 5.01 1.4
      vertex 45.8 5.01 1.4
      vertex 56.8 2 1.4
    endloop
  endfacet
  facet normal 0 0 1
    outer loop
      vertex 44.8 2 1.4
      vertex 56.8 2 1.4
      vertex 45.8 5.01 1.4
    endloop
  endfacet
  facet normal 0 0 1
    outer loop
      vertex 56.8 2 1.4
      vertex 44.8 2 1.4
      vertex 57.8 0 1.4
    endloop
  endfacet
  facet normal 0 0 1
    outer loop
      vertex 43.8 0 1.4
      vertex 44.8 2 1.4
      vertex 43.8 2 1.4
    endloop
  endfacet
  facet normal 0 0 1
    outer loop
      vertex 44.8 2 1.4
      vertex 43.8 0 1.4
      vertex 57.8 0 1.4
    endloop
  endfacet
  facet normal -1 0 0
    outer loop
      vertex 57.8 0 1.4
      vertex 57.8 2 5.6
      vertex 57.8 2 1.4
    endloop
  endfacet
  facet normal -1 -0 0
    outer loop
      vertex 57.8 2 5.6
      vertex 57.8 0 1.4
      vertex 57.8 0 5.6
    endloop
  endfacet
  facet normal -0.948998 -0.315282 0
    outer loop
      vertex 56.8 2 1.4
      vertex 55.8 5.01 5.6
      vertex 55.8 5.01 1.4
    endloop
  endfacet
  facet normal -0.948998 -0.315282 0
    outer loop
      vertex 55.8 5.01 5.6
      vertex 56.8 2 1.4
      vertex 56.8 2 5.6
    endloop
  endfacet
  facet normal 0.948998 -0.315282 0
    outer loop
      vertex 44.8 2 5.6
      vertex 45.8 5.01 1.4
      vertex 45.8 5.01 5.6
    endloop
  endfacet
  facet normal 0.948998 -0.315282 0
    outer loop
      vertex 45.8 5.01 1.4
      vertex 44.8 2 5.6
      vertex 44.8 2 1.4
    endloop
  endfacet
  facet normal 1 -0 0
    outer loop
      vertex 45.8 5.01 5.6
      vertex 45.8 7.55 1.4
      vertex 45.8 7.55 5.6
    endloop
  endfacet
  facet normal 1 0 0
    outer loop
      vertex 45.8 7.55 1.4
      vertex 45.8 5.01 5.6
      vertex 45.8 5.01 1.4
    endloop
  endfacet
  facet normal -1 0 0
    outer loop
      vertex 55.8 5.01 1.4
      vertex 55.8 7.55 5.6
      vertex 55.8 7.55 1.4
    endloop
  endfacet
  facet normal -1 -0 0
    outer loop
      vertex 55.8 7.55 5.6
      vertex 55.8 5.01 1.4
      vertex 55.8 5.01 5.6
    endloop
  endfacet
  facet normal 0 0 -1
    outer loop
      vertex 55.8 17.85 5.6
      vertex 45.8 17.85 5.6
      vertex 55.8 20.39 5.6
    endloop
  endfacet
  facet normal 0 0 -1
    outer loop
      vertex 56.8 23.4 5.6
      vertex 57.8 25.4 5.6
      vertex 57.8 23.4 5.6
    endloop
  endfacet
  facet normal 0 0 -1
    outer loop
      vertex 45.8 20.39 5.6
      vertex 55.8 20.39 5.6
      vertex 45.8 17.85 5.6
    endloop
  endfacet
  facet normal 0 0 -1
    outer loop
      vertex 55.8 20.39 5.6
      vertex 45.8 20.39 5.6
      vertex 56.8 23.4 5.6
    endloop
  endfacet
  facet normal 0 0 -1
    outer loop
      vertex 44.8 23.4 5.6
      vertex 56.8 23.4 5.6
      vertex 45.8 20.39 5.6
    endloop
  endfacet
  facet normal 0 0 -1
    outer loop
      vertex 56.8 23.4 5.6
      vertex 44.8 23.4 5.6
      vertex 57.8 25.4 5.6
    endloop
  endfacet
  facet normal 0 0 -1
    outer loop
      vertex 43.8 25.4 5.6
      vertex 44.8 23.4 5.6
      vertex 43.8 23.4 5.6
    endloop
  endfacet
  facet normal 0 0 -1
    outer loop
      vertex 44.8 23.4 5.6
      vertex 43.8 25.4 5.6
      vertex 57.8 25.4 5.6
    endloop
  endfacet
  facet normal 0 1 -0
    outer loop
      vertex 44.8 23.4 1.4
      vertex 43.8 23.4 5.6
      vertex 44.8 23.4 5.6
    endloop
  endfacet
  facet normal 0 1 0
    outer loop
      vertex 43.8 23.4 5.6
      vertex 44.8 23.4 1.4
      vertex 43.8 23.4 1.4
    endloop
  endfacet
  facet normal 0 1 -0
    outer loop
      vertex 57.8 23.4 1.4
      vertex 56.8 23.4 5.6
      vertex 57.8 23.4 5.6
    endloop
  endfacet
  facet normal 0 1 0
    outer loop
      vertex 56.8 23.4 5.6
      vertex 57.8 23.4 1.4
      vertex 56.8 23.4 1.4
    endloop
  endfacet
  facet normal -1 0 0
    outer loop
      vertex 57.8 23.4 1.4
      vertex 57.8 25.4 5.6
      vertex 57.8 25.4 1.4
    endloop
  endfacet
  facet normal -1 -0 0
    outer loop
      vertex 57.8 25.4 5.6
      vertex 57.8 23.4 1.4
      vertex 57.8 23.4 5.6
    endloop
  endfacet
  facet normal 0 0 1
    outer loop
      vertex 57.8 25.4 1.4
      vertex 56.8 23.4 1.4
      vertex 57.8 23.4 1.4
    endloop
  endfacet
  facet normal 0 0 1
    outer loop
      vertex 55.8 20.39 1.4
      vertex 45.8 20.39 1.4
      vertex 55.8 17.85 1.4
    endloop
  endfacet
  facet normal 0 0 1
    outer loop
      vertex 56.8 23.4 1.4
      vertex 45.8 20.39 1.4
      vertex 55.8 20.39 1.4
    endloop
  endfacet
  facet normal 0 0 1
    outer loop
      vertex 44.8 23.4 1.4
      vertex 56.8 23.4 1.4
      vertex 57.8 25.4 1.4
    endloop
  endfacet
  facet normal 0 0 1
    outer loop
      vertex 56.8 23.4 1.4
      vertex 44.8 23.4 1.4
      vertex 45.8 20.39 1.4
    endloop
  endfacet
  facet normal -0 0 1
    outer loop
      vertex 43.8 25.4 1.4
      vertex 44.8 23.4 1.4
      vertex 57.8 25.4 1.4
    endloop
  endfacet
  facet normal 0 0 1
    outer loop
      vertex 44.8 23.4 1.4
      vertex 43.8 25.4 1.4
      vertex 43.8 23.4 1.4
    endloop
  endfacet
  facet normal 0 0 1
    outer loop
      vertex 55.8 17.85 1.4
      vertex 45.8 20.39 1.4
      vertex 45.8 17.85 1.4
    endloop
  endfacet
  facet normal 1 -0 0
    outer loop
      vertex 43.8 23.4 5.6
      vertex 43.8 25.4 1.4
      vertex 43.8 25.4 5.6
    endloop
  endfacet
  facet normal 1 0 0
    outer loop
      vertex 43.8 25.4 1.4
      vertex 43.8 23.4 5.6
      vertex 43.8 23.4 1.4
    endloop
  endfacet
  facet normal 0.948998 0.315282 0
    outer loop
      vertex 45.8 20.39 5.6
      vertex 44.8 23.4 1.4
      vertex 44.8 23.4 5.6
    endloop
  endfacet
  facet normal 0.948998 0.315282 0
    outer loop
      vertex 44.8 23.4 1.4
      vertex 45.8 20.39 5.6
      vertex 45.8 20.39 1.4
    endloop
  endfacet
  facet normal -0.948998 0.315282 0
    outer loop
      vertex 55.8 20.39 1.4
      vertex 56.8 23.4 5.6
      vertex 56.8 23.4 1.4
    endloop
  endfacet
  facet normal -0.948998 0.315282 0
    outer loop
      vertex 56.8 23.4 5.6
      vertex 55.8 20.39 1.4
      vertex 55.8 20.39 5.6
    endloop
  endfacet
  facet normal -1 0 0
    outer loop
      vertex 55.8 17.85 1.4
      vertex 55.8 20.39 5.6
      vertex 55.8 20.39 1.4
    endloop
  endfacet
  facet normal -1 -0 0
    outer loop
      vertex 55.8 20.39 5.6
      vertex 55.8 17.85 1.4
      vertex 55.8 17.85 5.6
    endloop
  endfacet
  facet normal 1 -0 0
    outer loop
      vertex 45.8 17.85 5.6
      vertex 45.8 20.39 1.4
      vertex 45.8 20.39 5.6
    endloop
  endfacet
  facet normal 1 0 0
    outer loop
      vertex 45.8 20.39 1.4
      vertex 45.8 17.85 5.6
      vertex 45.8 17.85 1.4
    endloop
  endfacet
  facet normal -1 0 0
    outer loop
      vertex 0 25.4 0
      vertex 0 20.7 5.5
      vertex 0 25.4 5.5
    endloop
  endfacet
  facet normal -1 0 0
    outer loop
      vertex 0 19.7 5.6
      vertex 0 20.7 5.5
      vertex 0 19.7 1.4
    endloop
  endfacet
  facet normal -1 0 0
    outer loop
      vertex 0 25.4 0
      vertex 0 19.7 1.4
      vertex 0 20.7 5.5
    endloop
  endfacet
  facet normal -1 0 0
    outer loop
      vertex 0 25.4 0
      vertex 0 5.7 1.4
      vertex 0 19.7 1.4
    endloop
  endfacet
  facet normal -1 0 0
    outer loop
      vertex 0 5.7 1.4
      vertex 0 4.7 5.5
      vertex 0 5.7 5.6
    endloop
  endfacet
  facet normal -1 0 0
    outer loop
      vertex 0 0 0
      vertex 0 5.7 1.4
      vertex 0 25.4 0
    endloop
  endfacet
  facet normal -1 0 0
    outer loop
      vertex 0 0 0
      vertex 0 4.7 5.5
      vertex 0 5.7 1.4
    endloop
  endfacet
  facet normal -1 -0 0
    outer loop
      vertex 0 4.7 5.5
      vertex 0 0 0
      vertex 0 0 5.5
    endloop
  endfacet
  facet normal -1 0 0
    outer loop
      vertex 0 20.7 5.5
      vertex 0 19.7 5.6
      vertex 0 20.7 6
    endloop
  endfacet
  facet normal -1 0 0
    outer loop
      vertex 0 5.7 5.6
      vertex 0 20.7 6
      vertex 0 19.7 5.6
    endloop
  endfacet
  facet normal -1 0 0
    outer loop
      vertex 0 5.7 5.6
      vertex 0 4.7 6
      vertex 0 20.7 6
    endloop
  endfacet
  facet normal -1 0 0
    outer loop
      vertex 0 4.7 6
      vertex 0 5.7 5.6
      vertex 0 4.7 5.5
    endloop
  endfacet
  facet normal 0 0 1
    outer loop
      vertex 1 4.7 5.5
      vertex 0 4.7 5.5
      vertex 1 1 5.5
    endloop
  endfacet
  facet normal -0 0 1
    outer loop
      vertex 1 1 5.5
      vertex 9.2 0 5.5
      vertex 9.2 1 5.5
    endloop
  endfacet
  facet normal 0 0 1
    outer loop
      vertex 1 1 5.5
      vertex 0 0 5.5
      vertex 9.2 0 5.5
    endloop
  endfacet
  facet normal 0 0 1
    outer loop
      vertex 0 0 5.5
      vertex 1 1 5.5
      vertex 0 4.7 5.5
    endloop
  endfacet
  facet normal 1 -0 0
    outer loop
      vertex 9.2 0 5.5
      vertex 9.2 1 0
      vertex 9.2 1 5.5
    endloop
  endfacet
  facet normal 1 0 0
    outer loop
      vertex 9.2 1 0
      vertex 9.2 0 5.5
      vertex 9.2 0 0
    endloop
  endfacet
  facet normal 0 0 -1
    outer loop
      vertex 39.8 0 0
      vertex 10.2 0 0
      vertex 39.8 1 0
    endloop
  endfacet
  facet normal 0 0 -1
    outer loop
      vertex 60.2 0 0
      vertex 40.8 0 0
      vertex 60.2 1 0
    endloop
  endfacet
  facet normal 0 0 -1
    outer loop
      vertex 90.8 0 0
      vertex 61.2 0 0
      vertex 90.8 1 0
    endloop
  endfacet
  facet normal 0 0 -1
    outer loop
      vertex 94.05 17.85 0
      vertex 90.8 24.4 0
      vertex 91.8 24.4 0
    endloop
  endfacet
  facet normal 0 0 -1
    outer loop
      vertex 90.8 24.4 0
      vertex 61.2 24.4 0
      vertex 90.8 25.4 0
    endloop
  endfacet
  facet normal 0 0 -1
    outer loop
      vertex 94.05 17.85 0
      vertex 61.2 24.4 0
      vertex 90.8 24.4 0
    endloop
  endfacet
  facet normal 0 0 -1
    outer loop
      vertex 94.05 17.85 0
      vertex 60.2 24.4 0
      vertex 61.2 24.4 0
    endloop
  endfacet
  facet normal 0 0 -1
    outer loop
      vertex 60.2 24.4 0
      vertex 40.8 24.4 0
      vertex 60.2 25.4 0
    endloop
  endfacet
  facet normal 0 0 -1
    outer loop
      vertex 94.05 17.85 0
      vertex 40.8 24.4 0
      vertex 60.2 24.4 0
    endloop
  endfacet
  facet normal 0 0 -1
    outer loop
      vertex 7.55 17.85 0
      vertex 40.8 24.4 0
      vertex 94.05 17.85 0
    endloop
  endfacet
  facet normal 0 0 -1
    outer loop
      vertex 39.8 24.4 0
      vertex 10.2 24.4 0
      vertex 39.8 25.4 0
    endloop
  endfacet
  facet normal -0 0 -1
    outer loop
      vertex 40.8 24.4 0
      vertex 7.55 17.85 0
      vertex 39.8 24.4 0
    endloop
  endfacet
  facet normal -0 0 -1
    outer loop
      vertex 39.8 24.4 0
      vertex 7.55 17.85 0
      vertex 10.2 24.4 0
    endloop
  endfacet
  facet normal -0 0 -1
    outer loop
      vertex 10.2 24.4 0
      vertex 7.55 17.85 0
      vertex 9.2 24.4 0
    endloop
  endfacet
  facet normal 0 0 -1
    outer loop
      vertex 0 25.4 0
      vertex 9.2 24.4 0
      vertex 7.55 17.85 0
    endloop
  endfacet
  facet normal 0 0 -1
    outer loop
      vertex 0 25.4 0
      vertex 7.55 17.85 0
      vertex 0 0 0
    endloop
  endfacet
  facet normal 0 0 -1
    outer loop
      vertex 9.2 24.4 0
      vertex 0 25.4 0
      vertex 9.2 25.4 0
    endloop
  endfacet
  facet normal 0 0 -1
    outer loop
      vertex 101.6 0 0
      vertex 94.05 7.55 0
      vertex 101.6 25.4 0
    endloop
  endfacet
  facet normal 0 0 -1
    outer loop
      vertex 91.8 1 0
      vertex 101.6 0 0
      vertex 91.8 0 0
    endloop
  endfacet
  facet normal 0 0 -1
    outer loop
      vertex 101.6 0 0
      vertex 91.8 1 0
      vertex 94.05 7.55 0
    endloop
  endfacet
  facet normal 0 0 -1
    outer loop
      vertex 90.8 1 0
      vertex 94.05 7.55 0
      vertex 91.8 1 0
    endloop
  endfacet
  facet normal 0 0 -1
    outer loop
      vertex 61.2 1 0
      vertex 90.8 1 0
      vertex 61.2 0 0
    endloop
  endfacet
  facet normal 0 0 -1
    outer loop
      vertex 90.8 1 0
      vertex 61.2 1 0
      vertex 94.05 7.55 0
    endloop
  endfacet
  facet normal 0 0 -1
    outer loop
      vertex 60.2 1 0
      vertex 94.05 7.55 0
      vertex 61.2 1 0
    endloop
  endfacet
  facet normal 0 0 -1
    outer loop
      vertex 40.8 1 0
      vertex 60.2 1 0
      vertex 40.8 0 0
    endloop
  endfacet
  facet normal 0 0 -1
    outer loop
      vertex 60.2 1 0
      vertex 40.8 1 0
      vertex 94.05 7.55 0
    endloop
  endfacet
  facet normal 0 0 -1
    outer loop
      vertex 7.55 7.55 0
      vertex 40.8 1 0
      vertex 39.8 1 0
    endloop
  endfacet
  facet normal 0 0 -1
    outer loop
      vertex 10.2 1 0
      vertex 39.8 1 0
      vertex 10.2 0 0
    endloop
  endfacet
  facet normal 0 0 -1
    outer loop
      vertex 7.55 7.55 0
      vertex 39.8 1 0
      vertex 10.2 1 0
    endloop
  endfacet
  facet normal 0 0 -1
    outer loop
      vertex 7.55 7.55 0
      vertex 10.2 1 0
      vertex 9.2 1 0
    endloop
  endfacet
  facet normal 0 0 -1
    outer loop
      vertex 40.8 1 0
      vertex 7.55 7.55 0
      vertex 94.05 7.55 0
    endloop
  endfacet
  facet normal 0 0 -1
    outer loop
      vertex 94.05 17.85 0
      vertex 101.6 25.4 0
      vertex 94.05 7.55 0
    endloop
  endfacet
  facet normal 0 0 -1
    outer loop
      vertex 91.8 24.4 0
      vertex 101.6 25.4 0
      vertex 94.05 17.85 0
    endloop
  endfacet
  facet normal -0 0 -1
    outer loop
      vertex 101.6 25.4 0
      vertex 91.8 24.4 0
      vertex 91.8 25.4 0
    endloop
  endfacet
  facet normal -0 0 -1
    outer loop
      vertex 90.8 25.4 0
      vertex 61.2 24.4 0
      vertex 61.2 25.4 0
    endloop
  endfacet
  facet normal -0 0 -1
    outer loop
      vertex 60.2 25.4 0
      vertex 40.8 24.4 0
      vertex 40.8 25.4 0
    endloop
  endfacet
  facet normal 0 0 -1
    outer loop
      vertex 0 0 0
      vertex 9.2 1 0
      vertex 9.2 0 0
    endloop
  endfacet
  facet normal -0 0 -1
    outer loop
      vertex 7.55 7.55 0
      vertex 0 0 0
      vertex 7.55 17.85 0
    endloop
  endfacet
  facet normal -0 0 -1
    outer loop
      vertex 9.2 1 0
      vertex 0 0 0
      vertex 7.55 7.55 0
    endloop
  endfacet
  facet normal -0 0 -1
    outer loop
      vertex 39.8 25.4 0
      vertex 10.2 24.4 0
      vertex 10.2 25.4 0
    endloop
  endfacet
  facet normal 0 -1 0
    outer loop
      vertex 91.8 0 0
      vertex 101.6 0 5.5
      vertex 91.8 0 5.5
    endloop
  endfacet
  facet normal 0 -1 -0
    outer loop
      vertex 101.6 0 5.5
      vertex 91.8 0 0
      vertex 101.6 0 0
    endloop
  endfacet
  facet normal 0 -1 0
    outer loop
      vertex 61.2 0 0
      vertex 68.2 0 5.5
      vertex 61.2 0 5.5
    endloop
  endfacet
  facet normal 0 -1 -0
    outer loop
      vertex 69.2 0 1.4
      vertex 61.2 0 0
      vertex 83.2 0 1.4
    endloop
  endfacet
  facet normal 0 -1 -0
    outer loop
      vertex 68.2 0 5.5
      vertex 61.2 0 0
      vertex 69.2 0 1.4
    endloop
  endfacet
  facet normal 0 -1 0
    outer loop
      vertex 68.2 0 6
      vertex 69.2 0 5.6
      vertex 84.2 0 6
    endloop
  endfacet
  facet normal 0 -1 0
    outer loop
      vertex 68.2 0 5.5
      vertex 69.2 0 5.6
      vertex 68.2 0 6
    endloop
  endfacet
  facet normal 0 -1 -0
    outer loop
      vertex 69.2 0 5.6
      vertex 68.2 0 5.5
      vertex 69.2 0 1.4
    endloop
  endfacet
  facet normal 0 -1 0
    outer loop
      vertex 83.2 0 5.6
      vertex 84.2 0 6
      vertex 69.2 0 5.6
    endloop
  endfacet
  facet normal 0 -1 0
    outer loop
      vertex 83.2 0 5.6
      vertex 84.2 0 5.5
      vertex 84.2 0 6
    endloop
  endfacet
  facet normal 0 -1 0
    outer loop
      vertex 83.2 0 1.4
      vertex 84.2 0 5.5
      vertex 83.2 0 5.6
    endloop
  endfacet
  facet normal 0 -1 0
    outer loop
      vertex 90.8 0 0
      vertex 84.2 0 5.5
      vertex 83.2 0 1.4
    endloop
  endfacet
  facet normal 0 -1 0
    outer loop
      vertex 84.2 0 5.5
      vertex 90.8 0 0
      vertex 90.8 0 5.5
    endloop
  endfacet
  facet normal 0 -1 0
    outer loop
      vertex 90.8 0 0
      vertex 83.2 0 1.4
      vertex 61.2 0 0
    endloop
  endfacet
  facet normal 0 -1 0
    outer loop
      vertex 40.8 0 5.5
      vertex 43.8 0 1.4
      vertex 42.8 0 5.5
    endloop
  endfacet
  facet normal 0 -1 0
    outer loop
      vertex 60.2 0 0
      vertex 43.8 0 1.4
      vertex 40.8 0 0
    endloop
  endfacet
  facet normal 0 -1 0
    outer loop
      vertex 40.8 0 0
      vertex 43.8 0 1.4
      vertex 40.8 0 5.5
    endloop
  endfacet
  facet normal 0 -1 0
    outer loop
      vertex 42.8 0 6
      vertex 43.8 0 5.6
      vertex 58.8 0 6
    endloop
  endfacet
  facet normal 0 -1 0
    outer loop
      vertex 42.8 0 5.5
      vertex 43.8 0 5.6
      vertex 42.8 0 6
    endloop
  endfacet
  facet normal 0 -1 -0
    outer loop
      vertex 43.8 0 5.6
      vertex 42.8 0 5.5
      vertex 43.8 0 1.4
    endloop
  endfacet
  facet normal 0 -1 0
    outer loop
      vertex 57.8 0 5.6
      vertex 58.8 0 6
      vertex 43.8 0 5.6
    endloop
  endfacet
  facet normal 0 -1 0
    outer loop
      vertex 57.8 0 5.6
      vertex 58.8 0 5.5
      vertex 58.8 0 6
    endloop
  endfacet
  facet normal 0 -1 0
    outer loop
      vertex 57.8 0 1.4
      vertex 58.8 0 5.5
      vertex 57.8 0 5.6
    endloop
  endfacet
  facet normal 0 -1 0
    outer loop
      vertex 57.8 0 1.4
      vertex 60.2 0 5.5
      vertex 58.8 0 5.5
    endloop
  endfacet
  facet normal 0 -1 0
    outer loop
      vertex 57.8 0 1.4
      vertex 60.2 0 0
      vertex 60.2 0 5.5
    endloop
  endfacet
  facet normal 0 -1 0
    outer loop
      vertex 43.8 0 1.4
      vertex 60.2 0 0
      vertex 57.8 0 1.4
    endloop
  endfacet
  facet normal 0 -1 0
    outer loop
      vertex 10.2 0 0
      vertex 17.4 0 5.5
      vertex 10.2 0 5.5
    endloop
  endfacet
  facet normal 0 -1 0
    outer loop
      vertex 39.8 0 0
      vertex 18.4 0 1.4
      vertex 10.2 0 0
    endloop
  endfacet
  facet normal 0 -1 -0
    outer loop
      vertex 17.4 0 5.5
      vertex 10.2 0 0
      vertex 18.4 0 1.4
    endloop
  endfacet
  facet normal 0 -1 0
    outer loop
      vertex 17.4 0 6
      vertex 18.4 0 5.6
      vertex 33.4 0 6
    endloop
  endfacet
  facet normal 0 -1 0
    outer loop
      vertex 17.4 0 5.5
      vertex 18.4 0 5.6
      vertex 17.4 0 6
    endloop
  endfacet
  facet normal 0 -1 -0
    outer loop
      vertex 18.4 0 5.6
      vertex 17.4 0 5.5
      vertex 18.4 0 1.4
    endloop
  endfacet
  facet normal 0 -1 0
    outer loop
      vertex 32.4 0 5.6
      vertex 33.4 0 6
      vertex 18.4 0 5.6
    endloop
  endfacet
  facet normal 0 -1 0
    outer loop
      vertex 32.4 0 5.6
      vertex 33.4 0 5.5
      vertex 33.4 0 6
    endloop
  endfacet
  facet normal 0 -1 0
    outer loop
      vertex 32.4 0 1.4
      vertex 33.4 0 5.5
      vertex 32.4 0 5.6
    endloop
  endfacet
  facet normal 0 -1 0
    outer loop
      vertex 39.8 0 0
      vertex 33.4 0 5.5
      vertex 32.4 0 1.4
    endloop
  endfacet
  facet normal 0 -1 0
    outer loop
      vertex 33.4 0 5.5
      vertex 39.8 0 0
      vertex 39.8 0 5.5
    endloop
  endfacet
  facet normal 0 -1 0
    outer loop
      vertex 18.4 0 1.4
      vertex 39.8 0 0
      vertex 32.4 0 1.4
    endloop
  endfacet
  facet normal 0 -1 0
    outer loop
      vertex 0 0 0
      vertex 9.2 0 5.5
      vertex 0 0 5.5
    endloop
  endfacet
  facet normal 0 -1 -0
    outer loop
      vertex 9.2 0 5.5
      vertex 0 0 0
      vertex 9.2 0 0
    endloop
  endfacet
  facet normal 0 0 1
    outer loop
      vertex 9.2 25.4 5.5
      vertex 1 24.4 5.5
      vertex 9.2 24.4 5.5
    endloop
  endfacet
  facet normal -0 0 1
    outer loop
      vertex 0 25.4 5.5
      vertex 1 24.4 5.5
      vertex 9.2 25.4 5.5
    endloop
  endfacet
  facet normal 0 0 1
    outer loop
      vertex 0 20.7 5.5
      vertex 1 24.4 5.5
      vertex 0 25.4 5.5
    endloop
  endfacet
  facet normal 0 0 1
    outer loop
      vertex 1 24.4 5.5
      vertex 0 20.7 5.5
      vertex 1 20.7 5.5
    endloop
  endfacet
  facet normal 1 -0 0
    outer loop
      vertex 9.2 24.4 5.5
      vertex 9.2 25.4 0
      vertex 9.2 25.4 5.5
    endloop
  endfacet
  facet normal 1 0 0
    outer loop
      vertex 9.2 25.4 0
      vertex 9.2 24.4 5.5
      vertex 9.2 24.4 0
    endloop
  endfacet
  facet normal -1 0 0
    outer loop
      vertex 10.2 0 0
      vertex 10.2 1 5.5
      vertex 10.2 1 0
    endloop
  endfacet
  facet normal -1 -0 0
    outer loop
      vertex 10.2 1 5.5
      vertex 10.2 0 0
      vertex 10.2 0 5.5
    endloop
  endfacet
  facet normal -0 0 1
    outer loop
      vertex 10.2 1 5.5
      vertex 17.4 0 5.5
      vertex 17.4 1 5.5
    endloop
  endfacet
  facet normal 0 0 1
    outer loop
      vertex 17.4 0 5.5
      vertex 10.2 1 5.5
      vertex 10.2 0 5.5
    endloop
  endfacet
  facet normal -1 0 0
    outer loop
      vertex 10.2 24.4 0
      vertex 10.2 25.4 5.5
      vertex 10.2 25.4 0
    endloop
  endfacet
  facet normal -1 -0 0
    outer loop
      vertex 10.2 25.4 5.5
      vertex 10.2 24.4 0
      vertex 10.2 24.4 5.5
    endloop
  endfacet
  facet normal -0 0 1
    outer loop
      vertex 10.2 25.4 5.5
      vertex 17.4 24.4 5.5
      vertex 17.4 25.4 5.5
    endloop
  endfacet
  facet normal 0 0 1
    outer loop
      vertex 17.4 24.4 5.5
      vertex 10.2 25.4 5.5
      vertex 10.2 24.4 5.5
    endloop
  endfacet
  facet normal -0 0 1
    outer loop
      vertex 33.4 1 5.5
      vertex 39.8 0 5.5
      vertex 39.8 1 5.5
    endloop
  endfacet
  facet normal 0 0 1
    outer loop
      vertex 39.8 0 5.5
      vertex 33.4 1 5.5
      vertex 33.4 0 5.5
    endloop
  endfacet
  facet normal 1 -0 0
    outer loop
      vertex 39.8 0 5.5
      vertex 39.8 1 0
      vertex 39.8 1 5.5
    endloop
  endfacet
  facet normal 1 0 0
    outer loop
      vertex 39.8 1 0
      vertex 39.8 0 5.5
      vertex 39.8 0 0
    endloop
  endfacet
  facet normal -0 0 1
    outer loop
      vertex 33.4 25.4 5.5
      vertex 39.8 24.4 5.5
      vertex 39.8 25.4 5.5
    endloop
  endfacet
  facet normal 0 0 1
    outer loop
      vertex 39.8 24.4 5.5
      vertex 33.4 25.4 5.5
      vertex 33.4 24.4 5.5
    endloop
  endfacet
  facet normal 1 -0 0
    outer loop
      vertex 39.8 24.4 5.5
      vertex 39.8 25.4 0
      vertex 39.8 25.4 5.5
    endloop
  endfacet
  facet normal 1 0 0
    outer loop
      vertex 39.8 25.4 0
      vertex 39.8 24.4 5.5
      vertex 39.8 24.4 0
    endloop
  endfacet
  facet normal -1 0 0
    outer loop
      vertex 40.8 0 0
      vertex 40.8 1 5.5
      vertex 40.8 1 0
    endloop
  endfacet
  facet normal -1 -0 0
    outer loop
      vertex 40.8 1 5.5
      vertex 40.8 0 0
      vertex 40.8 0 5.5
    endloop
  endfacet
  facet normal -0 0 1
    outer loop
      vertex 40.8 1 5.5
      vertex 42.8 0 5.5
      vertex 42.8 1 5.5
    endloop
  endfacet
  facet normal 0 0 1
    outer loop
      vertex 42.8 0 5.5
      vertex 40.8 1 5.5
      vertex 40.8 0 5.5
    endloop
  endfacet
  facet normal -1 0 0
    outer loop
      vertex 40.8 24.4 0
      vertex 40.8 25.4 5.5
      vertex 40.8 25.4 0
    endloop
  endfacet
  facet normal -1 -0 0
    outer loop
      vertex 40.8 25.4 5.5
      vertex 40.8 24.4 0
      vertex 40.8 24.4 5.5
    endloop
  endfacet
  facet normal -0 0 1
    outer loop
      vertex 40.8 25.4 5.5
      vertex 42.8 24.4 5.5
      vertex 42.8 25.4 5.5
    endloop
  endfacet
  facet normal 0 0 1
    outer loop
      vertex 42.8 24.4 5.5
      vertex 40.8 25.4 5.5
      vertex 40.8 24.4 5.5
    endloop
  endfacet
  facet normal -0 0 1
    outer loop
      vertex 58.8 1 5.5
      vertex 60.2 0 5.5
      vertex 60.2 1 5.5
    endloop
  endfacet
  facet normal 0 0 1
    outer loop
      vertex 60.2 0 5.5
      vertex 58.8 1 5.5
      vertex 58.8 0 5.5
    endloop
  endfacet
  facet normal 1 -0 0
    outer loop
      vertex 60.2 0 5.5
      vertex 60.2 1 0
      vertex 60.2 1 5.5
    endloop
  endfacet
  facet normal 1 0 0
    outer loop
      vertex 60.2 1 0
      vertex 60.2 0 5.5
      vertex 60.2 0 0
    endloop
  endfacet
  facet normal -0 0 1
    outer loop
      vertex 58.8 25.4 5.5
      vertex 60.2 24.4 5.5
      vertex 60.2 25.4 5.5
    endloop
  endfacet
  facet normal 0 0 1
    outer loop
      vertex 60.2 24.4 5.5
      vertex 58.8 25.4 5.5
      vertex 58.8 24.4 5.5
    endloop
  endfacet
  facet normal 1 -0 0
    outer loop
      vertex 60.2 24.4 5.5
      vertex 60.2 25.4 0
      vertex 60.2 25.4 5.5
    endloop
  endfacet
  facet normal 1 0 0
    outer loop
      vertex 60.2 25.4 0
      vertex 60.2 24.4 5.5
      vertex 60.2 24.4 0
    endloop
  endfacet
  facet normal -1 0 0
    outer loop
      vertex 61.2 0 0
      vertex 61.2 1 5.5
      vertex 61.2 1 0
    endloop
  endfacet
  facet normal -1 -0 0
    outer loop
      vertex 61.2 1 5.5
      vertex 61.2 0 0
      vertex 61.2 0 5.5
    endloop
  endfacet
  facet normal -0 0 1
    outer loop
      vertex 61.2 1 5.5
      vertex 68.2 0 5.5
      vertex 68.2 1 5.5
    endloop
  endfacet
  facet normal 0 0 1
    outer loop
      vertex 68.2 0 5.5
      vertex 61.2 1 5.5
      vertex 61.2 0 5.5
    endloop
  endfacet
  facet normal -1 0 0
    outer loop
      vertex 61.2 24.4 0
      vertex 61.2 25.4 5.5
      vertex 61.2 25.4 0
    endloop
  endfacet
  facet normal -1 -0 0
    outer loop
      vertex 61.2 25.4 5.5
      vertex 61.2 24.4 0
      vertex 61.2 24.4 5.5
    endloop
  endfacet
  facet normal -0 0 1
    outer loop
      vertex 61.2 25.4 5.5
      vertex 68.2 24.4 5.5
      vertex 68.2 25.4 5.5
    endloop
  endfacet
  facet normal 0 0 1
    outer loop
      vertex 68.2 24.4 5.5
      vertex 61.2 25.4 5.5
      vertex 61.2 24.4 5.5
    endloop
  endfacet
  facet normal -0 0 1
    outer loop
      vertex 84.2 1 5.5
      vertex 90.8 0 5.5
      vertex 90.8 1 5.5
    endloop
  endfacet
  facet normal 0 0 1
    outer loop
      vertex 90.8 0 5.5
      vertex 84.2 1 5.5
      vertex 84.2 0 5.5
    endloop
  endfacet
  facet normal 1 -0 0
    outer loop
      vertex 90.8 0 5.5
      vertex 90.8 1 0
      vertex 90.8 1 5.5
    endloop
  endfacet
  facet normal 1 0 0
    outer loop
      vertex 90.8 1 0
      vertex 90.8 0 5.5
      vertex 90.8 0 0
    endloop
  endfacet
  facet normal -0 0 1
    outer loop
      vertex 84.2 25.4 5.5
      vertex 90.8 24.4 5.5
      vertex 90.8 25.4 5.5
    endloop
  endfacet
  facet normal 0 0 1
    outer loop
      vertex 90.8 24.4 5.5
      vertex 84.2 25.4 5.5
      vertex 84.2 24.4 5.5
    endloop
  endfacet
  facet normal 1 -0 0
    outer loop
      vertex 90.8 24.4 5.5
      vertex 90.8 25.4 0
      vertex 90.8 25.4 5.5
    endloop
  endfacet
  facet normal 1 0 0
    outer loop
      vertex 90.8 25.4 0
      vertex 90.8 24.4 5.5
      vertex 90.8 24.4 0
    endloop
  endfacet
  facet normal -1 0 0
    outer loop
      vertex 91.8 0 0
      vertex 91.8 1 5.5
      vertex 91.8 1 0
    endloop
  endfacet
  facet normal -1 -0 0
    outer loop
      vertex 91.8 1 5.5
      vertex 91.8 0 0
      vertex 91.8 0 5.5
    endloop
  endfacet
  facet normal 0 0 1
    outer loop
      vertex 100.6 1 5.5
      vertex 101.6 4.7 5.5
      vertex 100.6 4.7 5.5
    endloop
  endfacet
  facet normal 0 0 1
    outer loop
      vertex 101.6 4.7 5.5
      vertex 100.6 1 5.5
      vertex 101.6 0 5.5
    endloop
  endfacet
  facet normal 0 0 1
    outer loop
      vertex 91.8 0 5.5
      vertex 100.6 1 5.5
      vertex 91.8 1 5.5
    endloop
  endfacet
  facet normal 0 0 1
    outer loop
      vertex 100.6 1 5.5
      vertex 91.8 0 5.5
      vertex 101.6 0 5.5
    endloop
  endfacet
  facet normal -1 0 0
    outer loop
      vertex 91.8 24.4 0
      vertex 91.8 25.4 5.5
      vertex 91.8 25.4 0
    endloop
  endfacet
  facet normal -1 -0 0
    outer loop
      vertex 91.8 25.4 5.5
      vertex 91.8 24.4 0
      vertex 91.8 24.4 5.5
    endloop
  endfacet
  facet normal 0 0 1
    outer loop
      vertex 101.6 25.4 5.5
      vertex 100.6 24.4 5.5
      vertex 101.6 20.7 5.5
    endloop
  endfacet
  facet normal -0 0 1
    outer loop
      vertex 91.8 25.4 5.5
      vertex 100.6 24.4 5.5
      vertex 101.6 25.4 5.5
    endloop
  endfacet
  facet normal 0 0 1
    outer loop
      vertex 100.6 24.4 5.5
      vertex 91.8 25.4 5.5
      vertex 91.8 24.4 5.5
    endloop
  endfacet
  facet normal 0 0 1
    outer loop
      vertex 101.6 20.7 5.5
      vertex 100.6 24.4 5.5
      vertex 100.6 20.7 5.5
    endloop
  endfacet
  facet normal 1 0 0
    outer loop
      vertex 101.6 20.7 6
      vertex 101.6 19.7 5.6
      vertex 101.6 20.7 5.5
    endloop
  endfacet
  facet normal 1 0 0
    outer loop
      vertex 101.6 20.7 6
      vertex 101.6 5.7 5.6
      vertex 101.6 19.7 5.6
    endloop
  endfacet
  facet normal 1 0 0
    outer loop
      vertex 101.6 4.7 5.5
      vertex 101.6 5.7 5.6
      vertex 101.6 4.7 6
    endloop
  endfacet
  facet normal 1 -0 0
    outer loop
      vertex 101.6 4.7 6
      vertex 101.6 5.7 5.6
      vertex 101.6 20.7 6
    endloop
  endfacet
  facet normal 1 -0 0
    outer loop
      vertex 101.6 20.7 5.5
      vertex 101.6 25.4 0
      vertex 101.6 25.4 5.5
    endloop
  endfacet
  facet normal 1 0 0
    outer loop
      vertex 101.6 19.7 1.4
      vertex 101.6 20.7 5.5
      vertex 101.6 19.7 5.6
    endloop
  endfacet
  facet normal 1 0 0
    outer loop
      vertex 101.6 20.7 5.5
      vertex 101.6 19.7 1.4
      vertex 101.6 25.4 0
    endloop
  endfacet
  facet normal 1 -0 0
    outer loop
      vertex 101.6 5.7 1.4
      vertex 101.6 25.4 0
      vertex 101.6 19.7 1.4
    endloop
  endfacet
  facet normal 1 0 0
    outer loop
      vertex 101.6 5.7 5.6
      vertex 101.6 4.7 5.5
      vertex 101.6 5.7 1.4
    endloop
  endfacet
  facet normal 1 -0 0
    outer loop
      vertex 101.6 0 5.5
      vertex 101.6 5.7 1.4
      vertex 101.6 4.7 5.5
    endloop
  endfacet
  facet normal 1 0 0
    outer loop
      vertex 101.6 5.7 1.4
      vertex 101.6 0 0
      vertex 101.6 25.4 0
    endloop
  endfacet
  facet normal 1 0 0
    outer loop
      vertex 101.6 0 0
      vertex 101.6 5.7 1.4
      vertex 101.6 0 5.5
    endloop
  endfacet
  facet normal 0 1 -0
    outer loop
      vertex 9.2 25.4 0
      vertex 0 25.4 5.5
      vertex 9.2 25.4 5.5
    endloop
  endfacet
  facet normal 0 1 0
    outer loop
      vertex 0 25.4 5.5
      vertex 9.2 25.4 0
      vertex 0 25.4 0
    endloop
  endfacet
  facet normal 0 1 -0
    outer loop
      vertex 101.6 25.4 0
      vertex 91.8 25.4 5.5
      vertex 101.6 25.4 5.5
    endloop
  endfacet
  facet normal 0 1 0
    outer loop
      vertex 91.8 25.4 5.5
      vertex 101.6 25.4 0
      vertex 91.8 25.4 0
    endloop
  endfacet
  facet normal 0 1 -0
    outer loop
      vertex 39.8 25.4 0
      vertex 33.4 25.4 5.5
      vertex 39.8 25.4 5.5
    endloop
  endfacet
  facet normal 0 1 0
    outer loop
      vertex 32.4 25.4 1.4
      vertex 39.8 25.4 0
      vertex 18.4 25.4 1.4
    endloop
  endfacet
  facet normal 0 1 0
    outer loop
      vertex 33.4 25.4 5.5
      vertex 39.8 25.4 0
      vertex 32.4 25.4 1.4
    endloop
  endfacet
  facet normal 0 1 0
    outer loop
      vertex 33.4 25.4 6
      vertex 32.4 25.4 5.6
      vertex 17.4 25.4 6
    endloop
  endfacet
  facet normal 0 1 -0
    outer loop
      vertex 33.4 25.4 5.5
      vertex 32.4 25.4 5.6
      vertex 33.4 25.4 6
    endloop
  endfacet
  facet normal 0 1 0
    outer loop
      vertex 32.4 25.4 5.6
      vertex 33.4 25.4 5.5
      vertex 32.4 25.4 1.4
    endloop
  endfacet
  facet normal 0 1 -0
    outer loop
      vertex 18.4 25.4 5.6
      vertex 17.4 25.4 6
      vertex 32.4 25.4 5.6
    endloop
  endfacet
  facet normal 0 1 0
    outer loop
      vertex 18.4 25.4 5.6
      vertex 17.4 25.4 5.5
      vertex 17.4 25.4 6
    endloop
  endfacet
  facet normal 0 1 -0
    outer loop
      vertex 18.4 25.4 1.4
      vertex 17.4 25.4 5.5
      vertex 18.4 25.4 5.6
    endloop
  endfacet
  facet normal 0 1 0
    outer loop
      vertex 10.2 25.4 0
      vertex 17.4 25.4 5.5
      vertex 18.4 25.4 1.4
    endloop
  endfacet
  facet normal 0 1 0
    outer loop
      vertex 17.4 25.4 5.5
      vertex 10.2 25.4 0
      vertex 10.2 25.4 5.5
    endloop
  endfacet
  facet normal 0 1 0
    outer loop
      vertex 10.2 25.4 0
      vertex 18.4 25.4 1.4
      vertex 39.8 25.4 0
    endloop
  endfacet
  facet normal 0 1 0
    outer loop
      vertex 60.2 25.4 5.5
      vertex 57.8 25.4 1.4
      vertex 58.8 25.4 5.5
    endloop
  endfacet
  facet normal 0 1 0
    outer loop
      vertex 57.8 25.4 1.4
      vertex 60.2 25.4 0
      vertex 43.8 25.4 1.4
    endloop
  endfacet
  facet normal 0 1 -0
    outer loop
      vertex 60.2 25.4 0
      vertex 57.8 25.4 1.4
      vertex 60.2 25.4 5.5
    endloop
  endfacet
  facet normal 0 1 0
    outer loop
      vertex 58.8 25.4 6
      vertex 57.8 25.4 5.6
      vertex 42.8 25.4 6
    endloop
  endfacet
  facet normal 0 1 -0
    outer loop
      vertex 58.8 25.4 5.5
      vertex 57.8 25.4 5.6
      vertex 58.8 25.4 6
    endloop
  endfacet
  facet normal 0 1 0
    outer loop
      vertex 57.8 25.4 5.6
      vertex 58.8 25.4 5.5
      vertex 57.8 25.4 1.4
    endloop
  endfacet
  facet normal 0 1 -0
    outer loop
      vertex 43.8 25.4 5.6
      vertex 42.8 25.4 6
      vertex 57.8 25.4 5.6
    endloop
  endfacet
  facet normal 0 1 0
    outer loop
      vertex 43.8 25.4 5.6
      vertex 42.8 25.4 5.5
      vertex 42.8 25.4 6
    endloop
  endfacet
  facet normal 0 1 -0
    outer loop
      vertex 43.8 25.4 1.4
      vertex 42.8 25.4 5.5
      vertex 43.8 25.4 5.6
    endloop
  endfacet
  facet normal 0 1 0
    outer loop
      vertex 43.8 25.4 1.4
      vertex 40.8 25.4 5.5
      vertex 42.8 25.4 5.5
    endloop
  endfacet
  facet normal 0 1 0
    outer loop
      vertex 43.8 25.4 1.4
      vertex 40.8 25.4 0
      vertex 40.8 25.4 5.5
    endloop
  endfacet
  facet normal 0 1 0
    outer loop
      vertex 40.8 25.4 0
      vertex 43.8 25.4 1.4
      vertex 60.2 25.4 0
    endloop
  endfacet
  facet normal 0 1 -0
    outer loop
      vertex 90.8 25.4 0
      vertex 84.2 25.4 5.5
      vertex 90.8 25.4 5.5
    endloop
  endfacet
  facet normal 0 1 0
    outer loop
      vertex 83.2 25.4 1.4
      vertex 90.8 25.4 0
      vertex 69.2 25.4 1.4
    endloop
  endfacet
  facet normal 0 1 0
    outer loop
      vertex 84.2 25.4 5.5
      vertex 90.8 25.4 0
      vertex 83.2 25.4 1.4
    endloop
  endfacet
  facet normal 0 1 0
    outer loop
      vertex 84.2 25.4 6
      vertex 83.2 25.4 5.6
      vertex 68.2 25.4 6
    endloop
  endfacet
  facet normal 0 1 -0
    outer loop
      vertex 84.2 25.4 5.5
      vertex 83.2 25.4 5.6
      vertex 84.2 25.4 6
    endloop
  endfacet
  facet normal 0 1 0
    outer loop
      vertex 83.2 25.4 5.6
      vertex 84.2 25.4 5.5
      vertex 83.2 25.4 1.4
    endloop
  endfacet
  facet normal 0 1 -0
    outer loop
      vertex 69.2 25.4 5.6
      vertex 68.2 25.4 6
      vertex 83.2 25.4 5.6
    endloop
  endfacet
  facet normal 0 1 0
    outer loop
      vertex 69.2 25.4 5.6
      vertex 68.2 25.4 5.5
      vertex 68.2 25.4 6
    endloop
  endfacet
  facet normal 0 1 -0
    outer loop
      vertex 69.2 25.4 1.4
      vertex 68.2 25.4 5.5
      vertex 69.2 25.4 5.6
    endloop
  endfacet
  facet normal 0 1 0
    outer loop
      vertex 61.2 25.4 0
      vertex 68.2 25.4 5.5
      vertex 69.2 25.4 1.4
    endloop
  endfacet
  facet normal 0 1 0
    outer loop
      vertex 68.2 25.4 5.5
      vertex 61.2 25.4 0
      vertex 61.2 25.4 5.5
    endloop
  endfacet
  facet normal 0 1 0
    outer loop
      vertex 61.2 25.4 0
      vertex 69.2 25.4 1.4
      vertex 90.8 25.4 0
    endloop
  endfacet
  facet normal -1 0 0
    outer loop
      vertex 1 1 5.5
      vertex 1 4.7 6
      vertex 1 4.7 5.5
    endloop
  endfacet
  facet normal -1 -0 0
    outer loop
      vertex 1 4.7 6
      vertex 1 1 5.5
      vertex 1 1 6
    endloop
  endfacet
  facet normal -1 0 0
    outer loop
      vertex 1 20.7 5.5
      vertex 1 24.4 6
      vertex 1 24.4 5.5
    endloop
  endfacet
  facet normal -1 -0 0
    outer loop
      vertex 1 24.4 6
      vertex 1 20.7 5.5
      vertex 1 20.7 6
    endloop
  endfacet
  facet normal 0 0 1
    outer loop
      vertex 33.4 25.4 6
      vertex 17.4 25.4 6
      vertex 33.4 24.4 6
    endloop
  endfacet
  facet normal 0 0 1
    outer loop
      vertex 58.8 25.4 6
      vertex 42.8 25.4 6
      vertex 58.8 24.4 6
    endloop
  endfacet
  facet normal 0 0 1
    outer loop
      vertex 84.2 25.4 6
      vertex 68.2 25.4 6
      vertex 84.2 24.4 6
    endloop
  endfacet
  facet normal 0 0 1
    outer loop
      vertex 94.05 17.85 6
      vertex 100.6 20.7 6
      vertex 100.6 24.4 6
    endloop
  endfacet
  facet normal 0 0 1
    outer loop
      vertex 100.6 20.7 6
      vertex 94.05 17.85 6
      vertex 100.6 4.7 6
    endloop
  endfacet
  facet normal -0 0 1
    outer loop
      vertex 94.05 7.55 6
      vertex 100.6 4.7 6
      vertex 94.05 17.85 6
    endloop
  endfacet
  facet normal -0 0 1
    outer loop
      vertex 84.2 24.4 6
      vertex 94.05 17.85 6
      vertex 100.6 24.4 6
    endloop
  endfacet
  facet normal 0 0 1
    outer loop
      vertex 68.2 24.4 6
      vertex 84.2 24.4 6
      vertex 68.2 25.4 6
    endloop
  endfacet
  facet normal 0 0 1
    outer loop
      vertex 84.2 24.4 6
      vertex 68.2 24.4 6
      vertex 94.05 17.85 6
    endloop
  endfacet
  facet normal -0 0 1
    outer loop
      vertex 58.8 24.4 6
      vertex 94.05 17.85 6
      vertex 68.2 24.4 6
    endloop
  endfacet
  facet normal 0 0 1
    outer loop
      vertex 42.8 24.4 6
      vertex 58.8 24.4 6
      vertex 42.8 25.4 6
    endloop
  endfacet
  facet normal 0 0 1
    outer loop
      vertex 58.8 24.4 6
      vertex 42.8 24.4 6
      vertex 94.05 17.85 6
    endloop
  endfacet
  facet normal 0 0 1
    outer loop
      vertex 7.55 17.85 6
      vertex 42.8 24.4 6
      vertex 33.4 24.4 6
    endloop
  endfacet
  facet normal 0 0 1
    outer loop
      vertex 17.4 24.4 6
      vertex 33.4 24.4 6
      vertex 17.4 25.4 6
    endloop
  endfacet
  facet normal 0 0 1
    outer loop
      vertex 7.55 17.85 6
      vertex 33.4 24.4 6
      vertex 17.4 24.4 6
    endloop
  endfacet
  facet normal 0 0 1
    outer loop
      vertex 42.8 24.4 6
      vertex 7.55 17.85 6
      vertex 94.05 17.85 6
    endloop
  endfacet
  facet normal -0 0 1
    outer loop
      vertex 1 20.7 6
      vertex 7.55 17.85 6
      vertex 1 24.4 6
    endloop
  endfacet
  facet normal -0 0 1
    outer loop
      vertex 1 24.4 6
      vertex 7.55 17.85 6
      vertex 17.4 24.4 6
    endloop
  endfacet
  facet normal -0 0 1
    outer loop
      vertex 100.6 20.7 6
      vertex 101.6 4.7 6
      vertex 101.6 20.7 6
    endloop
  endfacet
  facet normal 0 0 1
    outer loop
      vertex 101.6 4.7 6
      vertex 100.6 20.7 6
      vertex 100.6 4.7 6
    endloop
  endfacet
  facet normal 0 0 1
    outer loop
      vertex 100.6 4.7 6
      vertex 94.05 7.55 6
      vertex 100.6 1 6
    endloop
  endfacet
  facet normal 0 0 1
    outer loop
      vertex 94.05 7.55 6
      vertex 84.2 1 6
      vertex 100.6 1 6
    endloop
  endfacet
  facet normal 0 0 1
    outer loop
      vertex 84.2 1 6
      vertex 68.2 1 6
      vertex 84.2 0 6
    endloop
  endfacet
  facet normal 0 0 1
    outer loop
      vertex 94.05 7.55 6
      vertex 68.2 1 6
      vertex 84.2 1 6
    endloop
  endfacet
  facet normal 0 0 1
    outer loop
      vertex 94.05 7.55 6
      vertex 58.8 1 6
      vertex 68.2 1 6
    endloop
  endfacet
  facet normal 0 0 1
    outer loop
      vertex 58.8 1 6
      vertex 42.8 1 6
      vertex 58.8 0 6
    endloop
  endfacet
  facet normal 0 0 1
    outer loop
      vertex 94.05 7.55 6
      vertex 42.8 1 6
      vertex 58.8 1 6
    endloop
  endfacet
  facet normal -0 0 1
    outer loop
      vertex 7.55 7.55 6
      vertex 42.8 1 6
      vertex 94.05 7.55 6
    endloop
  endfacet
  facet normal 0 0 1
    outer loop
      vertex 33.4 1 6
      vertex 17.4 1 6
      vertex 33.4 0 6
    endloop
  endfacet
  facet normal 0 0 1
    outer loop
      vertex 42.8 1 6
      vertex 7.55 7.55 6
      vertex 33.4 1 6
    endloop
  endfacet
  facet normal 0 0 1
    outer loop
      vertex 33.4 1 6
      vertex 7.55 7.55 6
      vertex 17.4 1 6
    endloop
  endfacet
  facet normal 0 0 1
    outer loop
      vertex 7.55 17.85 6
      vertex 1 20.7 6
      vertex 7.55 7.55 6
    endloop
  endfacet
  facet normal 0 0 1
    outer loop
      vertex 1 4.7 6
      vertex 7.55 7.55 6
      vertex 1 20.7 6
    endloop
  endfacet
  facet normal 0 0 1
    outer loop
      vertex 1 1 6
      vertex 7.55 7.55 6
      vertex 1 4.7 6
    endloop
  endfacet
  facet normal 0 0 1
    outer loop
      vertex 7.55 7.55 6
      vertex 1 1 6
      vertex 17.4 1 6
    endloop
  endfacet
  facet normal 0 0 1
    outer loop
      vertex 84.2 0 6
      vertex 68.2 1 6
      vertex 68.2 0 6
    endloop
  endfacet
  facet normal 0 0 1
    outer loop
      vertex 58.8 0 6
      vertex 42.8 1 6
      vertex 42.8 0 6
    endloop
  endfacet
  facet normal -0 0 1
    outer loop
      vertex 0 20.7 6
      vertex 1 4.7 6
      vertex 1 20.7 6
    endloop
  endfacet
  facet normal 0 0 1
    outer loop
      vertex 1 4.7 6
      vertex 0 20.7 6
      vertex 0 4.7 6
    endloop
  endfacet
  facet normal 0 0 1
    outer loop
      vertex 33.4 0 6
      vertex 17.4 1 6
      vertex 17.4 0 6
    endloop
  endfacet
  facet normal 1 -0 0
    outer loop
      vertex 100.6 1 6
      vertex 100.6 4.7 5.5
      vertex 100.6 4.7 6
    endloop
  endfacet
  facet normal 1 0 0
    outer loop
      vertex 100.6 4.7 5.5
      vertex 100.6 1 6
      vertex 100.6 1 5.5
    endloop
  endfacet
  facet normal 1 -0 0
    outer loop
      vertex 100.6 20.7 6
      vertex 100.6 24.4 5.5
      vertex 100.6 24.4 6
    endloop
  endfacet
  facet normal 1 0 0
    outer loop
      vertex 100.6 24.4 5.5
      vertex 100.6 20.7 6
      vertex 100.6 20.7 5.5
    endloop
  endfacet
  facet normal 0 -1 0
    outer loop
      vertex 9.2 1 0
      vertex 10.2 1 5.5
      vertex 9.2 1 5.5
    endloop
  endfacet
  facet normal 0 -1 -0
    outer loop
      vertex 10.2 1 5.5
      vertex 9.2 1 0
      vertex 10.2 1 0
    endloop
  endfacet
  facet normal 0 -1 0
    outer loop
      vertex 9.2 1 5.5
      vertex 1 1 6
      vertex 1 1 5.5
    endloop
  endfacet
  facet normal 0 -1 0
    outer loop
      vertex 1 1 6
      vertex 9.2 1 5.5
      vertex 17.4 1 6
    endloop
  endfacet
  facet normal 0 -1 0
    outer loop
      vertex 10.2 1 5.5
      vertex 17.4 1 6
      vertex 9.2 1 5.5
    endloop
  endfacet
  facet normal 0 -1 -0
    outer loop
      vertex 17.4 1 6
      vertex 10.2 1 5.5
      vertex 17.4 1 5.5
    endloop
  endfacet
  facet normal 0 -1 0
    outer loop
      vertex 90.8 1 0
      vertex 91.8 1 5.5
      vertex 90.8 1 5.5
    endloop
  endfacet
  facet normal 0 -1 -0
    outer loop
      vertex 91.8 1 5.5
      vertex 90.8 1 0
      vertex 91.8 1 0
    endloop
  endfacet
  facet normal 0 -1 0
    outer loop
      vertex 90.8 1 5.5
      vertex 84.2 1 6
      vertex 84.2 1 5.5
    endloop
  endfacet
  facet normal 0 -1 0
    outer loop
      vertex 91.8 1 5.5
      vertex 84.2 1 6
      vertex 90.8 1 5.5
    endloop
  endfacet
  facet normal 0 -1 0
    outer loop
      vertex 84.2 1 6
      vertex 91.8 1 5.5
      vertex 100.6 1 6
    endloop
  endfacet
  facet normal 0 -1 -0
    outer loop
      vertex 100.6 1 6
      vertex 91.8 1 5.5
      vertex 100.6 1 5.5
    endloop
  endfacet
  facet normal 0 -1 0
    outer loop
      vertex 39.8 1 0
      vertex 40.8 1 5.5
      vertex 39.8 1 5.5
    endloop
  endfacet
  facet normal 0 -1 -0
    outer loop
      vertex 40.8 1 5.5
      vertex 39.8 1 0
      vertex 40.8 1 0
    endloop
  endfacet
  facet normal 0 -1 0
    outer loop
      vertex 39.8 1 5.5
      vertex 33.4 1 6
      vertex 33.4 1 5.5
    endloop
  endfacet
  facet normal 0 -1 0
    outer loop
      vertex 33.4 1 6
      vertex 39.8 1 5.5
      vertex 42.8 1 6
    endloop
  endfacet
  facet normal 0 -1 0
    outer loop
      vertex 40.8 1 5.5
      vertex 42.8 1 6
      vertex 39.8 1 5.5
    endloop
  endfacet
  facet normal 0 -1 -0
    outer loop
      vertex 42.8 1 6
      vertex 40.8 1 5.5
      vertex 42.8 1 5.5
    endloop
  endfacet
  facet normal 0 -1 0
    outer loop
      vertex 60.2 1 0
      vertex 61.2 1 5.5
      vertex 60.2 1 5.5
    endloop
  endfacet
  facet normal 0 -1 -0
    outer loop
      vertex 61.2 1 5.5
      vertex 60.2 1 0
      vertex 61.2 1 0
    endloop
  endfacet
  facet normal 0 -1 0
    outer loop
      vertex 60.2 1 5.5
      vertex 58.8 1 6
      vertex 58.8 1 5.5
    endloop
  endfacet
  facet normal 0 -1 0
    outer loop
      vertex 61.2 1 5.5
      vertex 58.8 1 6
      vertex 60.2 1 5.5
    endloop
  endfacet
  facet normal 0 -1 0
    outer loop
      vertex 58.8 1 6
      vertex 61.2 1 5.5
      vertex 68.2 1 6
    endloop
  endfacet
  facet normal 0 -1 -0
    outer loop
      vertex 68.2 1 6
      vertex 61.2 1 5.5
      vertex 68.2 1 5.5
    endloop
  endfacet
  facet normal 0 1 -0
    outer loop
      vertex 91.8 24.4 0
      vertex 90.8 24.4 5.5
      vertex 91.8 24.4 5.5
    endloop
  endfacet
  facet normal 0 1 0
    outer loop
      vertex 90.8 24.4 5.5
      vertex 91.8 24.4 0
      vertex 90.8 24.4 0
    endloop
  endfacet
  facet normal 0 1 0
    outer loop
      vertex 91.8 24.4 5.5
      vertex 100.6 24.4 6
      vertex 100.6 24.4 5.5
    endloop
  endfacet
  facet normal 0 1 0
    outer loop
      vertex 100.6 24.4 6
      vertex 91.8 24.4 5.5
      vertex 84.2 24.4 6
    endloop
  endfacet
  facet normal 0 1 -0
    outer loop
      vertex 90.8 24.4 5.5
      vertex 84.2 24.4 6
      vertex 91.8 24.4 5.5
    endloop
  endfacet
  facet normal 0 1 0
    outer loop
      vertex 84.2 24.4 6
      vertex 90.8 24.4 5.5
      vertex 84.2 24.4 5.5
    endloop
  endfacet
  facet normal 0 1 -0
    outer loop
      vertex 10.2 24.4 0
      vertex 9.2 24.4 5.5
      vertex 10.2 24.4 5.5
    endloop
  endfacet
  facet normal 0 1 0
    outer loop
      vertex 9.2 24.4 5.5
      vertex 10.2 24.4 0
      vertex 9.2 24.4 0
    endloop
  endfacet
  facet normal 0 1 0
    outer loop
      vertex 10.2 24.4 5.5
      vertex 17.4 24.4 6
      vertex 17.4 24.4 5.5
    endloop
  endfacet
  facet normal 0 1 0
    outer loop
      vertex 17.4 24.4 6
      vertex 10.2 24.4 5.5
      vertex 1 24.4 6
    endloop
  endfacet
  facet normal 0 1 -0
    outer loop
      vertex 9.2 24.4 5.5
      vertex 1 24.4 6
      vertex 10.2 24.4 5.5
    endloop
  endfacet
  facet normal 0 1 0
    outer loop
      vertex 1 24.4 6
      vertex 9.2 24.4 5.5
      vertex 1 24.4 5.5
    endloop
  endfacet
  facet normal 0 1 -0
    outer loop
      vertex 40.8 24.4 0
      vertex 39.8 24.4 5.5
      vertex 40.8 24.4 5.5
    endloop
  endfacet
  facet normal 0 1 0
    outer loop
      vertex 39.8 24.4 5.5
      vertex 40.8 24.4 0
      vertex 39.8 24.4 0
    endloop
  endfacet
  facet normal 0 1 0
    outer loop
      vertex 40.8 24.4 5.5
      vertex 42.8 24.4 6
      vertex 42.8 24.4 5.5
    endloop
  endfacet
  facet normal 0 1 0
    outer loop
      vertex 39.8 24.4 5.5
      vertex 42.8 24.4 6
      vertex 40.8 24.4 5.5
    endloop
  endfacet
  facet normal 0 1 0
    outer loop
      vertex 42.8 24.4 6
      vertex 39.8 24.4 5.5
      vertex 33.4 24.4 6
    endloop
  endfacet
  facet normal 0 1 0
    outer loop
      vertex 33.4 24.4 6
      vertex 39.8 24.4 5.5
      vertex 33.4 24.4 5.5
    endloop
  endfacet
  facet normal 0 1 -0
    outer loop
      vertex 61.2 24.4 0
      vertex 60.2 24.4 5.5
      vertex 61.2 24.4 5.5
    endloop
  endfacet
  facet normal 0 1 0
    outer loop
      vertex 60.2 24.4 5.5
      vertex 61.2 24.4 0
      vertex 60.2 24.4 0
    endloop
  endfacet
  facet normal 0 1 0
    outer loop
      vertex 61.2 24.4 5.5
      vertex 68.2 24.4 6
      vertex 68.2 24.4 5.5
    endloop
  endfacet
  facet normal 0 1 0
    outer loop
      vertex 68.2 24.4 6
      vertex 61.2 24.4 5.5
      vertex 58.8 24.4 6
    endloop
  endfacet
  facet normal 0 1 -0
    outer loop
      vertex 60.2 24.4 5.5
      vertex 58.8 24.4 6
      vertex 61.2 24.4 5.5
    endloop
  endfacet
  facet normal 0 1 0
    outer loop
      vertex 58.8 24.4 6
      vertex 60.2 24.4 5.5
      vertex 58.8 24.4 5.5
    endloop
  endfacet
  facet normal 1 0 0
    outer loop
      vertex 7.55 17.7 1.4
      vertex 7.55 17.85 6
      vertex 7.55 17.7 5.6
    endloop
  endfacet
  facet normal 1 0 0
    outer loop
      vertex 7.55 17.85 6
      vertex 7.55 7.7 5.6
      vertex 7.55 17.7 5.6
    endloop
  endfacet
  facet normal 1 0 0
    outer loop
      vertex 7.55 7.7 5.6
      vertex 7.55 7.55 6
      vertex 7.55 7.7 1.4
    endloop
  endfacet
  facet normal 1 -0 0
    outer loop
      vertex 7.55 7.55 6
      vertex 7.55 7.7 5.6
      vertex 7.55 17.85 6
    endloop
  endfacet
  facet normal 1 0 0
    outer loop
      vertex 7.55 17.85 6
      vertex 7.55 17.7 1.4
      vertex 7.55 17.85 0
    endloop
  endfacet
  facet normal 1 -0 0
    outer loop
      vertex 7.55 7.7 1.4
      vertex 7.55 17.85 0
      vertex 7.55 17.7 1.4
    endloop
  endfacet
  facet normal 1 0 0
    outer loop
      vertex 7.55 7.7 1.4
      vertex 7.55 7.55 0
      vertex 7.55 17.85 0
    endloop
  endfacet
  facet normal 1 0 0
    outer loop
      vertex 7.55 7.55 0
      vertex 7.55 7.7 1.4
      vertex 7.55 7.55 6
    endloop
  endfacet
  facet normal -1 0 0
    outer loop
      vertex 94.05 17.85 0
      vertex 94.05 17.7 1.4
      vertex 94.05 17.85 6
    endloop
  endfacet
  facet normal -1 0 0
    outer loop
      vertex 94.05 17.85 0
      vertex 94.05 7.7 1.4
      vertex 94.05 17.7 1.4
    endloop
  endfacet
  facet normal -1 0 0
    outer loop
      vertex 94.05 7.55 6
      vertex 94.05 7.7 1.4
      vertex 94.05 7.55 0
    endloop
  endfacet
  facet normal -1 0 0
    outer loop
      vertex 94.05 7.55 0
      vertex 94.05 7.7 1.4
      vertex 94.05 17.85 0
    endloop
  endfacet
  facet normal -1 0 0
    outer loop
      vertex 94.05 17.7 5.6
      vertex 94.05 17.85 6
      vertex 94.05 17.7 1.4
    endloop
  endfacet
  facet normal -1 0 0
    outer loop
      vertex 94.05 7.7 5.6
      vertex 94.05 17.85 6
      vertex 94.05 17.7 5.6
    endloop
  endfacet
  facet normal -1 0 0
    outer loop
      vertex 94.05 7.7 5.6
      vertex 94.05 7.55 6
      vertex 94.05 17.85 6
    endloop
  endfacet
  facet normal -1 0 0
    outer loop
      vertex 94.05 7.7 1.4
      vertex 94.05 7.55 6
      vertex 94.05 7.7 5.6
    endloop
  endfacet
  facet normal 0 -1 0
    outer loop
      vertex 55.8 17.85 1.4
      vertex 71.2 17.85 5.6
      vertex 55.8 17.85 5.6
    endloop
  endfacet
  facet normal 0 -1 -0
    outer loop
      vertex 71.2 17.85 5.6
      vertex 55.8 17.85 1.4
      vertex 71.2 17.85 1.4
    endloop
  endfacet
  facet normal 0 -1 0
    outer loop
      vertex 30.4 17.85 1.4
      vertex 45.8 17.85 5.6
      vertex 30.4 17.85 5.6
    endloop
  endfacet
  facet normal 0 -1 -0
    outer loop
      vertex 45.8 17.85 5.6
      vertex 30.4 17.85 1.4
      vertex 45.8 17.85 1.4
    endloop
  endfacet
  facet normal 0 -1 0
    outer loop
      vertex 30.4 17.85 5.6
      vertex 7.55 17.85 6
      vertex 20.4 17.85 5.6
    endloop
  endfacet
  facet normal 0 -1 0
    outer loop
      vertex 7.55 17.85 6
      vertex 20.4 17.85 1.4
      vertex 20.4 17.85 5.6
    endloop
  endfacet
  facet normal 0 -1 0
    outer loop
      vertex 7.55 17.85 0
      vertex 30.4 17.85 1.4
      vertex 20.4 17.85 1.4
    endloop
  endfacet
  facet normal 0 -1 -0
    outer loop
      vertex 30.4 17.85 1.4
      vertex 7.55 17.85 0
      vertex 45.8 17.85 1.4
    endloop
  endfacet
  facet normal 0 -1 -0
    outer loop
      vertex 45.8 17.85 1.4
      vertex 7.55 17.85 0
      vertex 55.8 17.85 1.4
    endloop
  endfacet
  facet normal 0 -1 0
    outer loop
      vertex 94.05 17.85 0
      vertex 55.8 17.85 1.4
      vertex 7.55 17.85 0
    endloop
  endfacet
  facet normal 0 -1 0
    outer loop
      vertex 55.8 17.85 1.4
      vertex 94.05 17.85 0
      vertex 71.2 17.85 1.4
    endloop
  endfacet
  facet normal 0 -1 0
    outer loop
      vertex 7.55 17.85 0
      vertex 20.4 17.85 1.4
      vertex 7.55 17.85 6
    endloop
  endfacet
  facet normal 0 -1 0
    outer loop
      vertex 7.55 17.85 6
      vertex 30.4 17.85 5.6
      vertex 94.05 17.85 6
    endloop
  endfacet
  facet normal 0 -1 0
    outer loop
      vertex 45.8 17.85 5.6
      vertex 94.05 17.85 6
      vertex 30.4 17.85 5.6
    endloop
  endfacet
  facet normal 0 -1 0
    outer loop
      vertex 55.8 17.85 5.6
      vertex 94.05 17.85 6
      vertex 45.8 17.85 5.6
    endloop
  endfacet
  facet normal 0 -1 0
    outer loop
      vertex 71.2 17.85 5.6
      vertex 94.05 17.85 6
      vertex 55.8 17.85 5.6
    endloop
  endfacet
  facet normal 0 -1 0
    outer loop
      vertex 81.2 17.85 5.6
      vertex 94.05 17.85 6
      vertex 71.2 17.85 5.6
    endloop
  endfacet
  facet normal 0 -1 0
    outer loop
      vertex 81.2 17.85 1.4
      vertex 94.05 17.85 6
      vertex 81.2 17.85 5.6
    endloop
  endfacet
  facet normal 0 -1 0
    outer loop
      vertex 81.2 17.85 1.4
      vertex 94.05 17.85 0
      vertex 94.05 17.85 6
    endloop
  endfacet
  facet normal 0 -1 0
    outer loop
      vertex 71.2 17.85 1.4
      vertex 94.05 17.85 0
      vertex 81.2 17.85 1.4
    endloop
  endfacet
  facet normal 0 1 -0
    outer loop
      vertex 45.8 7.55 1.4
      vertex 30.4 7.55 5.6
      vertex 45.8 7.55 5.6
    endloop
  endfacet
  facet normal 0 1 0
    outer loop
      vertex 30.4 7.55 5.6
      vertex 45.8 7.55 1.4
      vertex 30.4 7.55 1.4
    endloop
  endfacet
  facet normal 0 1 -0
    outer loop
      vertex 71.2 7.55 1.4
      vertex 55.8 7.55 5.6
      vertex 71.2 7.55 5.6
    endloop
  endfacet
  facet normal 0 1 0
    outer loop
      vertex 55.8 7.55 5.6
      vertex 71.2 7.55 1.4
      vertex 55.8 7.55 1.4
    endloop
  endfacet
  facet normal 0 1 0
    outer loop
      vertex 71.2 7.55 5.6
      vertex 94.05 7.55 6
      vertex 81.2 7.55 5.6
    endloop
  endfacet
  facet normal 0 1 0
    outer loop
      vertex 94.05 7.55 6
      vertex 81.2 7.55 1.4
      vertex 81.2 7.55 5.6
    endloop
  endfacet
  facet normal 0 1 0
    outer loop
      vertex 94.05 7.55 0
      vertex 71.2 7.55 1.4
      vertex 81.2 7.55 1.4
    endloop
  endfacet
  facet normal 0 1 0
    outer loop
      vertex 71.2 7.55 1.4
      vertex 94.05 7.55 0
      vertex 55.8 7.55 1.4
    endloop
  endfacet
  facet normal 0 1 0
    outer loop
      vertex 55.8 7.55 1.4
      vertex 94.05 7.55 0
      vertex 45.8 7.55 1.4
    endloop
  endfacet
  facet normal 0 1 0
    outer loop
      vertex 7.55 7.55 0
      vertex 45.8 7.55 1.4
      vertex 94.05 7.55 0
    endloop
  endfacet
  facet normal 0 1 0
    outer loop
      vertex 45.8 7.55 1.4
      vertex 7.55 7.55 0
      vertex 30.4 7.55 1.4
    endloop
  endfacet
  facet normal 0 1 -0
    outer loop
      vertex 94.05 7.55 0
      vertex 81.2 7.55 1.4
      vertex 94.05 7.55 6
    endloop
  endfacet
  facet normal 0 1 0
    outer loop
      vertex 94.05 7.55 6
      vertex 71.2 7.55 5.6
      vertex 7.55 7.55 6
    endloop
  endfacet
  facet normal 0 1 -0
    outer loop
      vertex 55.8 7.55 5.6
      vertex 7.55 7.55 6
      vertex 71.2 7.55 5.6
    endloop
  endfacet
  facet normal 0 1 -0
    outer loop
      vertex 45.8 7.55 5.6
      vertex 7.55 7.55 6
      vertex 55.8 7.55 5.6
    endloop
  endfacet
  facet normal 0 1 -0
    outer loop
      vertex 30.4 7.55 5.6
      vertex 7.55 7.55 6
      vertex 45.8 7.55 5.6
    endloop
  endfacet
  facet normal 0 1 -0
    outer loop
      vertex 20.4 7.55 5.6
      vertex 7.55 7.55 6
      vertex 30.4 7.55 5.6
    endloop
  endfacet
  facet normal 0 1 -0
    outer loop
      vertex 20.4 7.55 1.4
      vertex 7.55 7.55 6
      vertex 20.4 7.55 5.6
    endloop
  endfacet
  facet normal 0 1 0
    outer loop
      vertex 20.4 7.55 1.4
      vertex 7.55 7.55 0
      vertex 7.55 7.55 6
    endloop
  endfacet
  facet normal 0 1 0
    outer loop
      vertex 30.4 7.55 1.4
      vertex 7.55 7.55 0
      vertex 20.4 7.55 1.4
    endloop
  endfacet
  facet normal 0 1 -0
    outer loop
      vertex 1 20.7 5.5
      vertex 0 20.7 6
      vertex 1 20.7 6
    endloop
  endfacet
  facet normal 0 1 0
    outer loop
      vertex 0 20.7 6
      vertex 1 20.7 5.5
      vertex 0 20.7 5.5
    endloop
  endfacet
  facet normal 0 -1 0
    outer loop
      vertex 0 4.7 5.5
      vertex 1 4.7 6
      vertex 0 4.7 6
    endloop
  endfacet
  facet normal 0 -1 -0
    outer loop
      vertex 1 4.7 6
      vertex 0 4.7 5.5
      vertex 1 4.7 5.5
    endloop
  endfacet
  facet normal 0 1 -0
    outer loop
      vertex 101.6 20.7 5.5
      vertex 100.6 20.7 6
      vertex 101.6 20.7 6
    endloop
  endfacet
  facet normal 0 1 0
    outer loop
      vertex 100.6 20.7 6
      vertex 101.6 20.7 5.5
      vertex 100.6 20.7 5.5
    endloop
  endfacet
  facet normal 0 -1 0
    outer loop
      vertex 100.6 4.7 5.5
      vertex 101.6 4.7 6
      vertex 100.6 4.7 6
    endloop
  endfacet
  facet normal 0 -1 -0
    outer loop
      vertex 101.6 4.7 6
      vertex 100.6 4.7 5.5
      vertex 101.6 4.7 5.5
    endloop
  endfacet
  facet normal -1 0 0
    outer loop
      vertex 17.4 0 5.5
      vertex 17.4 1 6
      vertex 17.4 1 5.5
    endloop
  endfacet
  facet normal -1 -0 0
    outer loop
      vertex 17.4 1 6
      vertex 17.4 0 5.5
      vertex 17.4 0 6
    endloop
  endfacet
  facet normal 1 -0 0
    outer loop
      vertex 33.4 0 6
      vertex 33.4 1 5.5
      vertex 33.4 1 6
    endloop
  endfacet
  facet normal 1 0 0
    outer loop
      vertex 33.4 1 5.5
      vertex 33.4 0 6
      vertex 33.4 0 5.5
    endloop
  endfacet
  facet normal -1 0 0
    outer loop
      vertex 17.4 24.4 5.5
      vertex 17.4 25.4 6
      vertex 17.4 25.4 5.5
    endloop
  endfacet
  facet normal -1 -0 0
    outer loop
      vertex 17.4 25.4 6
      vertex 17.4 24.4 5.5
      vertex 17.4 24.4 6
    endloop
  endfacet
  facet normal 1 -0 0
    outer loop
      vertex 33.4 24.4 6
      vertex 33.4 25.4 5.5
      vertex 33.4 25.4 6
    endloop
  endfacet
  facet normal 1 0 0
    outer loop
      vertex 33.4 25.4 5.5
      vertex 33.4 24.4 6
      vertex 33.4 24.4 5.5
    endloop
  endfacet
  facet normal -1 0 0
    outer loop
      vertex 42.8 0 5.5
      vertex 42.8 1 6
      vertex 42.8 1 5.5
    endloop
  endfacet
  facet normal -1 -0 0
    outer loop
      vertex 42.8 1 6
      vertex 42.8 0 5.5
      vertex 42.8 0 6
    endloop
  endfacet
  facet normal 1 -0 0
    outer loop
      vertex 58.8 0 6
      vertex 58.8 1 5.5
      vertex 58.8 1 6
    endloop
  endfacet
  facet normal 1 0 0
    outer loop
      vertex 58.8 1 5.5
      vertex 58.8 0 6
      vertex 58.8 0 5.5
    endloop
  endfacet
  facet normal -1 0 0
    outer loop
      vertex 42.8 24.4 5.5
      vertex 42.8 25.4 6
      vertex 42.8 25.4 5.5
    endloop
  endfacet
  facet normal -1 -0 0
    outer loop
      vertex 42.8 25.4 6
      vertex 42.8 24.4 5.5
      vertex 42.8 24.4 6
    endloop
  endfacet
  facet normal 1 -0 0
    outer loop
      vertex 58.8 24.4 6
      vertex 58.8 25.4 5.5
      vertex 58.8 25.4 6
    endloop
  endfacet
  facet normal 1 0 0
    outer loop
      vertex 58.8 25.4 5.5
      vertex 58.8 24.4 6
      vertex 58.8 24.4 5.5
    endloop
  endfacet
  facet normal 1 -0 0
    outer loop
      vertex 84.2 0 6
      vertex 84.2 1 5.5
      vertex 84.2 1 6
    endloop
  endfacet
  facet normal 1 0 0
    outer loop
      vertex 84.2 1 5.5
      vertex 84.2 0 6
      vertex 84.2 0 5.5
    endloop
  endfacet
  facet normal -1 0 0
    outer loop
      vertex 68.2 0 5.5
      vertex 68.2 1 6
      vertex 68.2 1 5.5
    endloop
  endfacet
  facet normal -1 -0 0
    outer loop
      vertex 68.2 1 6
      vertex 68.2 0 5.5
      vertex 68.2 0 6
    endloop
  endfacet
  facet normal -1 0 0
    outer loop
      vertex 68.2 24.4 5.5
      vertex 68.2 25.4 6
      vertex 68.2 25.4 5.5
    endloop
  endfacet
  facet normal -1 -0 0
    outer loop
      vertex 68.2 25.4 6
      vertex 68.2 24.4 5.5
      vertex 68.2 24.4 6
    endloop
  endfacet
  facet normal 1 -0 0
    outer loop
      vertex 84.2 24.4 6
      vertex 84.2 25.4 5.5
      vertex 84.2 25.4 6
    endloop
  endfacet
  facet normal 1 0 0
    outer loop
      vertex 84.2 25.4 5.5
      vertex 84.2 24.4 6
      vertex 84.2 24.4 5.5
    endloop
  endfacet
  facet normal 0 0 -1
    outer loop
      vertex 96.59 7.7 5.6
      vertex 99.6 18.7 5.6
      vertex 99.6 6.7 5.6
    endloop
  endfacet
  facet normal 0 0 -1
    outer loop
      vertex 96.59 7.7 5.6
      vertex 96.59 17.7 5.6
      vertex 99.6 18.7 5.6
    endloop
  endfacet
  facet normal 0 0 -1
    outer loop
      vertex 94.05 7.7 5.6
      vertex 96.59 17.7 5.6
      vertex 96.59 7.7 5.6
    endloop
  endfacet
  facet normal -0 0 -1
    outer loop
      vertex 96.59 17.7 5.6
      vertex 94.05 7.7 5.6
      vertex 94.05 17.7 5.6
    endloop
  endfacet
  facet normal 0 0 -1
    outer loop
      vertex 99.6 6.7 5.6
      vertex 101.6 5.7 5.6
      vertex 99.6 5.7 5.6
    endloop
  endfacet
  facet normal 0 0 -1
    outer loop
      vertex 101.6 5.7 5.6
      vertex 99.6 6.7 5.6
      vertex 101.6 19.7 5.6
    endloop
  endfacet
  facet normal 0 0 -1
    outer loop
      vertex 99.6 18.7 5.6
      vertex 101.6 19.7 5.6
      vertex 99.6 6.7 5.6
    endloop
  endfacet
  facet normal -0 0 -1
    outer loop
      vertex 101.6 19.7 5.6
      vertex 99.6 18.7 5.6
      vertex 99.6 19.7 5.6
    endloop
  endfacet
  facet normal 1 -0 0
    outer loop
      vertex 99.6 18.7 5.6
      vertex 99.6 19.7 1.4
      vertex 99.6 19.7 5.6
    endloop
  endfacet
  facet normal 1 0 0
    outer loop
      vertex 99.6 19.7 1.4
      vertex 99.6 18.7 5.6
      vertex 99.6 18.7 1.4
    endloop
  endfacet
  facet normal 1 -0 0
    outer loop
      vertex 99.6 5.7 5.6
      vertex 99.6 6.7 1.4
      vertex 99.6 6.7 5.6
    endloop
  endfacet
  facet normal 1 0 0
    outer loop
      vertex 99.6 6.7 1.4
      vertex 99.6 5.7 5.6
      vertex 99.6 5.7 1.4
    endloop
  endfacet
  facet normal 0 1 -0
    outer loop
      vertex 101.6 5.7 1.4
      vertex 99.6 5.7 5.6
      vertex 101.6 5.7 5.6
    endloop
  endfacet
  facet normal 0 1 0
    outer loop
      vertex 99.6 5.7 5.6
      vertex 101.6 5.7 1.4
      vertex 99.6 5.7 1.4
    endloop
  endfacet
  facet normal -0 0 1
    outer loop
      vertex 96.59 17.7 1.4
      vertex 99.6 6.7 1.4
      vertex 99.6 18.7 1.4
    endloop
  endfacet
  facet normal 0 0 1
    outer loop
      vertex 96.59 17.7 1.4
      vertex 96.59 7.7 1.4
      vertex 99.6 6.7 1.4
    endloop
  endfacet
  facet normal -0 0 1
    outer loop
      vertex 94.05 17.7 1.4
      vertex 96.59 7.7 1.4
      vertex 96.59 17.7 1.4
    endloop
  endfacet
  facet normal 0 0 1
    outer loop
      vertex 96.59 7.7 1.4
      vertex 94.05 17.7 1.4
      vertex 94.05 7.7 1.4
    endloop
  endfacet
  facet normal 0 0 1
    outer loop
      vertex 99.6 18.7 1.4
      vertex 101.6 19.7 1.4
      vertex 99.6 19.7 1.4
    endloop
  endfacet
  facet normal 0 0 1
    outer loop
      vertex 101.6 19.7 1.4
      vertex 99.6 18.7 1.4
      vertex 101.6 5.7 1.4
    endloop
  endfacet
  facet normal -0 0 1
    outer loop
      vertex 99.6 6.7 1.4
      vertex 101.6 5.7 1.4
      vertex 99.6 18.7 1.4
    endloop
  endfacet
  facet normal 0 0 1
    outer loop
      vertex 101.6 5.7 1.4
      vertex 99.6 6.7 1.4
      vertex 99.6 5.7 1.4
    endloop
  endfacet
  facet normal 0 -1 0
    outer loop
      vertex 99.6 19.7 1.4
      vertex 101.6 19.7 5.6
      vertex 99.6 19.7 5.6
    endloop
  endfacet
  facet normal 0 -1 -0
    outer loop
      vertex 101.6 19.7 5.6
      vertex 99.6 19.7 1.4
      vertex 101.6 19.7 1.4
    endloop
  endfacet
  facet normal 0.315282 -0.948998 0
    outer loop
      vertex 96.59 17.7 1.4
      vertex 99.6 18.7 5.6
      vertex 96.59 17.7 5.6
    endloop
  endfacet
  facet normal 0.315282 -0.948998 0
    outer loop
      vertex 99.6 18.7 5.6
      vertex 96.59 17.7 1.4
      vertex 99.6 18.7 1.4
    endloop
  endfacet
  facet normal 0.315282 0.948998 -0
    outer loop
      vertex 99.6 6.7 1.4
      vertex 96.59 7.7 5.6
      vertex 99.6 6.7 5.6
    endloop
  endfacet
  facet normal 0.315282 0.948998 0
    outer loop
      vertex 96.59 7.7 5.6
      vertex 99.6 6.7 1.4
      vertex 96.59 7.7 1.4
    endloop
  endfacet
  facet normal 0 1 -0
    outer loop
      vertex 96.59 7.7 1.4
      vertex 94.05 7.7 5.6
      vertex 96.59 7.7 5.6
    endloop
  endfacet
  facet normal 0 1 0
    outer loop
      vertex 94.05 7.7 5.6
      vertex 96.59 7.7 1.4
      vertex 94.05 7.7 1.4
    endloop
  endfacet
  facet normal 0 -1 0
    outer loop
      vertex 94.05 17.7 1.4
      vertex 96.59 17.7 5.6
      vertex 94.05 17.7 5.6
    endloop
  endfacet
  facet normal 0 -1 -0
    outer loop
      vertex 96.59 17.7 5.6
      vertex 94.05 17.7 1.4
      vertex 96.59 17.7 1.4
    endloop
  endfacet
  facet normal 0 0 -1
    outer loop
      vertex 83.2 0 5.6
      vertex 82.2 2 5.6
      vertex 83.2 2 5.6
    endloop
  endfacet
  facet normal 0 0 -1
    outer loop
      vertex 81.2 5.01 5.6
      vertex 71.2 5.01 5.6
      vertex 81.2 7.55 5.6
    endloop
  endfacet
  facet normal 0 0 -1
    outer loop
      vertex 82.2 2 5.6
      vertex 71.2 5.01 5.6
      vertex 81.2 5.01 5.6
    endloop
  endfacet
  facet normal 0 0 -1
    outer loop
      vertex 70.2 2 5.6
      vertex 82.2 2 5.6
      vertex 83.2 0 5.6
    endloop
  endfacet
  facet normal 0 0 -1
    outer loop
      vertex 82.2 2 5.6
      vertex 70.2 2 5.6
      vertex 71.2 5.01 5.6
    endloop
  endfacet
  facet normal 0 0 -1
    outer loop
      vertex 69.2 0 5.6
      vertex 70.2 2 5.6
      vertex 83.2 0 5.6
    endloop
  endfacet
  facet normal -0 0 -1
    outer loop
      vertex 70.2 2 5.6
      vertex 69.2 0 5.6
      vertex 69.2 2 5.6
    endloop
  endfacet
  facet normal -0 0 -1
    outer loop
      vertex 81.2 7.55 5.6
      vertex 71.2 5.01 5.6
      vertex 71.2 7.55 5.6
    endloop
  endfacet
  facet normal 0 -1 0
    outer loop
      vertex 82.2 2 1.4
      vertex 83.2 2 5.6
      vertex 82.2 2 5.6
    endloop
  endfacet
  facet normal 0 -1 -0
    outer loop
      vertex 83.2 2 5.6
      vertex 82.2 2 1.4
      vertex 83.2 2 1.4
    endloop
  endfacet
  facet normal 0 -1 0
    outer loop
      vertex 69.2 2 1.4
      vertex 70.2 2 5.6
      vertex 69.2 2 5.6
    endloop
  endfacet
  facet normal 0 -1 -0
    outer loop
      vertex 70.2 2 5.6
      vertex 69.2 2 1.4
      vertex 70.2 2 1.4
    endloop
  endfacet
  facet normal 1 -0 0
    outer loop
      vertex 69.2 0 5.6
      vertex 69.2 2 1.4
      vertex 69.2 2 5.6
    endloop
  endfacet
  facet normal 1 0 0
    outer loop
      vertex 69.2 2 1.4
      vertex 69.2 0 5.6
      vertex 69.2 0 1.4
    endloop
  endfacet
  facet normal 0 0 1
    outer loop
      vertex 81.2 7.55 1.4
      vertex 71.2 7.55 1.4
      vertex 81.2 5.01 1.4
    endloop
  endfacet
  facet normal -0 0 1
    outer loop
      vertex 82.2 2 1.4
      vertex 83.2 0 1.4
      vertex 83.2 2 1.4
    endloop
  endfacet
  facet normal 0 0 1
    outer loop
      vertex 71.2 5.01 1.4
      vertex 81.2 5.01 1.4
      vertex 71.2 7.55 1.4
    endloop
  endfacet
  facet normal 0 0 1
    outer loop
      vertex 81.2 5.01 1.4
      vertex 71.2 5.01 1.4
      vertex 82.2 2 1.4
    endloop
  endfacet
  facet normal 0 0 1
    outer loop
      vertex 70.2 2 1.4
      vertex 82.2 2 1.4
      vertex 71.2 5.01 1.4
    endloop
  endfacet
  facet normal 0 0 1
    outer loop
      vertex 82.2 2 1.4
      vertex 70.2 2 1.4
      vertex 83.2 0 1.4
    endloop
  endfacet
  facet normal 0 0 1
    outer loop
      vertex 69.2 0 1.4
      vertex 70.2 2 1.4
      vertex 69.2 2 1.4
    endloop
  endfacet
  facet normal 0 0 1
    outer loop
      vertex 70.2 2 1.4
      vertex 69.2 0 1.4
      vertex 83.2 0 1.4
    endloop
  endfacet
  facet normal -1 0 0
    outer loop
      vertex 83.2 0 1.4
      vertex 83.2 2 5.6
      vertex 83.2 2 1.4
    endloop
  endfacet
  facet normal -1 -0 0
    outer loop
      vertex 83.2 2 5.6
      vertex 83.2 0 1.4
      vertex 83.2 0 5.6
    endloop
  endfacet
  facet normal -0.948998 -0.315282 0
    outer loop
      vertex 82.2 2 1.4
      vertex 81.2 5.01 5.6
      vertex 81.2 5.01 1.4
    endloop
  endfacet
  facet normal -0.948998 -0.315282 0
    outer loop
      vertex 81.2 5.01 5.6
      vertex 82.2 2 1.4
      vertex 82.2 2 5.6
    endloop
  endfacet
  facet normal 0.948998 -0.315282 0
    outer loop
      vertex 70.2 2 5.6
      vertex 71.2 5.01 1.4
      vertex 71.2 5.01 5.6
    endloop
  endfacet
  facet normal 0.948998 -0.315282 0
    outer loop
      vertex 71.2 5.01 1.4
      vertex 70.2 2 5.6
      vertex 70.2 2 1.4
    endloop
  endfacet
  facet normal 1 -0 0
    outer loop
      vertex 71.2 5.01 5.6
      vertex 71.2 7.55 1.4
      vertex 71.2 7.55 5.6
    endloop
  endfacet
  facet normal 1 0 0
    outer loop
      vertex 71.2 7.55 1.4
      vertex 71.2 5.01 5.6
      vertex 71.2 5.01 1.4
    endloop
  endfacet
  facet normal -1 0 0
    outer loop
      vertex 81.2 5.01 1.4
      vertex 81.2 7.55 5.6
      vertex 81.2 7.55 1.4
    endloop
  endfacet
  facet normal -1 -0 0
    outer loop
      vertex 81.2 7.55 5.6
      vertex 81.2 5.01 1.4
      vertex 81.2 5.01 5.6
    endloop
  endfacet
  facet normal 0 0 -1
    outer loop
      vertex 81.2 17.85 5.6
      vertex 71.2 17.85 5.6
      vertex 81.2 20.39 5.6
    endloop
  endfacet
  facet normal 0 0 -1
    outer loop
      vertex 82.2 23.4 5.6
      vertex 83.2 25.4 5.6
      vertex 83.2 23.4 5.6
    endloop
  endfacet
  facet normal 0 0 -1
    outer loop
      vertex 71.2 20.39 5.6
      vertex 81.2 20.39 5.6
      vertex 71.2 17.85 5.6
    endloop
  endfacet
  facet normal 0 0 -1
    outer loop
      vertex 81.2 20.39 5.6
      vertex 71.2 20.39 5.6
      vertex 82.2 23.4 5.6
    endloop
  endfacet
  facet normal 0 0 -1
    outer loop
      vertex 70.2 23.4 5.6
      vertex 82.2 23.4 5.6
      vertex 71.2 20.39 5.6
    endloop
  endfacet
  facet normal 0 0 -1
    outer loop
      vertex 82.2 23.4 5.6
      vertex 70.2 23.4 5.6
      vertex 83.2 25.4 5.6
    endloop
  endfacet
  facet normal 0 0 -1
    outer loop
      vertex 69.2 25.4 5.6
      vertex 70.2 23.4 5.6
      vertex 69.2 23.4 5.6
    endloop
  endfacet
  facet normal 0 0 -1
    outer loop
      vertex 70.2 23.4 5.6
      vertex 69.2 25.4 5.6
      vertex 83.2 25.4 5.6
    endloop
  endfacet
  facet normal 0 1 -0
    outer loop
      vertex 70.2 23.4 1.4
      vertex 69.2 23.4 5.6
      vertex 70.2 23.4 5.6
    endloop
  endfacet
  facet normal 0 1 0
    outer loop
      vertex 69.2 23.4 5.6
      vertex 70.2 23.4 1.4
      vertex 69.2 23.4 1.4
    endloop
  endfacet
  facet normal 0 1 -0
    outer loop
      vertex 83.2 23.4 1.4
      vertex 82.2 23.4 5.6
      vertex 83.2 23.4 5.6
    endloop
  endfacet
  facet normal 0 1 0
    outer loop
      vertex 82.2 23.4 5.6
      vertex 83.2 23.4 1.4
      vertex 82.2 23.4 1.4
    endloop
  endfacet
  facet normal -1 0 0
    outer loop
      vertex 83.2 23.4 1.4
      vertex 83.2 25.4 5.6
      vertex 83.2 25.4 1.4
    endloop
  endfacet
  facet normal -1 -0 0
    outer loop
      vertex 83.2 25.4 5.6
      vertex 83.2 23.4 1.4
      vertex 83.2 23.4 5.6
    endloop
  endfacet
  facet normal 0 0 1
    outer loop
      vertex 83.2 25.4 1.4
      vertex 82.2 23.4 1.4
      vertex 83.2 23.4 1.4
    endloop
  endfacet
  facet normal 0 0 1
    outer loop
      vertex 81.2 20.39 1.4
      vertex 71.2 20.39 1.4
      vertex 81.2 17.85 1.4
    endloop
  endfacet
  facet normal 0 0 1
    outer loop
      vertex 82.2 23.4 1.4
      vertex 71.2 20.39 1.4
      vertex 81.2 20.39 1.4
    endloop
  endfacet
  facet normal 0 0 1
    outer loop
      vertex 70.2 23.4 1.4
      vertex 82.2 23.4 1.4
      vertex 83.2 25.4 1.4
    endloop
  endfacet
  facet normal 0 0 1
    outer loop
      vertex 82.2 23.4 1.4
      vertex 70.2 23.4 1.4
      vertex 71.2 20.39 1.4
    endloop
  endfacet
  facet normal -0 0 1
    outer loop
      vertex 69.2 25.4 1.4
      vertex 70.2 23.4 1.4
      vertex 83.2 25.4 1.4
    endloop
  endfacet
  facet normal 0 0 1
    outer loop
      vertex 70.2 23.4 1.4
      vertex 69.2 25.4 1.4
      vertex 69.2 23.4 1.4
    endloop
  endfacet
  facet normal 0 0 1
    outer loop
      vertex 81.2 17.85 1.4
      vertex 71.2 20.39 1.4
      vertex 71.2 17.85 1.4
    endloop
  endfacet
  facet normal 1 -0 0
    outer loop
      vertex 69.2 23.4 5.6
      vertex 69.2 25.4 1.4
      vertex 69.2 25.4 5.6
    endloop
  endfacet
  facet normal 1 0 0
    outer loop
      vertex 69.2 25.4 1.4
      vertex 69.2 23.4 5.6
      vertex 69.2 23.4 1.4
    endloop
  endfacet
  facet normal 0.948998 0.315282 0
    outer loop
      vertex 71.2 20.39 5.6
      vertex 70.2 23.4 1.4
      vertex 70.2 23.4 5.6
    endloop
  endfacet
  facet normal 0.948998 0.315282 0
    outer loop
      vertex 70.2 23.4 1.4
      vertex 71.2 20.39 5.6
      vertex 71.2 20.39 1.4
    endloop
  endfacet
  facet normal -0.948998 0.315282 0
    outer loop
      vertex 81.2 20.39 1.4
      vertex 82.2 23.4 5.6
      vertex 82.2 23.4 1.4
    endloop
  endfacet
  facet normal -0.948998 0.315282 0
    outer loop
      vertex 82.2 23.4 5.6
      vertex 81.2 20.39 1.4
      vertex 81.2 20.39 5.6
    endloop
  endfacet
  facet normal -1 0 0
    outer loop
      vertex 81.2 17.85 1.4
      vertex 81.2 20.39 5.6
      vertex 81.2 20.39 1.4
    endloop
  endfacet
  facet normal -1 -0 0
    outer loop
      vertex 81.2 20.39 5.6
      vertex 81.2 17.85 1.4
      vertex 81.2 17.85 5.6
    endloop
  endfacet
  facet normal 1 -0 0
    outer loop
      vertex 71.2 17.85 5.6
      vertex 71.2 20.39 1.4
      vertex 71.2 20.39 5.6
    endloop
  endfacet
  facet normal 1 0 0
    outer loop
      vertex 71.2 20.39 1.4
      vertex 71.2 17.85 5.6
      vertex 71.2 17.85 1.4
    endloop
  endfacet
endsolid OpenSCAD_Model
