solid OpenSCAD_Model
  facet normal 0 0 -1
    outer loop
      vertex 32.4 0 5.6
      vertex 31.4 2 5.6
      vertex 32.4 2 5.6
    endloop
  endfacet
  facet normal 0 0 -1
    outer loop
      vertex 30.4 5.01 5.6
      vertex 20.4 5.01 5.6
      vertex 30.4 7.55 5.6
    endloop
  endfacet
  facet normal 0 0 -1
    outer loop
      vertex 31.4 2 5.6
      vertex 20.4 5.01 5.6
      vertex 30.4 5.01 5.6
    endloop
  endfacet
  facet normal 0 0 -1
    outer loop
      vertex 19.4 2 5.6
      vertex 31.4 2 5.6
      vertex 32.4 0 5.6
    endloop
  endfacet
  facet normal 0 0 -1
    outer loop
      vertex 31.4 2 5.6
      vertex 19.4 2 5.6
      vertex 20.4 5.01 5.6
    endloop
  endfacet
  facet normal 0 0 -1
    outer loop
      vertex 18.4 0 5.6
      vertex 19.4 2 5.6
      vertex 32.4 0 5.6
    endloop
  endfacet
  facet normal -0 0 -1
    outer loop
      vertex 19.4 2 5.6
      vertex 18.4 0 5.6
      vertex 18.4 2 5.6
    endloop
  endfacet
  facet normal -0 0 -1
    outer loop
      vertex 30.4 7.55 5.6
      vertex 20.4 5.01 5.6
      vertex 20.4 7.55 5.6
    endloop
  endfacet
  facet normal 0 -1 0
    outer loop
      vertex 31.4 2 1.4
      vertex 32.4 2 5.6
      vertex 31.4 2 5.6
    endloop
  endfacet
  facet normal 0 -1 -0
    outer loop
      vertex 32.4 2 5.6
      vertex 31.4 2 1.4
      vertex 32.4 2 1.4
    endloop
  endfacet
  facet normal 0 -1 0
    outer loop
      vertex 18.4 2 1.4
      vertex 19.4 2 5.6
      vertex 18.4 2 5.6
    endloop
  endfacet
  facet normal 0 -1 -0
    outer loop
      vertex 19.4 2 5.6
      vertex 18.4 2 1.4
      vertex 19.4 2 1.4
    endloop
  endfacet
  facet normal 1 -0 0
    outer loop
      vertex 18.4 0 5.6
      vertex 18.4 2 1.4
      vertex 18.4 2 5.6
    endloop
  endfacet
  facet normal 1 0 0
    outer loop
      vertex 18.4 2 1.4
      vertex 18.4 0 5.6
      vertex 18.4 0 1.4
    endloop
  endfacet
  facet normal 0 0 1
    outer loop
      vertex 30.4 7.55 1.4
      vertex 20.4 7.55 1.4
      vertex 30.4 5.01 1.4
    endloop
  endfacet
  facet normal -0 0 1
    outer loop
      vertex 31.4 2 1.4
      vertex 32.4 0 1.4
      vertex 32.4 2 1.4
    endloop
  endfacet
  facet normal 0 0 1
    outer loop
      vertex 20.4 5.01 1.4
      vertex 30.4 5.01 1.4
      vertex 20.4 7.55 1.4
    endloop
  endfacet
  facet normal 0 0 1
    outer loop
      vertex 30.4 5.01 1.4
      vertex 20.4 5.01 1.4
      vertex 31.4 2 1.4
    endloop
  endfacet
  facet normal 0 0 1
    outer loop
      vertex 19.4 2 1.4
      vertex 31.4 2 1.4
      vertex 20.4 5.01 1.4
    endloop
  endfacet
  facet normal 0 0 1
    outer loop
      vertex 31.4 2 1.4
      vertex 19.4 2 1.4
      vertex 32.4 0 1.4
    endloop
  endfacet
  facet normal 0 0 1
    outer loop
      vertex 18.4 0 1.4
      vertex 19.4 2 1.4
      vertex 18.4 2 1.4
    endloop
  endfacet
  facet normal 0 0 1
    outer loop
      vertex 19.4 2 1.4
      vertex 18.4 0 1.4
      vertex 32.4 0 1.4
    endloop
  endfacet
  facet normal -1 0 0
    outer loop
      vertex 32.4 0 1.4
      vertex 32.4 2 5.6
      vertex 32.4 2 1.4
    endloop
  endfacet
  facet normal -1 -0 0
    outer loop
      vertex 32.4 2 5.6
      vertex 32.4 0 1.4
      vertex 32.4 0 5.6
    endloop
  endfacet
  facet normal -0.948998 -0.315282 0
    outer loop
      vertex 31.4 2 1.4
      vertex 30.4 5.01 5.6
      vertex 30.4 5.01 1.4
    endloop
  endfacet
  facet normal -0.948998 -0.315282 0
    outer loop
      vertex 30.4 5.01 5.6
      vertex 31.4 2 1.4
      vertex 31.4 2 5.6
    endloop
  endfacet
  facet normal 0.948998 -0.315282 0
    outer loop
      vertex 19.4 2 5.6
      vertex 20.4 5.01 1.4
      vertex 20.4 5.01 5.6
    endloop
  endfacet
  facet normal 0.948998 -0.315282 0
    outer loop
      vertex 20.4 5.01 1.4
      vertex 19.4 2 5.6
      vertex 19.4 2 1.4
    endloop
  endfacet
  facet normal 1 -0 0
    outer loop
      vertex 20.4 5.01 5.6
      vertex 20.4 7.55 1.4
      vertex 20.4 7.55 5.6
    endloop
  endfacet
  facet normal 1 0 0
    outer loop
      vertex 20.4 7.55 1.4
      vertex 20.4 5.01 5.6
      vertex 20.4 5.01 1.4
    endloop
  endfacet
  facet normal -1 0 0
    outer loop
      vertex 30.4 5.01 1.4
      vertex 30.4 7.55 5.6
      vertex 30.4 7.55 1.4
    endloop
  endfacet
  facet normal -1 -0 0
    outer loop
      vertex 30.4 7.55 5.6
      vertex 30.4 5.01 1.4
      vertex 30.4 5.01 5.6
    endloop
  endfacet
  facet normal 0 0 -1
    outer loop
      vertex 0 5.7 5.6
      vertex 2 6.7 5.6
      vertex 2 5.7 5.6
    endloop
  endfacet
  facet normal -0 0 -1
    outer loop
      vertex 2 6.7 5.6
      vertex 0 5.7 5.6
      vertex 2 18.7 5.6
    endloop
  endfacet
  facet normal 0 0 -1
    outer loop
      vertex 0 19.7 5.6
      vertex 2 18.7 5.6
      vertex 0 5.7 5.6
    endloop
  endfacet
  facet normal 0 0 -1
    outer loop
      vertex 2 18.7 5.6
      vertex 0 19.7 5.6
      vertex 2 19.7 5.6
    endloop
  endfacet
  facet normal 0 0 -1
    outer loop
      vertex 5.01 7.7 5.6
      vertex 7.55 17.7 5.6
      vertex 7.55 7.7 5.6
    endloop
  endfacet
  facet normal 0 0 -1
    outer loop
      vertex 5.01 7.7 5.6
      vertex 5.01 17.7 5.6
      vertex 7.55 17.7 5.6
    endloop
  endfacet
  facet normal 0 0 -1
    outer loop
      vertex 2 6.7 5.6
      vertex 5.01 17.7 5.6
      vertex 5.01 7.7 5.6
    endloop
  endfacet
  facet normal -0 0 -1
    outer loop
      vertex 5.01 17.7 5.6
      vertex 2 6.7 5.6
      vertex 2 18.7 5.6
    endloop
  endfacet
  facet normal -1 0 0
    outer loop
      vertex 2 5.7 1.4
      vertex 2 6.7 5.6
      vertex 2 6.7 1.4
    endloop
  endfacet
  facet normal -1 -0 0
    outer loop
      vertex 2 6.7 5.6
      vertex 2 5.7 1.4
      vertex 2 5.7 5.6
    endloop
  endfacet
  facet normal -1 0 0
    outer loop
      vertex 2 18.7 1.4
      vertex 2 19.7 5.6
      vertex 2 19.7 1.4
    endloop
  endfacet
  facet normal -1 -0 0
    outer loop
      vertex 2 19.7 5.6
      vertex 2 18.7 1.4
      vertex 2 18.7 5.6
    endloop
  endfacet
  facet normal 0 -1 0
    outer loop
      vertex 0 19.7 1.4
      vertex 2 19.7 5.6
      vertex 0 19.7 5.6
    endloop
  endfacet
  facet normal 0 -1 -0
    outer loop
      vertex 2 19.7 5.6
      vertex 0 19.7 1.4
      vertex 2 19.7 1.4
    endloop
  endfacet
  facet normal -0 0 1
    outer loop
      vertex 0 19.7 1.4
      vertex 2 18.7 1.4
      vertex 2 19.7 1.4
    endloop
  endfacet
  facet normal 0 0 1
    outer loop
      vertex 2 18.7 1.4
      vertex 0 19.7 1.4
      vertex 2 6.7 1.4
    endloop
  endfacet
  facet normal 0 0 1
    outer loop
      vertex 0 5.7 1.4
      vertex 2 6.7 1.4
      vertex 0 19.7 1.4
    endloop
  endfacet
  facet normal 0 0 1
    outer loop
      vertex 2 6.7 1.4
      vertex 0 5.7 1.4
      vertex 2 5.7 1.4
    endloop
  endfacet
  facet normal -0 0 1
    outer loop
      vertex 5.01 17.7 1.4
      vertex 7.55 7.7 1.4
      vertex 7.55 17.7 1.4
    endloop
  endfacet
  facet normal 0 0 1
    outer loop
      vertex 5.01 17.7 1.4
      vertex 5.01 7.7 1.4
      vertex 7.55 7.7 1.4
    endloop
  endfacet
  facet normal 0 0 1
    outer loop
      vertex 2 18.7 1.4
      vertex 5.01 7.7 1.4
      vertex 5.01 17.7 1.4
    endloop
  endfacet
  facet normal 0 0 1
    outer loop
      vertex 5.01 7.7 1.4
      vertex 2 18.7 1.4
      vertex 2 6.7 1.4
    endloop
  endfacet
  facet normal 0 1 -0
    outer loop
      vertex 2 5.7 1.4
      vertex 0 5.7 5.6
      vertex 2 5.7 5.6
    endloop
  endfacet
  facet normal 0 1 0
    outer loop
      vertex 0 5.7 5.6
      vertex 2 5.7 1.4
      vertex 0 5.7 1.4
    endloop
  endfacet
  facet normal -0.315282 0.948998 0
    outer loop
      vertex 5.01 7.7 1.4
      vertex 2 6.7 5.6
      vertex 5.01 7.7 5.6
    endloop
  endfacet
  facet normal -0.315282 0.948998 0
    outer loop
      vertex 2 6.7 5.6
      vertex 5.01 7.7 1.4
      vertex 2 6.7 1.4
    endloop
  endfacet
  facet normal -0.315282 -0.948998 0
    outer loop
      vertex 2 18.7 1.4
      vertex 5.01 17.7 5.6
      vertex 2 18.7 5.6
    endloop
  endfacet
  facet normal -0.315282 -0.948998 -0
    outer loop
      vertex 5.01 17.7 5.6
      vertex 2 18.7 1.4
      vertex 5.01 17.7 1.4
    endloop
  endfacet
  facet normal 0 -1 0
    outer loop
      vertex 5.01 17.7 1.4
      vertex 7.55 17.7 5.6
      vertex 5.01 17.7 5.6
    endloop
  endfacet
  facet normal 0 -1 -0
    outer loop
      vertex 7.55 17.7 5.6
      vertex 5.01 17.7 1.4
      vertex 7.55 17.7 1.4
    endloop
  endfacet
  facet normal 0 1 -0
    outer loop
      vertex 7.55 7.7 1.4
      vertex 5.01 7.7 5.6
      vertex 7.55 7.7 5.6
    endloop
  endfacet
  facet normal 0 1 0
    outer loop
      vertex 5.01 7.7 5.6
      vertex 7.55 7.7 1.4
      vertex 5.01 7.7 1.4
    endloop
  endfacet
  facet normal -1 0 0
    outer loop
      vertex 0 25.4 0
      vertex 0 20.7 5.5
      vertex 0 25.4 5.5
    endloop
  endfacet
  facet normal -1 0 0
    outer loop
      vertex 0 19.7 5.6
      vertex 0 20.7 5.5
      vertex 0 19.7 1.4
    endloop
  endfacet
  facet normal -1 0 0
    outer loop
      vertex 0 25.4 0
      vertex 0 19.7 1.4
      vertex 0 20.7 5.5
    endloop
  endfacet
  facet normal -1 0 0
    outer loop
      vertex 0 25.4 0
      vertex 0 5.7 1.4
      vertex 0 19.7 1.4
    endloop
  endfacet
  facet normal -1 0 0
    outer loop
      vertex 0 5.7 1.4
      vertex 0 4.7 5.5
      vertex 0 5.7 5.6
    endloop
  endfacet
  facet normal -1 0 0
    outer loop
      vertex 0 0 0
      vertex 0 5.7 1.4
      vertex 0 25.4 0
    endloop
  endfacet
  facet normal -1 0 0
    outer loop
      vertex 0 0 0
      vertex 0 4.7 5.5
      vertex 0 5.7 1.4
    endloop
  endfacet
  facet normal -1 -0 0
    outer loop
      vertex 0 4.7 5.5
      vertex 0 0 0
      vertex 0 0 5.5
    endloop
  endfacet
  facet normal -1 0 0
    outer loop
      vertex 0 20.7 5.5
      vertex 0 19.7 5.6
      vertex 0 20.7 6
    endloop
  endfacet
  facet normal -1 0 0
    outer loop
      vertex 0 5.7 5.6
      vertex 0 20.7 6
      vertex 0 19.7 5.6
    endloop
  endfacet
  facet normal -1 0 0
    outer loop
      vertex 0 5.7 5.6
      vertex 0 4.7 6
      vertex 0 20.7 6
    endloop
  endfacet
  facet normal -1 0 0
    outer loop
      vertex 0 4.7 6
      vertex 0 5.7 5.6
      vertex 0 4.7 5.5
    endloop
  endfacet
  facet normal 0 0 1
    outer loop
      vertex 1 4.7 5.5
      vertex 0 4.7 5.5
      vertex 1 1 5.5
    endloop
  endfacet
  facet normal -0 0 1
    outer loop
      vertex 1 1 5.5
      vertex 9.2 0 5.5
      vertex 9.2 1 5.5
    endloop
  endfacet
  facet normal 0 0 1
    outer loop
      vertex 1 1 5.5
      vertex 0 0 5.5
      vertex 9.2 0 5.5
    endloop
  endfacet
  facet normal 0 0 1
    outer loop
      vertex 0 0 5.5
      vertex 1 1 5.5
      vertex 0 4.7 5.5
    endloop
  endfacet
  facet normal 1 -0 0
    outer loop
      vertex 9.2 0 5.5
      vertex 9.2 1 0
      vertex 9.2 1 5.5
    endloop
  endfacet
  facet normal 1 0 0
    outer loop
      vertex 9.2 1 0
      vertex 9.2 0 5.5
      vertex 9.2 0 0
    endloop
  endfacet
  facet normal 0 0 -1
    outer loop
      vertex 39.8 0 0
      vertex 10.2 0 0
      vertex 39.8 1 0
    endloop
  endfacet
  facet normal 0 0 -1
    outer loop
      vertex 43.25 17.85 0
      vertex 39.8 24.4 0
      vertex 40.8 24.4 0
    endloop
  endfacet
  facet normal 0 0 -1
    outer loop
      vertex 39.8 24.4 0
      vertex 10.2 24.4 0
      vertex 39.8 25.4 0
    endloop
  endfacet
  facet normal 0 0 -1
    outer loop
      vertex 7.55 17.85 0
      vertex 39.8 24.4 0
      vertex 43.25 17.85 0
    endloop
  endfacet
  facet normal -0 0 -1
    outer loop
      vertex 39.8 24.4 0
      vertex 7.55 17.85 0
      vertex 10.2 24.4 0
    endloop
  endfacet
  facet normal -0 0 -1
    outer loop
      vertex 10.2 24.4 0
      vertex 7.55 17.85 0
      vertex 9.2 24.4 0
    endloop
  endfacet
  facet normal 0 0 -1
    outer loop
      vertex 0 25.4 0
      vertex 9.2 24.4 0
      vertex 7.55 17.85 0
    endloop
  endfacet
  facet normal 0 0 -1
    outer loop
      vertex 0 25.4 0
      vertex 7.55 17.85 0
      vertex 0 0 0
    endloop
  endfacet
  facet normal 0 0 -1
    outer loop
      vertex 9.2 24.4 0
      vertex 0 25.4 0
      vertex 9.2 25.4 0
    endloop
  endfacet
  facet normal 0 0 -1
    outer loop
      vertex 50.8 0 0
      vertex 43.25 7.55 0
      vertex 50.8 25.4 0
    endloop
  endfacet
  facet normal 0 0 -1
    outer loop
      vertex 40.8 1 0
      vertex 50.8 0 0
      vertex 40.8 0 0
    endloop
  endfacet
  facet normal 0 0 -1
    outer loop
      vertex 50.8 0 0
      vertex 40.8 1 0
      vertex 43.25 7.55 0
    endloop
  endfacet
  facet normal 0 0 -1
    outer loop
      vertex 39.8 1 0
      vertex 43.25 7.55 0
      vertex 40.8 1 0
    endloop
  endfacet
  facet normal 0 0 -1
    outer loop
      vertex 10.2 1 0
      vertex 39.8 1 0
      vertex 10.2 0 0
    endloop
  endfacet
  facet normal 0 0 -1
    outer loop
      vertex 7.55 7.55 0
      vertex 39.8 1 0
      vertex 10.2 1 0
    endloop
  endfacet
  facet normal 0 0 -1
    outer loop
      vertex 7.55 7.55 0
      vertex 10.2 1 0
      vertex 9.2 1 0
    endloop
  endfacet
  facet normal 0 0 -1
    outer loop
      vertex 39.8 1 0
      vertex 7.55 7.55 0
      vertex 43.25 7.55 0
    endloop
  endfacet
  facet normal 0 0 -1
    outer loop
      vertex 43.25 17.85 0
      vertex 50.8 25.4 0
      vertex 43.25 7.55 0
    endloop
  endfacet
  facet normal 0 0 -1
    outer loop
      vertex 40.8 24.4 0
      vertex 50.8 25.4 0
      vertex 43.25 17.85 0
    endloop
  endfacet
  facet normal -0 0 -1
    outer loop
      vertex 50.8 25.4 0
      vertex 40.8 24.4 0
      vertex 40.8 25.4 0
    endloop
  endfacet
  facet normal 0 0 -1
    outer loop
      vertex 0 0 0
      vertex 9.2 1 0
      vertex 9.2 0 0
    endloop
  endfacet
  facet normal -0 0 -1
    outer loop
      vertex 7.55 7.55 0
      vertex 0 0 0
      vertex 7.55 17.85 0
    endloop
  endfacet
  facet normal -0 0 -1
    outer loop
      vertex 9.2 1 0
      vertex 0 0 0
      vertex 7.55 7.55 0
    endloop
  endfacet
  facet normal -0 0 -1
    outer loop
      vertex 39.8 25.4 0
      vertex 10.2 24.4 0
      vertex 10.2 25.4 0
    endloop
  endfacet
  facet normal 0 -1 0
    outer loop
      vertex 40.8 0 0
      vertex 50.8 0 5.5
      vertex 40.8 0 5.5
    endloop
  endfacet
  facet normal 0 -1 -0
    outer loop
      vertex 50.8 0 5.5
      vertex 40.8 0 0
      vertex 50.8 0 0
    endloop
  endfacet
  facet normal 0 -1 0
    outer loop
      vertex 10.2 0 0
      vertex 17.4 0 5.5
      vertex 10.2 0 5.5
    endloop
  endfacet
  facet normal 0 -1 0
    outer loop
      vertex 39.8 0 0
      vertex 18.4 0 1.4
      vertex 10.2 0 0
    endloop
  endfacet
  facet normal 0 -1 -0
    outer loop
      vertex 17.4 0 5.5
      vertex 10.2 0 0
      vertex 18.4 0 1.4
    endloop
  endfacet
  facet normal 0 -1 0
    outer loop
      vertex 17.4 0 6
      vertex 18.4 0 5.6
      vertex 33.4 0 6
    endloop
  endfacet
  facet normal 0 -1 0
    outer loop
      vertex 17.4 0 5.5
      vertex 18.4 0 5.6
      vertex 17.4 0 6
    endloop
  endfacet
  facet normal 0 -1 -0
    outer loop
      vertex 18.4 0 5.6
      vertex 17.4 0 5.5
      vertex 18.4 0 1.4
    endloop
  endfacet
  facet normal 0 -1 0
    outer loop
      vertex 32.4 0 5.6
      vertex 33.4 0 6
      vertex 18.4 0 5.6
    endloop
  endfacet
  facet normal 0 -1 0
    outer loop
      vertex 32.4 0 5.6
      vertex 33.4 0 5.5
      vertex 33.4 0 6
    endloop
  endfacet
  facet normal 0 -1 0
    outer loop
      vertex 32.4 0 1.4
      vertex 33.4 0 5.5
      vertex 32.4 0 5.6
    endloop
  endfacet
  facet normal 0 -1 0
    outer loop
      vertex 39.8 0 0
      vertex 33.4 0 5.5
      vertex 32.4 0 1.4
    endloop
  endfacet
  facet normal 0 -1 0
    outer loop
      vertex 33.4 0 5.5
      vertex 39.8 0 0
      vertex 39.8 0 5.5
    endloop
  endfacet
  facet normal 0 -1 0
    outer loop
      vertex 18.4 0 1.4
      vertex 39.8 0 0
      vertex 32.4 0 1.4
    endloop
  endfacet
  facet normal 0 -1 0
    outer loop
      vertex 0 0 0
      vertex 9.2 0 5.5
      vertex 0 0 5.5
    endloop
  endfacet
  facet normal 0 -1 -0
    outer loop
      vertex 9.2 0 5.5
      vertex 0 0 0
      vertex 9.2 0 0
    endloop
  endfacet
  facet normal 0 0 1
    outer loop
      vertex 9.2 25.4 5.5
      vertex 1 24.4 5.5
      vertex 9.2 24.4 5.5
    endloop
  endfacet
  facet normal -0 0 1
    outer loop
      vertex 0 25.4 5.5
      vertex 1 24.4 5.5
      vertex 9.2 25.4 5.5
    endloop
  endfacet
  facet normal 0 0 1
    outer loop
      vertex 0 20.7 5.5
      vertex 1 24.4 5.5
      vertex 0 25.4 5.5
    endloop
  endfacet
  facet normal 0 0 1
    outer loop
      vertex 1 24.4 5.5
      vertex 0 20.7 5.5
      vertex 1 20.7 5.5
    endloop
  endfacet
  facet normal 1 -0 0
    outer loop
      vertex 9.2 24.4 5.5
      vertex 9.2 25.4 0
      vertex 9.2 25.4 5.5
    endloop
  endfacet
  facet normal 1 0 0
    outer loop
      vertex 9.2 25.4 0
      vertex 9.2 24.4 5.5
      vertex 9.2 24.4 0
    endloop
  endfacet
  facet normal -1 0 0
    outer loop
      vertex 10.2 0 0
      vertex 10.2 1 5.5
      vertex 10.2 1 0
    endloop
  endfacet
  facet normal -1 -0 0
    outer loop
      vertex 10.2 1 5.5
      vertex 10.2 0 0
      vertex 10.2 0 5.5
    endloop
  endfacet
  facet normal -0 0 1
    outer loop
      vertex 10.2 1 5.5
      vertex 17.4 0 5.5
      vertex 17.4 1 5.5
    endloop
  endfacet
  facet normal 0 0 1
    outer loop
      vertex 17.4 0 5.5
      vertex 10.2 1 5.5
      vertex 10.2 0 5.5
    endloop
  endfacet
  facet normal -1 0 0
    outer loop
      vertex 10.2 24.4 0
      vertex 10.2 25.4 5.5
      vertex 10.2 25.4 0
    endloop
  endfacet
  facet normal -1 -0 0
    outer loop
      vertex 10.2 25.4 5.5
      vertex 10.2 24.4 0
      vertex 10.2 24.4 5.5
    endloop
  endfacet
  facet normal -0 0 1
    outer loop
      vertex 10.2 25.4 5.5
      vertex 17.4 24.4 5.5
      vertex 17.4 25.4 5.5
    endloop
  endfacet
  facet normal 0 0 1
    outer loop
      vertex 17.4 24.4 5.5
      vertex 10.2 25.4 5.5
      vertex 10.2 24.4 5.5
    endloop
  endfacet
  facet normal -0 0 1
    outer loop
      vertex 33.4 1 5.5
      vertex 39.8 0 5.5
      vertex 39.8 1 5.5
    endloop
  endfacet
  facet normal 0 0 1
    outer loop
      vertex 39.8 0 5.5
      vertex 33.4 1 5.5
      vertex 33.4 0 5.5
    endloop
  endfacet
  facet normal 1 -0 0
    outer loop
      vertex 39.8 0 5.5
      vertex 39.8 1 0
      vertex 39.8 1 5.5
    endloop
  endfacet
  facet normal 1 0 0
    outer loop
      vertex 39.8 1 0
      vertex 39.8 0 5.5
      vertex 39.8 0 0
    endloop
  endfacet
  facet normal -0 0 1
    outer loop
      vertex 33.4 25.4 5.5
      vertex 39.8 24.4 5.5
      vertex 39.8 25.4 5.5
    endloop
  endfacet
  facet normal 0 0 1
    outer loop
      vertex 39.8 24.4 5.5
      vertex 33.4 25.4 5.5
      vertex 33.4 24.4 5.5
    endloop
  endfacet
  facet normal 1 -0 0
    outer loop
      vertex 39.8 24.4 5.5
      vertex 39.8 25.4 0
      vertex 39.8 25.4 5.5
    endloop
  endfacet
  facet normal 1 0 0
    outer loop
      vertex 39.8 25.4 0
      vertex 39.8 24.4 5.5
      vertex 39.8 24.4 0
    endloop
  endfacet
  facet normal -1 0 0
    outer loop
      vertex 40.8 0 0
      vertex 40.8 1 5.5
      vertex 40.8 1 0
    endloop
  endfacet
  facet normal -1 -0 0
    outer loop
      vertex 40.8 1 5.5
      vertex 40.8 0 0
      vertex 40.8 0 5.5
    endloop
  endfacet
  facet normal 0 0 1
    outer loop
      vertex 49.8 1 5.5
      vertex 50.8 4.7 5.5
      vertex 49.8 4.7 5.5
    endloop
  endfacet
  facet normal 0 0 1
    outer loop
      vertex 50.8 4.7 5.5
      vertex 49.8 1 5.5
      vertex 50.8 0 5.5
    endloop
  endfacet
  facet normal 0 0 1
    outer loop
      vertex 40.8 0 5.5
      vertex 49.8 1 5.5
      vertex 40.8 1 5.5
    endloop
  endfacet
  facet normal 0 0 1
    outer loop
      vertex 49.8 1 5.5
      vertex 40.8 0 5.5
      vertex 50.8 0 5.5
    endloop
  endfacet
  facet normal -1 0 0
    outer loop
      vertex 40.8 24.4 0
      vertex 40.8 25.4 5.5
      vertex 40.8 25.4 0
    endloop
  endfacet
  facet normal -1 -0 0
    outer loop
      vertex 40.8 25.4 5.5
      vertex 40.8 24.4 0
      vertex 40.8 24.4 5.5
    endloop
  endfacet
  facet normal 0 0 1
    outer loop
      vertex 50.8 25.4 5.5
      vertex 49.8 24.4 5.5
      vertex 50.8 20.7 5.5
    endloop
  endfacet
  facet normal -0 0 1
    outer loop
      vertex 40.8 25.4 5.5
      vertex 49.8 24.4 5.5
      vertex 50.8 25.4 5.5
    endloop
  endfacet
  facet normal 0 0 1
    outer loop
      vertex 49.8 24.4 5.5
      vertex 40.8 25.4 5.5
      vertex 40.8 24.4 5.5
    endloop
  endfacet
  facet normal 0 0 1
    outer loop
      vertex 50.8 20.7 5.5
      vertex 49.8 24.4 5.5
      vertex 49.8 20.7 5.5
    endloop
  endfacet
  facet normal 1 0 0
    outer loop
      vertex 50.8 20.7 6
      vertex 50.8 19.7 5.6
      vertex 50.8 20.7 5.5
    endloop
  endfacet
  facet normal 1 0 0
    outer loop
      vertex 50.8 20.7 6
      vertex 50.8 5.7 5.6
      vertex 50.8 19.7 5.6
    endloop
  endfacet
  facet normal 1 0 0
    outer loop
      vertex 50.8 4.7 5.5
      vertex 50.8 5.7 5.6
      vertex 50.8 4.7 6
    endloop
  endfacet
  facet normal 1 -0 0
    outer loop
      vertex 50.8 4.7 6
      vertex 50.8 5.7 5.6
      vertex 50.8 20.7 6
    endloop
  endfacet
  facet normal 1 -0 0
    outer loop
      vertex 50.8 20.7 5.5
      vertex 50.8 25.4 0
      vertex 50.8 25.4 5.5
    endloop
  endfacet
  facet normal 1 0 0
    outer loop
      vertex 50.8 19.7 1.4
      vertex 50.8 20.7 5.5
      vertex 50.8 19.7 5.6
    endloop
  endfacet
  facet normal 1 0 0
    outer loop
      vertex 50.8 20.7 5.5
      vertex 50.8 19.7 1.4
      vertex 50.8 25.4 0
    endloop
  endfacet
  facet normal 1 -0 0
    outer loop
      vertex 50.8 5.7 1.4
      vertex 50.8 25.4 0
      vertex 50.8 19.7 1.4
    endloop
  endfacet
  facet normal 1 0 0
    outer loop
      vertex 50.8 5.7 5.6
      vertex 50.8 4.7 5.5
      vertex 50.8 5.7 1.4
    endloop
  endfacet
  facet normal 1 -0 0
    outer loop
      vertex 50.8 0 5.5
      vertex 50.8 5.7 1.4
      vertex 50.8 4.7 5.5
    endloop
  endfacet
  facet normal 1 0 0
    outer loop
      vertex 50.8 5.7 1.4
      vertex 50.8 0 0
      vertex 50.8 25.4 0
    endloop
  endfacet
  facet normal 1 0 0
    outer loop
      vertex 50.8 0 0
      vertex 50.8 5.7 1.4
      vertex 50.8 0 5.5
    endloop
  endfacet
  facet normal 0 1 -0
    outer loop
      vertex 9.2 25.4 0
      vertex 0 25.4 5.5
      vertex 9.2 25.4 5.5
    endloop
  endfacet
  facet normal 0 1 0
    outer loop
      vertex 0 25.4 5.5
      vertex 9.2 25.4 0
      vertex 0 25.4 0
    endloop
  endfacet
  facet normal 0 1 -0
    outer loop
      vertex 50.8 25.4 0
      vertex 40.8 25.4 5.5
      vertex 50.8 25.4 5.5
    endloop
  endfacet
  facet normal 0 1 0
    outer loop
      vertex 40.8 25.4 5.5
      vertex 50.8 25.4 0
      vertex 40.8 25.4 0
    endloop
  endfacet
  facet normal 0 1 -0
    outer loop
      vertex 39.8 25.4 0
      vertex 33.4 25.4 5.5
      vertex 39.8 25.4 5.5
    endloop
  endfacet
  facet normal 0 1 0
    outer loop
      vertex 32.4 25.4 1.4
      vertex 39.8 25.4 0
      vertex 18.4 25.4 1.4
    endloop
  endfacet
  facet normal 0 1 0
    outer loop
      vertex 33.4 25.4 5.5
      vertex 39.8 25.4 0
      vertex 32.4 25.4 1.4
    endloop
  endfacet
  facet normal 0 1 0
    outer loop
      vertex 33.4 25.4 6
      vertex 32.4 25.4 5.6
      vertex 17.4 25.4 6
    endloop
  endfacet
  facet normal 0 1 -0
    outer loop
      vertex 33.4 25.4 5.5
      vertex 32.4 25.4 5.6
      vertex 33.4 25.4 6
    endloop
  endfacet
  facet normal 0 1 0
    outer loop
      vertex 32.4 25.4 5.6
      vertex 33.4 25.4 5.5
      vertex 32.4 25.4 1.4
    endloop
  endfacet
  facet normal 0 1 -0
    outer loop
      vertex 18.4 25.4 5.6
      vertex 17.4 25.4 6
      vertex 32.4 25.4 5.6
    endloop
  endfacet
  facet normal 0 1 0
    outer loop
      vertex 18.4 25.4 5.6
      vertex 17.4 25.4 5.5
      vertex 17.4 25.4 6
    endloop
  endfacet
  facet normal 0 1 -0
    outer loop
      vertex 18.4 25.4 1.4
      vertex 17.4 25.4 5.5
      vertex 18.4 25.4 5.6
    endloop
  endfacet
  facet normal 0 1 0
    outer loop
      vertex 10.2 25.4 0
      vertex 17.4 25.4 5.5
      vertex 18.4 25.4 1.4
    endloop
  endfacet
  facet normal 0 1 0
    outer loop
      vertex 17.4 25.4 5.5
      vertex 10.2 25.4 0
      vertex 10.2 25.4 5.5
    endloop
  endfacet
  facet normal 0 1 0
    outer loop
      vertex 10.2 25.4 0
      vertex 18.4 25.4 1.4
      vertex 39.8 25.4 0
    endloop
  endfacet
  facet normal -1 0 0
    outer loop
      vertex 1 1 5.5
      vertex 1 4.7 6
      vertex 1 4.7 5.5
    endloop
  endfacet
  facet normal -1 -0 0
    outer loop
      vertex 1 4.7 6
      vertex 1 1 5.5
      vertex 1 1 6
    endloop
  endfacet
  facet normal -1 0 0
    outer loop
      vertex 1 20.7 5.5
      vertex 1 24.4 6
      vertex 1 24.4 5.5
    endloop
  endfacet
  facet normal -1 -0 0
    outer loop
      vertex 1 24.4 6
      vertex 1 20.7 5.5
      vertex 1 20.7 6
    endloop
  endfacet
  facet normal 0 0 1
    outer loop
      vertex 33.4 25.4 6
      vertex 17.4 25.4 6
      vertex 33.4 24.4 6
    endloop
  endfacet
  facet normal 0 0 1
    outer loop
      vertex 43.25 17.85 6
      vertex 49.8 20.7 6
      vertex 49.8 24.4 6
    endloop
  endfacet
  facet normal 0 0 1
    outer loop
      vertex 49.8 20.7 6
      vertex 43.25 17.85 6
      vertex 49.8 4.7 6
    endloop
  endfacet
  facet normal -0 0 1
    outer loop
      vertex 43.25 7.55 6
      vertex 49.8 4.7 6
      vertex 43.25 17.85 6
    endloop
  endfacet
  facet normal -0 0 1
    outer loop
      vertex 33.4 24.4 6
      vertex 43.25 17.85 6
      vertex 49.8 24.4 6
    endloop
  endfacet
  facet normal 0 0 1
    outer loop
      vertex 17.4 24.4 6
      vertex 33.4 24.4 6
      vertex 17.4 25.4 6
    endloop
  endfacet
  facet normal 0 0 1
    outer loop
      vertex 33.4 24.4 6
      vertex 17.4 24.4 6
      vertex 43.25 17.85 6
    endloop
  endfacet
  facet normal 0 0 1
    outer loop
      vertex 17.4 24.4 6
      vertex 7.55 17.85 6
      vertex 43.25 17.85 6
    endloop
  endfacet
  facet normal -0 0 1
    outer loop
      vertex 1 20.7 6
      vertex 7.55 17.85 6
      vertex 1 24.4 6
    endloop
  endfacet
  facet normal -0 0 1
    outer loop
      vertex 1 24.4 6
      vertex 7.55 17.85 6
      vertex 17.4 24.4 6
    endloop
  endfacet
  facet normal -0 0 1
    outer loop
      vertex 49.8 20.7 6
      vertex 50.8 4.7 6
      vertex 50.8 20.7 6
    endloop
  endfacet
  facet normal 0 0 1
    outer loop
      vertex 50.8 4.7 6
      vertex 49.8 20.7 6
      vertex 49.8 4.7 6
    endloop
  endfacet
  facet normal 0 0 1
    outer loop
      vertex 49.8 4.7 6
      vertex 43.25 7.55 6
      vertex 49.8 1 6
    endloop
  endfacet
  facet normal 0 0 1
    outer loop
      vertex 43.25 7.55 6
      vertex 33.4 1 6
      vertex 49.8 1 6
    endloop
  endfacet
  facet normal 0 0 1
    outer loop
      vertex 33.4 1 6
      vertex 17.4 1 6
      vertex 33.4 0 6
    endloop
  endfacet
  facet normal 0 0 1
    outer loop
      vertex 43.25 7.55 6
      vertex 17.4 1 6
      vertex 33.4 1 6
    endloop
  endfacet
  facet normal -0 0 1
    outer loop
      vertex 7.55 7.55 6
      vertex 17.4 1 6
      vertex 43.25 7.55 6
    endloop
  endfacet
  facet normal 0 0 1
    outer loop
      vertex 7.55 17.85 6
      vertex 1 20.7 6
      vertex 7.55 7.55 6
    endloop
  endfacet
  facet normal 0 0 1
    outer loop
      vertex 1 4.7 6
      vertex 7.55 7.55 6
      vertex 1 20.7 6
    endloop
  endfacet
  facet normal 0 0 1
    outer loop
      vertex 1 1 6
      vertex 7.55 7.55 6
      vertex 1 4.7 6
    endloop
  endfacet
  facet normal 0 0 1
    outer loop
      vertex 7.55 7.55 6
      vertex 1 1 6
      vertex 17.4 1 6
    endloop
  endfacet
  facet normal -0 0 1
    outer loop
      vertex 0 20.7 6
      vertex 1 4.7 6
      vertex 1 20.7 6
    endloop
  endfacet
  facet normal 0 0 1
    outer loop
      vertex 1 4.7 6
      vertex 0 20.7 6
      vertex 0 4.7 6
    endloop
  endfacet
  facet normal 0 0 1
    outer loop
      vertex 33.4 0 6
      vertex 17.4 1 6
      vertex 17.4 0 6
    endloop
  endfacet
  facet normal 1 -0 0
    outer loop
      vertex 49.8 1 6
      vertex 49.8 4.7 5.5
      vertex 49.8 4.7 6
    endloop
  endfacet
  facet normal 1 0 0
    outer loop
      vertex 49.8 4.7 5.5
      vertex 49.8 1 6
      vertex 49.8 1 5.5
    endloop
  endfacet
  facet normal 1 -0 0
    outer loop
      vertex 49.8 20.7 6
      vertex 49.8 24.4 5.5
      vertex 49.8 24.4 6
    endloop
  endfacet
  facet normal 1 0 0
    outer loop
      vertex 49.8 24.4 5.5
      vertex 49.8 20.7 6
      vertex 49.8 20.7 5.5
    endloop
  endfacet
  facet normal 0 -1 0
    outer loop
      vertex 9.2 1 0
      vertex 10.2 1 5.5
      vertex 9.2 1 5.5
    endloop
  endfacet
  facet normal 0 -1 -0
    outer loop
      vertex 10.2 1 5.5
      vertex 9.2 1 0
      vertex 10.2 1 0
    endloop
  endfacet
  facet normal 0 -1 0
    outer loop
      vertex 9.2 1 5.5
      vertex 1 1 6
      vertex 1 1 5.5
    endloop
  endfacet
  facet normal 0 -1 0
    outer loop
      vertex 1 1 6
      vertex 9.2 1 5.5
      vertex 17.4 1 6
    endloop
  endfacet
  facet normal 0 -1 0
    outer loop
      vertex 10.2 1 5.5
      vertex 17.4 1 6
      vertex 9.2 1 5.5
    endloop
  endfacet
  facet normal 0 -1 -0
    outer loop
      vertex 17.4 1 6
      vertex 10.2 1 5.5
      vertex 17.4 1 5.5
    endloop
  endfacet
  facet normal 0 -1 0
    outer loop
      vertex 39.8 1 0
      vertex 40.8 1 5.5
      vertex 39.8 1 5.5
    endloop
  endfacet
  facet normal 0 -1 -0
    outer loop
      vertex 40.8 1 5.5
      vertex 39.8 1 0
      vertex 40.8 1 0
    endloop
  endfacet
  facet normal 0 -1 0
    outer loop
      vertex 39.8 1 5.5
      vertex 33.4 1 6
      vertex 33.4 1 5.5
    endloop
  endfacet
  facet normal 0 -1 0
    outer loop
      vertex 40.8 1 5.5
      vertex 33.4 1 6
      vertex 39.8 1 5.5
    endloop
  endfacet
  facet normal 0 -1 0
    outer loop
      vertex 33.4 1 6
      vertex 40.8 1 5.5
      vertex 49.8 1 6
    endloop
  endfacet
  facet normal 0 -1 -0
    outer loop
      vertex 49.8 1 6
      vertex 40.8 1 5.5
      vertex 49.8 1 5.5
    endloop
  endfacet
  facet normal 0 1 -0
    outer loop
      vertex 40.8 24.4 0
      vertex 39.8 24.4 5.5
      vertex 40.8 24.4 5.5
    endloop
  endfacet
  facet normal 0 1 0
    outer loop
      vertex 39.8 24.4 5.5
      vertex 40.8 24.4 0
      vertex 39.8 24.4 0
    endloop
  endfacet
  facet normal 0 1 0
    outer loop
      vertex 40.8 24.4 5.5
      vertex 49.8 24.4 6
      vertex 49.8 24.4 5.5
    endloop
  endfacet
  facet normal 0 1 0
    outer loop
      vertex 49.8 24.4 6
      vertex 40.8 24.4 5.5
      vertex 33.4 24.4 6
    endloop
  endfacet
  facet normal 0 1 -0
    outer loop
      vertex 39.8 24.4 5.5
      vertex 33.4 24.4 6
      vertex 40.8 24.4 5.5
    endloop
  endfacet
  facet normal 0 1 0
    outer loop
      vertex 33.4 24.4 6
      vertex 39.8 24.4 5.5
      vertex 33.4 24.4 5.5
    endloop
  endfacet
  facet normal 0 1 -0
    outer loop
      vertex 10.2 24.4 0
      vertex 9.2 24.4 5.5
      vertex 10.2 24.4 5.5
    endloop
  endfacet
  facet normal 0 1 0
    outer loop
      vertex 9.2 24.4 5.5
      vertex 10.2 24.4 0
      vertex 9.2 24.4 0
    endloop
  endfacet
  facet normal 0 1 0
    outer loop
      vertex 10.2 24.4 5.5
      vertex 17.4 24.4 6
      vertex 17.4 24.4 5.5
    endloop
  endfacet
  facet normal 0 1 0
    outer loop
      vertex 17.4 24.4 6
      vertex 10.2 24.4 5.5
      vertex 1 24.4 6
    endloop
  endfacet
  facet normal 0 1 -0
    outer loop
      vertex 9.2 24.4 5.5
      vertex 1 24.4 6
      vertex 10.2 24.4 5.5
    endloop
  endfacet
  facet normal 0 1 0
    outer loop
      vertex 1 24.4 6
      vertex 9.2 24.4 5.5
      vertex 1 24.4 5.5
    endloop
  endfacet
  facet normal 1 0 0
    outer loop
      vertex 7.55 17.7 1.4
      vertex 7.55 17.85 6
      vertex 7.55 17.7 5.6
    endloop
  endfacet
  facet normal 1 0 0
    outer loop
      vertex 7.55 17.85 6
      vertex 7.55 7.7 5.6
      vertex 7.55 17.7 5.6
    endloop
  endfacet
  facet normal 1 0 0
    outer loop
      vertex 7.55 7.7 5.6
      vertex 7.55 7.55 6
      vertex 7.55 7.7 1.4
    endloop
  endfacet
  facet normal 1 -0 0
    outer loop
      vertex 7.55 7.55 6
      vertex 7.55 7.7 5.6
      vertex 7.55 17.85 6
    endloop
  endfacet
  facet normal 1 0 0
    outer loop
      vertex 7.55 17.85 6
      vertex 7.55 17.7 1.4
      vertex 7.55 17.85 0
    endloop
  endfacet
  facet normal 1 -0 0
    outer loop
      vertex 7.55 7.7 1.4
      vertex 7.55 17.85 0
      vertex 7.55 17.7 1.4
    endloop
  endfacet
  facet normal 1 0 0
    outer loop
      vertex 7.55 7.7 1.4
      vertex 7.55 7.55 0
      vertex 7.55 17.85 0
    endloop
  endfacet
  facet normal 1 0 0
    outer loop
      vertex 7.55 7.55 0
      vertex 7.55 7.7 1.4
      vertex 7.55 7.55 6
    endloop
  endfacet
  facet normal -1 0 0
    outer loop
      vertex 43.25 17.85 0
      vertex 43.25 17.7 1.4
      vertex 43.25 17.85 6
    endloop
  endfacet
  facet normal -1 0 0
    outer loop
      vertex 43.25 17.85 0
      vertex 43.25 7.7 1.4
      vertex 43.25 17.7 1.4
    endloop
  endfacet
  facet normal -1 0 0
    outer loop
      vertex 43.25 7.55 6
      vertex 43.25 7.7 1.4
      vertex 43.25 7.55 0
    endloop
  endfacet
  facet normal -1 0 0
    outer loop
      vertex 43.25 7.55 0
      vertex 43.25 7.7 1.4
      vertex 43.25 17.85 0
    endloop
  endfacet
  facet normal -1 0 0
    outer loop
      vertex 43.25 17.7 5.6
      vertex 43.25 17.85 6
      vertex 43.25 17.7 1.4
    endloop
  endfacet
  facet normal -1 0 0
    outer loop
      vertex 43.25 7.7 5.6
      vertex 43.25 17.85 6
      vertex 43.25 17.7 5.6
    endloop
  endfacet
  facet normal -1 0 0
    outer loop
      vertex 43.25 7.7 5.6
      vertex 43.25 7.55 6
      vertex 43.25 17.85 6
    endloop
  endfacet
  facet normal -1 0 0
    outer loop
      vertex 43.25 7.7 1.4
      vertex 43.25 7.55 6
      vertex 43.25 7.7 5.6
    endloop
  endfacet
  facet normal 0 -1 0
    outer loop
      vertex 7.55 17.85 6
      vertex 20.4 17.85 5.6
      vertex 43.25 17.85 6
    endloop
  endfacet
  facet normal 0 -1 0
    outer loop
      vertex 7.55 17.85 6
      vertex 20.4 17.85 1.4
      vertex 20.4 17.85 5.6
    endloop
  endfacet
  facet normal 0 -1 -0
    outer loop
      vertex 20.4 17.85 1.4
      vertex 7.55 17.85 0
      vertex 30.4 17.85 1.4
    endloop
  endfacet
  facet normal 0 -1 0
    outer loop
      vertex 7.55 17.85 0
      vertex 20.4 17.85 1.4
      vertex 7.55 17.85 6
    endloop
  endfacet
  facet normal 0 -1 0
    outer loop
      vertex 30.4 17.85 5.6
      vertex 43.25 17.85 6
      vertex 20.4 17.85 5.6
    endloop
  endfacet
  facet normal 0 -1 0
    outer loop
      vertex 30.4 17.85 1.4
      vertex 43.25 17.85 6
      vertex 30.4 17.85 5.6
    endloop
  endfacet
  facet normal 0 -1 0
    outer loop
      vertex 30.4 17.85 1.4
      vertex 43.25 17.85 0
      vertex 43.25 17.85 6
    endloop
  endfacet
  facet normal 0 -1 0
    outer loop
      vertex 43.25 17.85 0
      vertex 30.4 17.85 1.4
      vertex 7.55 17.85 0
    endloop
  endfacet
  facet normal 0 1 0
    outer loop
      vertex 43.25 7.55 6
      vertex 30.4 7.55 5.6
      vertex 7.55 7.55 6
    endloop
  endfacet
  facet normal 0 1 0
    outer loop
      vertex 43.25 7.55 6
      vertex 30.4 7.55 1.4
      vertex 30.4 7.55 5.6
    endloop
  endfacet
  facet normal 0 1 0
    outer loop
      vertex 30.4 7.55 1.4
      vertex 43.25 7.55 0
      vertex 20.4 7.55 1.4
    endloop
  endfacet
  facet normal 0 1 -0
    outer loop
      vertex 43.25 7.55 0
      vertex 30.4 7.55 1.4
      vertex 43.25 7.55 6
    endloop
  endfacet
  facet normal 0 1 -0
    outer loop
      vertex 20.4 7.55 5.6
      vertex 7.55 7.55 6
      vertex 30.4 7.55 5.6
    endloop
  endfacet
  facet normal 0 1 -0
    outer loop
      vertex 20.4 7.55 1.4
      vertex 7.55 7.55 6
      vertex 20.4 7.55 5.6
    endloop
  endfacet
  facet normal 0 1 0
    outer loop
      vertex 20.4 7.55 1.4
      vertex 7.55 7.55 0
      vertex 7.55 7.55 6
    endloop
  endfacet
  facet normal 0 1 0
    outer loop
      vertex 7.55 7.55 0
      vertex 20.4 7.55 1.4
      vertex 43.25 7.55 0
    endloop
  endfacet
  facet normal -1 0 0
    outer loop
      vertex 17.4 0 5.5
      vertex 17.4 1 6
      vertex 17.4 1 5.5
    endloop
  endfacet
  facet normal -1 -0 0
    outer loop
      vertex 17.4 1 6
      vertex 17.4 0 5.5
      vertex 17.4 0 6
    endloop
  endfacet
  facet normal 1 -0 0
    outer loop
      vertex 33.4 0 6
      vertex 33.4 1 5.5
      vertex 33.4 1 6
    endloop
  endfacet
  facet normal 1 0 0
    outer loop
      vertex 33.4 1 5.5
      vertex 33.4 0 6
      vertex 33.4 0 5.5
    endloop
  endfacet
  facet normal -1 0 0
    outer loop
      vertex 17.4 24.4 5.5
      vertex 17.4 25.4 6
      vertex 17.4 25.4 5.5
    endloop
  endfacet
  facet normal -1 -0 0
    outer loop
      vertex 17.4 25.4 6
      vertex 17.4 24.4 5.5
      vertex 17.4 24.4 6
    endloop
  endfacet
  facet normal 1 -0 0
    outer loop
      vertex 33.4 24.4 6
      vertex 33.4 25.4 5.5
      vertex 33.4 25.4 6
    endloop
  endfacet
  facet normal 1 0 0
    outer loop
      vertex 33.4 25.4 5.5
      vertex 33.4 24.4 6
      vertex 33.4 24.4 5.5
    endloop
  endfacet
  facet normal 0 1 -0
    outer loop
      vertex 1 20.7 5.5
      vertex 0 20.7 6
      vertex 1 20.7 6
    endloop
  endfacet
  facet normal 0 1 0
    outer loop
      vertex 0 20.7 6
      vertex 1 20.7 5.5
      vertex 0 20.7 5.5
    endloop
  endfacet
  facet normal 0 -1 0
    outer loop
      vertex 0 4.7 5.5
      vertex 1 4.7 6
      vertex 0 4.7 6
    endloop
  endfacet
  facet normal 0 -1 -0
    outer loop
      vertex 1 4.7 6
      vertex 0 4.7 5.5
      vertex 1 4.7 5.5
    endloop
  endfacet
  facet normal 0 1 -0
    outer loop
      vertex 50.8 20.7 5.5
      vertex 49.8 20.7 6
      vertex 50.8 20.7 6
    endloop
  endfacet
  facet normal 0 1 0
    outer loop
      vertex 49.8 20.7 6
      vertex 50.8 20.7 5.5
      vertex 49.8 20.7 5.5
    endloop
  endfacet
  facet normal 0 -1 0
    outer loop
      vertex 49.8 4.7 5.5
      vertex 50.8 4.7 6
      vertex 49.8 4.7 6
    endloop
  endfacet
  facet normal 0 -1 -0
    outer loop
      vertex 50.8 4.7 6
      vertex 49.8 4.7 5.5
      vertex 50.8 4.7 5.5
    endloop
  endfacet
  facet normal 0 0 -1
    outer loop
      vertex 30.4 17.85 5.6
      vertex 20.4 17.85 5.6
      vertex 30.4 20.39 5.6
    endloop
  endfacet
  facet normal 0 0 -1
    outer loop
      vertex 31.4 23.4 5.6
      vertex 32.4 25.4 5.6
      vertex 32.4 23.4 5.6
    endloop
  endfacet
  facet normal 0 0 -1
    outer loop
      vertex 20.4 20.39 5.6
      vertex 30.4 20.39 5.6
      vertex 20.4 17.85 5.6
    endloop
  endfacet
  facet normal 0 0 -1
    outer loop
      vertex 30.4 20.39 5.6
      vertex 20.4 20.39 5.6
      vertex 31.4 23.4 5.6
    endloop
  endfacet
  facet normal 0 0 -1
    outer loop
      vertex 19.4 23.4 5.6
      vertex 31.4 23.4 5.6
      vertex 20.4 20.39 5.6
    endloop
  endfacet
  facet normal 0 0 -1
    outer loop
      vertex 31.4 23.4 5.6
      vertex 19.4 23.4 5.6
      vertex 32.4 25.4 5.6
    endloop
  endfacet
  facet normal 0 0 -1
    outer loop
      vertex 18.4 25.4 5.6
      vertex 19.4 23.4 5.6
      vertex 18.4 23.4 5.6
    endloop
  endfacet
  facet normal 0 0 -1
    outer loop
      vertex 19.4 23.4 5.6
      vertex 18.4 25.4 5.6
      vertex 32.4 25.4 5.6
    endloop
  endfacet
  facet normal 0 1 -0
    outer loop
      vertex 19.4 23.4 1.4
      vertex 18.4 23.4 5.6
      vertex 19.4 23.4 5.6
    endloop
  endfacet
  facet normal 0 1 0
    outer loop
      vertex 18.4 23.4 5.6
      vertex 19.4 23.4 1.4
      vertex 18.4 23.4 1.4
    endloop
  endfacet
  facet normal 0 1 -0
    outer loop
      vertex 32.4 23.4 1.4
      vertex 31.4 23.4 5.6
      vertex 32.4 23.4 5.6
    endloop
  endfacet
  facet normal 0 1 0
    outer loop
      vertex 31.4 23.4 5.6
      vertex 32.4 23.4 1.4
      vertex 31.4 23.4 1.4
    endloop
  endfacet
  facet normal -1 0 0
    outer loop
      vertex 32.4 23.4 1.4
      vertex 32.4 25.4 5.6
      vertex 32.4 25.4 1.4
    endloop
  endfacet
  facet normal -1 -0 0
    outer loop
      vertex 32.4 25.4 5.6
      vertex 32.4 23.4 1.4
      vertex 32.4 23.4 5.6
    endloop
  endfacet
  facet normal 0 0 1
    outer loop
      vertex 32.4 25.4 1.4
      vertex 31.4 23.4 1.4
      vertex 32.4 23.4 1.4
    endloop
  endfacet
  facet normal 0 0 1
    outer loop
      vertex 30.4 20.39 1.4
      vertex 20.4 20.39 1.4
      vertex 30.4 17.85 1.4
    endloop
  endfacet
  facet normal 0 0 1
    outer loop
      vertex 31.4 23.4 1.4
      vertex 20.4 20.39 1.4
      vertex 30.4 20.39 1.4
    endloop
  endfacet
  facet normal 0 0 1
    outer loop
      vertex 19.4 23.4 1.4
      vertex 31.4 23.4 1.4
      vertex 32.4 25.4 1.4
    endloop
  endfacet
  facet normal 0 0 1
    outer loop
      vertex 31.4 23.4 1.4
      vertex 19.4 23.4 1.4
      vertex 20.4 20.39 1.4
    endloop
  endfacet
  facet normal -0 0 1
    outer loop
      vertex 18.4 25.4 1.4
      vertex 19.4 23.4 1.4
      vertex 32.4 25.4 1.4
    endloop
  endfacet
  facet normal 0 0 1
    outer loop
      vertex 19.4 23.4 1.4
      vertex 18.4 25.4 1.4
      vertex 18.4 23.4 1.4
    endloop
  endfacet
  facet normal 0 0 1
    outer loop
      vertex 30.4 17.85 1.4
      vertex 20.4 20.39 1.4
      vertex 20.4 17.85 1.4
    endloop
  endfacet
  facet normal 1 -0 0
    outer loop
      vertex 18.4 23.4 5.6
      vertex 18.4 25.4 1.4
      vertex 18.4 25.4 5.6
    endloop
  endfacet
  facet normal 1 0 0
    outer loop
      vertex 18.4 25.4 1.4
      vertex 18.4 23.4 5.6
      vertex 18.4 23.4 1.4
    endloop
  endfacet
  facet normal 0.948998 0.315282 0
    outer loop
      vertex 20.4 20.39 5.6
      vertex 19.4 23.4 1.4
      vertex 19.4 23.4 5.6
    endloop
  endfacet
  facet normal 0.948998 0.315282 0
    outer loop
      vertex 19.4 23.4 1.4
      vertex 20.4 20.39 5.6
      vertex 20.4 20.39 1.4
    endloop
  endfacet
  facet normal -0.948998 0.315282 0
    outer loop
      vertex 30.4 20.39 1.4
      vertex 31.4 23.4 5.6
      vertex 31.4 23.4 1.4
    endloop
  endfacet
  facet normal -0.948998 0.315282 0
    outer loop
      vertex 31.4 23.4 5.6
      vertex 30.4 20.39 1.4
      vertex 30.4 20.39 5.6
    endloop
  endfacet
  facet normal -1 0 0
    outer loop
      vertex 30.4 17.85 1.4
      vertex 30.4 20.39 5.6
      vertex 30.4 20.39 1.4
    endloop
  endfacet
  facet normal -1 -0 0
    outer loop
      vertex 30.4 20.39 5.6
      vertex 30.4 17.85 1.4
      vertex 30.4 17.85 5.6
    endloop
  endfacet
  facet normal 1 -0 0
    outer loop
      vertex 20.4 17.85 5.6
      vertex 20.4 20.39 1.4
      vertex 20.4 20.39 5.6
    endloop
  endfacet
  facet normal 1 0 0
    outer loop
      vertex 20.4 20.39 1.4
      vertex 20.4 17.85 5.6
      vertex 20.4 17.85 1.4
    endloop
  endfacet
  facet normal 0 0 -1
    outer loop
      vertex 45.79 7.7 5.6
      vertex 48.8 18.7 5.6
      vertex 48.8 6.7 5.6
    endloop
  endfacet
  facet normal 0 0 -1
    outer loop
      vertex 45.79 7.7 5.6
      vertex 45.79 17.7 5.6
      vertex 48.8 18.7 5.6
    endloop
  endfacet
  facet normal 0 0 -1
    outer loop
      vertex 43.25 7.7 5.6
      vertex 45.79 17.7 5.6
      vertex 45.79 7.7 5.6
    endloop
  endfacet
  facet normal -0 0 -1
    outer loop
      vertex 45.79 17.7 5.6
      vertex 43.25 7.7 5.6
      vertex 43.25 17.7 5.6
    endloop
  endfacet
  facet normal 0 0 -1
    outer loop
      vertex 48.8 6.7 5.6
      vertex 50.8 5.7 5.6
      vertex 48.8 5.7 5.6
    endloop
  endfacet
  facet normal 0 0 -1
    outer loop
      vertex 50.8 5.7 5.6
      vertex 48.8 6.7 5.6
      vertex 50.8 19.7 5.6
    endloop
  endfacet
  facet normal 0 0 -1
    outer loop
      vertex 48.8 18.7 5.6
      vertex 50.8 19.7 5.6
      vertex 48.8 6.7 5.6
    endloop
  endfacet
  facet normal -0 0 -1
    outer loop
      vertex 50.8 19.7 5.6
      vertex 48.8 18.7 5.6
      vertex 48.8 19.7 5.6
    endloop
  endfacet
  facet normal 1 -0 0
    outer loop
      vertex 48.8 18.7 5.6
      vertex 48.8 19.7 1.4
      vertex 48.8 19.7 5.6
    endloop
  endfacet
  facet normal 1 0 0
    outer loop
      vertex 48.8 19.7 1.4
      vertex 48.8 18.7 5.6
      vertex 48.8 18.7 1.4
    endloop
  endfacet
  facet normal 1 -0 0
    outer loop
      vertex 48.8 5.7 5.6
      vertex 48.8 6.7 1.4
      vertex 48.8 6.7 5.6
    endloop
  endfacet
  facet normal 1 0 0
    outer loop
      vertex 48.8 6.7 1.4
      vertex 48.8 5.7 5.6
      vertex 48.8 5.7 1.4
    endloop
  endfacet
  facet normal 0 1 -0
    outer loop
      vertex 50.8 5.7 1.4
      vertex 48.8 5.7 5.6
      vertex 50.8 5.7 5.6
    endloop
  endfacet
  facet normal 0 1 0
    outer loop
      vertex 48.8 5.7 5.6
      vertex 50.8 5.7 1.4
      vertex 48.8 5.7 1.4
    endloop
  endfacet
  facet normal -0 0 1
    outer loop
      vertex 45.79 17.7 1.4
      vertex 48.8 6.7 1.4
      vertex 48.8 18.7 1.4
    endloop
  endfacet
  facet normal 0 0 1
    outer loop
      vertex 45.79 17.7 1.4
      vertex 45.79 7.7 1.4
      vertex 48.8 6.7 1.4
    endloop
  endfacet
  facet normal -0 0 1
    outer loop
      vertex 43.25 17.7 1.4
      vertex 45.79 7.7 1.4
      vertex 45.79 17.7 1.4
    endloop
  endfacet
  facet normal 0 0 1
    outer loop
      vertex 45.79 7.7 1.4
      vertex 43.25 17.7 1.4
      vertex 43.25 7.7 1.4
    endloop
  endfacet
  facet normal 0 0 1
    outer loop
      vertex 48.8 18.7 1.4
      vertex 50.8 19.7 1.4
      vertex 48.8 19.7 1.4
    endloop
  endfacet
  facet normal 0 0 1
    outer loop
      vertex 50.8 19.7 1.4
      vertex 48.8 18.7 1.4
      vertex 50.8 5.7 1.4
    endloop
  endfacet
  facet normal -0 0 1
    outer loop
      vertex 48.8 6.7 1.4
      vertex 50.8 5.7 1.4
      vertex 48.8 18.7 1.4
    endloop
  endfacet
  facet normal 0 0 1
    outer loop
      vertex 50.8 5.7 1.4
      vertex 48.8 6.7 1.4
      vertex 48.8 5.7 1.4
    endloop
  endfacet
  facet normal 0 -1 0
    outer loop
      vertex 48.8 19.7 1.4
      vertex 50.8 19.7 5.6
      vertex 48.8 19.7 5.6
    endloop
  endfacet
  facet normal 0 -1 -0
    outer loop
      vertex 50.8 19.7 5.6
      vertex 48.8 19.7 1.4
      vertex 50.8 19.7 1.4
    endloop
  endfacet
  facet normal 0.315282 -0.948998 0
    outer loop
      vertex 45.79 17.7 1.4
      vertex 48.8 18.7 5.6
      vertex 45.79 17.7 5.6
    endloop
  endfacet
  facet normal 0.315282 -0.948998 0
    outer loop
      vertex 48.8 18.7 5.6
      vertex 45.79 17.7 1.4
      vertex 48.8 18.7 1.4
    endloop
  endfacet
  facet normal 0.315282 0.948998 -0
    outer loop
      vertex 48.8 6.7 1.4
      vertex 45.79 7.7 5.6
      vertex 48.8 6.7 5.6
    endloop
  endfacet
  facet normal 0.315282 0.948998 0
    outer loop
      vertex 45.79 7.7 5.6
      vertex 48.8 6.7 1.4
      vertex 45.79 7.7 1.4
    endloop
  endfacet
  facet normal 0 1 -0
    outer loop
      vertex 45.79 7.7 1.4
      vertex 43.25 7.7 5.6
      vertex 45.79 7.7 5.6
    endloop
  endfacet
  facet normal 0 1 0
    outer loop
      vertex 43.25 7.7 5.6
      vertex 45.79 7.7 1.4
      vertex 43.25 7.7 1.4
    endloop
  endfacet
  facet normal 0 -1 0
    outer loop
      vertex 43.25 17.7 1.4
      vertex 45.79 17.7 5.6
      vertex 43.25 17.7 5.6
    endloop
  endfacet
  facet normal 0 -1 -0
    outer loop
      vertex 45.79 17.7 5.6
      vertex 43.25 17.7 1.4
      vertex 45.79 17.7 1.4
    endloop
  endfacet
endsolid OpenSCAD_Model
