solid OpenSCAD_Model
  facet normal 0 0 -1
    outer loop
      vertex 32.4 0 5.6
      vertex 31.4 2 5.6
      vertex 32.4 2 5.6
    endloop
  endfacet
  facet normal 0 0 -1
    outer loop
      vertex 30.4 5.01 5.6
      vertex 20.4 5.01 5.6
      vertex 30.4 7.55 5.6
    endloop
  endfacet
  facet normal 0 0 -1
    outer loop
      vertex 31.4 2 5.6
      vertex 20.4 5.01 5.6
      vertex 30.4 5.01 5.6
    endloop
  endfacet
  facet normal 0 0 -1
    outer loop
      vertex 19.4 2 5.6
      vertex 31.4 2 5.6
      vertex 32.4 0 5.6
    endloop
  endfacet
  facet normal 0 0 -1
    outer loop
      vertex 31.4 2 5.6
      vertex 19.4 2 5.6
      vertex 20.4 5.01 5.6
    endloop
  endfacet
  facet normal 0 0 -1
    outer loop
      vertex 18.4 0 5.6
      vertex 19.4 2 5.6
      vertex 32.4 0 5.6
    endloop
  endfacet
  facet normal -0 0 -1
    outer loop
      vertex 19.4 2 5.6
      vertex 18.4 0 5.6
      vertex 18.4 2 5.6
    endloop
  endfacet
  facet normal -0 0 -1
    outer loop
      vertex 30.4 7.55 5.6
      vertex 20.4 5.01 5.6
      vertex 20.4 7.55 5.6
    endloop
  endfacet
  facet normal 0 -1 0
    outer loop
      vertex 31.4 2 1.4
      vertex 32.4 2 5.6
      vertex 31.4 2 5.6
    endloop
  endfacet
  facet normal 0 -1 -0
    outer loop
      vertex 32.4 2 5.6
      vertex 31.4 2 1.4
      vertex 32.4 2 1.4
    endloop
  endfacet
  facet normal 0 -1 0
    outer loop
      vertex 18.4 2 1.4
      vertex 19.4 2 5.6
      vertex 18.4 2 5.6
    endloop
  endfacet
  facet normal 0 -1 -0
    outer loop
      vertex 19.4 2 5.6
      vertex 18.4 2 1.4
      vertex 19.4 2 1.4
    endloop
  endfacet
  facet normal 1 -0 0
    outer loop
      vertex 18.4 0 5.6
      vertex 18.4 2 1.4
      vertex 18.4 2 5.6
    endloop
  endfacet
  facet normal 1 0 0
    outer loop
      vertex 18.4 2 1.4
      vertex 18.4 0 5.6
      vertex 18.4 0 1.4
    endloop
  endfacet
  facet normal 0 0 1
    outer loop
      vertex 30.4 7.55 1.4
      vertex 20.4 7.55 1.4
      vertex 30.4 5.01 1.4
    endloop
  endfacet
  facet normal -0 0 1
    outer loop
      vertex 31.4 2 1.4
      vertex 32.4 0 1.4
      vertex 32.4 2 1.4
    endloop
  endfacet
  facet normal 0 0 1
    outer loop
      vertex 20.4 5.01 1.4
      vertex 30.4 5.01 1.4
      vertex 20.4 7.55 1.4
    endloop
  endfacet
  facet normal 0 0 1
    outer loop
      vertex 30.4 5.01 1.4
      vertex 20.4 5.01 1.4
      vertex 31.4 2 1.4
    endloop
  endfacet
  facet normal 0 0 1
    outer loop
      vertex 19.4 2 1.4
      vertex 31.4 2 1.4
      vertex 20.4 5.01 1.4
    endloop
  endfacet
  facet normal 0 0 1
    outer loop
      vertex 31.4 2 1.4
      vertex 19.4 2 1.4
      vertex 32.4 0 1.4
    endloop
  endfacet
  facet normal 0 0 1
    outer loop
      vertex 18.4 0 1.4
      vertex 19.4 2 1.4
      vertex 18.4 2 1.4
    endloop
  endfacet
  facet normal 0 0 1
    outer loop
      vertex 19.4 2 1.4
      vertex 18.4 0 1.4
      vertex 32.4 0 1.4
    endloop
  endfacet
  facet normal -1 0 0
    outer loop
      vertex 32.4 0 1.4
      vertex 32.4 2 5.6
      vertex 32.4 2 1.4
    endloop
  endfacet
  facet normal -1 -0 0
    outer loop
      vertex 32.4 2 5.6
      vertex 32.4 0 1.4
      vertex 32.4 0 5.6
    endloop
  endfacet
  facet normal -0.948998 -0.315282 0
    outer loop
      vertex 31.4 2 1.4
      vertex 30.4 5.01 5.6
      vertex 30.4 5.01 1.4
    endloop
  endfacet
  facet normal -0.948998 -0.315282 0
    outer loop
      vertex 30.4 5.01 5.6
      vertex 31.4 2 1.4
      vertex 31.4 2 5.6
    endloop
  endfacet
  facet normal 0.948998 -0.315282 0
    outer loop
      vertex 19.4 2 5.6
      vertex 20.4 5.01 1.4
      vertex 20.4 5.01 5.6
    endloop
  endfacet
  facet normal 0.948998 -0.315282 0
    outer loop
      vertex 20.4 5.01 1.4
      vertex 19.4 2 5.6
      vertex 19.4 2 1.4
    endloop
  endfacet
  facet normal 1 -0 0
    outer loop
      vertex 20.4 5.01 5.6
      vertex 20.4 7.55 1.4
      vertex 20.4 7.55 5.6
    endloop
  endfacet
  facet normal 1 0 0
    outer loop
      vertex 20.4 7.55 1.4
      vertex 20.4 5.01 5.6
      vertex 20.4 5.01 1.4
    endloop
  endfacet
  facet normal -1 0 0
    outer loop
      vertex 30.4 5.01 1.4
      vertex 30.4 7.55 5.6
      vertex 30.4 7.55 1.4
    endloop
  endfacet
  facet normal -1 -0 0
    outer loop
      vertex 30.4 7.55 5.6
      vertex 30.4 5.01 1.4
      vertex 30.4 5.01 5.6
    endloop
  endfacet
  facet normal 0 0 -1
    outer loop
      vertex 0 18.4 5.6
      vertex 2 19.4 5.6
      vertex 2 18.4 5.6
    endloop
  endfacet
  facet normal 0 0 -1
    outer loop
      vertex 2 19.4 5.6
      vertex 1 27.05 5.6
      vertex 2 31.4 5.6
    endloop
  endfacet
  facet normal 0 0 -1
    outer loop
      vertex 1 32.4 5.6
      vertex 2 31.4 5.6
      vertex 1 27.05 5.6
    endloop
  endfacet
  facet normal 0 0 -1
    outer loop
      vertex 0 27.05 5.6
      vertex 2 19.4 5.6
      vertex 0 18.4 5.6
    endloop
  endfacet
  facet normal 0 0 -1
    outer loop
      vertex 2 19.4 5.6
      vertex 0 27.05 5.6
      vertex 1 27.05 5.6
    endloop
  endfacet
  facet normal 0 0 -1
    outer loop
      vertex 5.01 20.4 5.6
      vertex 7.55 30.4 5.6
      vertex 7.55 20.4 5.6
    endloop
  endfacet
  facet normal 0 0 -1
    outer loop
      vertex 5.01 20.4 5.6
      vertex 5.01 30.4 5.6
      vertex 7.55 30.4 5.6
    endloop
  endfacet
  facet normal 0 0 -1
    outer loop
      vertex 2 19.4 5.6
      vertex 5.01 30.4 5.6
      vertex 5.01 20.4 5.6
    endloop
  endfacet
  facet normal -0 0 -1
    outer loop
      vertex 5.01 30.4 5.6
      vertex 2 19.4 5.6
      vertex 2 31.4 5.6
    endloop
  endfacet
  facet normal 0 0 -1
    outer loop
      vertex 2 31.4 5.6
      vertex 1 32.4 5.6
      vertex 2 32.4 5.6
    endloop
  endfacet
  facet normal -1 0 0
    outer loop
      vertex 2 18.4 1.4
      vertex 2 19.4 5.6
      vertex 2 19.4 1.4
    endloop
  endfacet
  facet normal -1 -0 0
    outer loop
      vertex 2 19.4 5.6
      vertex 2 18.4 1.4
      vertex 2 18.4 5.6
    endloop
  endfacet
  facet normal -1 0 0
    outer loop
      vertex 2 31.4 1.4
      vertex 2 32.4 5.6
      vertex 2 32.4 1.4
    endloop
  endfacet
  facet normal -1 -0 0
    outer loop
      vertex 2 32.4 5.6
      vertex 2 31.4 1.4
      vertex 2 31.4 5.6
    endloop
  endfacet
  facet normal 0 -1 0
    outer loop
      vertex 0 32.4 5.5
      vertex 0 32.4 1.4
      vertex 1 32.4 5.5
    endloop
  endfacet
  facet normal 0 -1 0
    outer loop
      vertex 1 32.4 5.5
      vertex 2 32.4 5.6
      vertex 1 32.4 5.6
    endloop
  endfacet
  facet normal 0 -1 0
    outer loop
      vertex 2 32.4 1.4
      vertex 1 32.4 5.5
      vertex 0 32.4 1.4
    endloop
  endfacet
  facet normal 0 -1 0
    outer loop
      vertex 1 32.4 5.5
      vertex 2 32.4 1.4
      vertex 2 32.4 5.6
    endloop
  endfacet
  facet normal -0 0 1
    outer loop
      vertex 0 32.4 1.4
      vertex 2 31.4 1.4
      vertex 2 32.4 1.4
    endloop
  endfacet
  facet normal 0 0 1
    outer loop
      vertex 2 31.4 1.4
      vertex 1 29.6 1.4
      vertex 2 19.4 1.4
    endloop
  endfacet
  facet normal 0 0 1
    outer loop
      vertex 2 31.4 1.4
      vertex 1 30.6 1.4
      vertex 1 29.6 1.4
    endloop
  endfacet
  facet normal 0 0 1
    outer loop
      vertex 2 31.4 1.4
      vertex 0 32.4 1.4
      vertex 1 30.6 1.4
    endloop
  endfacet
  facet normal 0 0 1
    outer loop
      vertex 1 30.6 1.4
      vertex 0 32.4 1.4
      vertex 0 30.6 1.4
    endloop
  endfacet
  facet normal -0 0 1
    outer loop
      vertex 5.01 30.4 1.4
      vertex 7.55 20.4 1.4
      vertex 7.55 30.4 1.4
    endloop
  endfacet
  facet normal 0 0 1
    outer loop
      vertex 5.01 30.4 1.4
      vertex 5.01 20.4 1.4
      vertex 7.55 20.4 1.4
    endloop
  endfacet
  facet normal 0 0 1
    outer loop
      vertex 2 31.4 1.4
      vertex 5.01 20.4 1.4
      vertex 5.01 30.4 1.4
    endloop
  endfacet
  facet normal 0 0 1
    outer loop
      vertex 5.01 20.4 1.4
      vertex 2 31.4 1.4
      vertex 2 19.4 1.4
    endloop
  endfacet
  facet normal -0 0 1
    outer loop
      vertex 0 29.6 1.4
      vertex 2 19.4 1.4
      vertex 1 29.6 1.4
    endloop
  endfacet
  facet normal 0 0 1
    outer loop
      vertex 2 19.4 1.4
      vertex 0 29.6 1.4
      vertex 0 18.4 1.4
    endloop
  endfacet
  facet normal 0 0 1
    outer loop
      vertex 2 19.4 1.4
      vertex 0 18.4 1.4
      vertex 2 18.4 1.4
    endloop
  endfacet
  facet normal 0 1 -0
    outer loop
      vertex 2 18.4 1.4
      vertex 0 18.4 5.6
      vertex 2 18.4 5.6
    endloop
  endfacet
  facet normal 0 1 0
    outer loop
      vertex 0 18.4 5.6
      vertex 2 18.4 1.4
      vertex 0 18.4 1.4
    endloop
  endfacet
  facet normal -0.315282 0.948998 0
    outer loop
      vertex 5.01 20.4 1.4
      vertex 2 19.4 5.6
      vertex 5.01 20.4 5.6
    endloop
  endfacet
  facet normal -0.315282 0.948998 0
    outer loop
      vertex 2 19.4 5.6
      vertex 5.01 20.4 1.4
      vertex 2 19.4 1.4
    endloop
  endfacet
  facet normal -0.315282 -0.948998 0
    outer loop
      vertex 2 31.4 1.4
      vertex 5.01 30.4 5.6
      vertex 2 31.4 5.6
    endloop
  endfacet
  facet normal -0.315282 -0.948998 -0
    outer loop
      vertex 5.01 30.4 5.6
      vertex 2 31.4 1.4
      vertex 5.01 30.4 1.4
    endloop
  endfacet
  facet normal 0 -1 0
    outer loop
      vertex 5.01 30.4 1.4
      vertex 7.55 30.4 5.6
      vertex 5.01 30.4 5.6
    endloop
  endfacet
  facet normal 0 -1 -0
    outer loop
      vertex 7.55 30.4 5.6
      vertex 5.01 30.4 1.4
      vertex 7.55 30.4 1.4
    endloop
  endfacet
  facet normal 0 1 -0
    outer loop
      vertex 7.55 20.4 1.4
      vertex 5.01 20.4 5.6
      vertex 7.55 20.4 5.6
    endloop
  endfacet
  facet normal 0 1 0
    outer loop
      vertex 5.01 20.4 5.6
      vertex 7.55 20.4 1.4
      vertex 5.01 20.4 1.4
    endloop
  endfacet
  facet normal 0 0 -1
    outer loop
      vertex 45.79 30.4 5.6
      vertex 49.8 27.05 5.6
      vertex 45.79 20.4 5.6
    endloop
  endfacet
  facet normal 0 0 -1
    outer loop
      vertex 49.8 27.05 5.6
      vertex 45.79 30.4 5.6
      vertex 48.8 31.4 5.6
    endloop
  endfacet
  facet normal 0 0 -1
    outer loop
      vertex 43.25 20.4 5.6
      vertex 45.79 30.4 5.6
      vertex 45.79 20.4 5.6
    endloop
  endfacet
  facet normal -0 0 -1
    outer loop
      vertex 45.79 30.4 5.6
      vertex 43.25 20.4 5.6
      vertex 43.25 30.4 5.6
    endloop
  endfacet
  facet normal 0 0 -1
    outer loop
      vertex 48.8 19.4 5.6
      vertex 50.8 27.05 5.6
      vertex 50.8 18.4 5.6
    endloop
  endfacet
  facet normal 0 0 -1
    outer loop
      vertex 48.8 19.4 5.6
      vertex 50.8 18.4 5.6
      vertex 48.8 18.4 5.6
    endloop
  endfacet
  facet normal -0 0 -1
    outer loop
      vertex 50.8 27.05 5.6
      vertex 48.8 19.4 5.6
      vertex 49.8 27.05 5.6
    endloop
  endfacet
  facet normal 0 0 -1
    outer loop
      vertex 45.79 20.4 5.6
      vertex 49.8 27.05 5.6
      vertex 48.8 19.4 5.6
    endloop
  endfacet
  facet normal 0 0 -1
    outer loop
      vertex 49.8 27.05 5.6
      vertex 48.8 31.4 5.6
      vertex 49.8 32.4 5.6
    endloop
  endfacet
  facet normal -0 0 -1
    outer loop
      vertex 49.8 32.4 5.6
      vertex 48.8 31.4 5.6
      vertex 48.8 32.4 5.6
    endloop
  endfacet
  facet normal 1 -0 0
    outer loop
      vertex 48.8 31.4 5.6
      vertex 48.8 32.4 1.4
      vertex 48.8 32.4 5.6
    endloop
  endfacet
  facet normal 1 0 0
    outer loop
      vertex 48.8 32.4 1.4
      vertex 48.8 31.4 5.6
      vertex 48.8 31.4 1.4
    endloop
  endfacet
  facet normal 1 -0 0
    outer loop
      vertex 48.8 18.4 5.6
      vertex 48.8 19.4 1.4
      vertex 48.8 19.4 5.6
    endloop
  endfacet
  facet normal 1 0 0
    outer loop
      vertex 48.8 19.4 1.4
      vertex 48.8 18.4 5.6
      vertex 48.8 18.4 1.4
    endloop
  endfacet
  facet normal 0 1 -0
    outer loop
      vertex 50.8 18.4 1.4
      vertex 48.8 18.4 5.6
      vertex 50.8 18.4 5.6
    endloop
  endfacet
  facet normal 0 1 0
    outer loop
      vertex 48.8 18.4 5.6
      vertex 50.8 18.4 1.4
      vertex 48.8 18.4 1.4
    endloop
  endfacet
  facet normal 0 0 1
    outer loop
      vertex 50.8 32.4 1.4
      vertex 49.8 30.6 1.4
      vertex 50.8 30.6 1.4
    endloop
  endfacet
  facet normal 0 0 1
    outer loop
      vertex 50.8 32.4 1.4
      vertex 48.8 31.4 1.4
      vertex 49.8 30.6 1.4
    endloop
  endfacet
  facet normal 0 0 1
    outer loop
      vertex 48.8 31.4 1.4
      vertex 50.8 32.4 1.4
      vertex 48.8 32.4 1.4
    endloop
  endfacet
  facet normal 0 0 1
    outer loop
      vertex 48.8 19.4 1.4
      vertex 50.8 29.6 1.4
      vertex 49.8 29.6 1.4
    endloop
  endfacet
  facet normal 0 0 1
    outer loop
      vertex 49.8 30.6 1.4
      vertex 48.8 31.4 1.4
      vertex 49.8 29.6 1.4
    endloop
  endfacet
  facet normal -0 0 1
    outer loop
      vertex 45.79 30.4 1.4
      vertex 49.8 29.6 1.4
      vertex 48.8 31.4 1.4
    endloop
  endfacet
  facet normal 0 0 1
    outer loop
      vertex 50.8 29.6 1.4
      vertex 48.8 19.4 1.4
      vertex 50.8 18.4 1.4
    endloop
  endfacet
  facet normal 0 0 1
    outer loop
      vertex 50.8 18.4 1.4
      vertex 48.8 19.4 1.4
      vertex 48.8 18.4 1.4
    endloop
  endfacet
  facet normal 0 0 1
    outer loop
      vertex 45.79 20.4 1.4
      vertex 49.8 29.6 1.4
      vertex 45.79 30.4 1.4
    endloop
  endfacet
  facet normal 0 0 1
    outer loop
      vertex 49.8 29.6 1.4
      vertex 45.79 20.4 1.4
      vertex 48.8 19.4 1.4
    endloop
  endfacet
  facet normal -0 0 1
    outer loop
      vertex 43.25 30.4 1.4
      vertex 45.79 20.4 1.4
      vertex 45.79 30.4 1.4
    endloop
  endfacet
  facet normal 0 0 1
    outer loop
      vertex 45.79 20.4 1.4
      vertex 43.25 30.4 1.4
      vertex 43.25 20.4 1.4
    endloop
  endfacet
  facet normal 0 -1 0
    outer loop
      vertex 48.8 32.4 5.6
      vertex 49.8 32.4 5.5
      vertex 49.8 32.4 5.6
    endloop
  endfacet
  facet normal 0 -1 0
    outer loop
      vertex 48.8 32.4 1.4
      vertex 49.8 32.4 5.5
      vertex 48.8 32.4 5.6
    endloop
  endfacet
  facet normal 0 -1 0
    outer loop
      vertex 50.8 32.4 1.4
      vertex 49.8 32.4 5.5
      vertex 48.8 32.4 1.4
    endloop
  endfacet
  facet normal 0 -1 0
    outer loop
      vertex 49.8 32.4 5.5
      vertex 50.8 32.4 1.4
      vertex 50.8 32.4 5.5
    endloop
  endfacet
  facet normal 0.315282 -0.948998 0
    outer loop
      vertex 45.79 30.4 1.4
      vertex 48.8 31.4 5.6
      vertex 45.79 30.4 5.6
    endloop
  endfacet
  facet normal 0.315282 -0.948998 0
    outer loop
      vertex 48.8 31.4 5.6
      vertex 45.79 30.4 1.4
      vertex 48.8 31.4 1.4
    endloop
  endfacet
  facet normal 0.315282 0.948998 -0
    outer loop
      vertex 48.8 19.4 1.4
      vertex 45.79 20.4 5.6
      vertex 48.8 19.4 5.6
    endloop
  endfacet
  facet normal 0.315282 0.948998 0
    outer loop
      vertex 45.79 20.4 5.6
      vertex 48.8 19.4 1.4
      vertex 45.79 20.4 1.4
    endloop
  endfacet
  facet normal 0 1 -0
    outer loop
      vertex 45.79 20.4 1.4
      vertex 43.25 20.4 5.6
      vertex 45.79 20.4 5.6
    endloop
  endfacet
  facet normal 0 1 0
    outer loop
      vertex 43.25 20.4 5.6
      vertex 45.79 20.4 1.4
      vertex 43.25 20.4 1.4
    endloop
  endfacet
  facet normal 0 -1 0
    outer loop
      vertex 43.25 30.4 1.4
      vertex 45.79 30.4 5.6
      vertex 43.25 30.4 5.6
    endloop
  endfacet
  facet normal 0 -1 -0
    outer loop
      vertex 45.79 30.4 5.6
      vertex 43.25 30.4 1.4
      vertex 45.79 30.4 1.4
    endloop
  endfacet
  facet normal -1 0 0
    outer loop
      vertex 0 38.1 0
      vertex 0 32.4 1.4
      vertex 0 38.1 5.5
    endloop
  endfacet
  facet normal -1 0 0
    outer loop
      vertex 0 30.6 0
      vertex 0 32.4 1.4
      vertex 0 38.1 0
    endloop
  endfacet
  facet normal -1 -0 0
    outer loop
      vertex 0 32.4 1.4
      vertex 0 30.6 0
      vertex 0 30.6 1.4
    endloop
  endfacet
  facet normal -1 -0 0
    outer loop
      vertex 0 38.1 5.5
      vertex 0 32.4 1.4
      vertex 0 32.4 5.5
    endloop
  endfacet
  facet normal -1 0 0
    outer loop
      vertex 0 29.6 0
      vertex 0 18.4 1.4
      vertex 0 29.6 1.4
    endloop
  endfacet
  facet normal -1 0 0
    outer loop
      vertex 0 18.4 1.4
      vertex 0 11.05 5.5
      vertex 0 18.4 5.6
    endloop
  endfacet
  facet normal -1 0 0
    outer loop
      vertex 0 10.2 0
      vertex 0 18.4 1.4
      vertex 0 29.6 0
    endloop
  endfacet
  facet normal -1 0 0
    outer loop
      vertex 0 10.2 0
      vertex 0 11.05 5.5
      vertex 0 18.4 1.4
    endloop
  endfacet
  facet normal -1 -0 0
    outer loop
      vertex 0 11.05 5.5
      vertex 0 10.2 0
      vertex 0 10.2 5.5
    endloop
  endfacet
  facet normal -1 0 0
    outer loop
      vertex 0 18.4 5.6
      vertex 0 27.05 6
      vertex 0 27.05 5.6
    endloop
  endfacet
  facet normal -1 0 0
    outer loop
      vertex 0 11.05 6
      vertex 0 18.4 5.6
      vertex 0 11.05 5.5
    endloop
  endfacet
  facet normal -1 0 0
    outer loop
      vertex 0 18.4 5.6
      vertex 0 11.05 6
      vertex 0 27.05 6
    endloop
  endfacet
  facet normal -1 0 0
    outer loop
      vertex 0 0 0
      vertex 0 9.2 5.5
      vertex 0 9.2 0
    endloop
  endfacet
  facet normal -1 -0 0
    outer loop
      vertex 0 9.2 5.5
      vertex 0 0 0
      vertex 0 0 5.5
    endloop
  endfacet
  facet normal 0 0 1
    outer loop
      vertex 1 9.2 5.5
      vertex 0 9.2 5.5
      vertex 1 1 5.5
    endloop
  endfacet
  facet normal -0 0 1
    outer loop
      vertex 1 1 5.5
      vertex 9.2 0 5.5
      vertex 9.2 1 5.5
    endloop
  endfacet
  facet normal 0 0 1
    outer loop
      vertex 1 1 5.5
      vertex 0 0 5.5
      vertex 9.2 0 5.5
    endloop
  endfacet
  facet normal 0 0 1
    outer loop
      vertex 0 0 5.5
      vertex 1 1 5.5
      vertex 0 9.2 5.5
    endloop
  endfacet
  facet normal 1 -0 0
    outer loop
      vertex 9.2 0 5.5
      vertex 9.2 1 0
      vertex 9.2 1 5.5
    endloop
  endfacet
  facet normal 1 0 0
    outer loop
      vertex 9.2 1 0
      vertex 9.2 0 5.5
      vertex 9.2 0 0
    endloop
  endfacet
  facet normal 0 0 -1
    outer loop
      vertex 39.8 0 0
      vertex 10.2 0 0
      vertex 39.8 1 0
    endloop
  endfacet
  facet normal 0 0 -1
    outer loop
      vertex 43.25 30.55 0
      vertex 39.8 37.1 0
      vertex 40.8 37.1 0
    endloop
  endfacet
  facet normal 0 0 -1
    outer loop
      vertex 39.8 37.1 0
      vertex 10.2 37.1 0
      vertex 39.8 38.1 0
    endloop
  endfacet
  facet normal 0 0 -1
    outer loop
      vertex 7.55 30.55 0
      vertex 39.8 37.1 0
      vertex 43.25 30.55 0
    endloop
  endfacet
  facet normal -0 0 -1
    outer loop
      vertex 39.8 37.1 0
      vertex 7.55 30.55 0
      vertex 10.2 37.1 0
    endloop
  endfacet
  facet normal -0 0 -1
    outer loop
      vertex 10.2 37.1 0
      vertex 7.55 30.55 0
      vertex 9.2 37.1 0
    endloop
  endfacet
  facet normal 0 0 -1
    outer loop
      vertex 0 38.1 0
      vertex 9.2 37.1 0
      vertex 7.55 30.55 0
    endloop
  endfacet
  facet normal 0 0 -1
    outer loop
      vertex 7.55 7.55 0
      vertex 1 10.2 0
      vertex 7.55 30.55 0
    endloop
  endfacet
  facet normal 0 0 -1
    outer loop
      vertex 1 29.6 0
      vertex 7.55 30.55 0
      vertex 1 10.2 0
    endloop
  endfacet
  facet normal 0 0 -1
    outer loop
      vertex 1 30.6 0
      vertex 7.55 30.55 0
      vertex 1 29.6 0
    endloop
  endfacet
  facet normal 0 0 -1
    outer loop
      vertex 0 38.1 0
      vertex 7.55 30.55 0
      vertex 1 30.6 0
    endloop
  endfacet
  facet normal 0 0 -1
    outer loop
      vertex 0 38.1 0
      vertex 1 30.6 0
      vertex 0 30.6 0
    endloop
  endfacet
  facet normal 0 0 -1
    outer loop
      vertex 9.2 37.1 0
      vertex 0 38.1 0
      vertex 9.2 38.1 0
    endloop
  endfacet
  facet normal 0 0 -1
    outer loop
      vertex 50.8 0 0
      vertex 49.8 9.2 0
      vertex 50.8 9.2 0
    endloop
  endfacet
  facet normal 0 0 -1
    outer loop
      vertex 43.25 7.55 0
      vertex 49.8 10.2 0
      vertex 49.8 9.2 0
    endloop
  endfacet
  facet normal 0 0 -1
    outer loop
      vertex 49.8 10.2 0
      vertex 43.25 30.55 0
      vertex 49.8 29.6 0
    endloop
  endfacet
  facet normal -0 0 -1
    outer loop
      vertex 49.8 10.2 0
      vertex 43.25 7.55 0
      vertex 43.25 30.55 0
    endloop
  endfacet
  facet normal 0 0 -1
    outer loop
      vertex 50.8 0 0
      vertex 43.25 7.55 0
      vertex 49.8 9.2 0
    endloop
  endfacet
  facet normal 0 0 -1
    outer loop
      vertex 40.8 1 0
      vertex 50.8 0 0
      vertex 40.8 0 0
    endloop
  endfacet
  facet normal 0 0 -1
    outer loop
      vertex 50.8 0 0
      vertex 40.8 1 0
      vertex 43.25 7.55 0
    endloop
  endfacet
  facet normal 0 0 -1
    outer loop
      vertex 39.8 1 0
      vertex 43.25 7.55 0
      vertex 40.8 1 0
    endloop
  endfacet
  facet normal 0 0 -1
    outer loop
      vertex 10.2 1 0
      vertex 39.8 1 0
      vertex 10.2 0 0
    endloop
  endfacet
  facet normal 0 0 -1
    outer loop
      vertex 7.55 7.55 0
      vertex 39.8 1 0
      vertex 10.2 1 0
    endloop
  endfacet
  facet normal 0 0 -1
    outer loop
      vertex 7.55 7.55 0
      vertex 10.2 1 0
      vertex 9.2 1 0
    endloop
  endfacet
  facet normal 0 0 -1
    outer loop
      vertex 39.8 1 0
      vertex 7.55 7.55 0
      vertex 43.25 7.55 0
    endloop
  endfacet
  facet normal 0 0 -1
    outer loop
      vertex 49.8 10.2 0
      vertex 50.8 29.6 0
      vertex 50.8 10.2 0
    endloop
  endfacet
  facet normal -0 0 -1
    outer loop
      vertex 50.8 29.6 0
      vertex 49.8 10.2 0
      vertex 49.8 29.6 0
    endloop
  endfacet
  facet normal 0 0 -1
    outer loop
      vertex 49.8 30.6 0
      vertex 50.8 38.1 0
      vertex 50.8 30.6 0
    endloop
  endfacet
  facet normal 0 0 -1
    outer loop
      vertex 49.8 29.6 0
      vertex 43.25 30.55 0
      vertex 49.8 30.6 0
    endloop
  endfacet
  facet normal -0 0 -1
    outer loop
      vertex 49.8 30.6 0
      vertex 43.25 30.55 0
      vertex 50.8 38.1 0
    endloop
  endfacet
  facet normal 0 0 -1
    outer loop
      vertex 40.8 37.1 0
      vertex 50.8 38.1 0
      vertex 43.25 30.55 0
    endloop
  endfacet
  facet normal -0 0 -1
    outer loop
      vertex 50.8 38.1 0
      vertex 40.8 37.1 0
      vertex 40.8 38.1 0
    endloop
  endfacet
  facet normal 0 0 -1
    outer loop
      vertex 0 10.2 0
      vertex 1 29.6 0
      vertex 1 10.2 0
    endloop
  endfacet
  facet normal -0 0 -1
    outer loop
      vertex 1 29.6 0
      vertex 0 10.2 0
      vertex 0 29.6 0
    endloop
  endfacet
  facet normal 0 0 -1
    outer loop
      vertex 0 0 0
      vertex 9.2 1 0
      vertex 9.2 0 0
    endloop
  endfacet
  facet normal 0 0 -1
    outer loop
      vertex 1 10.2 0
      vertex 7.55 7.55 0
      vertex 1 9.2 0
    endloop
  endfacet
  facet normal -0 0 -1
    outer loop
      vertex 9.2 1 0
      vertex 0 0 0
      vertex 7.55 7.55 0
    endloop
  endfacet
  facet normal -0 0 -1
    outer loop
      vertex 7.55 7.55 0
      vertex 0 0 0
      vertex 1 9.2 0
    endloop
  endfacet
  facet normal -0 0 -1
    outer loop
      vertex 1 9.2 0
      vertex 0 0 0
      vertex 0 9.2 0
    endloop
  endfacet
  facet normal -0 0 -1
    outer loop
      vertex 39.8 38.1 0
      vertex 10.2 37.1 0
      vertex 10.2 38.1 0
    endloop
  endfacet
  facet normal 0 -1 0
    outer loop
      vertex 40.8 0 0
      vertex 50.8 0 5.5
      vertex 40.8 0 5.5
    endloop
  endfacet
  facet normal 0 -1 -0
    outer loop
      vertex 50.8 0 5.5
      vertex 40.8 0 0
      vertex 50.8 0 0
    endloop
  endfacet
  facet normal 0 -1 0
    outer loop
      vertex 10.2 0 0
      vertex 17.4 0 5.5
      vertex 10.2 0 5.5
    endloop
  endfacet
  facet normal 0 -1 0
    outer loop
      vertex 39.8 0 0
      vertex 18.4 0 1.4
      vertex 10.2 0 0
    endloop
  endfacet
  facet normal 0 -1 -0
    outer loop
      vertex 17.4 0 5.5
      vertex 10.2 0 0
      vertex 18.4 0 1.4
    endloop
  endfacet
  facet normal 0 -1 0
    outer loop
      vertex 17.4 0 6
      vertex 18.4 0 5.6
      vertex 33.4 0 6
    endloop
  endfacet
  facet normal 0 -1 0
    outer loop
      vertex 17.4 0 5.5
      vertex 18.4 0 5.6
      vertex 17.4 0 6
    endloop
  endfacet
  facet normal 0 -1 -0
    outer loop
      vertex 18.4 0 5.6
      vertex 17.4 0 5.5
      vertex 18.4 0 1.4
    endloop
  endfacet
  facet normal 0 -1 0
    outer loop
      vertex 32.4 0 5.6
      vertex 33.4 0 6
      vertex 18.4 0 5.6
    endloop
  endfacet
  facet normal 0 -1 0
    outer loop
      vertex 32.4 0 5.6
      vertex 33.4 0 5.5
      vertex 33.4 0 6
    endloop
  endfacet
  facet normal 0 -1 0
    outer loop
      vertex 32.4 0 1.4
      vertex 33.4 0 5.5
      vertex 32.4 0 5.6
    endloop
  endfacet
  facet normal 0 -1 0
    outer loop
      vertex 39.8 0 0
      vertex 33.4 0 5.5
      vertex 32.4 0 1.4
    endloop
  endfacet
  facet normal 0 -1 0
    outer loop
      vertex 33.4 0 5.5
      vertex 39.8 0 0
      vertex 39.8 0 5.5
    endloop
  endfacet
  facet normal 0 -1 0
    outer loop
      vertex 18.4 0 1.4
      vertex 39.8 0 0
      vertex 32.4 0 1.4
    endloop
  endfacet
  facet normal 0 -1 0
    outer loop
      vertex 0 0 0
      vertex 9.2 0 5.5
      vertex 0 0 5.5
    endloop
  endfacet
  facet normal 0 -1 -0
    outer loop
      vertex 9.2 0 5.5
      vertex 0 0 0
      vertex 9.2 0 0
    endloop
  endfacet
  facet normal 0 1 -0
    outer loop
      vertex 1 9.2 0
      vertex 0 9.2 5.5
      vertex 1 9.2 5.5
    endloop
  endfacet
  facet normal 0 1 0
    outer loop
      vertex 0 9.2 5.5
      vertex 1 9.2 0
      vertex 0 9.2 0
    endloop
  endfacet
  facet normal -0 0 1
    outer loop
      vertex 0 11.05 5.5
      vertex 1 10.2 5.5
      vertex 1 11.05 5.5
    endloop
  endfacet
  facet normal 0 0 1
    outer loop
      vertex 1 10.2 5.5
      vertex 0 11.05 5.5
      vertex 0 10.2 5.5
    endloop
  endfacet
  facet normal 0 -1 0
    outer loop
      vertex 0 10.2 0
      vertex 1 10.2 5.5
      vertex 0 10.2 5.5
    endloop
  endfacet
  facet normal 0 -1 -0
    outer loop
      vertex 1 10.2 5.5
      vertex 0 10.2 0
      vertex 1 10.2 0
    endloop
  endfacet
  facet normal 0 1 -0
    outer loop
      vertex 1 29.6 0
      vertex 0 29.6 1.4
      vertex 1 29.6 1.4
    endloop
  endfacet
  facet normal 0 1 0
    outer loop
      vertex 0 29.6 1.4
      vertex 1 29.6 0
      vertex 0 29.6 0
    endloop
  endfacet
  facet normal 0 0 1
    outer loop
      vertex 9.2 38.1 5.5
      vertex 1 37.1 5.5
      vertex 9.2 37.1 5.5
    endloop
  endfacet
  facet normal -0 0 1
    outer loop
      vertex 0 38.1 5.5
      vertex 1 37.1 5.5
      vertex 9.2 38.1 5.5
    endloop
  endfacet
  facet normal 0 0 1
    outer loop
      vertex 0 32.4 5.5
      vertex 1 37.1 5.5
      vertex 0 38.1 5.5
    endloop
  endfacet
  facet normal 0 0 1
    outer loop
      vertex 1 37.1 5.5
      vertex 0 32.4 5.5
      vertex 1 32.4 5.5
    endloop
  endfacet
  facet normal 1 -0 0
    outer loop
      vertex 9.2 37.1 5.5
      vertex 9.2 38.1 0
      vertex 9.2 38.1 5.5
    endloop
  endfacet
  facet normal 1 0 0
    outer loop
      vertex 9.2 38.1 0
      vertex 9.2 37.1 5.5
      vertex 9.2 37.1 0
    endloop
  endfacet
  facet normal 0 -1 0
    outer loop
      vertex 0 30.6 0
      vertex 1 30.6 1.4
      vertex 0 30.6 1.4
    endloop
  endfacet
  facet normal 0 -1 -0
    outer loop
      vertex 1 30.6 1.4
      vertex 0 30.6 0
      vertex 1 30.6 0
    endloop
  endfacet
  facet normal -1 0 0
    outer loop
      vertex 10.2 0 0
      vertex 10.2 1 5.5
      vertex 10.2 1 0
    endloop
  endfacet
  facet normal -1 -0 0
    outer loop
      vertex 10.2 1 5.5
      vertex 10.2 0 0
      vertex 10.2 0 5.5
    endloop
  endfacet
  facet normal -0 0 1
    outer loop
      vertex 10.2 1 5.5
      vertex 17.4 0 5.5
      vertex 17.4 1 5.5
    endloop
  endfacet
  facet normal 0 0 1
    outer loop
      vertex 17.4 0 5.5
      vertex 10.2 1 5.5
      vertex 10.2 0 5.5
    endloop
  endfacet
  facet normal -1 0 0
    outer loop
      vertex 10.2 37.1 0
      vertex 10.2 38.1 5.5
      vertex 10.2 38.1 0
    endloop
  endfacet
  facet normal -1 -0 0
    outer loop
      vertex 10.2 38.1 5.5
      vertex 10.2 37.1 0
      vertex 10.2 37.1 5.5
    endloop
  endfacet
  facet normal -0 0 1
    outer loop
      vertex 10.2 38.1 5.5
      vertex 17.4 37.1 5.5
      vertex 17.4 38.1 5.5
    endloop
  endfacet
  facet normal 0 0 1
    outer loop
      vertex 17.4 37.1 5.5
      vertex 10.2 38.1 5.5
      vertex 10.2 37.1 5.5
    endloop
  endfacet
  facet normal -0 0 1
    outer loop
      vertex 33.4 1 5.5
      vertex 39.8 0 5.5
      vertex 39.8 1 5.5
    endloop
  endfacet
  facet normal 0 0 1
    outer loop
      vertex 39.8 0 5.5
      vertex 33.4 1 5.5
      vertex 33.4 0 5.5
    endloop
  endfacet
  facet normal 1 -0 0
    outer loop
      vertex 39.8 0 5.5
      vertex 39.8 1 0
      vertex 39.8 1 5.5
    endloop
  endfacet
  facet normal 1 0 0
    outer loop
      vertex 39.8 1 0
      vertex 39.8 0 5.5
      vertex 39.8 0 0
    endloop
  endfacet
  facet normal -0 0 1
    outer loop
      vertex 33.4 38.1 5.5
      vertex 39.8 37.1 5.5
      vertex 39.8 38.1 5.5
    endloop
  endfacet
  facet normal 0 0 1
    outer loop
      vertex 39.8 37.1 5.5
      vertex 33.4 38.1 5.5
      vertex 33.4 37.1 5.5
    endloop
  endfacet
  facet normal 1 -0 0
    outer loop
      vertex 39.8 37.1 5.5
      vertex 39.8 38.1 0
      vertex 39.8 38.1 5.5
    endloop
  endfacet
  facet normal 1 0 0
    outer loop
      vertex 39.8 38.1 0
      vertex 39.8 37.1 5.5
      vertex 39.8 37.1 0
    endloop
  endfacet
  facet normal -1 0 0
    outer loop
      vertex 40.8 0 0
      vertex 40.8 1 5.5
      vertex 40.8 1 0
    endloop
  endfacet
  facet normal -1 -0 0
    outer loop
      vertex 40.8 1 5.5
      vertex 40.8 0 0
      vertex 40.8 0 5.5
    endloop
  endfacet
  facet normal 0 0 1
    outer loop
      vertex 49.8 1 5.5
      vertex 50.8 9.2 5.5
      vertex 49.8 9.2 5.5
    endloop
  endfacet
  facet normal 0 0 1
    outer loop
      vertex 50.8 9.2 5.5
      vertex 49.8 1 5.5
      vertex 50.8 0 5.5
    endloop
  endfacet
  facet normal 0 0 1
    outer loop
      vertex 40.8 0 5.5
      vertex 49.8 1 5.5
      vertex 40.8 1 5.5
    endloop
  endfacet
  facet normal 0 0 1
    outer loop
      vertex 49.8 1 5.5
      vertex 40.8 0 5.5
      vertex 50.8 0 5.5
    endloop
  endfacet
  facet normal 0 1 -0
    outer loop
      vertex 50.8 9.2 0
      vertex 49.8 9.2 5.5
      vertex 50.8 9.2 5.5
    endloop
  endfacet
  facet normal 0 1 0
    outer loop
      vertex 49.8 9.2 5.5
      vertex 50.8 9.2 0
      vertex 49.8 9.2 0
    endloop
  endfacet
  facet normal -0 0 1
    outer loop
      vertex 49.8 11.05 5.5
      vertex 50.8 10.2 5.5
      vertex 50.8 11.05 5.5
    endloop
  endfacet
  facet normal 0 0 1
    outer loop
      vertex 50.8 10.2 5.5
      vertex 49.8 11.05 5.5
      vertex 49.8 10.2 5.5
    endloop
  endfacet
  facet normal 0 -1 0
    outer loop
      vertex 49.8 10.2 0
      vertex 50.8 10.2 5.5
      vertex 49.8 10.2 5.5
    endloop
  endfacet
  facet normal 0 -1 -0
    outer loop
      vertex 50.8 10.2 5.5
      vertex 49.8 10.2 0
      vertex 50.8 10.2 0
    endloop
  endfacet
  facet normal 0 1 -0
    outer loop
      vertex 50.8 29.6 0
      vertex 49.8 29.6 1.4
      vertex 50.8 29.6 1.4
    endloop
  endfacet
  facet normal 0 1 0
    outer loop
      vertex 49.8 29.6 1.4
      vertex 50.8 29.6 0
      vertex 49.8 29.6 0
    endloop
  endfacet
  facet normal -1 0 0
    outer loop
      vertex 40.8 37.1 0
      vertex 40.8 38.1 5.5
      vertex 40.8 38.1 0
    endloop
  endfacet
  facet normal -1 -0 0
    outer loop
      vertex 40.8 38.1 5.5
      vertex 40.8 37.1 0
      vertex 40.8 37.1 5.5
    endloop
  endfacet
  facet normal 0 0 1
    outer loop
      vertex 50.8 38.1 5.5
      vertex 49.8 37.1 5.5
      vertex 50.8 32.4 5.5
    endloop
  endfacet
  facet normal -0 0 1
    outer loop
      vertex 40.8 38.1 5.5
      vertex 49.8 37.1 5.5
      vertex 50.8 38.1 5.5
    endloop
  endfacet
  facet normal 0 0 1
    outer loop
      vertex 49.8 37.1 5.5
      vertex 40.8 38.1 5.5
      vertex 40.8 37.1 5.5
    endloop
  endfacet
  facet normal 0 0 1
    outer loop
      vertex 50.8 32.4 5.5
      vertex 49.8 37.1 5.5
      vertex 49.8 32.4 5.5
    endloop
  endfacet
  facet normal 0 -1 0
    outer loop
      vertex 49.8 30.6 0
      vertex 50.8 30.6 1.4
      vertex 49.8 30.6 1.4
    endloop
  endfacet
  facet normal 0 -1 -0
    outer loop
      vertex 50.8 30.6 1.4
      vertex 49.8 30.6 0
      vertex 50.8 30.6 0
    endloop
  endfacet
  facet normal 1 -0 0
    outer loop
      vertex 50.8 0 5.5
      vertex 50.8 9.2 0
      vertex 50.8 9.2 5.5
    endloop
  endfacet
  facet normal 1 0 0
    outer loop
      vertex 50.8 9.2 0
      vertex 50.8 0 5.5
      vertex 50.8 0 0
    endloop
  endfacet
  facet normal 1 0 0
    outer loop
      vertex 50.8 32.4 1.4
      vertex 50.8 38.1 5.5
      vertex 50.8 32.4 5.5
    endloop
  endfacet
  facet normal 1 0 0
    outer loop
      vertex 50.8 38.1 5.5
      vertex 50.8 32.4 1.4
      vertex 50.8 38.1 0
    endloop
  endfacet
  facet normal 1 0 0
    outer loop
      vertex 50.8 30.6 0
      vertex 50.8 32.4 1.4
      vertex 50.8 30.6 1.4
    endloop
  endfacet
  facet normal 1 0 0
    outer loop
      vertex 50.8 32.4 1.4
      vertex 50.8 30.6 0
      vertex 50.8 38.1 0
    endloop
  endfacet
  facet normal 1 0 0
    outer loop
      vertex 50.8 27.05 6
      vertex 50.8 18.4 5.6
      vertex 50.8 27.05 5.6
    endloop
  endfacet
  facet normal 1 0 0
    outer loop
      vertex 50.8 11.05 5.5
      vertex 50.8 18.4 5.6
      vertex 50.8 11.05 6
    endloop
  endfacet
  facet normal 1 -0 0
    outer loop
      vertex 50.8 11.05 6
      vertex 50.8 18.4 5.6
      vertex 50.8 27.05 6
    endloop
  endfacet
  facet normal 1 -0 0
    outer loop
      vertex 50.8 18.4 1.4
      vertex 50.8 29.6 0
      vertex 50.8 29.6 1.4
    endloop
  endfacet
  facet normal 1 0 0
    outer loop
      vertex 50.8 18.4 5.6
      vertex 50.8 11.05 5.5
      vertex 50.8 18.4 1.4
    endloop
  endfacet
  facet normal 1 0 0
    outer loop
      vertex 50.8 10.2 0
      vertex 50.8 11.05 5.5
      vertex 50.8 10.2 5.5
    endloop
  endfacet
  facet normal 1 0 0
    outer loop
      vertex 50.8 18.4 1.4
      vertex 50.8 10.2 0
      vertex 50.8 29.6 0
    endloop
  endfacet
  facet normal 1 0 0
    outer loop
      vertex 50.8 11.05 5.5
      vertex 50.8 10.2 0
      vertex 50.8 18.4 1.4
    endloop
  endfacet
  facet normal 0 1 -0
    outer loop
      vertex 9.2 38.1 0
      vertex 0 38.1 5.5
      vertex 9.2 38.1 5.5
    endloop
  endfacet
  facet normal 0 1 0
    outer loop
      vertex 0 38.1 5.5
      vertex 9.2 38.1 0
      vertex 0 38.1 0
    endloop
  endfacet
  facet normal 0 1 -0
    outer loop
      vertex 50.8 38.1 0
      vertex 40.8 38.1 5.5
      vertex 50.8 38.1 5.5
    endloop
  endfacet
  facet normal 0 1 0
    outer loop
      vertex 40.8 38.1 5.5
      vertex 50.8 38.1 0
      vertex 40.8 38.1 0
    endloop
  endfacet
  facet normal 0 1 -0
    outer loop
      vertex 39.8 38.1 0
      vertex 33.4 38.1 5.5
      vertex 39.8 38.1 5.5
    endloop
  endfacet
  facet normal 0 1 0
    outer loop
      vertex 32.4 38.1 1.4
      vertex 39.8 38.1 0
      vertex 18.4 38.1 1.4
    endloop
  endfacet
  facet normal 0 1 0
    outer loop
      vertex 33.4 38.1 5.5
      vertex 39.8 38.1 0
      vertex 32.4 38.1 1.4
    endloop
  endfacet
  facet normal 0 1 0
    outer loop
      vertex 33.4 38.1 6
      vertex 32.4 38.1 5.6
      vertex 17.4 38.1 6
    endloop
  endfacet
  facet normal 0 1 -0
    outer loop
      vertex 33.4 38.1 5.5
      vertex 32.4 38.1 5.6
      vertex 33.4 38.1 6
    endloop
  endfacet
  facet normal 0 1 0
    outer loop
      vertex 32.4 38.1 5.6
      vertex 33.4 38.1 5.5
      vertex 32.4 38.1 1.4
    endloop
  endfacet
  facet normal 0 1 -0
    outer loop
      vertex 18.4 38.1 5.6
      vertex 17.4 38.1 6
      vertex 32.4 38.1 5.6
    endloop
  endfacet
  facet normal 0 1 0
    outer loop
      vertex 18.4 38.1 5.6
      vertex 17.4 38.1 5.5
      vertex 17.4 38.1 6
    endloop
  endfacet
  facet normal 0 1 -0
    outer loop
      vertex 18.4 38.1 1.4
      vertex 17.4 38.1 5.5
      vertex 18.4 38.1 5.6
    endloop
  endfacet
  facet normal 0 1 0
    outer loop
      vertex 10.2 38.1 0
      vertex 17.4 38.1 5.5
      vertex 18.4 38.1 1.4
    endloop
  endfacet
  facet normal 0 1 0
    outer loop
      vertex 17.4 38.1 5.5
      vertex 10.2 38.1 0
      vertex 10.2 38.1 5.5
    endloop
  endfacet
  facet normal 0 1 0
    outer loop
      vertex 10.2 38.1 0
      vertex 18.4 38.1 1.4
      vertex 39.8 38.1 0
    endloop
  endfacet
  facet normal -1 0 0
    outer loop
      vertex 1 10.2 0
      vertex 1 9.2 0
      vertex 1 10.2 5.5
    endloop
  endfacet
  facet normal -1 0 0
    outer loop
      vertex 1 10.2 5.5
      vertex 1 11.05 6
      vertex 1 11.05 5.5
    endloop
  endfacet
  facet normal -1 0 0
    outer loop
      vertex 1 9.2 5.5
      vertex 1 10.2 5.5
      vertex 1 9.2 0
    endloop
  endfacet
  facet normal -1 0 0
    outer loop
      vertex 1 9.2 5.5
      vertex 1 11.05 6
      vertex 1 10.2 5.5
    endloop
  endfacet
  facet normal -1 0 0
    outer loop
      vertex 1 1 6
      vertex 1 9.2 5.5
      vertex 1 1 5.5
    endloop
  endfacet
  facet normal -1 0 0
    outer loop
      vertex 1 9.2 5.5
      vertex 1 1 6
      vertex 1 11.05 6
    endloop
  endfacet
  facet normal -1 0 0
    outer loop
      vertex 1 32.4 5.6
      vertex 1 37.1 5.5
      vertex 1 32.4 5.5
    endloop
  endfacet
  facet normal -1 0 0
    outer loop
      vertex 1 37.1 5.5
      vertex 1 32.4 5.6
      vertex 1 37.1 6
    endloop
  endfacet
  facet normal -1 0 0
    outer loop
      vertex 1 27.05 6
      vertex 1 32.4 5.6
      vertex 1 27.05 5.6
    endloop
  endfacet
  facet normal -1 0 0
    outer loop
      vertex 1 32.4 5.6
      vertex 1 27.05 6
      vertex 1 37.1 6
    endloop
  endfacet
  facet normal -1 0 0
    outer loop
      vertex 1 29.6 0
      vertex 1 30.6 1.4
      vertex 1 30.6 0
    endloop
  endfacet
  facet normal -1 -0 0
    outer loop
      vertex 1 30.6 1.4
      vertex 1 29.6 0
      vertex 1 29.6 1.4
    endloop
  endfacet
  facet normal 0 0 1
    outer loop
      vertex 33.4 38.1 6
      vertex 17.4 38.1 6
      vertex 33.4 37.1 6
    endloop
  endfacet
  facet normal -0 0 1
    outer loop
      vertex 43.25 30.55 6
      vertex 49.8 27.05 6
      vertex 49.8 37.1 6
    endloop
  endfacet
  facet normal 0 0 1
    outer loop
      vertex 49.8 27.05 6
      vertex 43.25 30.55 6
      vertex 49.8 11.05 6
    endloop
  endfacet
  facet normal 0 0 1
    outer loop
      vertex 43.25 7.55 6
      vertex 49.8 11.05 6
      vertex 43.25 30.55 6
    endloop
  endfacet
  facet normal -0 0 1
    outer loop
      vertex 33.4 37.1 6
      vertex 43.25 30.55 6
      vertex 49.8 37.1 6
    endloop
  endfacet
  facet normal 0 0 1
    outer loop
      vertex 17.4 37.1 6
      vertex 33.4 37.1 6
      vertex 17.4 38.1 6
    endloop
  endfacet
  facet normal 0 0 1
    outer loop
      vertex 33.4 37.1 6
      vertex 17.4 37.1 6
      vertex 43.25 30.55 6
    endloop
  endfacet
  facet normal 0 0 1
    outer loop
      vertex 17.4 37.1 6
      vertex 7.55 30.55 6
      vertex 43.25 30.55 6
    endloop
  endfacet
  facet normal 0 0 1
    outer loop
      vertex 1 27.05 6
      vertex 7.55 30.55 6
      vertex 1 37.1 6
    endloop
  endfacet
  facet normal -0 0 1
    outer loop
      vertex 1 37.1 6
      vertex 7.55 30.55 6
      vertex 17.4 37.1 6
    endloop
  endfacet
  facet normal -0 0 1
    outer loop
      vertex 49.8 27.05 6
      vertex 50.8 11.05 6
      vertex 50.8 27.05 6
    endloop
  endfacet
  facet normal 0 0 1
    outer loop
      vertex 50.8 11.05 6
      vertex 49.8 27.05 6
      vertex 49.8 11.05 6
    endloop
  endfacet
  facet normal 0 0 1
    outer loop
      vertex 49.8 11.05 6
      vertex 43.25 7.55 6
      vertex 49.8 1 6
    endloop
  endfacet
  facet normal 0 0 1
    outer loop
      vertex 43.25 7.55 6
      vertex 33.4 1 6
      vertex 49.8 1 6
    endloop
  endfacet
  facet normal 0 0 1
    outer loop
      vertex 33.4 1 6
      vertex 17.4 1 6
      vertex 33.4 0 6
    endloop
  endfacet
  facet normal 0 0 1
    outer loop
      vertex 43.25 7.55 6
      vertex 17.4 1 6
      vertex 33.4 1 6
    endloop
  endfacet
  facet normal -0 0 1
    outer loop
      vertex 7.55 7.55 6
      vertex 17.4 1 6
      vertex 43.25 7.55 6
    endloop
  endfacet
  facet normal 0 0 1
    outer loop
      vertex 7.55 30.55 6
      vertex 1 27.05 6
      vertex 7.55 7.55 6
    endloop
  endfacet
  facet normal -0 0 1
    outer loop
      vertex 1 11.05 6
      vertex 7.55 7.55 6
      vertex 1 27.05 6
    endloop
  endfacet
  facet normal 0 0 1
    outer loop
      vertex 1 1 6
      vertex 7.55 7.55 6
      vertex 1 11.05 6
    endloop
  endfacet
  facet normal 0 0 1
    outer loop
      vertex 7.55 7.55 6
      vertex 1 1 6
      vertex 17.4 1 6
    endloop
  endfacet
  facet normal -0 0 1
    outer loop
      vertex 0 27.05 6
      vertex 1 11.05 6
      vertex 1 27.05 6
    endloop
  endfacet
  facet normal 0 0 1
    outer loop
      vertex 1 11.05 6
      vertex 0 27.05 6
      vertex 0 11.05 6
    endloop
  endfacet
  facet normal 0 0 1
    outer loop
      vertex 33.4 0 6
      vertex 17.4 1 6
      vertex 17.4 0 6
    endloop
  endfacet
  facet normal 1 0 0
    outer loop
      vertex 49.8 11.05 6
      vertex 49.8 10.2 5.5
      vertex 49.8 11.05 5.5
    endloop
  endfacet
  facet normal 1 0 0
    outer loop
      vertex 49.8 10.2 5.5
      vertex 49.8 9.2 5.5
      vertex 49.8 10.2 0
    endloop
  endfacet
  facet normal 1 0 0
    outer loop
      vertex 49.8 11.05 6
      vertex 49.8 9.2 5.5
      vertex 49.8 10.2 5.5
    endloop
  endfacet
  facet normal 1 -0 0
    outer loop
      vertex 49.8 1 6
      vertex 49.8 9.2 5.5
      vertex 49.8 11.05 6
    endloop
  endfacet
  facet normal 1 0 0
    outer loop
      vertex 49.8 9.2 5.5
      vertex 49.8 1 6
      vertex 49.8 1 5.5
    endloop
  endfacet
  facet normal 1 0 0
    outer loop
      vertex 49.8 10.2 0
      vertex 49.8 9.2 5.5
      vertex 49.8 9.2 0
    endloop
  endfacet
  facet normal 1 0 0
    outer loop
      vertex 49.8 37.1 6
      vertex 49.8 32.4 5.6
      vertex 49.8 37.1 5.5
    endloop
  endfacet
  facet normal 1 -0 0
    outer loop
      vertex 49.8 27.05 6
      vertex 49.8 32.4 5.6
      vertex 49.8 37.1 6
    endloop
  endfacet
  facet normal 1 0 0
    outer loop
      vertex 49.8 32.4 5.6
      vertex 49.8 27.05 6
      vertex 49.8 27.05 5.6
    endloop
  endfacet
  facet normal 1 0 0
    outer loop
      vertex 49.8 37.1 5.5
      vertex 49.8 32.4 5.6
      vertex 49.8 32.4 5.5
    endloop
  endfacet
  facet normal 1 -0 0
    outer loop
      vertex 49.8 29.6 1.4
      vertex 49.8 30.6 0
      vertex 49.8 30.6 1.4
    endloop
  endfacet
  facet normal 1 0 0
    outer loop
      vertex 49.8 30.6 0
      vertex 49.8 29.6 1.4
      vertex 49.8 29.6 0
    endloop
  endfacet
  facet normal 0 -1 0
    outer loop
      vertex 9.2 1 0
      vertex 10.2 1 5.5
      vertex 9.2 1 5.5
    endloop
  endfacet
  facet normal 0 -1 -0
    outer loop
      vertex 10.2 1 5.5
      vertex 9.2 1 0
      vertex 10.2 1 0
    endloop
  endfacet
  facet normal 0 -1 0
    outer loop
      vertex 9.2 1 5.5
      vertex 1 1 6
      vertex 1 1 5.5
    endloop
  endfacet
  facet normal 0 -1 0
    outer loop
      vertex 1 1 6
      vertex 9.2 1 5.5
      vertex 17.4 1 6
    endloop
  endfacet
  facet normal 0 -1 0
    outer loop
      vertex 10.2 1 5.5
      vertex 17.4 1 6
      vertex 9.2 1 5.5
    endloop
  endfacet
  facet normal 0 -1 -0
    outer loop
      vertex 17.4 1 6
      vertex 10.2 1 5.5
      vertex 17.4 1 5.5
    endloop
  endfacet
  facet normal 0 -1 0
    outer loop
      vertex 39.8 1 0
      vertex 40.8 1 5.5
      vertex 39.8 1 5.5
    endloop
  endfacet
  facet normal 0 -1 -0
    outer loop
      vertex 40.8 1 5.5
      vertex 39.8 1 0
      vertex 40.8 1 0
    endloop
  endfacet
  facet normal 0 -1 0
    outer loop
      vertex 39.8 1 5.5
      vertex 33.4 1 6
      vertex 33.4 1 5.5
    endloop
  endfacet
  facet normal 0 -1 0
    outer loop
      vertex 40.8 1 5.5
      vertex 33.4 1 6
      vertex 39.8 1 5.5
    endloop
  endfacet
  facet normal 0 -1 0
    outer loop
      vertex 33.4 1 6
      vertex 40.8 1 5.5
      vertex 49.8 1 6
    endloop
  endfacet
  facet normal 0 -1 -0
    outer loop
      vertex 49.8 1 6
      vertex 40.8 1 5.5
      vertex 49.8 1 5.5
    endloop
  endfacet
  facet normal 0 1 -0
    outer loop
      vertex 40.8 37.1 0
      vertex 39.8 37.1 5.5
      vertex 40.8 37.1 5.5
    endloop
  endfacet
  facet normal 0 1 0
    outer loop
      vertex 39.8 37.1 5.5
      vertex 40.8 37.1 0
      vertex 39.8 37.1 0
    endloop
  endfacet
  facet normal 0 1 0
    outer loop
      vertex 40.8 37.1 5.5
      vertex 49.8 37.1 6
      vertex 49.8 37.1 5.5
    endloop
  endfacet
  facet normal 0 1 0
    outer loop
      vertex 49.8 37.1 6
      vertex 40.8 37.1 5.5
      vertex 33.4 37.1 6
    endloop
  endfacet
  facet normal 0 1 -0
    outer loop
      vertex 39.8 37.1 5.5
      vertex 33.4 37.1 6
      vertex 40.8 37.1 5.5
    endloop
  endfacet
  facet normal 0 1 0
    outer loop
      vertex 33.4 37.1 6
      vertex 39.8 37.1 5.5
      vertex 33.4 37.1 5.5
    endloop
  endfacet
  facet normal 0 1 -0
    outer loop
      vertex 10.2 37.1 0
      vertex 9.2 37.1 5.5
      vertex 10.2 37.1 5.5
    endloop
  endfacet
  facet normal 0 1 0
    outer loop
      vertex 9.2 37.1 5.5
      vertex 10.2 37.1 0
      vertex 9.2 37.1 0
    endloop
  endfacet
  facet normal 0 1 0
    outer loop
      vertex 10.2 37.1 5.5
      vertex 17.4 37.1 6
      vertex 17.4 37.1 5.5
    endloop
  endfacet
  facet normal 0 1 0
    outer loop
      vertex 17.4 37.1 6
      vertex 10.2 37.1 5.5
      vertex 1 37.1 6
    endloop
  endfacet
  facet normal 0 1 -0
    outer loop
      vertex 9.2 37.1 5.5
      vertex 1 37.1 6
      vertex 10.2 37.1 5.5
    endloop
  endfacet
  facet normal 0 1 0
    outer loop
      vertex 1 37.1 6
      vertex 9.2 37.1 5.5
      vertex 1 37.1 5.5
    endloop
  endfacet
  facet normal 1 0 0
    outer loop
      vertex 7.55 30.4 1.4
      vertex 7.55 30.55 6
      vertex 7.55 30.4 5.6
    endloop
  endfacet
  facet normal 1 0 0
    outer loop
      vertex 7.55 30.55 6
      vertex 7.55 20.4 5.6
      vertex 7.55 30.4 5.6
    endloop
  endfacet
  facet normal 1 0 0
    outer loop
      vertex 7.55 20.4 5.6
      vertex 7.55 7.55 6
      vertex 7.55 20.4 1.4
    endloop
  endfacet
  facet normal 1 -0 0
    outer loop
      vertex 7.55 7.55 6
      vertex 7.55 20.4 5.6
      vertex 7.55 30.55 6
    endloop
  endfacet
  facet normal 1 0 0
    outer loop
      vertex 7.55 30.55 6
      vertex 7.55 30.4 1.4
      vertex 7.55 30.55 0
    endloop
  endfacet
  facet normal 1 -0 0
    outer loop
      vertex 7.55 20.4 1.4
      vertex 7.55 30.55 0
      vertex 7.55 30.4 1.4
    endloop
  endfacet
  facet normal 1 0 0
    outer loop
      vertex 7.55 20.4 1.4
      vertex 7.55 7.55 0
      vertex 7.55 30.55 0
    endloop
  endfacet
  facet normal 1 0 0
    outer loop
      vertex 7.55 7.55 0
      vertex 7.55 20.4 1.4
      vertex 7.55 7.55 6
    endloop
  endfacet
  facet normal -1 0 0
    outer loop
      vertex 43.25 30.55 0
      vertex 43.25 30.4 1.4
      vertex 43.25 30.55 6
    endloop
  endfacet
  facet normal -1 0 0
    outer loop
      vertex 43.25 30.55 0
      vertex 43.25 20.4 1.4
      vertex 43.25 30.4 1.4
    endloop
  endfacet
  facet normal -1 0 0
    outer loop
      vertex 43.25 7.55 6
      vertex 43.25 20.4 1.4
      vertex 43.25 7.55 0
    endloop
  endfacet
  facet normal -1 0 0
    outer loop
      vertex 43.25 7.55 0
      vertex 43.25 20.4 1.4
      vertex 43.25 30.55 0
    endloop
  endfacet
  facet normal -1 0 0
    outer loop
      vertex 43.25 30.4 5.6
      vertex 43.25 30.55 6
      vertex 43.25 30.4 1.4
    endloop
  endfacet
  facet normal -1 0 0
    outer loop
      vertex 43.25 20.4 5.6
      vertex 43.25 30.55 6
      vertex 43.25 30.4 5.6
    endloop
  endfacet
  facet normal -1 0 0
    outer loop
      vertex 43.25 20.4 5.6
      vertex 43.25 7.55 6
      vertex 43.25 30.55 6
    endloop
  endfacet
  facet normal -1 0 0
    outer loop
      vertex 43.25 20.4 1.4
      vertex 43.25 7.55 6
      vertex 43.25 20.4 5.6
    endloop
  endfacet
  facet normal 0 -1 0
    outer loop
      vertex 7.55 30.55 6
      vertex 20.4 30.55 5.6
      vertex 43.25 30.55 6
    endloop
  endfacet
  facet normal 0 -1 0
    outer loop
      vertex 7.55 30.55 6
      vertex 20.4 30.55 1.4
      vertex 20.4 30.55 5.6
    endloop
  endfacet
  facet normal 0 -1 -0
    outer loop
      vertex 20.4 30.55 1.4
      vertex 7.55 30.55 0
      vertex 30.4 30.55 1.4
    endloop
  endfacet
  facet normal 0 -1 0
    outer loop
      vertex 7.55 30.55 0
      vertex 20.4 30.55 1.4
      vertex 7.55 30.55 6
    endloop
  endfacet
  facet normal 0 -1 0
    outer loop
      vertex 30.4 30.55 5.6
      vertex 43.25 30.55 6
      vertex 20.4 30.55 5.6
    endloop
  endfacet
  facet normal 0 -1 0
    outer loop
      vertex 30.4 30.55 1.4
      vertex 43.25 30.55 6
      vertex 30.4 30.55 5.6
    endloop
  endfacet
  facet normal 0 -1 0
    outer loop
      vertex 30.4 30.55 1.4
      vertex 43.25 30.55 0
      vertex 43.25 30.55 6
    endloop
  endfacet
  facet normal 0 -1 0
    outer loop
      vertex 43.25 30.55 0
      vertex 30.4 30.55 1.4
      vertex 7.55 30.55 0
    endloop
  endfacet
  facet normal 0 1 0
    outer loop
      vertex 43.25 7.55 6
      vertex 30.4 7.55 5.6
      vertex 7.55 7.55 6
    endloop
  endfacet
  facet normal 0 1 0
    outer loop
      vertex 43.25 7.55 6
      vertex 30.4 7.55 1.4
      vertex 30.4 7.55 5.6
    endloop
  endfacet
  facet normal 0 1 0
    outer loop
      vertex 30.4 7.55 1.4
      vertex 43.25 7.55 0
      vertex 20.4 7.55 1.4
    endloop
  endfacet
  facet normal 0 1 -0
    outer loop
      vertex 43.25 7.55 0
      vertex 30.4 7.55 1.4
      vertex 43.25 7.55 6
    endloop
  endfacet
  facet normal 0 1 -0
    outer loop
      vertex 20.4 7.55 5.6
      vertex 7.55 7.55 6
      vertex 30.4 7.55 5.6
    endloop
  endfacet
  facet normal 0 1 -0
    outer loop
      vertex 20.4 7.55 1.4
      vertex 7.55 7.55 6
      vertex 20.4 7.55 5.6
    endloop
  endfacet
  facet normal 0 1 0
    outer loop
      vertex 20.4 7.55 1.4
      vertex 7.55 7.55 0
      vertex 7.55 7.55 6
    endloop
  endfacet
  facet normal 0 1 0
    outer loop
      vertex 7.55 7.55 0
      vertex 20.4 7.55 1.4
      vertex 43.25 7.55 0
    endloop
  endfacet
  facet normal -1 0 0
    outer loop
      vertex 17.4 0 5.5
      vertex 17.4 1 6
      vertex 17.4 1 5.5
    endloop
  endfacet
  facet normal -1 -0 0
    outer loop
      vertex 17.4 1 6
      vertex 17.4 0 5.5
      vertex 17.4 0 6
    endloop
  endfacet
  facet normal 1 -0 0
    outer loop
      vertex 33.4 0 6
      vertex 33.4 1 5.5
      vertex 33.4 1 6
    endloop
  endfacet
  facet normal 1 0 0
    outer loop
      vertex 33.4 1 5.5
      vertex 33.4 0 6
      vertex 33.4 0 5.5
    endloop
  endfacet
  facet normal -1 0 0
    outer loop
      vertex 17.4 37.1 5.5
      vertex 17.4 38.1 6
      vertex 17.4 38.1 5.5
    endloop
  endfacet
  facet normal -1 -0 0
    outer loop
      vertex 17.4 38.1 6
      vertex 17.4 37.1 5.5
      vertex 17.4 37.1 6
    endloop
  endfacet
  facet normal 1 -0 0
    outer loop
      vertex 33.4 37.1 6
      vertex 33.4 38.1 5.5
      vertex 33.4 38.1 6
    endloop
  endfacet
  facet normal 1 0 0
    outer loop
      vertex 33.4 38.1 5.5
      vertex 33.4 37.1 6
      vertex 33.4 37.1 5.5
    endloop
  endfacet
  facet normal 0 1 -0
    outer loop
      vertex 1 27.05 5.6
      vertex 0 27.05 6
      vertex 1 27.05 6
    endloop
  endfacet
  facet normal 0 1 0
    outer loop
      vertex 0 27.05 6
      vertex 1 27.05 5.6
      vertex 0 27.05 5.6
    endloop
  endfacet
  facet normal 0 -1 0
    outer loop
      vertex 0 11.05 5.5
      vertex 1 11.05 6
      vertex 0 11.05 6
    endloop
  endfacet
  facet normal 0 -1 -0
    outer loop
      vertex 1 11.05 6
      vertex 0 11.05 5.5
      vertex 1 11.05 5.5
    endloop
  endfacet
  facet normal 0 1 -0
    outer loop
      vertex 50.8 27.05 5.6
      vertex 49.8 27.05 6
      vertex 50.8 27.05 6
    endloop
  endfacet
  facet normal 0 1 0
    outer loop
      vertex 49.8 27.05 6
      vertex 50.8 27.05 5.6
      vertex 49.8 27.05 5.6
    endloop
  endfacet
  facet normal 0 -1 0
    outer loop
      vertex 49.8 11.05 5.5
      vertex 50.8 11.05 6
      vertex 49.8 11.05 6
    endloop
  endfacet
  facet normal 0 -1 -0
    outer loop
      vertex 50.8 11.05 6
      vertex 49.8 11.05 5.5
      vertex 50.8 11.05 5.5
    endloop
  endfacet
  facet normal 0 0 -1
    outer loop
      vertex 30.4 30.55 5.6
      vertex 20.4 30.55 5.6
      vertex 30.4 33.09 5.6
    endloop
  endfacet
  facet normal 0 0 -1
    outer loop
      vertex 31.4 36.1 5.6
      vertex 32.4 38.1 5.6
      vertex 32.4 36.1 5.6
    endloop
  endfacet
  facet normal 0 0 -1
    outer loop
      vertex 20.4 33.09 5.6
      vertex 30.4 33.09 5.6
      vertex 20.4 30.55 5.6
    endloop
  endfacet
  facet normal 0 0 -1
    outer loop
      vertex 30.4 33.09 5.6
      vertex 20.4 33.09 5.6
      vertex 31.4 36.1 5.6
    endloop
  endfacet
  facet normal 0 0 -1
    outer loop
      vertex 19.4 36.1 5.6
      vertex 31.4 36.1 5.6
      vertex 20.4 33.09 5.6
    endloop
  endfacet
  facet normal 0 0 -1
    outer loop
      vertex 31.4 36.1 5.6
      vertex 19.4 36.1 5.6
      vertex 32.4 38.1 5.6
    endloop
  endfacet
  facet normal 0 0 -1
    outer loop
      vertex 18.4 38.1 5.6
      vertex 19.4 36.1 5.6
      vertex 18.4 36.1 5.6
    endloop
  endfacet
  facet normal 0 0 -1
    outer loop
      vertex 19.4 36.1 5.6
      vertex 18.4 38.1 5.6
      vertex 32.4 38.1 5.6
    endloop
  endfacet
  facet normal 0 1 -0
    outer loop
      vertex 19.4 36.1 1.4
      vertex 18.4 36.1 5.6
      vertex 19.4 36.1 5.6
    endloop
  endfacet
  facet normal 0 1 0
    outer loop
      vertex 18.4 36.1 5.6
      vertex 19.4 36.1 1.4
      vertex 18.4 36.1 1.4
    endloop
  endfacet
  facet normal 0 1 -0
    outer loop
      vertex 32.4 36.1 1.4
      vertex 31.4 36.1 5.6
      vertex 32.4 36.1 5.6
    endloop
  endfacet
  facet normal 0 1 0
    outer loop
      vertex 31.4 36.1 5.6
      vertex 32.4 36.1 1.4
      vertex 31.4 36.1 1.4
    endloop
  endfacet
  facet normal -1 0 0
    outer loop
      vertex 32.4 36.1 1.4
      vertex 32.4 38.1 5.6
      vertex 32.4 38.1 1.4
    endloop
  endfacet
  facet normal -1 -0 0
    outer loop
      vertex 32.4 38.1 5.6
      vertex 32.4 36.1 1.4
      vertex 32.4 36.1 5.6
    endloop
  endfacet
  facet normal 0 0 1
    outer loop
      vertex 32.4 38.1 1.4
      vertex 31.4 36.1 1.4
      vertex 32.4 36.1 1.4
    endloop
  endfacet
  facet normal 0 0 1
    outer loop
      vertex 30.4 33.09 1.4
      vertex 20.4 33.09 1.4
      vertex 30.4 30.55 1.4
    endloop
  endfacet
  facet normal 0 0 1
    outer loop
      vertex 31.4 36.1 1.4
      vertex 20.4 33.09 1.4
      vertex 30.4 33.09 1.4
    endloop
  endfacet
  facet normal 0 0 1
    outer loop
      vertex 19.4 36.1 1.4
      vertex 31.4 36.1 1.4
      vertex 32.4 38.1 1.4
    endloop
  endfacet
  facet normal 0 0 1
    outer loop
      vertex 31.4 36.1 1.4
      vertex 19.4 36.1 1.4
      vertex 20.4 33.09 1.4
    endloop
  endfacet
  facet normal -0 0 1
    outer loop
      vertex 18.4 38.1 1.4
      vertex 19.4 36.1 1.4
      vertex 32.4 38.1 1.4
    endloop
  endfacet
  facet normal 0 0 1
    outer loop
      vertex 19.4 36.1 1.4
      vertex 18.4 38.1 1.4
      vertex 18.4 36.1 1.4
    endloop
  endfacet
  facet normal 0 0 1
    outer loop
      vertex 30.4 30.55 1.4
      vertex 20.4 33.09 1.4
      vertex 20.4 30.55 1.4
    endloop
  endfacet
  facet normal 1 -0 0
    outer loop
      vertex 18.4 36.1 5.6
      vertex 18.4 38.1 1.4
      vertex 18.4 38.1 5.6
    endloop
  endfacet
  facet normal 1 0 0
    outer loop
      vertex 18.4 38.1 1.4
      vertex 18.4 36.1 5.6
      vertex 18.4 36.1 1.4
    endloop
  endfacet
  facet normal 0.948998 0.315282 0
    outer loop
      vertex 20.4 33.09 5.6
      vertex 19.4 36.1 1.4
      vertex 19.4 36.1 5.6
    endloop
  endfacet
  facet normal 0.948998 0.315282 0
    outer loop
      vertex 19.4 36.1 1.4
      vertex 20.4 33.09 5.6
      vertex 20.4 33.09 1.4
    endloop
  endfacet
  facet normal -0.948998 0.315282 0
    outer loop
      vertex 30.4 33.09 1.4
      vertex 31.4 36.1 5.6
      vertex 31.4 36.1 1.4
    endloop
  endfacet
  facet normal -0.948998 0.315282 0
    outer loop
      vertex 31.4 36.1 5.6
      vertex 30.4 33.09 1.4
      vertex 30.4 33.09 5.6
    endloop
  endfacet
  facet normal -1 0 0
    outer loop
      vertex 30.4 30.55 1.4
      vertex 30.4 33.09 5.6
      vertex 30.4 33.09 1.4
    endloop
  endfacet
  facet normal -1 -0 0
    outer loop
      vertex 30.4 33.09 5.6
      vertex 30.4 30.55 1.4
      vertex 30.4 30.55 5.6
    endloop
  endfacet
  facet normal 1 -0 0
    outer loop
      vertex 20.4 30.55 5.6
      vertex 20.4 33.09 1.4
      vertex 20.4 33.09 5.6
    endloop
  endfacet
  facet normal 1 0 0
    outer loop
      vertex 20.4 33.09 1.4
      vertex 20.4 30.55 5.6
      vertex 20.4 30.55 1.4
    endloop
  endfacet
endsolid OpenSCAD_Model
