solid OpenSCAD_Model
  facet normal -1 0 0
    outer loop
      vertex 0 81.6 0
      vertex 0 87.5 5.5
      vertex 0 87.5 0
    endloop
  endfacet
  facet normal -1 -0 0
    outer loop
      vertex 0 87.5 5.5
      vertex 0 81.6 0
      vertex 0 81.6 5.5
    endloop
  endfacet
  facet normal -1 0 0
    outer loop
      vertex 0 71.4 0
      vertex 0 80.6 5.5
      vertex 0 80.6 0
    endloop
  endfacet
  facet normal -1 -0 0
    outer loop
      vertex 0 80.6 5.5
      vertex 0 71.4 0
      vertex 0 71.4 5.5
    endloop
  endfacet
  facet normal -1 0 0
    outer loop
      vertex 0 61.2 0
      vertex 0 70.4 5.5
      vertex 0 70.4 0
    endloop
  endfacet
  facet normal -1 -0 0
    outer loop
      vertex 0 70.4 5.5
      vertex 0 61.2 0
      vertex 0 61.2 5.5
    endloop
  endfacet
  facet normal -1 0 0
    outer loop
      vertex 0 51 0
      vertex 0 60.2 5.5
      vertex 0 60.2 0
    endloop
  endfacet
  facet normal -1 -0 0
    outer loop
      vertex 0 60.2 5.5
      vertex 0 51 0
      vertex 0 51 5.5
    endloop
  endfacet
  facet normal -1 0 0
    outer loop
      vertex 0 40.8 0
      vertex 0 50 5.5
      vertex 0 50 0
    endloop
  endfacet
  facet normal -1 -0 0
    outer loop
      vertex 0 50 5.5
      vertex 0 40.8 0
      vertex 0 40.8 5.5
    endloop
  endfacet
  facet normal -1 0 0
    outer loop
      vertex 0 30.6 0
      vertex 0 39.8 5.5
      vertex 0 39.8 0
    endloop
  endfacet
  facet normal -1 -0 0
    outer loop
      vertex 0 39.8 5.5
      vertex 0 30.6 0
      vertex 0 30.6 5.5
    endloop
  endfacet
  facet normal -1 0 0
    outer loop
      vertex 0 20.4 0
      vertex 0 29.6 5.5
      vertex 0 29.6 0
    endloop
  endfacet
  facet normal -1 -0 0
    outer loop
      vertex 0 29.6 5.5
      vertex 0 20.4 0
      vertex 0 20.4 5.5
    endloop
  endfacet
  facet normal -1 0 0
    outer loop
      vertex 0 10.2 0
      vertex 0 19.4 5.5
      vertex 0 19.4 0
    endloop
  endfacet
  facet normal -1 -0 0
    outer loop
      vertex 0 19.4 5.5
      vertex 0 10.2 0
      vertex 0 10.2 5.5
    endloop
  endfacet
  facet normal -1 0 0
    outer loop
      vertex 0 0 0
      vertex 0 9.2 5.5
      vertex 0 9.2 0
    endloop
  endfacet
  facet normal -1 -0 0
    outer loop
      vertex 0 9.2 5.5
      vertex 0 0 0
      vertex 0 0 5.5
    endloop
  endfacet
  facet normal 0 0 1
    outer loop
      vertex 1 9.2 5.5
      vertex 0 9.2 5.5
      vertex 1 1 5.5
    endloop
  endfacet
  facet normal -0 0 1
    outer loop
      vertex 1 1 5.5
      vertex 9.2 0 5.5
      vertex 9.2 1 5.5
    endloop
  endfacet
  facet normal 0 0 1
    outer loop
      vertex 1 1 5.5
      vertex 0 0 5.5
      vertex 9.2 0 5.5
    endloop
  endfacet
  facet normal 0 0 1
    outer loop
      vertex 0 0 5.5
      vertex 1 1 5.5
      vertex 0 9.2 5.5
    endloop
  endfacet
  facet normal 1 -0 0
    outer loop
      vertex 9.2 0 5.5
      vertex 9.2 1 0
      vertex 9.2 1 5.5
    endloop
  endfacet
  facet normal 1 0 0
    outer loop
      vertex 9.2 1 0
      vertex 9.2 0 5.5
      vertex 9.2 0 0
    endloop
  endfacet
  facet normal 0 0 -1
    outer loop
      vertex 87.5 0 0
      vertex 86.5 9.2 0
      vertex 87.5 9.2 0
    endloop
  endfacet
  facet normal 0 0 -1
    outer loop
      vertex 80.6 1 0
      vertex 86.5 10.2 0
      vertex 86.5 9.2 0
    endloop
  endfacet
  facet normal -0 0 -1
    outer loop
      vertex 86.5 10.2 0
      vertex 71.4 1 0
      vertex 86.5 19.4 0
    endloop
  endfacet
  facet normal 0 0 -1
    outer loop
      vertex 70.4 1 0
      vertex 86.5 19.4 0
      vertex 71.4 1 0
    endloop
  endfacet
  facet normal -0 0 -1
    outer loop
      vertex 86.5 19.4 0
      vertex 70.4 1 0
      vertex 86.5 20.4 0
    endloop
  endfacet
  facet normal -0 0 -1
    outer loop
      vertex 86.5 20.4 0
      vertex 61.2 1 0
      vertex 86.5 29.6 0
    endloop
  endfacet
  facet normal 0 0 -1
    outer loop
      vertex 60.2 1 0
      vertex 86.5 29.6 0
      vertex 61.2 1 0
    endloop
  endfacet
  facet normal -0 0 -1
    outer loop
      vertex 86.5 29.6 0
      vertex 60.2 1 0
      vertex 86.5 30.6 0
    endloop
  endfacet
  facet normal -0 0 -1
    outer loop
      vertex 86.5 30.6 0
      vertex 51 1 0
      vertex 86.5 39.8 0
    endloop
  endfacet
  facet normal 0 0 -1
    outer loop
      vertex 50 1 0
      vertex 86.5 39.8 0
      vertex 51 1 0
    endloop
  endfacet
  facet normal -0 0 -1
    outer loop
      vertex 86.5 39.8 0
      vertex 50 1 0
      vertex 86.5 40.8 0
    endloop
  endfacet
  facet normal 0 0 -1
    outer loop
      vertex 40.8 1 0
      vertex 86.5 40.8 0
      vertex 50 1 0
    endloop
  endfacet
  facet normal 0 0 -1
    outer loop
      vertex 40.8 86.5 0
      vertex 86.5 40.8 0
      vertex 40.8 1 0
    endloop
  endfacet
  facet normal 0 0 -1
    outer loop
      vertex 86.5 40.8 0
      vertex 40.8 86.5 0
      vertex 86.5 50 0
    endloop
  endfacet
  facet normal 0 0 -1
    outer loop
      vertex 86.5 70.4 0
      vertex 70.4 86.5 0
      vertex 86.5 71.4 0
    endloop
  endfacet
  facet normal 0 0 -1
    outer loop
      vertex 87.5 0 0
      vertex 81.6 1 0
      vertex 86.5 9.2 0
    endloop
  endfacet
  facet normal 0 0 -1
    outer loop
      vertex 81.6 1 0
      vertex 87.5 0 0
      vertex 81.6 0 0
    endloop
  endfacet
  facet normal 0 0 -1
    outer loop
      vertex 86.5 10.2 0
      vertex 87.5 19.4 0
      vertex 87.5 10.2 0
    endloop
  endfacet
  facet normal -0 0 -1
    outer loop
      vertex 87.5 19.4 0
      vertex 86.5 10.2 0
      vertex 86.5 19.4 0
    endloop
  endfacet
  facet normal 0 0 -1
    outer loop
      vertex 86.5 20.4 0
      vertex 87.5 29.6 0
      vertex 87.5 20.4 0
    endloop
  endfacet
  facet normal -0 0 -1
    outer loop
      vertex 87.5 29.6 0
      vertex 86.5 20.4 0
      vertex 86.5 29.6 0
    endloop
  endfacet
  facet normal 0 0 -1
    outer loop
      vertex 86.5 30.6 0
      vertex 87.5 39.8 0
      vertex 87.5 30.6 0
    endloop
  endfacet
  facet normal -0 0 -1
    outer loop
      vertex 87.5 39.8 0
      vertex 86.5 30.6 0
      vertex 86.5 39.8 0
    endloop
  endfacet
  facet normal 0 0 -1
    outer loop
      vertex 86.5 40.8 0
      vertex 87.5 50 0
      vertex 87.5 40.8 0
    endloop
  endfacet
  facet normal -0 0 -1
    outer loop
      vertex 87.5 50 0
      vertex 86.5 40.8 0
      vertex 86.5 50 0
    endloop
  endfacet
  facet normal 0 0 -1
    outer loop
      vertex 86.5 51 0
      vertex 87.5 60.2 0
      vertex 87.5 51 0
    endloop
  endfacet
  facet normal -0 0 -1
    outer loop
      vertex 87.5 60.2 0
      vertex 86.5 51 0
      vertex 86.5 60.2 0
    endloop
  endfacet
  facet normal 0 0 -1
    outer loop
      vertex 86.5 61.2 0
      vertex 87.5 70.4 0
      vertex 87.5 61.2 0
    endloop
  endfacet
  facet normal -0 0 -1
    outer loop
      vertex 87.5 70.4 0
      vertex 86.5 61.2 0
      vertex 86.5 70.4 0
    endloop
  endfacet
  facet normal 0 0 -1
    outer loop
      vertex 86.5 71.4 0
      vertex 87.5 80.6 0
      vertex 87.5 71.4 0
    endloop
  endfacet
  facet normal -0 0 -1
    outer loop
      vertex 87.5 80.6 0
      vertex 86.5 71.4 0
      vertex 86.5 80.6 0
    endloop
  endfacet
  facet normal 0 0 -1
    outer loop
      vertex 86.5 81.6 0
      vertex 87.5 87.5 0
      vertex 87.5 81.6 0
    endloop
  endfacet
  facet normal 0 0 -1
    outer loop
      vertex 80.6 1 0
      vertex 86.5 9.2 0
      vertex 81.6 1 0
    endloop
  endfacet
  facet normal 0 0 -1
    outer loop
      vertex 86.5 10.2 0
      vertex 80.6 1 0
      vertex 71.4 1 0
    endloop
  endfacet
  facet normal 0 0 -1
    outer loop
      vertex 81.6 86.5 0
      vertex 87.5 87.5 0
      vertex 86.5 81.6 0
    endloop
  endfacet
  facet normal -0 0 -1
    outer loop
      vertex 87.5 87.5 0
      vertex 81.6 86.5 0
      vertex 81.6 87.5 0
    endloop
  endfacet
  facet normal 0 0 -1
    outer loop
      vertex 0 71.4 0
      vertex 1 80.6 0
      vertex 1 71.4 0
    endloop
  endfacet
  facet normal -0 0 -1
    outer loop
      vertex 1 80.6 0
      vertex 0 71.4 0
      vertex 0 80.6 0
    endloop
  endfacet
  facet normal 0 0 -1
    outer loop
      vertex 0 61.2 0
      vertex 1 70.4 0
      vertex 1 61.2 0
    endloop
  endfacet
  facet normal -0 0 -1
    outer loop
      vertex 1 70.4 0
      vertex 0 61.2 0
      vertex 0 70.4 0
    endloop
  endfacet
  facet normal 0 0 -1
    outer loop
      vertex 0 51 0
      vertex 1 60.2 0
      vertex 1 51 0
    endloop
  endfacet
  facet normal -0 0 -1
    outer loop
      vertex 1 60.2 0
      vertex 0 51 0
      vertex 0 60.2 0
    endloop
  endfacet
  facet normal 0 0 -1
    outer loop
      vertex 0 40.8 0
      vertex 1 50 0
      vertex 1 40.8 0
    endloop
  endfacet
  facet normal -0 0 -1
    outer loop
      vertex 1 50 0
      vertex 0 40.8 0
      vertex 0 50 0
    endloop
  endfacet
  facet normal 0 0 -1
    outer loop
      vertex 0 30.6 0
      vertex 1 39.8 0
      vertex 1 30.6 0
    endloop
  endfacet
  facet normal -0 0 -1
    outer loop
      vertex 1 39.8 0
      vertex 0 30.6 0
      vertex 0 39.8 0
    endloop
  endfacet
  facet normal 0 0 -1
    outer loop
      vertex 0 20.4 0
      vertex 1 29.6 0
      vertex 1 20.4 0
    endloop
  endfacet
  facet normal -0 0 -1
    outer loop
      vertex 1 29.6 0
      vertex 0 20.4 0
      vertex 0 29.6 0
    endloop
  endfacet
  facet normal 0 0 -1
    outer loop
      vertex 0 10.2 0
      vertex 1 19.4 0
      vertex 1 10.2 0
    endloop
  endfacet
  facet normal -0 0 -1
    outer loop
      vertex 1 19.4 0
      vertex 0 10.2 0
      vertex 0 19.4 0
    endloop
  endfacet
  facet normal 0 0 -1
    outer loop
      vertex 0 0 0
      vertex 9.2 1 0
      vertex 9.2 0 0
    endloop
  endfacet
  facet normal 0 0 -1
    outer loop
      vertex 9.2 1 0
      vertex 1 40.8 0
      vertex 9.2 86.5 0
    endloop
  endfacet
  facet normal 0 0 -1
    outer loop
      vertex 9.2 1 0
      vertex 1 9.2 0
      vertex 1 10.2 0
    endloop
  endfacet
  facet normal -0 0 -1
    outer loop
      vertex 9.2 1 0
      vertex 0 0 0
      vertex 1 9.2 0
    endloop
  endfacet
  facet normal -0 0 -1
    outer loop
      vertex 1 9.2 0
      vertex 0 0 0
      vertex 0 9.2 0
    endloop
  endfacet
  facet normal 0 0 -1
    outer loop
      vertex 9.2 1 0
      vertex 10.2 86.5 0
      vertex 10.2 1 0
    endloop
  endfacet
  facet normal -0 0 -1
    outer loop
      vertex 10.2 86.5 0
      vertex 9.2 1 0
      vertex 9.2 86.5 0
    endloop
  endfacet
  facet normal 0 0 -1
    outer loop
      vertex 10.2 1 0
      vertex 19.4 1 0
      vertex 19.4 0 0
    endloop
  endfacet
  facet normal 0 0 -1
    outer loop
      vertex 19.4 1 0
      vertex 10.2 1 0
      vertex 19.4 86.5 0
    endloop
  endfacet
  facet normal 0 0 -1
    outer loop
      vertex 10.2 1 0
      vertex 19.4 0 0
      vertex 10.2 0 0
    endloop
  endfacet
  facet normal 0 0 -1
    outer loop
      vertex 10.2 86.5 0
      vertex 19.4 86.5 0
      vertex 10.2 1 0
    endloop
  endfacet
  facet normal 0 0 -1
    outer loop
      vertex 19.4 86.5 0
      vertex 10.2 86.5 0
      vertex 19.4 87.5 0
    endloop
  endfacet
  facet normal -0 0 -1
    outer loop
      vertex 19.4 87.5 0
      vertex 10.2 86.5 0
      vertex 10.2 87.5 0
    endloop
  endfacet
  facet normal 0 0 -1
    outer loop
      vertex 19.4 1 0
      vertex 20.4 86.5 0
      vertex 20.4 1 0
    endloop
  endfacet
  facet normal -0 0 -1
    outer loop
      vertex 20.4 86.5 0
      vertex 19.4 1 0
      vertex 19.4 86.5 0
    endloop
  endfacet
  facet normal 0 0 -1
    outer loop
      vertex 20.4 1 0
      vertex 29.6 1 0
      vertex 29.6 0 0
    endloop
  endfacet
  facet normal 0 0 -1
    outer loop
      vertex 29.6 1 0
      vertex 20.4 1 0
      vertex 29.6 86.5 0
    endloop
  endfacet
  facet normal 0 0 -1
    outer loop
      vertex 20.4 1 0
      vertex 29.6 0 0
      vertex 20.4 0 0
    endloop
  endfacet
  facet normal 0 0 -1
    outer loop
      vertex 20.4 86.5 0
      vertex 29.6 86.5 0
      vertex 20.4 1 0
    endloop
  endfacet
  facet normal 0 0 -1
    outer loop
      vertex 29.6 86.5 0
      vertex 20.4 86.5 0
      vertex 29.6 87.5 0
    endloop
  endfacet
  facet normal -0 0 -1
    outer loop
      vertex 29.6 87.5 0
      vertex 20.4 86.5 0
      vertex 20.4 87.5 0
    endloop
  endfacet
  facet normal 0 0 -1
    outer loop
      vertex 29.6 1 0
      vertex 30.6 86.5 0
      vertex 30.6 1 0
    endloop
  endfacet
  facet normal -0 0 -1
    outer loop
      vertex 30.6 86.5 0
      vertex 29.6 1 0
      vertex 29.6 86.5 0
    endloop
  endfacet
  facet normal 0 0 -1
    outer loop
      vertex 30.6 1 0
      vertex 39.8 1 0
      vertex 39.8 0 0
    endloop
  endfacet
  facet normal 0 0 -1
    outer loop
      vertex 39.8 1 0
      vertex 30.6 1 0
      vertex 39.8 86.5 0
    endloop
  endfacet
  facet normal 0 0 -1
    outer loop
      vertex 30.6 1 0
      vertex 39.8 0 0
      vertex 30.6 0 0
    endloop
  endfacet
  facet normal 0 0 -1
    outer loop
      vertex 30.6 86.5 0
      vertex 39.8 86.5 0
      vertex 30.6 1 0
    endloop
  endfacet
  facet normal 0 0 -1
    outer loop
      vertex 39.8 86.5 0
      vertex 30.6 86.5 0
      vertex 39.8 87.5 0
    endloop
  endfacet
  facet normal -0 0 -1
    outer loop
      vertex 39.8 87.5 0
      vertex 30.6 86.5 0
      vertex 30.6 87.5 0
    endloop
  endfacet
  facet normal 0 0 -1
    outer loop
      vertex 39.8 1 0
      vertex 40.8 86.5 0
      vertex 40.8 1 0
    endloop
  endfacet
  facet normal -0 0 -1
    outer loop
      vertex 40.8 86.5 0
      vertex 39.8 1 0
      vertex 39.8 86.5 0
    endloop
  endfacet
  facet normal 0 0 -1
    outer loop
      vertex 40.8 1 0
      vertex 50 1 0
      vertex 50 0 0
    endloop
  endfacet
  facet normal -0 -0 -1
    outer loop
      vertex 50 86.5 0
      vertex 86.5 50 0
      vertex 40.8 86.5 0
    endloop
  endfacet
  facet normal 0 0 -1
    outer loop
      vertex 40.8 1 0
      vertex 50 0 0
      vertex 40.8 0 0
    endloop
  endfacet
  facet normal 0 0 -1
    outer loop
      vertex 86.5 50 0
      vertex 50 86.5 0
      vertex 86.5 51 0
    endloop
  endfacet
  facet normal 0 0 -1
    outer loop
      vertex 50 86.5 0
      vertex 40.8 86.5 0
      vertex 50 87.5 0
    endloop
  endfacet
  facet normal -0 0 -1
    outer loop
      vertex 50 87.5 0
      vertex 40.8 86.5 0
      vertex 40.8 87.5 0
    endloop
  endfacet
  facet normal 0 0 -1
    outer loop
      vertex 86.5 51 0
      vertex 51 86.5 0
      vertex 86.5 60.2 0
    endloop
  endfacet
  facet normal -0 -0 -1
    outer loop
      vertex 60.2 86.5 0
      vertex 86.5 60.2 0
      vertex 51 86.5 0
    endloop
  endfacet
  facet normal 0 0 -1
    outer loop
      vertex 51 1 0
      vertex 60.2 1 0
      vertex 60.2 0 0
    endloop
  endfacet
  facet normal -0 -0 -1
    outer loop
      vertex 61.2 86.5 0
      vertex 86.5 61.2 0
      vertex 60.2 86.5 0
    endloop
  endfacet
  facet normal 0 0 -1
    outer loop
      vertex 51 1 0
      vertex 60.2 0 0
      vertex 51 0 0
    endloop
  endfacet
  facet normal 0 0 -1
    outer loop
      vertex 86.5 61.2 0
      vertex 61.2 86.5 0
      vertex 86.5 70.4 0
    endloop
  endfacet
  facet normal 0 0 -1
    outer loop
      vertex 60.2 86.5 0
      vertex 51 86.5 0
      vertex 60.2 87.5 0
    endloop
  endfacet
  facet normal -0 0 -1
    outer loop
      vertex 60.2 87.5 0
      vertex 51 86.5 0
      vertex 51 87.5 0
    endloop
  endfacet
  facet normal 0 0 -1
    outer loop
      vertex 86.5 60.2 0
      vertex 60.2 86.5 0
      vertex 86.5 61.2 0
    endloop
  endfacet
  facet normal -0 -0 -1
    outer loop
      vertex 70.4 86.5 0
      vertex 86.5 70.4 0
      vertex 61.2 86.5 0
    endloop
  endfacet
  facet normal 0 0 -1
    outer loop
      vertex 61.2 1 0
      vertex 70.4 1 0
      vertex 70.4 0 0
    endloop
  endfacet
  facet normal -0 -0 -1
    outer loop
      vertex 51 86.5 0
      vertex 86.5 51 0
      vertex 50 86.5 0
    endloop
  endfacet
  facet normal 0 0 -1
    outer loop
      vertex 61.2 1 0
      vertex 70.4 0 0
      vertex 61.2 0 0
    endloop
  endfacet
  facet normal -0 -0 -1
    outer loop
      vertex 71.4 86.5 0
      vertex 86.5 71.4 0
      vertex 70.4 86.5 0
    endloop
  endfacet
  facet normal 0 0 -1
    outer loop
      vertex 70.4 86.5 0
      vertex 61.2 86.5 0
      vertex 70.4 87.5 0
    endloop
  endfacet
  facet normal -0 0 -1
    outer loop
      vertex 70.4 87.5 0
      vertex 61.2 86.5 0
      vertex 61.2 87.5 0
    endloop
  endfacet
  facet normal 0 0 -1
    outer loop
      vertex 86.5 71.4 0
      vertex 71.4 86.5 0
      vertex 86.5 80.6 0
    endloop
  endfacet
  facet normal -0 -0 -1
    outer loop
      vertex 80.6 86.5 0
      vertex 86.5 80.6 0
      vertex 71.4 86.5 0
    endloop
  endfacet
  facet normal 0 0 -1
    outer loop
      vertex 71.4 1 0
      vertex 80.6 1 0
      vertex 80.6 0 0
    endloop
  endfacet
  facet normal 0 0 -1
    outer loop
      vertex 51 1 0
      vertex 86.5 30.6 0
      vertex 60.2 1 0
    endloop
  endfacet
  facet normal 0 0 -1
    outer loop
      vertex 71.4 1 0
      vertex 80.6 0 0
      vertex 71.4 0 0
    endloop
  endfacet
  facet normal 0 0 -1
    outer loop
      vertex 86.5 80.6 0
      vertex 80.6 86.5 0
      vertex 86.5 81.6 0
    endloop
  endfacet
  facet normal 0 0 -1
    outer loop
      vertex 80.6 86.5 0
      vertex 71.4 86.5 0
      vertex 80.6 87.5 0
    endloop
  endfacet
  facet normal -0 0 -1
    outer loop
      vertex 80.6 87.5 0
      vertex 71.4 86.5 0
      vertex 71.4 87.5 0
    endloop
  endfacet
  facet normal 0 0 -1
    outer loop
      vertex 61.2 1 0
      vertex 86.5 20.4 0
      vertex 70.4 1 0
    endloop
  endfacet
  facet normal 0 0 -1
    outer loop
      vertex 86.5 81.6 0
      vertex 80.6 86.5 0
      vertex 81.6 86.5 0
    endloop
  endfacet
  facet normal 0 0 -1
    outer loop
      vertex 9.2 1 0
      vertex 1 10.2 0
      vertex 1 19.4 0
    endloop
  endfacet
  facet normal 0 0 -1
    outer loop
      vertex 9.2 1 0
      vertex 1 19.4 0
      vertex 1 20.4 0
    endloop
  endfacet
  facet normal 0 0 -1
    outer loop
      vertex 9.2 1 0
      vertex 1 20.4 0
      vertex 1 29.6 0
    endloop
  endfacet
  facet normal 0 0 -1
    outer loop
      vertex 9.2 1 0
      vertex 1 29.6 0
      vertex 1 30.6 0
    endloop
  endfacet
  facet normal 0 0 -1
    outer loop
      vertex 9.2 1 0
      vertex 1 30.6 0
      vertex 1 39.8 0
    endloop
  endfacet
  facet normal 0 0 -1
    outer loop
      vertex 9.2 1 0
      vertex 1 39.8 0
      vertex 1 40.8 0
    endloop
  endfacet
  facet normal 0 0 -1
    outer loop
      vertex 1 50 0
      vertex 9.2 86.5 0
      vertex 1 40.8 0
    endloop
  endfacet
  facet normal 0 0 -1
    outer loop
      vertex 1 51 0
      vertex 9.2 86.5 0
      vertex 1 50 0
    endloop
  endfacet
  facet normal 0 0 -1
    outer loop
      vertex 1 60.2 0
      vertex 9.2 86.5 0
      vertex 1 51 0
    endloop
  endfacet
  facet normal 0 0 -1
    outer loop
      vertex 1 61.2 0
      vertex 9.2 86.5 0
      vertex 1 60.2 0
    endloop
  endfacet
  facet normal 0 0 -1
    outer loop
      vertex 1 70.4 0
      vertex 9.2 86.5 0
      vertex 1 61.2 0
    endloop
  endfacet
  facet normal 0 0 -1
    outer loop
      vertex 1 71.4 0
      vertex 9.2 86.5 0
      vertex 1 70.4 0
    endloop
  endfacet
  facet normal 0 0 -1
    outer loop
      vertex 1 80.6 0
      vertex 9.2 86.5 0
      vertex 1 71.4 0
    endloop
  endfacet
  facet normal 0 0 -1
    outer loop
      vertex 1 81.6 0
      vertex 9.2 86.5 0
      vertex 1 80.6 0
    endloop
  endfacet
  facet normal 0 0 -1
    outer loop
      vertex 0 87.5 0
      vertex 9.2 86.5 0
      vertex 1 81.6 0
    endloop
  endfacet
  facet normal 0 0 -1
    outer loop
      vertex 0 87.5 0
      vertex 1 81.6 0
      vertex 0 81.6 0
    endloop
  endfacet
  facet normal 0 0 -1
    outer loop
      vertex 9.2 86.5 0
      vertex 0 87.5 0
      vertex 9.2 87.5 0
    endloop
  endfacet
  facet normal 0 -1 0
    outer loop
      vertex 81.6 0 0
      vertex 87.5 0 5.5
      vertex 81.6 0 5.5
    endloop
  endfacet
  facet normal 0 -1 -0
    outer loop
      vertex 87.5 0 5.5
      vertex 81.6 0 0
      vertex 87.5 0 0
    endloop
  endfacet
  facet normal 0 -1 0
    outer loop
      vertex 71.4 0 0
      vertex 80.6 0 5.5
      vertex 71.4 0 5.5
    endloop
  endfacet
  facet normal 0 -1 -0
    outer loop
      vertex 80.6 0 5.5
      vertex 71.4 0 0
      vertex 80.6 0 0
    endloop
  endfacet
  facet normal 0 -1 0
    outer loop
      vertex 61.2 0 0
      vertex 70.4 0 5.5
      vertex 61.2 0 5.5
    endloop
  endfacet
  facet normal 0 -1 -0
    outer loop
      vertex 70.4 0 5.5
      vertex 61.2 0 0
      vertex 70.4 0 0
    endloop
  endfacet
  facet normal 0 -1 0
    outer loop
      vertex 51 0 0
      vertex 60.2 0 5.5
      vertex 51 0 5.5
    endloop
  endfacet
  facet normal 0 -1 -0
    outer loop
      vertex 60.2 0 5.5
      vertex 51 0 0
      vertex 60.2 0 0
    endloop
  endfacet
  facet normal 0 -1 0
    outer loop
      vertex 40.8 0 0
      vertex 50 0 5.5
      vertex 40.8 0 5.5
    endloop
  endfacet
  facet normal 0 -1 -0
    outer loop
      vertex 50 0 5.5
      vertex 40.8 0 0
      vertex 50 0 0
    endloop
  endfacet
  facet normal 0 -1 0
    outer loop
      vertex 30.6 0 0
      vertex 39.8 0 5.5
      vertex 30.6 0 5.5
    endloop
  endfacet
  facet normal 0 -1 -0
    outer loop
      vertex 39.8 0 5.5
      vertex 30.6 0 0
      vertex 39.8 0 0
    endloop
  endfacet
  facet normal 0 -1 0
    outer loop
      vertex 20.4 0 0
      vertex 29.6 0 5.5
      vertex 20.4 0 5.5
    endloop
  endfacet
  facet normal 0 -1 -0
    outer loop
      vertex 29.6 0 5.5
      vertex 20.4 0 0
      vertex 29.6 0 0
    endloop
  endfacet
  facet normal 0 -1 0
    outer loop
      vertex 10.2 0 0
      vertex 19.4 0 5.5
      vertex 10.2 0 5.5
    endloop
  endfacet
  facet normal 0 -1 -0
    outer loop
      vertex 19.4 0 5.5
      vertex 10.2 0 0
      vertex 19.4 0 0
    endloop
  endfacet
  facet normal 0 -1 0
    outer loop
      vertex 0 0 0
      vertex 9.2 0 5.5
      vertex 0 0 5.5
    endloop
  endfacet
  facet normal 0 -1 -0
    outer loop
      vertex 9.2 0 5.5
      vertex 0 0 0
      vertex 9.2 0 0
    endloop
  endfacet
  facet normal 0 1 -0
    outer loop
      vertex 1 9.2 0
      vertex 0 9.2 5.5
      vertex 1 9.2 5.5
    endloop
  endfacet
  facet normal 0 1 0
    outer loop
      vertex 0 9.2 5.5
      vertex 1 9.2 0
      vertex 0 9.2 0
    endloop
  endfacet
  facet normal -0 0 1
    outer loop
      vertex 0 19.4 5.5
      vertex 1 10.2 5.5
      vertex 1 19.4 5.5
    endloop
  endfacet
  facet normal 0 0 1
    outer loop
      vertex 1 10.2 5.5
      vertex 0 19.4 5.5
      vertex 0 10.2 5.5
    endloop
  endfacet
  facet normal 0 1 -0
    outer loop
      vertex 1 19.4 0
      vertex 0 19.4 5.5
      vertex 1 19.4 5.5
    endloop
  endfacet
  facet normal 0 1 0
    outer loop
      vertex 0 19.4 5.5
      vertex 1 19.4 0
      vertex 0 19.4 0
    endloop
  endfacet
  facet normal 0 -1 0
    outer loop
      vertex 0 10.2 0
      vertex 1 10.2 5.5
      vertex 0 10.2 5.5
    endloop
  endfacet
  facet normal 0 -1 -0
    outer loop
      vertex 1 10.2 5.5
      vertex 0 10.2 0
      vertex 1 10.2 0
    endloop
  endfacet
  facet normal -0 0 1
    outer loop
      vertex 0 29.6 5.5
      vertex 1 20.4 5.5
      vertex 1 29.6 5.5
    endloop
  endfacet
  facet normal 0 0 1
    outer loop
      vertex 1 20.4 5.5
      vertex 0 29.6 5.5
      vertex 0 20.4 5.5
    endloop
  endfacet
  facet normal 0 -1 0
    outer loop
      vertex 0 20.4 0
      vertex 1 20.4 5.5
      vertex 0 20.4 5.5
    endloop
  endfacet
  facet normal 0 -1 -0
    outer loop
      vertex 1 20.4 5.5
      vertex 0 20.4 0
      vertex 1 20.4 0
    endloop
  endfacet
  facet normal 0 1 -0
    outer loop
      vertex 1 29.6 0
      vertex 0 29.6 5.5
      vertex 1 29.6 5.5
    endloop
  endfacet
  facet normal 0 1 0
    outer loop
      vertex 0 29.6 5.5
      vertex 1 29.6 0
      vertex 0 29.6 0
    endloop
  endfacet
  facet normal -0 0 1
    outer loop
      vertex 0 39.8 5.5
      vertex 1 30.6 5.5
      vertex 1 39.8 5.5
    endloop
  endfacet
  facet normal 0 0 1
    outer loop
      vertex 1 30.6 5.5
      vertex 0 39.8 5.5
      vertex 0 30.6 5.5
    endloop
  endfacet
  facet normal 0 1 -0
    outer loop
      vertex 1 39.8 0
      vertex 0 39.8 5.5
      vertex 1 39.8 5.5
    endloop
  endfacet
  facet normal 0 1 0
    outer loop
      vertex 0 39.8 5.5
      vertex 1 39.8 0
      vertex 0 39.8 0
    endloop
  endfacet
  facet normal 0 -1 0
    outer loop
      vertex 0 30.6 0
      vertex 1 30.6 5.5
      vertex 0 30.6 5.5
    endloop
  endfacet
  facet normal 0 -1 -0
    outer loop
      vertex 1 30.6 5.5
      vertex 0 30.6 0
      vertex 1 30.6 0
    endloop
  endfacet
  facet normal -0 0 1
    outer loop
      vertex 0 50 5.5
      vertex 1 40.8 5.5
      vertex 1 50 5.5
    endloop
  endfacet
  facet normal 0 0 1
    outer loop
      vertex 1 40.8 5.5
      vertex 0 50 5.5
      vertex 0 40.8 5.5
    endloop
  endfacet
  facet normal 0 1 -0
    outer loop
      vertex 1 50 0
      vertex 0 50 5.5
      vertex 1 50 5.5
    endloop
  endfacet
  facet normal 0 1 0
    outer loop
      vertex 0 50 5.5
      vertex 1 50 0
      vertex 0 50 0
    endloop
  endfacet
  facet normal 0 -1 0
    outer loop
      vertex 0 40.8 0
      vertex 1 40.8 5.5
      vertex 0 40.8 5.5
    endloop
  endfacet
  facet normal 0 -1 -0
    outer loop
      vertex 1 40.8 5.5
      vertex 0 40.8 0
      vertex 1 40.8 0
    endloop
  endfacet
  facet normal -0 0 1
    outer loop
      vertex 0 60.2 5.5
      vertex 1 51 5.5
      vertex 1 60.2 5.5
    endloop
  endfacet
  facet normal 0 0 1
    outer loop
      vertex 1 51 5.5
      vertex 0 60.2 5.5
      vertex 0 51 5.5
    endloop
  endfacet
  facet normal 0 -1 0
    outer loop
      vertex 0 51 0
      vertex 1 51 5.5
      vertex 0 51 5.5
    endloop
  endfacet
  facet normal 0 -1 -0
    outer loop
      vertex 1 51 5.5
      vertex 0 51 0
      vertex 1 51 0
    endloop
  endfacet
  facet normal 0 1 -0
    outer loop
      vertex 1 60.2 0
      vertex 0 60.2 5.5
      vertex 1 60.2 5.5
    endloop
  endfacet
  facet normal 0 1 0
    outer loop
      vertex 0 60.2 5.5
      vertex 1 60.2 0
      vertex 0 60.2 0
    endloop
  endfacet
  facet normal -0 0 1
    outer loop
      vertex 0 70.4 5.5
      vertex 1 61.2 5.5
      vertex 1 70.4 5.5
    endloop
  endfacet
  facet normal 0 0 1
    outer loop
      vertex 1 61.2 5.5
      vertex 0 70.4 5.5
      vertex 0 61.2 5.5
    endloop
  endfacet
  facet normal 0 1 -0
    outer loop
      vertex 1 70.4 0
      vertex 0 70.4 5.5
      vertex 1 70.4 5.5
    endloop
  endfacet
  facet normal 0 1 0
    outer loop
      vertex 0 70.4 5.5
      vertex 1 70.4 0
      vertex 0 70.4 0
    endloop
  endfacet
  facet normal 0 -1 0
    outer loop
      vertex 0 61.2 0
      vertex 1 61.2 5.5
      vertex 0 61.2 5.5
    endloop
  endfacet
  facet normal 0 -1 -0
    outer loop
      vertex 1 61.2 5.5
      vertex 0 61.2 0
      vertex 1 61.2 0
    endloop
  endfacet
  facet normal -0 0 1
    outer loop
      vertex 0 80.6 5.5
      vertex 1 71.4 5.5
      vertex 1 80.6 5.5
    endloop
  endfacet
  facet normal 0 0 1
    outer loop
      vertex 1 71.4 5.5
      vertex 0 80.6 5.5
      vertex 0 71.4 5.5
    endloop
  endfacet
  facet normal 0 -1 0
    outer loop
      vertex 0 71.4 0
      vertex 1 71.4 5.5
      vertex 0 71.4 5.5
    endloop
  endfacet
  facet normal 0 -1 -0
    outer loop
      vertex 1 71.4 5.5
      vertex 0 71.4 0
      vertex 1 71.4 0
    endloop
  endfacet
  facet normal 0 1 -0
    outer loop
      vertex 1 80.6 0
      vertex 0 80.6 5.5
      vertex 1 80.6 5.5
    endloop
  endfacet
  facet normal 0 1 0
    outer loop
      vertex 0 80.6 5.5
      vertex 1 80.6 0
      vertex 0 80.6 0
    endloop
  endfacet
  facet normal 0 0 1
    outer loop
      vertex 9.2 87.5 5.5
      vertex 1 86.5 5.5
      vertex 9.2 86.5 5.5
    endloop
  endfacet
  facet normal -0 0 1
    outer loop
      vertex 0 87.5 5.5
      vertex 1 86.5 5.5
      vertex 9.2 87.5 5.5
    endloop
  endfacet
  facet normal 0 0 1
    outer loop
      vertex 0 81.6 5.5
      vertex 1 86.5 5.5
      vertex 0 87.5 5.5
    endloop
  endfacet
  facet normal 0 0 1
    outer loop
      vertex 1 86.5 5.5
      vertex 0 81.6 5.5
      vertex 1 81.6 5.5
    endloop
  endfacet
  facet normal 1 -0 0
    outer loop
      vertex 9.2 86.5 5.5
      vertex 9.2 87.5 0
      vertex 9.2 87.5 5.5
    endloop
  endfacet
  facet normal 1 0 0
    outer loop
      vertex 9.2 87.5 0
      vertex 9.2 86.5 5.5
      vertex 9.2 86.5 0
    endloop
  endfacet
  facet normal 0 -1 0
    outer loop
      vertex 0 81.6 0
      vertex 1 81.6 5.5
      vertex 0 81.6 5.5
    endloop
  endfacet
  facet normal 0 -1 -0
    outer loop
      vertex 1 81.6 5.5
      vertex 0 81.6 0
      vertex 1 81.6 0
    endloop
  endfacet
  facet normal -1 0 0
    outer loop
      vertex 10.2 0 0
      vertex 10.2 1 5.5
      vertex 10.2 1 0
    endloop
  endfacet
  facet normal -1 -0 0
    outer loop
      vertex 10.2 1 5.5
      vertex 10.2 0 0
      vertex 10.2 0 5.5
    endloop
  endfacet
  facet normal -0 0 1
    outer loop
      vertex 10.2 1 5.5
      vertex 19.4 0 5.5
      vertex 19.4 1 5.5
    endloop
  endfacet
  facet normal 0 0 1
    outer loop
      vertex 19.4 0 5.5
      vertex 10.2 1 5.5
      vertex 10.2 0 5.5
    endloop
  endfacet
  facet normal 1 -0 0
    outer loop
      vertex 19.4 0 5.5
      vertex 19.4 1 0
      vertex 19.4 1 5.5
    endloop
  endfacet
  facet normal 1 0 0
    outer loop
      vertex 19.4 1 0
      vertex 19.4 0 5.5
      vertex 19.4 0 0
    endloop
  endfacet
  facet normal -1 0 0
    outer loop
      vertex 10.2 86.5 0
      vertex 10.2 87.5 5.5
      vertex 10.2 87.5 0
    endloop
  endfacet
  facet normal -1 -0 0
    outer loop
      vertex 10.2 87.5 5.5
      vertex 10.2 86.5 0
      vertex 10.2 86.5 5.5
    endloop
  endfacet
  facet normal -0 0 1
    outer loop
      vertex 10.2 87.5 5.5
      vertex 19.4 86.5 5.5
      vertex 19.4 87.5 5.5
    endloop
  endfacet
  facet normal 0 0 1
    outer loop
      vertex 19.4 86.5 5.5
      vertex 10.2 87.5 5.5
      vertex 10.2 86.5 5.5
    endloop
  endfacet
  facet normal 1 -0 0
    outer loop
      vertex 19.4 86.5 5.5
      vertex 19.4 87.5 0
      vertex 19.4 87.5 5.5
    endloop
  endfacet
  facet normal 1 0 0
    outer loop
      vertex 19.4 87.5 0
      vertex 19.4 86.5 5.5
      vertex 19.4 86.5 0
    endloop
  endfacet
  facet normal -1 0 0
    outer loop
      vertex 20.4 0 0
      vertex 20.4 1 5.5
      vertex 20.4 1 0
    endloop
  endfacet
  facet normal -1 -0 0
    outer loop
      vertex 20.4 1 5.5
      vertex 20.4 0 0
      vertex 20.4 0 5.5
    endloop
  endfacet
  facet normal -0 0 1
    outer loop
      vertex 20.4 1 5.5
      vertex 29.6 0 5.5
      vertex 29.6 1 5.5
    endloop
  endfacet
  facet normal 0 0 1
    outer loop
      vertex 29.6 0 5.5
      vertex 20.4 1 5.5
      vertex 20.4 0 5.5
    endloop
  endfacet
  facet normal 1 -0 0
    outer loop
      vertex 29.6 0 5.5
      vertex 29.6 1 0
      vertex 29.6 1 5.5
    endloop
  endfacet
  facet normal 1 0 0
    outer loop
      vertex 29.6 1 0
      vertex 29.6 0 5.5
      vertex 29.6 0 0
    endloop
  endfacet
  facet normal -1 0 0
    outer loop
      vertex 20.4 86.5 0
      vertex 20.4 87.5 5.5
      vertex 20.4 87.5 0
    endloop
  endfacet
  facet normal -1 -0 0
    outer loop
      vertex 20.4 87.5 5.5
      vertex 20.4 86.5 0
      vertex 20.4 86.5 5.5
    endloop
  endfacet
  facet normal -0 0 1
    outer loop
      vertex 20.4 87.5 5.5
      vertex 29.6 86.5 5.5
      vertex 29.6 87.5 5.5
    endloop
  endfacet
  facet normal 0 0 1
    outer loop
      vertex 29.6 86.5 5.5
      vertex 20.4 87.5 5.5
      vertex 20.4 86.5 5.5
    endloop
  endfacet
  facet normal 1 -0 0
    outer loop
      vertex 29.6 86.5 5.5
      vertex 29.6 87.5 0
      vertex 29.6 87.5 5.5
    endloop
  endfacet
  facet normal 1 0 0
    outer loop
      vertex 29.6 87.5 0
      vertex 29.6 86.5 5.5
      vertex 29.6 86.5 0
    endloop
  endfacet
  facet normal -1 0 0
    outer loop
      vertex 30.6 0 0
      vertex 30.6 1 5.5
      vertex 30.6 1 0
    endloop
  endfacet
  facet normal -1 -0 0
    outer loop
      vertex 30.6 1 5.5
      vertex 30.6 0 0
      vertex 30.6 0 5.5
    endloop
  endfacet
  facet normal -0 0 1
    outer loop
      vertex 30.6 1 5.5
      vertex 39.8 0 5.5
      vertex 39.8 1 5.5
    endloop
  endfacet
  facet normal 0 0 1
    outer loop
      vertex 39.8 0 5.5
      vertex 30.6 1 5.5
      vertex 30.6 0 5.5
    endloop
  endfacet
  facet normal 1 -0 0
    outer loop
      vertex 39.8 0 5.5
      vertex 39.8 1 0
      vertex 39.8 1 5.5
    endloop
  endfacet
  facet normal 1 0 0
    outer loop
      vertex 39.8 1 0
      vertex 39.8 0 5.5
      vertex 39.8 0 0
    endloop
  endfacet
  facet normal -1 0 0
    outer loop
      vertex 30.6 86.5 0
      vertex 30.6 87.5 5.5
      vertex 30.6 87.5 0
    endloop
  endfacet
  facet normal -1 -0 0
    outer loop
      vertex 30.6 87.5 5.5
      vertex 30.6 86.5 0
      vertex 30.6 86.5 5.5
    endloop
  endfacet
  facet normal -0 0 1
    outer loop
      vertex 30.6 87.5 5.5
      vertex 39.8 86.5 5.5
      vertex 39.8 87.5 5.5
    endloop
  endfacet
  facet normal 0 0 1
    outer loop
      vertex 39.8 86.5 5.5
      vertex 30.6 87.5 5.5
      vertex 30.6 86.5 5.5
    endloop
  endfacet
  facet normal 1 -0 0
    outer loop
      vertex 39.8 86.5 5.5
      vertex 39.8 87.5 0
      vertex 39.8 87.5 5.5
    endloop
  endfacet
  facet normal 1 0 0
    outer loop
      vertex 39.8 87.5 0
      vertex 39.8 86.5 5.5
      vertex 39.8 86.5 0
    endloop
  endfacet
  facet normal -1 0 0
    outer loop
      vertex 40.8 0 0
      vertex 40.8 1 5.5
      vertex 40.8 1 0
    endloop
  endfacet
  facet normal -1 -0 0
    outer loop
      vertex 40.8 1 5.5
      vertex 40.8 0 0
      vertex 40.8 0 5.5
    endloop
  endfacet
  facet normal -0 0 1
    outer loop
      vertex 40.8 1 5.5
      vertex 50 0 5.5
      vertex 50 1 5.5
    endloop
  endfacet
  facet normal 0 0 1
    outer loop
      vertex 50 0 5.5
      vertex 40.8 1 5.5
      vertex 40.8 0 5.5
    endloop
  endfacet
  facet normal 1 -0 0
    outer loop
      vertex 50 0 5.5
      vertex 50 1 0
      vertex 50 1 5.5
    endloop
  endfacet
  facet normal 1 0 0
    outer loop
      vertex 50 1 0
      vertex 50 0 5.5
      vertex 50 0 0
    endloop
  endfacet
  facet normal -1 0 0
    outer loop
      vertex 40.8 86.5 0
      vertex 40.8 87.5 5.5
      vertex 40.8 87.5 0
    endloop
  endfacet
  facet normal -1 -0 0
    outer loop
      vertex 40.8 87.5 5.5
      vertex 40.8 86.5 0
      vertex 40.8 86.5 5.5
    endloop
  endfacet
  facet normal -0 0 1
    outer loop
      vertex 40.8 87.5 5.5
      vertex 50 86.5 5.5
      vertex 50 87.5 5.5
    endloop
  endfacet
  facet normal 0 0 1
    outer loop
      vertex 50 86.5 5.5
      vertex 40.8 87.5 5.5
      vertex 40.8 86.5 5.5
    endloop
  endfacet
  facet normal 1 -0 0
    outer loop
      vertex 50 86.5 5.5
      vertex 50 87.5 0
      vertex 50 87.5 5.5
    endloop
  endfacet
  facet normal 1 0 0
    outer loop
      vertex 50 87.5 0
      vertex 50 86.5 5.5
      vertex 50 86.5 0
    endloop
  endfacet
  facet normal -1 0 0
    outer loop
      vertex 51 0 0
      vertex 51 1 5.5
      vertex 51 1 0
    endloop
  endfacet
  facet normal -1 -0 0
    outer loop
      vertex 51 1 5.5
      vertex 51 0 0
      vertex 51 0 5.5
    endloop
  endfacet
  facet normal -0 0 1
    outer loop
      vertex 51 1 5.5
      vertex 60.2 0 5.5
      vertex 60.2 1 5.5
    endloop
  endfacet
  facet normal 0 0 1
    outer loop
      vertex 60.2 0 5.5
      vertex 51 1 5.5
      vertex 51 0 5.5
    endloop
  endfacet
  facet normal 1 -0 0
    outer loop
      vertex 60.2 0 5.5
      vertex 60.2 1 0
      vertex 60.2 1 5.5
    endloop
  endfacet
  facet normal 1 0 0
    outer loop
      vertex 60.2 1 0
      vertex 60.2 0 5.5
      vertex 60.2 0 0
    endloop
  endfacet
  facet normal -1 0 0
    outer loop
      vertex 51 86.5 0
      vertex 51 87.5 5.5
      vertex 51 87.5 0
    endloop
  endfacet
  facet normal -1 -0 0
    outer loop
      vertex 51 87.5 5.5
      vertex 51 86.5 0
      vertex 51 86.5 5.5
    endloop
  endfacet
  facet normal -0 0 1
    outer loop
      vertex 51 87.5 5.5
      vertex 60.2 86.5 5.5
      vertex 60.2 87.5 5.5
    endloop
  endfacet
  facet normal 0 0 1
    outer loop
      vertex 60.2 86.5 5.5
      vertex 51 87.5 5.5
      vertex 51 86.5 5.5
    endloop
  endfacet
  facet normal 1 -0 0
    outer loop
      vertex 60.2 86.5 5.5
      vertex 60.2 87.5 0
      vertex 60.2 87.5 5.5
    endloop
  endfacet
  facet normal 1 0 0
    outer loop
      vertex 60.2 87.5 0
      vertex 60.2 86.5 5.5
      vertex 60.2 86.5 0
    endloop
  endfacet
  facet normal -1 0 0
    outer loop
      vertex 61.2 0 0
      vertex 61.2 1 5.5
      vertex 61.2 1 0
    endloop
  endfacet
  facet normal -1 -0 0
    outer loop
      vertex 61.2 1 5.5
      vertex 61.2 0 0
      vertex 61.2 0 5.5
    endloop
  endfacet
  facet normal -0 0 1
    outer loop
      vertex 61.2 1 5.5
      vertex 70.4 0 5.5
      vertex 70.4 1 5.5
    endloop
  endfacet
  facet normal 0 0 1
    outer loop
      vertex 70.4 0 5.5
      vertex 61.2 1 5.5
      vertex 61.2 0 5.5
    endloop
  endfacet
  facet normal 1 -0 0
    outer loop
      vertex 70.4 0 5.5
      vertex 70.4 1 0
      vertex 70.4 1 5.5
    endloop
  endfacet
  facet normal 1 0 0
    outer loop
      vertex 70.4 1 0
      vertex 70.4 0 5.5
      vertex 70.4 0 0
    endloop
  endfacet
  facet normal -1 0 0
    outer loop
      vertex 61.2 86.5 0
      vertex 61.2 87.5 5.5
      vertex 61.2 87.5 0
    endloop
  endfacet
  facet normal -1 -0 0
    outer loop
      vertex 61.2 87.5 5.5
      vertex 61.2 86.5 0
      vertex 61.2 86.5 5.5
    endloop
  endfacet
  facet normal -0 0 1
    outer loop
      vertex 61.2 87.5 5.5
      vertex 70.4 86.5 5.5
      vertex 70.4 87.5 5.5
    endloop
  endfacet
  facet normal 0 0 1
    outer loop
      vertex 70.4 86.5 5.5
      vertex 61.2 87.5 5.5
      vertex 61.2 86.5 5.5
    endloop
  endfacet
  facet normal 1 -0 0
    outer loop
      vertex 70.4 86.5 5.5
      vertex 70.4 87.5 0
      vertex 70.4 87.5 5.5
    endloop
  endfacet
  facet normal 1 0 0
    outer loop
      vertex 70.4 87.5 0
      vertex 70.4 86.5 5.5
      vertex 70.4 86.5 0
    endloop
  endfacet
  facet normal -1 0 0
    outer loop
      vertex 71.4 0 0
      vertex 71.4 1 5.5
      vertex 71.4 1 0
    endloop
  endfacet
  facet normal -1 -0 0
    outer loop
      vertex 71.4 1 5.5
      vertex 71.4 0 0
      vertex 71.4 0 5.5
    endloop
  endfacet
  facet normal -0 0 1
    outer loop
      vertex 71.4 1 5.5
      vertex 80.6 0 5.5
      vertex 80.6 1 5.5
    endloop
  endfacet
  facet normal 0 0 1
    outer loop
      vertex 80.6 0 5.5
      vertex 71.4 1 5.5
      vertex 71.4 0 5.5
    endloop
  endfacet
  facet normal 1 -0 0
    outer loop
      vertex 80.6 0 5.5
      vertex 80.6 1 0
      vertex 80.6 1 5.5
    endloop
  endfacet
  facet normal 1 0 0
    outer loop
      vertex 80.6 1 0
      vertex 80.6 0 5.5
      vertex 80.6 0 0
    endloop
  endfacet
  facet normal -1 0 0
    outer loop
      vertex 71.4 86.5 0
      vertex 71.4 87.5 5.5
      vertex 71.4 87.5 0
    endloop
  endfacet
  facet normal -1 -0 0
    outer loop
      vertex 71.4 87.5 5.5
      vertex 71.4 86.5 0
      vertex 71.4 86.5 5.5
    endloop
  endfacet
  facet normal -0 0 1
    outer loop
      vertex 71.4 87.5 5.5
      vertex 80.6 86.5 5.5
      vertex 80.6 87.5 5.5
    endloop
  endfacet
  facet normal 0 0 1
    outer loop
      vertex 80.6 86.5 5.5
      vertex 71.4 87.5 5.5
      vertex 71.4 86.5 5.5
    endloop
  endfacet
  facet normal 1 -0 0
    outer loop
      vertex 80.6 86.5 5.5
      vertex 80.6 87.5 0
      vertex 80.6 87.5 5.5
    endloop
  endfacet
  facet normal 1 0 0
    outer loop
      vertex 80.6 87.5 0
      vertex 80.6 86.5 5.5
      vertex 80.6 86.5 0
    endloop
  endfacet
  facet normal -1 0 0
    outer loop
      vertex 81.6 0 0
      vertex 81.6 1 5.5
      vertex 81.6 1 0
    endloop
  endfacet
  facet normal -1 -0 0
    outer loop
      vertex 81.6 1 5.5
      vertex 81.6 0 0
      vertex 81.6 0 5.5
    endloop
  endfacet
  facet normal 0 0 1
    outer loop
      vertex 86.5 1 5.5
      vertex 87.5 9.2 5.5
      vertex 86.5 9.2 5.5
    endloop
  endfacet
  facet normal 0 0 1
    outer loop
      vertex 87.5 9.2 5.5
      vertex 86.5 1 5.5
      vertex 87.5 0 5.5
    endloop
  endfacet
  facet normal 0 0 1
    outer loop
      vertex 81.6 0 5.5
      vertex 86.5 1 5.5
      vertex 81.6 1 5.5
    endloop
  endfacet
  facet normal 0 0 1
    outer loop
      vertex 86.5 1 5.5
      vertex 81.6 0 5.5
      vertex 87.5 0 5.5
    endloop
  endfacet
  facet normal 0 1 -0
    outer loop
      vertex 87.5 9.2 0
      vertex 86.5 9.2 5.5
      vertex 87.5 9.2 5.5
    endloop
  endfacet
  facet normal 0 1 0
    outer loop
      vertex 86.5 9.2 5.5
      vertex 87.5 9.2 0
      vertex 86.5 9.2 0
    endloop
  endfacet
  facet normal -0 0 1
    outer loop
      vertex 86.5 19.4 5.5
      vertex 87.5 10.2 5.5
      vertex 87.5 19.4 5.5
    endloop
  endfacet
  facet normal 0 0 1
    outer loop
      vertex 87.5 10.2 5.5
      vertex 86.5 19.4 5.5
      vertex 86.5 10.2 5.5
    endloop
  endfacet
  facet normal 0 -1 0
    outer loop
      vertex 86.5 10.2 0
      vertex 87.5 10.2 5.5
      vertex 86.5 10.2 5.5
    endloop
  endfacet
  facet normal 0 -1 -0
    outer loop
      vertex 87.5 10.2 5.5
      vertex 86.5 10.2 0
      vertex 87.5 10.2 0
    endloop
  endfacet
  facet normal 0 1 -0
    outer loop
      vertex 87.5 19.4 0
      vertex 86.5 19.4 5.5
      vertex 87.5 19.4 5.5
    endloop
  endfacet
  facet normal 0 1 0
    outer loop
      vertex 86.5 19.4 5.5
      vertex 87.5 19.4 0
      vertex 86.5 19.4 0
    endloop
  endfacet
  facet normal -0 0 1
    outer loop
      vertex 86.5 29.6 5.5
      vertex 87.5 20.4 5.5
      vertex 87.5 29.6 5.5
    endloop
  endfacet
  facet normal 0 0 1
    outer loop
      vertex 87.5 20.4 5.5
      vertex 86.5 29.6 5.5
      vertex 86.5 20.4 5.5
    endloop
  endfacet
  facet normal 0 1 -0
    outer loop
      vertex 87.5 29.6 0
      vertex 86.5 29.6 5.5
      vertex 87.5 29.6 5.5
    endloop
  endfacet
  facet normal 0 1 0
    outer loop
      vertex 86.5 29.6 5.5
      vertex 87.5 29.6 0
      vertex 86.5 29.6 0
    endloop
  endfacet
  facet normal 0 -1 0
    outer loop
      vertex 86.5 20.4 0
      vertex 87.5 20.4 5.5
      vertex 86.5 20.4 5.5
    endloop
  endfacet
  facet normal 0 -1 -0
    outer loop
      vertex 87.5 20.4 5.5
      vertex 86.5 20.4 0
      vertex 87.5 20.4 0
    endloop
  endfacet
  facet normal -0 0 1
    outer loop
      vertex 86.5 39.8 5.5
      vertex 87.5 30.6 5.5
      vertex 87.5 39.8 5.5
    endloop
  endfacet
  facet normal 0 0 1
    outer loop
      vertex 87.5 30.6 5.5
      vertex 86.5 39.8 5.5
      vertex 86.5 30.6 5.5
    endloop
  endfacet
  facet normal 0 -1 0
    outer loop
      vertex 86.5 30.6 0
      vertex 87.5 30.6 5.5
      vertex 86.5 30.6 5.5
    endloop
  endfacet
  facet normal 0 -1 -0
    outer loop
      vertex 87.5 30.6 5.5
      vertex 86.5 30.6 0
      vertex 87.5 30.6 0
    endloop
  endfacet
  facet normal 0 1 -0
    outer loop
      vertex 87.5 39.8 0
      vertex 86.5 39.8 5.5
      vertex 87.5 39.8 5.5
    endloop
  endfacet
  facet normal 0 1 0
    outer loop
      vertex 86.5 39.8 5.5
      vertex 87.5 39.8 0
      vertex 86.5 39.8 0
    endloop
  endfacet
  facet normal -0 0 1
    outer loop
      vertex 86.5 50 5.5
      vertex 87.5 40.8 5.5
      vertex 87.5 50 5.5
    endloop
  endfacet
  facet normal 0 0 1
    outer loop
      vertex 87.5 40.8 5.5
      vertex 86.5 50 5.5
      vertex 86.5 40.8 5.5
    endloop
  endfacet
  facet normal 0 1 -0
    outer loop
      vertex 87.5 50 0
      vertex 86.5 50 5.5
      vertex 87.5 50 5.5
    endloop
  endfacet
  facet normal 0 1 0
    outer loop
      vertex 86.5 50 5.5
      vertex 87.5 50 0
      vertex 86.5 50 0
    endloop
  endfacet
  facet normal 0 -1 0
    outer loop
      vertex 86.5 40.8 0
      vertex 87.5 40.8 5.5
      vertex 86.5 40.8 5.5
    endloop
  endfacet
  facet normal 0 -1 -0
    outer loop
      vertex 87.5 40.8 5.5
      vertex 86.5 40.8 0
      vertex 87.5 40.8 0
    endloop
  endfacet
  facet normal -0 0 1
    outer loop
      vertex 86.5 60.2 5.5
      vertex 87.5 51 5.5
      vertex 87.5 60.2 5.5
    endloop
  endfacet
  facet normal 0 0 1
    outer loop
      vertex 87.5 51 5.5
      vertex 86.5 60.2 5.5
      vertex 86.5 51 5.5
    endloop
  endfacet
  facet normal 0 -1 0
    outer loop
      vertex 86.5 51 0
      vertex 87.5 51 5.5
      vertex 86.5 51 5.5
    endloop
  endfacet
  facet normal 0 -1 -0
    outer loop
      vertex 87.5 51 5.5
      vertex 86.5 51 0
      vertex 87.5 51 0
    endloop
  endfacet
  facet normal 0 1 -0
    outer loop
      vertex 87.5 60.2 0
      vertex 86.5 60.2 5.5
      vertex 87.5 60.2 5.5
    endloop
  endfacet
  facet normal 0 1 0
    outer loop
      vertex 86.5 60.2 5.5
      vertex 87.5 60.2 0
      vertex 86.5 60.2 0
    endloop
  endfacet
  facet normal -0 0 1
    outer loop
      vertex 86.5 70.4 5.5
      vertex 87.5 61.2 5.5
      vertex 87.5 70.4 5.5
    endloop
  endfacet
  facet normal 0 0 1
    outer loop
      vertex 87.5 61.2 5.5
      vertex 86.5 70.4 5.5
      vertex 86.5 61.2 5.5
    endloop
  endfacet
  facet normal 0 -1 0
    outer loop
      vertex 86.5 61.2 0
      vertex 87.5 61.2 5.5
      vertex 86.5 61.2 5.5
    endloop
  endfacet
  facet normal 0 -1 -0
    outer loop
      vertex 87.5 61.2 5.5
      vertex 86.5 61.2 0
      vertex 87.5 61.2 0
    endloop
  endfacet
  facet normal 0 1 -0
    outer loop
      vertex 87.5 70.4 0
      vertex 86.5 70.4 5.5
      vertex 87.5 70.4 5.5
    endloop
  endfacet
  facet normal 0 1 0
    outer loop
      vertex 86.5 70.4 5.5
      vertex 87.5 70.4 0
      vertex 86.5 70.4 0
    endloop
  endfacet
  facet normal -0 0 1
    outer loop
      vertex 86.5 80.6 5.5
      vertex 87.5 71.4 5.5
      vertex 87.5 80.6 5.5
    endloop
  endfacet
  facet normal 0 0 1
    outer loop
      vertex 87.5 71.4 5.5
      vertex 86.5 80.6 5.5
      vertex 86.5 71.4 5.5
    endloop
  endfacet
  facet normal 0 -1 0
    outer loop
      vertex 86.5 71.4 0
      vertex 87.5 71.4 5.5
      vertex 86.5 71.4 5.5
    endloop
  endfacet
  facet normal 0 -1 -0
    outer loop
      vertex 87.5 71.4 5.5
      vertex 86.5 71.4 0
      vertex 87.5 71.4 0
    endloop
  endfacet
  facet normal 0 1 -0
    outer loop
      vertex 87.5 80.6 0
      vertex 86.5 80.6 5.5
      vertex 87.5 80.6 5.5
    endloop
  endfacet
  facet normal 0 1 0
    outer loop
      vertex 86.5 80.6 5.5
      vertex 87.5 80.6 0
      vertex 86.5 80.6 0
    endloop
  endfacet
  facet normal -1 0 0
    outer loop
      vertex 81.6 86.5 0
      vertex 81.6 87.5 5.5
      vertex 81.6 87.5 0
    endloop
  endfacet
  facet normal -1 -0 0
    outer loop
      vertex 81.6 87.5 5.5
      vertex 81.6 86.5 0
      vertex 81.6 86.5 5.5
    endloop
  endfacet
  facet normal 0 0 1
    outer loop
      vertex 87.5 87.5 5.5
      vertex 86.5 86.5 5.5
      vertex 87.5 81.6 5.5
    endloop
  endfacet
  facet normal -0 0 1
    outer loop
      vertex 81.6 87.5 5.5
      vertex 86.5 86.5 5.5
      vertex 87.5 87.5 5.5
    endloop
  endfacet
  facet normal 0 0 1
    outer loop
      vertex 86.5 86.5 5.5
      vertex 81.6 87.5 5.5
      vertex 81.6 86.5 5.5
    endloop
  endfacet
  facet normal 0 0 1
    outer loop
      vertex 87.5 81.6 5.5
      vertex 86.5 86.5 5.5
      vertex 86.5 81.6 5.5
    endloop
  endfacet
  facet normal 0 -1 0
    outer loop
      vertex 86.5 81.6 0
      vertex 87.5 81.6 5.5
      vertex 86.5 81.6 5.5
    endloop
  endfacet
  facet normal 0 -1 -0
    outer loop
      vertex 87.5 81.6 5.5
      vertex 86.5 81.6 0
      vertex 87.5 81.6 0
    endloop
  endfacet
  facet normal 1 -0 0
    outer loop
      vertex 87.5 0 5.5
      vertex 87.5 9.2 0
      vertex 87.5 9.2 5.5
    endloop
  endfacet
  facet normal 1 0 0
    outer loop
      vertex 87.5 9.2 0
      vertex 87.5 0 5.5
      vertex 87.5 0 0
    endloop
  endfacet
  facet normal 1 -0 0
    outer loop
      vertex 87.5 81.6 5.5
      vertex 87.5 87.5 0
      vertex 87.5 87.5 5.5
    endloop
  endfacet
  facet normal 1 0 0
    outer loop
      vertex 87.5 87.5 0
      vertex 87.5 81.6 5.5
      vertex 87.5 81.6 0
    endloop
  endfacet
  facet normal 1 -0 0
    outer loop
      vertex 87.5 71.4 5.5
      vertex 87.5 80.6 0
      vertex 87.5 80.6 5.5
    endloop
  endfacet
  facet normal 1 0 0
    outer loop
      vertex 87.5 80.6 0
      vertex 87.5 71.4 5.5
      vertex 87.5 71.4 0
    endloop
  endfacet
  facet normal 1 -0 0
    outer loop
      vertex 87.5 61.2 5.5
      vertex 87.5 70.4 0
      vertex 87.5 70.4 5.5
    endloop
  endfacet
  facet normal 1 0 0
    outer loop
      vertex 87.5 70.4 0
      vertex 87.5 61.2 5.5
      vertex 87.5 61.2 0
    endloop
  endfacet
  facet normal 1 -0 0
    outer loop
      vertex 87.5 51 5.5
      vertex 87.5 60.2 0
      vertex 87.5 60.2 5.5
    endloop
  endfacet
  facet normal 1 0 0
    outer loop
      vertex 87.5 60.2 0
      vertex 87.5 51 5.5
      vertex 87.5 51 0
    endloop
  endfacet
  facet normal 1 -0 0
    outer loop
      vertex 87.5 40.8 5.5
      vertex 87.5 50 0
      vertex 87.5 50 5.5
    endloop
  endfacet
  facet normal 1 0 0
    outer loop
      vertex 87.5 50 0
      vertex 87.5 40.8 5.5
      vertex 87.5 40.8 0
    endloop
  endfacet
  facet normal 1 -0 0
    outer loop
      vertex 87.5 30.6 5.5
      vertex 87.5 39.8 0
      vertex 87.5 39.8 5.5
    endloop
  endfacet
  facet normal 1 0 0
    outer loop
      vertex 87.5 39.8 0
      vertex 87.5 30.6 5.5
      vertex 87.5 30.6 0
    endloop
  endfacet
  facet normal 1 -0 0
    outer loop
      vertex 87.5 20.4 5.5
      vertex 87.5 29.6 0
      vertex 87.5 29.6 5.5
    endloop
  endfacet
  facet normal 1 0 0
    outer loop
      vertex 87.5 29.6 0
      vertex 87.5 20.4 5.5
      vertex 87.5 20.4 0
    endloop
  endfacet
  facet normal 1 -0 0
    outer loop
      vertex 87.5 10.2 5.5
      vertex 87.5 19.4 0
      vertex 87.5 19.4 5.5
    endloop
  endfacet
  facet normal 1 0 0
    outer loop
      vertex 87.5 19.4 0
      vertex 87.5 10.2 5.5
      vertex 87.5 10.2 0
    endloop
  endfacet
  facet normal 0 1 -0
    outer loop
      vertex 9.2 87.5 0
      vertex 0 87.5 5.5
      vertex 9.2 87.5 5.5
    endloop
  endfacet
  facet normal 0 1 0
    outer loop
      vertex 0 87.5 5.5
      vertex 9.2 87.5 0
      vertex 0 87.5 0
    endloop
  endfacet
  facet normal 0 1 -0
    outer loop
      vertex 87.5 87.5 0
      vertex 81.6 87.5 5.5
      vertex 87.5 87.5 5.5
    endloop
  endfacet
  facet normal 0 1 0
    outer loop
      vertex 81.6 87.5 5.5
      vertex 87.5 87.5 0
      vertex 81.6 87.5 0
    endloop
  endfacet
  facet normal 0 1 -0
    outer loop
      vertex 19.4 87.5 0
      vertex 10.2 87.5 5.5
      vertex 19.4 87.5 5.5
    endloop
  endfacet
  facet normal 0 1 0
    outer loop
      vertex 10.2 87.5 5.5
      vertex 19.4 87.5 0
      vertex 10.2 87.5 0
    endloop
  endfacet
  facet normal 0 1 -0
    outer loop
      vertex 29.6 87.5 0
      vertex 20.4 87.5 5.5
      vertex 29.6 87.5 5.5
    endloop
  endfacet
  facet normal 0 1 0
    outer loop
      vertex 20.4 87.5 5.5
      vertex 29.6 87.5 0
      vertex 20.4 87.5 0
    endloop
  endfacet
  facet normal 0 1 -0
    outer loop
      vertex 39.8 87.5 0
      vertex 30.6 87.5 5.5
      vertex 39.8 87.5 5.5
    endloop
  endfacet
  facet normal 0 1 0
    outer loop
      vertex 30.6 87.5 5.5
      vertex 39.8 87.5 0
      vertex 30.6 87.5 0
    endloop
  endfacet
  facet normal 0 1 -0
    outer loop
      vertex 50 87.5 0
      vertex 40.8 87.5 5.5
      vertex 50 87.5 5.5
    endloop
  endfacet
  facet normal 0 1 0
    outer loop
      vertex 40.8 87.5 5.5
      vertex 50 87.5 0
      vertex 40.8 87.5 0
    endloop
  endfacet
  facet normal 0 1 -0
    outer loop
      vertex 60.2 87.5 0
      vertex 51 87.5 5.5
      vertex 60.2 87.5 5.5
    endloop
  endfacet
  facet normal 0 1 0
    outer loop
      vertex 51 87.5 5.5
      vertex 60.2 87.5 0
      vertex 51 87.5 0
    endloop
  endfacet
  facet normal 0 1 -0
    outer loop
      vertex 70.4 87.5 0
      vertex 61.2 87.5 5.5
      vertex 70.4 87.5 5.5
    endloop
  endfacet
  facet normal 0 1 0
    outer loop
      vertex 61.2 87.5 5.5
      vertex 70.4 87.5 0
      vertex 61.2 87.5 0
    endloop
  endfacet
  facet normal 0 1 -0
    outer loop
      vertex 80.6 87.5 0
      vertex 71.4 87.5 5.5
      vertex 80.6 87.5 5.5
    endloop
  endfacet
  facet normal 0 1 0
    outer loop
      vertex 71.4 87.5 5.5
      vertex 80.6 87.5 0
      vertex 71.4 87.5 0
    endloop
  endfacet
  facet normal -1 0 0
    outer loop
      vertex 1 10.2 0
      vertex 1 9.2 0
      vertex 1 10.2 5.5
    endloop
  endfacet
  facet normal -1 0 0
    outer loop
      vertex 1 20.4 0
      vertex 1 19.4 0
      vertex 1 20.4 5.5
    endloop
  endfacet
  facet normal -1 0 0
    outer loop
      vertex 1 30.6 0
      vertex 1 29.6 0
      vertex 1 30.6 5.5
    endloop
  endfacet
  facet normal -1 0 0
    outer loop
      vertex 1 40.8 0
      vertex 1 39.8 0
      vertex 1 40.8 5.5
    endloop
  endfacet
  facet normal -1 0 0
    outer loop
      vertex 1 51 0
      vertex 1 50 0
      vertex 1 51 5.5
    endloop
  endfacet
  facet normal -1 0 0
    outer loop
      vertex 1 61.2 0
      vertex 1 60.2 0
      vertex 1 61.2 5.5
    endloop
  endfacet
  facet normal -1 0 0
    outer loop
      vertex 1 71.4 0
      vertex 1 70.4 0
      vertex 1 71.4 5.5
    endloop
  endfacet
  facet normal -1 0 0
    outer loop
      vertex 1 81.6 0
      vertex 1 80.6 0
      vertex 1 81.6 5.5
    endloop
  endfacet
  facet normal -1 0 0
    outer loop
      vertex 1 81.6 5.5
      vertex 1 86.5 6
      vertex 1 86.5 5.5
    endloop
  endfacet
  facet normal -1 0 0
    outer loop
      vertex 1 80.6 5.5
      vertex 1 81.6 5.5
      vertex 1 80.6 0
    endloop
  endfacet
  facet normal -1 0 0
    outer loop
      vertex 1 80.6 5.5
      vertex 1 86.5 6
      vertex 1 81.6 5.5
    endloop
  endfacet
  facet normal -1 0 0
    outer loop
      vertex 1 71.4 5.5
      vertex 1 86.5 6
      vertex 1 80.6 5.5
    endloop
  endfacet
  facet normal -1 0 0
    outer loop
      vertex 1 70.4 5.5
      vertex 1 71.4 5.5
      vertex 1 70.4 0
    endloop
  endfacet
  facet normal -1 0 0
    outer loop
      vertex 1 70.4 5.5
      vertex 1 86.5 6
      vertex 1 71.4 5.5
    endloop
  endfacet
  facet normal -1 0 0
    outer loop
      vertex 1 61.2 5.5
      vertex 1 86.5 6
      vertex 1 70.4 5.5
    endloop
  endfacet
  facet normal -1 0 0
    outer loop
      vertex 1 60.2 5.5
      vertex 1 61.2 5.5
      vertex 1 60.2 0
    endloop
  endfacet
  facet normal -1 0 0
    outer loop
      vertex 1 60.2 5.5
      vertex 1 86.5 6
      vertex 1 61.2 5.5
    endloop
  endfacet
  facet normal -1 0 0
    outer loop
      vertex 1 51 5.5
      vertex 1 86.5 6
      vertex 1 60.2 5.5
    endloop
  endfacet
  facet normal -1 0 0
    outer loop
      vertex 1 50 5.5
      vertex 1 51 5.5
      vertex 1 50 0
    endloop
  endfacet
  facet normal -1 0 0
    outer loop
      vertex 1 50 5.5
      vertex 1 86.5 6
      vertex 1 51 5.5
    endloop
  endfacet
  facet normal -1 0 0
    outer loop
      vertex 1 40.8 5.5
      vertex 1 86.5 6
      vertex 1 50 5.5
    endloop
  endfacet
  facet normal -1 0 0
    outer loop
      vertex 1 39.8 5.5
      vertex 1 40.8 5.5
      vertex 1 39.8 0
    endloop
  endfacet
  facet normal -1 0 0
    outer loop
      vertex 1 39.8 5.5
      vertex 1 86.5 6
      vertex 1 40.8 5.5
    endloop
  endfacet
  facet normal -1 0 0
    outer loop
      vertex 1 30.6 5.5
      vertex 1 86.5 6
      vertex 1 39.8 5.5
    endloop
  endfacet
  facet normal -1 0 0
    outer loop
      vertex 1 29.6 5.5
      vertex 1 30.6 5.5
      vertex 1 29.6 0
    endloop
  endfacet
  facet normal -1 0 0
    outer loop
      vertex 1 29.6 5.5
      vertex 1 86.5 6
      vertex 1 30.6 5.5
    endloop
  endfacet
  facet normal -1 0 0
    outer loop
      vertex 1 1 6
      vertex 1 29.6 5.5
      vertex 1 20.4 5.5
    endloop
  endfacet
  facet normal -1 0 0
    outer loop
      vertex 1 19.4 5.5
      vertex 1 20.4 5.5
      vertex 1 19.4 0
    endloop
  endfacet
  facet normal -1 0 0
    outer loop
      vertex 1 1 6
      vertex 1 20.4 5.5
      vertex 1 19.4 5.5
    endloop
  endfacet
  facet normal -1 0 0
    outer loop
      vertex 1 1 6
      vertex 1 19.4 5.5
      vertex 1 10.2 5.5
    endloop
  endfacet
  facet normal -1 0 0
    outer loop
      vertex 1 9.2 5.5
      vertex 1 10.2 5.5
      vertex 1 9.2 0
    endloop
  endfacet
  facet normal -1 0 0
    outer loop
      vertex 1 1 6
      vertex 1 10.2 5.5
      vertex 1 9.2 5.5
    endloop
  endfacet
  facet normal -1 0 0
    outer loop
      vertex 1 1 6
      vertex 1 9.2 5.5
      vertex 1 1 5.5
    endloop
  endfacet
  facet normal -1 0 0
    outer loop
      vertex 1 29.6 5.5
      vertex 1 1 6
      vertex 1 86.5 6
    endloop
  endfacet
  facet normal -0 0 1
    outer loop
      vertex 1 86.5 6
      vertex 86.5 1 6
      vertex 86.5 86.5 6
    endloop
  endfacet
  facet normal 0 0 1
    outer loop
      vertex 86.5 1 6
      vertex 1 86.5 6
      vertex 1 1 6
    endloop
  endfacet
  facet normal 1 0 0
    outer loop
      vertex 86.5 86.5 6
      vertex 86.5 81.6 5.5
      vertex 86.5 86.5 5.5
    endloop
  endfacet
  facet normal 1 0 0
    outer loop
      vertex 86.5 81.6 5.5
      vertex 86.5 80.6 5.5
      vertex 86.5 81.6 0
    endloop
  endfacet
  facet normal 1 0 0
    outer loop
      vertex 86.5 86.5 6
      vertex 86.5 80.6 5.5
      vertex 86.5 81.6 5.5
    endloop
  endfacet
  facet normal 1 0 0
    outer loop
      vertex 86.5 86.5 6
      vertex 86.5 71.4 5.5
      vertex 86.5 80.6 5.5
    endloop
  endfacet
  facet normal 1 0 0
    outer loop
      vertex 86.5 71.4 5.5
      vertex 86.5 70.4 5.5
      vertex 86.5 71.4 0
    endloop
  endfacet
  facet normal 1 0 0
    outer loop
      vertex 86.5 86.5 6
      vertex 86.5 70.4 5.5
      vertex 86.5 71.4 5.5
    endloop
  endfacet
  facet normal 1 0 0
    outer loop
      vertex 86.5 86.5 6
      vertex 86.5 61.2 5.5
      vertex 86.5 70.4 5.5
    endloop
  endfacet
  facet normal 1 0 0
    outer loop
      vertex 86.5 61.2 5.5
      vertex 86.5 60.2 5.5
      vertex 86.5 61.2 0
    endloop
  endfacet
  facet normal 1 0 0
    outer loop
      vertex 86.5 86.5 6
      vertex 86.5 60.2 5.5
      vertex 86.5 61.2 5.5
    endloop
  endfacet
  facet normal 1 0 0
    outer loop
      vertex 86.5 86.5 6
      vertex 86.5 51 5.5
      vertex 86.5 60.2 5.5
    endloop
  endfacet
  facet normal 1 0 0
    outer loop
      vertex 86.5 51 5.5
      vertex 86.5 50 5.5
      vertex 86.5 51 0
    endloop
  endfacet
  facet normal 1 0 0
    outer loop
      vertex 86.5 86.5 6
      vertex 86.5 50 5.5
      vertex 86.5 51 5.5
    endloop
  endfacet
  facet normal 1 0 0
    outer loop
      vertex 86.5 86.5 6
      vertex 86.5 40.8 5.5
      vertex 86.5 50 5.5
    endloop
  endfacet
  facet normal 1 0 0
    outer loop
      vertex 86.5 40.8 5.5
      vertex 86.5 39.8 5.5
      vertex 86.5 40.8 0
    endloop
  endfacet
  facet normal 1 0 0
    outer loop
      vertex 86.5 86.5 6
      vertex 86.5 39.8 5.5
      vertex 86.5 40.8 5.5
    endloop
  endfacet
  facet normal 1 0 0
    outer loop
      vertex 86.5 86.5 6
      vertex 86.5 30.6 5.5
      vertex 86.5 39.8 5.5
    endloop
  endfacet
  facet normal 1 0 0
    outer loop
      vertex 86.5 30.6 5.5
      vertex 86.5 29.6 5.5
      vertex 86.5 30.6 0
    endloop
  endfacet
  facet normal 1 0 0
    outer loop
      vertex 86.5 86.5 6
      vertex 86.5 29.6 5.5
      vertex 86.5 30.6 5.5
    endloop
  endfacet
  facet normal 1 -0 0
    outer loop
      vertex 86.5 1 6
      vertex 86.5 29.6 5.5
      vertex 86.5 86.5 6
    endloop
  endfacet
  facet normal 1 0 0
    outer loop
      vertex 86.5 20.4 5.5
      vertex 86.5 19.4 5.5
      vertex 86.5 20.4 0
    endloop
  endfacet
  facet normal 1 0 0
    outer loop
      vertex 86.5 29.6 5.5
      vertex 86.5 1 6
      vertex 86.5 20.4 5.5
    endloop
  endfacet
  facet normal 1 0 0
    outer loop
      vertex 86.5 20.4 5.5
      vertex 86.5 1 6
      vertex 86.5 19.4 5.5
    endloop
  endfacet
  facet normal 1 0 0
    outer loop
      vertex 86.5 10.2 5.5
      vertex 86.5 9.2 5.5
      vertex 86.5 10.2 0
    endloop
  endfacet
  facet normal 1 0 0
    outer loop
      vertex 86.5 19.4 5.5
      vertex 86.5 1 6
      vertex 86.5 10.2 5.5
    endloop
  endfacet
  facet normal 1 0 0
    outer loop
      vertex 86.5 10.2 5.5
      vertex 86.5 1 6
      vertex 86.5 9.2 5.5
    endloop
  endfacet
  facet normal 1 0 0
    outer loop
      vertex 86.5 9.2 5.5
      vertex 86.5 1 6
      vertex 86.5 1 5.5
    endloop
  endfacet
  facet normal 1 0 0
    outer loop
      vertex 86.5 81.6 0
      vertex 86.5 80.6 5.5
      vertex 86.5 80.6 0
    endloop
  endfacet
  facet normal 1 0 0
    outer loop
      vertex 86.5 71.4 0
      vertex 86.5 70.4 5.5
      vertex 86.5 70.4 0
    endloop
  endfacet
  facet normal 1 0 0
    outer loop
      vertex 86.5 61.2 0
      vertex 86.5 60.2 5.5
      vertex 86.5 60.2 0
    endloop
  endfacet
  facet normal 1 0 0
    outer loop
      vertex 86.5 51 0
      vertex 86.5 50 5.5
      vertex 86.5 50 0
    endloop
  endfacet
  facet normal 1 0 0
    outer loop
      vertex 86.5 40.8 0
      vertex 86.5 39.8 5.5
      vertex 86.5 39.8 0
    endloop
  endfacet
  facet normal 1 0 0
    outer loop
      vertex 86.5 30.6 0
      vertex 86.5 29.6 5.5
      vertex 86.5 29.6 0
    endloop
  endfacet
  facet normal 1 0 0
    outer loop
      vertex 86.5 20.4 0
      vertex 86.5 19.4 5.5
      vertex 86.5 19.4 0
    endloop
  endfacet
  facet normal 1 0 0
    outer loop
      vertex 86.5 10.2 0
      vertex 86.5 9.2 5.5
      vertex 86.5 9.2 0
    endloop
  endfacet
  facet normal 0 -1 0
    outer loop
      vertex 80.6 1 0
      vertex 81.6 1 5.5
      vertex 80.6 1 5.5
    endloop
  endfacet
  facet normal 0 -1 -0
    outer loop
      vertex 81.6 1 5.5
      vertex 80.6 1 0
      vertex 81.6 1 0
    endloop
  endfacet
  facet normal 0 -1 0
    outer loop
      vertex 70.4 1 0
      vertex 71.4 1 5.5
      vertex 70.4 1 5.5
    endloop
  endfacet
  facet normal 0 -1 -0
    outer loop
      vertex 71.4 1 5.5
      vertex 70.4 1 0
      vertex 71.4 1 0
    endloop
  endfacet
  facet normal 0 -1 0
    outer loop
      vertex 60.2 1 0
      vertex 61.2 1 5.5
      vertex 60.2 1 5.5
    endloop
  endfacet
  facet normal 0 -1 -0
    outer loop
      vertex 61.2 1 5.5
      vertex 60.2 1 0
      vertex 61.2 1 0
    endloop
  endfacet
  facet normal 0 -1 0
    outer loop
      vertex 50 1 0
      vertex 51 1 5.5
      vertex 50 1 5.5
    endloop
  endfacet
  facet normal 0 -1 -0
    outer loop
      vertex 51 1 5.5
      vertex 50 1 0
      vertex 51 1 0
    endloop
  endfacet
  facet normal 0 -1 0
    outer loop
      vertex 39.8 1 0
      vertex 40.8 1 5.5
      vertex 39.8 1 5.5
    endloop
  endfacet
  facet normal 0 -1 -0
    outer loop
      vertex 40.8 1 5.5
      vertex 39.8 1 0
      vertex 40.8 1 0
    endloop
  endfacet
  facet normal 0 -1 0
    outer loop
      vertex 29.6 1 0
      vertex 30.6 1 5.5
      vertex 29.6 1 5.5
    endloop
  endfacet
  facet normal 0 -1 -0
    outer loop
      vertex 30.6 1 5.5
      vertex 29.6 1 0
      vertex 30.6 1 0
    endloop
  endfacet
  facet normal 0 -1 0
    outer loop
      vertex 19.4 1 0
      vertex 20.4 1 5.5
      vertex 19.4 1 5.5
    endloop
  endfacet
  facet normal 0 -1 -0
    outer loop
      vertex 20.4 1 5.5
      vertex 19.4 1 0
      vertex 20.4 1 0
    endloop
  endfacet
  facet normal 0 -1 0
    outer loop
      vertex 9.2 1 0
      vertex 10.2 1 5.5
      vertex 9.2 1 5.5
    endloop
  endfacet
  facet normal 0 -1 -0
    outer loop
      vertex 10.2 1 5.5
      vertex 9.2 1 0
      vertex 10.2 1 0
    endloop
  endfacet
  facet normal 0 -1 0
    outer loop
      vertex 9.2 1 5.5
      vertex 1 1 6
      vertex 1 1 5.5
    endloop
  endfacet
  facet normal 0 -1 0
    outer loop
      vertex 10.2 1 5.5
      vertex 1 1 6
      vertex 9.2 1 5.5
    endloop
  endfacet
  facet normal 0 -1 0
    outer loop
      vertex 19.4 1 5.5
      vertex 1 1 6
      vertex 10.2 1 5.5
    endloop
  endfacet
  facet normal 0 -1 0
    outer loop
      vertex 20.4 1 5.5
      vertex 1 1 6
      vertex 19.4 1 5.5
    endloop
  endfacet
  facet normal 0 -1 0
    outer loop
      vertex 29.6 1 5.5
      vertex 1 1 6
      vertex 20.4 1 5.5
    endloop
  endfacet
  facet normal 0 -1 0
    outer loop
      vertex 1 1 6
      vertex 29.6 1 5.5
      vertex 86.5 1 6
    endloop
  endfacet
  facet normal 0 -1 0
    outer loop
      vertex 30.6 1 5.5
      vertex 86.5 1 6
      vertex 29.6 1 5.5
    endloop
  endfacet
  facet normal 0 -1 0
    outer loop
      vertex 39.8 1 5.5
      vertex 86.5 1 6
      vertex 30.6 1 5.5
    endloop
  endfacet
  facet normal 0 -1 0
    outer loop
      vertex 40.8 1 5.5
      vertex 86.5 1 6
      vertex 39.8 1 5.5
    endloop
  endfacet
  facet normal 0 -1 0
    outer loop
      vertex 50 1 5.5
      vertex 86.5 1 6
      vertex 40.8 1 5.5
    endloop
  endfacet
  facet normal 0 -1 0
    outer loop
      vertex 51 1 5.5
      vertex 86.5 1 6
      vertex 50 1 5.5
    endloop
  endfacet
  facet normal 0 -1 0
    outer loop
      vertex 60.2 1 5.5
      vertex 86.5 1 6
      vertex 51 1 5.5
    endloop
  endfacet
  facet normal 0 -1 0
    outer loop
      vertex 61.2 1 5.5
      vertex 86.5 1 6
      vertex 60.2 1 5.5
    endloop
  endfacet
  facet normal 0 -1 0
    outer loop
      vertex 70.4 1 5.5
      vertex 86.5 1 6
      vertex 61.2 1 5.5
    endloop
  endfacet
  facet normal 0 -1 0
    outer loop
      vertex 71.4 1 5.5
      vertex 86.5 1 6
      vertex 70.4 1 5.5
    endloop
  endfacet
  facet normal 0 -1 0
    outer loop
      vertex 80.6 1 5.5
      vertex 86.5 1 6
      vertex 71.4 1 5.5
    endloop
  endfacet
  facet normal 0 -1 0
    outer loop
      vertex 81.6 1 5.5
      vertex 86.5 1 6
      vertex 80.6 1 5.5
    endloop
  endfacet
  facet normal 0 -1 -0
    outer loop
      vertex 86.5 1 6
      vertex 81.6 1 5.5
      vertex 86.5 1 5.5
    endloop
  endfacet
  facet normal 0 1 -0
    outer loop
      vertex 10.2 86.5 0
      vertex 9.2 86.5 5.5
      vertex 10.2 86.5 5.5
    endloop
  endfacet
  facet normal 0 1 0
    outer loop
      vertex 9.2 86.5 5.5
      vertex 10.2 86.5 0
      vertex 9.2 86.5 0
    endloop
  endfacet
  facet normal 0 1 -0
    outer loop
      vertex 20.4 86.5 0
      vertex 19.4 86.5 5.5
      vertex 20.4 86.5 5.5
    endloop
  endfacet
  facet normal 0 1 0
    outer loop
      vertex 19.4 86.5 5.5
      vertex 20.4 86.5 0
      vertex 19.4 86.5 0
    endloop
  endfacet
  facet normal 0 1 -0
    outer loop
      vertex 30.6 86.5 0
      vertex 29.6 86.5 5.5
      vertex 30.6 86.5 5.5
    endloop
  endfacet
  facet normal 0 1 0
    outer loop
      vertex 29.6 86.5 5.5
      vertex 30.6 86.5 0
      vertex 29.6 86.5 0
    endloop
  endfacet
  facet normal 0 1 -0
    outer loop
      vertex 40.8 86.5 0
      vertex 39.8 86.5 5.5
      vertex 40.8 86.5 5.5
    endloop
  endfacet
  facet normal 0 1 0
    outer loop
      vertex 39.8 86.5 5.5
      vertex 40.8 86.5 0
      vertex 39.8 86.5 0
    endloop
  endfacet
  facet normal 0 1 -0
    outer loop
      vertex 51 86.5 0
      vertex 50 86.5 5.5
      vertex 51 86.5 5.5
    endloop
  endfacet
  facet normal 0 1 0
    outer loop
      vertex 50 86.5 5.5
      vertex 51 86.5 0
      vertex 50 86.5 0
    endloop
  endfacet
  facet normal 0 1 -0
    outer loop
      vertex 61.2 86.5 0
      vertex 60.2 86.5 5.5
      vertex 61.2 86.5 5.5
    endloop
  endfacet
  facet normal 0 1 0
    outer loop
      vertex 60.2 86.5 5.5
      vertex 61.2 86.5 0
      vertex 60.2 86.5 0
    endloop
  endfacet
  facet normal 0 1 -0
    outer loop
      vertex 71.4 86.5 0
      vertex 70.4 86.5 5.5
      vertex 71.4 86.5 5.5
    endloop
  endfacet
  facet normal 0 1 0
    outer loop
      vertex 70.4 86.5 5.5
      vertex 71.4 86.5 0
      vertex 70.4 86.5 0
    endloop
  endfacet
  facet normal 0 1 -0
    outer loop
      vertex 81.6 86.5 0
      vertex 80.6 86.5 5.5
      vertex 81.6 86.5 5.5
    endloop
  endfacet
  facet normal 0 1 0
    outer loop
      vertex 80.6 86.5 5.5
      vertex 81.6 86.5 0
      vertex 80.6 86.5 0
    endloop
  endfacet
  facet normal 0 1 0
    outer loop
      vertex 81.6 86.5 5.5
      vertex 86.5 86.5 6
      vertex 86.5 86.5 5.5
    endloop
  endfacet
  facet normal 0 1 0
    outer loop
      vertex 80.6 86.5 5.5
      vertex 86.5 86.5 6
      vertex 81.6 86.5 5.5
    endloop
  endfacet
  facet normal 0 1 0
    outer loop
      vertex 71.4 86.5 5.5
      vertex 86.5 86.5 6
      vertex 80.6 86.5 5.5
    endloop
  endfacet
  facet normal 0 1 0
    outer loop
      vertex 70.4 86.5 5.5
      vertex 86.5 86.5 6
      vertex 71.4 86.5 5.5
    endloop
  endfacet
  facet normal 0 1 0
    outer loop
      vertex 61.2 86.5 5.5
      vertex 86.5 86.5 6
      vertex 70.4 86.5 5.5
    endloop
  endfacet
  facet normal 0 1 0
    outer loop
      vertex 60.2 86.5 5.5
      vertex 86.5 86.5 6
      vertex 61.2 86.5 5.5
    endloop
  endfacet
  facet normal 0 1 0
    outer loop
      vertex 86.5 86.5 6
      vertex 60.2 86.5 5.5
      vertex 1 86.5 6
    endloop
  endfacet
  facet normal 0 1 -0
    outer loop
      vertex 51 86.5 5.5
      vertex 1 86.5 6
      vertex 60.2 86.5 5.5
    endloop
  endfacet
  facet normal 0 1 -0
    outer loop
      vertex 50 86.5 5.5
      vertex 1 86.5 6
      vertex 51 86.5 5.5
    endloop
  endfacet
  facet normal 0 1 -0
    outer loop
      vertex 40.8 86.5 5.5
      vertex 1 86.5 6
      vertex 50 86.5 5.5
    endloop
  endfacet
  facet normal 0 1 -0
    outer loop
      vertex 39.8 86.5 5.5
      vertex 1 86.5 6
      vertex 40.8 86.5 5.5
    endloop
  endfacet
  facet normal 0 1 -0
    outer loop
      vertex 30.6 86.5 5.5
      vertex 1 86.5 6
      vertex 39.8 86.5 5.5
    endloop
  endfacet
  facet normal 0 1 -0
    outer loop
      vertex 29.6 86.5 5.5
      vertex 1 86.5 6
      vertex 30.6 86.5 5.5
    endloop
  endfacet
  facet normal 0 1 -0
    outer loop
      vertex 20.4 86.5 5.5
      vertex 1 86.5 6
      vertex 29.6 86.5 5.5
    endloop
  endfacet
  facet normal 0 1 -0
    outer loop
      vertex 19.4 86.5 5.5
      vertex 1 86.5 6
      vertex 20.4 86.5 5.5
    endloop
  endfacet
  facet normal 0 1 -0
    outer loop
      vertex 10.2 86.5 5.5
      vertex 1 86.5 6
      vertex 19.4 86.5 5.5
    endloop
  endfacet
  facet normal 0 1 -0
    outer loop
      vertex 9.2 86.5 5.5
      vertex 1 86.5 6
      vertex 10.2 86.5 5.5
    endloop
  endfacet
  facet normal 0 1 0
    outer loop
      vertex 1 86.5 6
      vertex 9.2 86.5 5.5
      vertex 1 86.5 5.5
    endloop
  endfacet
endsolid OpenSCAD_Model
