solid OpenSCAD_Model
  facet normal -1 0 0
    outer loop
      vertex 0 112.2 0
      vertex 0 112.5 5.5
      vertex 0 112.5 0
    endloop
  endfacet
  facet normal -1 -0 0
    outer loop
      vertex 0 112.5 5.5
      vertex 0 112.2 0
      vertex 0 112.2 5.5
    endloop
  endfacet
  facet normal -1 0 0
    outer loop
      vertex 0 102 0
      vertex 0 111.2 5.5
      vertex 0 111.2 0
    endloop
  endfacet
  facet normal -1 -0 0
    outer loop
      vertex 0 111.2 5.5
      vertex 0 102 0
      vertex 0 102 5.5
    endloop
  endfacet
  facet normal -1 0 0
    outer loop
      vertex 0 91.8 0
      vertex 0 101 5.5
      vertex 0 101 0
    endloop
  endfacet
  facet normal -1 -0 0
    outer loop
      vertex 0 101 5.5
      vertex 0 91.8 0
      vertex 0 91.8 5.5
    endloop
  endfacet
  facet normal -1 0 0
    outer loop
      vertex 0 81.6 0
      vertex 0 90.8 5.5
      vertex 0 90.8 0
    endloop
  endfacet
  facet normal -1 -0 0
    outer loop
      vertex 0 90.8 5.5
      vertex 0 81.6 0
      vertex 0 81.6 5.5
    endloop
  endfacet
  facet normal -1 0 0
    outer loop
      vertex 0 71.4 0
      vertex 0 80.6 5.5
      vertex 0 80.6 0
    endloop
  endfacet
  facet normal -1 -0 0
    outer loop
      vertex 0 80.6 5.5
      vertex 0 71.4 0
      vertex 0 71.4 5.5
    endloop
  endfacet
  facet normal -1 0 0
    outer loop
      vertex 0 61.2 0
      vertex 0 70.4 5.5
      vertex 0 70.4 0
    endloop
  endfacet
  facet normal -1 -0 0
    outer loop
      vertex 0 70.4 5.5
      vertex 0 61.2 0
      vertex 0 61.2 5.5
    endloop
  endfacet
  facet normal -1 0 0
    outer loop
      vertex 0 51 0
      vertex 0 60.2 5.5
      vertex 0 60.2 0
    endloop
  endfacet
  facet normal -1 -0 0
    outer loop
      vertex 0 60.2 5.5
      vertex 0 51 0
      vertex 0 51 5.5
    endloop
  endfacet
  facet normal -1 0 0
    outer loop
      vertex 0 40.8 0
      vertex 0 50 5.5
      vertex 0 50 0
    endloop
  endfacet
  facet normal -1 -0 0
    outer loop
      vertex 0 50 5.5
      vertex 0 40.8 0
      vertex 0 40.8 5.5
    endloop
  endfacet
  facet normal -1 0 0
    outer loop
      vertex 0 30.6 0
      vertex 0 39.8 5.5
      vertex 0 39.8 0
    endloop
  endfacet
  facet normal -1 -0 0
    outer loop
      vertex 0 39.8 5.5
      vertex 0 30.6 0
      vertex 0 30.6 5.5
    endloop
  endfacet
  facet normal -1 0 0
    outer loop
      vertex 0 20.4 0
      vertex 0 29.6 5.5
      vertex 0 29.6 0
    endloop
  endfacet
  facet normal -1 -0 0
    outer loop
      vertex 0 29.6 5.5
      vertex 0 20.4 0
      vertex 0 20.4 5.5
    endloop
  endfacet
  facet normal -1 0 0
    outer loop
      vertex 0 10.2 0
      vertex 0 19.4 5.5
      vertex 0 19.4 0
    endloop
  endfacet
  facet normal -1 -0 0
    outer loop
      vertex 0 19.4 5.5
      vertex 0 10.2 0
      vertex 0 10.2 5.5
    endloop
  endfacet
  facet normal -1 0 0
    outer loop
      vertex 0 0 0
      vertex 0 9.2 5.5
      vertex 0 9.2 0
    endloop
  endfacet
  facet normal -1 -0 0
    outer loop
      vertex 0 9.2 5.5
      vertex 0 0 0
      vertex 0 0 5.5
    endloop
  endfacet
  facet normal 0 0 1
    outer loop
      vertex 1 9.2 5.5
      vertex 0 9.2 5.5
      vertex 1 1 5.5
    endloop
  endfacet
  facet normal -0 0 1
    outer loop
      vertex 1 1 5.5
      vertex 9.2 0 5.5
      vertex 9.2 1 5.5
    endloop
  endfacet
  facet normal 0 0 1
    outer loop
      vertex 1 1 5.5
      vertex 0 0 5.5
      vertex 9.2 0 5.5
    endloop
  endfacet
  facet normal 0 0 1
    outer loop
      vertex 0 0 5.5
      vertex 1 1 5.5
      vertex 0 9.2 5.5
    endloop
  endfacet
  facet normal 1 -0 0
    outer loop
      vertex 9.2 0 5.5
      vertex 9.2 1 0
      vertex 9.2 1 5.5
    endloop
  endfacet
  facet normal 1 0 0
    outer loop
      vertex 9.2 1 0
      vertex 9.2 0 5.5
      vertex 9.2 0 0
    endloop
  endfacet
  facet normal 0 1 -0
    outer loop
      vertex 1 9.2 0
      vertex 0 9.2 5.5
      vertex 1 9.2 5.5
    endloop
  endfacet
  facet normal 0 1 0
    outer loop
      vertex 0 9.2 5.5
      vertex 1 9.2 0
      vertex 0 9.2 0
    endloop
  endfacet
  facet normal 0 0 -1
    outer loop
      vertex 0 102 0
      vertex 1 111.2 0
      vertex 1 102 0
    endloop
  endfacet
  facet normal -0 0 -1
    outer loop
      vertex 1 111.2 0
      vertex 0 102 0
      vertex 0 111.2 0
    endloop
  endfacet
  facet normal 0 0 -1
    outer loop
      vertex 0 91.8 0
      vertex 1 101 0
      vertex 1 91.8 0
    endloop
  endfacet
  facet normal -0 0 -1
    outer loop
      vertex 1 101 0
      vertex 0 91.8 0
      vertex 0 101 0
    endloop
  endfacet
  facet normal 0 0 -1
    outer loop
      vertex 0 81.6 0
      vertex 1 90.8 0
      vertex 1 81.6 0
    endloop
  endfacet
  facet normal -0 0 -1
    outer loop
      vertex 1 90.8 0
      vertex 0 81.6 0
      vertex 0 90.8 0
    endloop
  endfacet
  facet normal 0 0 -1
    outer loop
      vertex 0 71.4 0
      vertex 1 80.6 0
      vertex 1 71.4 0
    endloop
  endfacet
  facet normal -0 0 -1
    outer loop
      vertex 1 80.6 0
      vertex 0 71.4 0
      vertex 0 80.6 0
    endloop
  endfacet
  facet normal 0 0 -1
    outer loop
      vertex 0 61.2 0
      vertex 1 70.4 0
      vertex 1 61.2 0
    endloop
  endfacet
  facet normal -0 0 -1
    outer loop
      vertex 1 70.4 0
      vertex 0 61.2 0
      vertex 0 70.4 0
    endloop
  endfacet
  facet normal 0 0 -1
    outer loop
      vertex 0 51 0
      vertex 1 60.2 0
      vertex 1 51 0
    endloop
  endfacet
  facet normal -0 0 -1
    outer loop
      vertex 1 60.2 0
      vertex 0 51 0
      vertex 0 60.2 0
    endloop
  endfacet
  facet normal 0 0 -1
    outer loop
      vertex 0 40.8 0
      vertex 1 50 0
      vertex 1 40.8 0
    endloop
  endfacet
  facet normal -0 0 -1
    outer loop
      vertex 1 50 0
      vertex 0 40.8 0
      vertex 0 50 0
    endloop
  endfacet
  facet normal 0 0 -1
    outer loop
      vertex 0 30.6 0
      vertex 1 39.8 0
      vertex 1 30.6 0
    endloop
  endfacet
  facet normal -0 0 -1
    outer loop
      vertex 1 39.8 0
      vertex 0 30.6 0
      vertex 0 39.8 0
    endloop
  endfacet
  facet normal 0 0 -1
    outer loop
      vertex 0 20.4 0
      vertex 1 29.6 0
      vertex 1 20.4 0
    endloop
  endfacet
  facet normal -0 0 -1
    outer loop
      vertex 1 29.6 0
      vertex 0 20.4 0
      vertex 0 29.6 0
    endloop
  endfacet
  facet normal 0 0 -1
    outer loop
      vertex 0 10.2 0
      vertex 1 19.4 0
      vertex 1 10.2 0
    endloop
  endfacet
  facet normal -0 0 -1
    outer loop
      vertex 1 19.4 0
      vertex 0 10.2 0
      vertex 0 19.4 0
    endloop
  endfacet
  facet normal 0 0 -1
    outer loop
      vertex 0 0 0
      vertex 9.2 1 0
      vertex 9.2 0 0
    endloop
  endfacet
  facet normal -0 0 -1
    outer loop
      vertex 9.2 1 0
      vertex 0 0 0
      vertex 1 9.2 0
    endloop
  endfacet
  facet normal -0 0 -1
    outer loop
      vertex 1 9.2 0
      vertex 0 0 0
      vertex 0 9.2 0
    endloop
  endfacet
  facet normal 0 0 -1
    outer loop
      vertex 19.4 0 0
      vertex 10.2 0 0
      vertex 19.4 1 0
    endloop
  endfacet
  facet normal 0 0 -1
    outer loop
      vertex 29.6 0 0
      vertex 20.4 0 0
      vertex 29.6 1 0
    endloop
  endfacet
  facet normal 0 0 -1
    outer loop
      vertex 39.8 0 0
      vertex 30.6 0 0
      vertex 39.8 1 0
    endloop
  endfacet
  facet normal 0 0 -1
    outer loop
      vertex 50 0 0
      vertex 40.8 0 0
      vertex 50 1 0
    endloop
  endfacet
  facet normal 0 0 -1
    outer loop
      vertex 60.2 0 0
      vertex 51 0 0
      vertex 60.2 1 0
    endloop
  endfacet
  facet normal 0 0 -1
    outer loop
      vertex 70.4 0 0
      vertex 61.2 0 0
      vertex 70.4 1 0
    endloop
  endfacet
  facet normal 0 0 -1
    outer loop
      vertex 80.6 0 0
      vertex 71.4 0 0
      vertex 80.6 1 0
    endloop
  endfacet
  facet normal 0 0 -1
    outer loop
      vertex 90.8 0 0
      vertex 81.6 0 0
      vertex 90.8 1 0
    endloop
  endfacet
  facet normal 0 0 -1
    outer loop
      vertex 101 0 0
      vertex 91.8 0 0
      vertex 101 1 0
    endloop
  endfacet
  facet normal 0 0 -1
    outer loop
      vertex 111.2 0 0
      vertex 102 0 0
      vertex 111.2 1 0
    endloop
  endfacet
  facet normal 0 0 -1
    outer loop
      vertex 111.2 1 0
      vertex 111.5 111.5 0
      vertex 111.5 1 0
    endloop
  endfacet
  facet normal 0 0 -1
    outer loop
      vertex 102 1 0
      vertex 111.2 1 0
      vertex 102 0 0
    endloop
  endfacet
  facet normal 0 0 -1
    outer loop
      vertex 111.2 1 0
      vertex 102 1 0
      vertex 111.5 111.5 0
    endloop
  endfacet
  facet normal 0 0 -1
    outer loop
      vertex 101 1 0
      vertex 111.5 111.5 0
      vertex 102 1 0
    endloop
  endfacet
  facet normal 0 0 -1
    outer loop
      vertex 91.8 1 0
      vertex 101 1 0
      vertex 91.8 0 0
    endloop
  endfacet
  facet normal 0 0 -1
    outer loop
      vertex 101 1 0
      vertex 91.8 1 0
      vertex 111.5 111.5 0
    endloop
  endfacet
  facet normal 0 0 -1
    outer loop
      vertex 90.8 1 0
      vertex 111.5 111.5 0
      vertex 91.8 1 0
    endloop
  endfacet
  facet normal 0 0 -1
    outer loop
      vertex 81.6 1 0
      vertex 90.8 1 0
      vertex 81.6 0 0
    endloop
  endfacet
  facet normal 0 0 -1
    outer loop
      vertex 90.8 1 0
      vertex 81.6 1 0
      vertex 111.5 111.5 0
    endloop
  endfacet
  facet normal 0 0 -1
    outer loop
      vertex 80.6 1 0
      vertex 111.5 111.5 0
      vertex 81.6 1 0
    endloop
  endfacet
  facet normal 0 0 -1
    outer loop
      vertex 71.4 1 0
      vertex 80.6 1 0
      vertex 71.4 0 0
    endloop
  endfacet
  facet normal 0 0 -1
    outer loop
      vertex 80.6 1 0
      vertex 71.4 1 0
      vertex 111.5 111.5 0
    endloop
  endfacet
  facet normal 0 0 -1
    outer loop
      vertex 70.4 1 0
      vertex 111.5 111.5 0
      vertex 71.4 1 0
    endloop
  endfacet
  facet normal 0 0 -1
    outer loop
      vertex 61.2 1 0
      vertex 70.4 1 0
      vertex 61.2 0 0
    endloop
  endfacet
  facet normal 0 0 -1
    outer loop
      vertex 70.4 1 0
      vertex 61.2 1 0
      vertex 111.5 111.5 0
    endloop
  endfacet
  facet normal 0 0 -1
    outer loop
      vertex 1 61.2 0
      vertex 61.2 1 0
      vertex 60.2 1 0
    endloop
  endfacet
  facet normal 0 0 -1
    outer loop
      vertex 51 1 0
      vertex 60.2 1 0
      vertex 51 0 0
    endloop
  endfacet
  facet normal 0 0 -1
    outer loop
      vertex 1 60.2 0
      vertex 60.2 1 0
      vertex 51 1 0
    endloop
  endfacet
  facet normal 0 0 -1
    outer loop
      vertex 1 51 0
      vertex 51 1 0
      vertex 50 1 0
    endloop
  endfacet
  facet normal 0 0 -1
    outer loop
      vertex 40.8 1 0
      vertex 50 1 0
      vertex 40.8 0 0
    endloop
  endfacet
  facet normal 0 0 -1
    outer loop
      vertex 1 50 0
      vertex 50 1 0
      vertex 40.8 1 0
    endloop
  endfacet
  facet normal 0 0 -1
    outer loop
      vertex 1 40.8 0
      vertex 40.8 1 0
      vertex 39.8 1 0
    endloop
  endfacet
  facet normal 0 0 -1
    outer loop
      vertex 30.6 1 0
      vertex 39.8 1 0
      vertex 30.6 0 0
    endloop
  endfacet
  facet normal 0 0 -1
    outer loop
      vertex 1 39.8 0
      vertex 39.8 1 0
      vertex 30.6 1 0
    endloop
  endfacet
  facet normal 0 0 -1
    outer loop
      vertex 1 30.6 0
      vertex 30.6 1 0
      vertex 29.6 1 0
    endloop
  endfacet
  facet normal 0 0 -1
    outer loop
      vertex 20.4 1 0
      vertex 29.6 1 0
      vertex 20.4 0 0
    endloop
  endfacet
  facet normal 0 0 -1
    outer loop
      vertex 1 29.6 0
      vertex 29.6 1 0
      vertex 20.4 1 0
    endloop
  endfacet
  facet normal 0 0 -1
    outer loop
      vertex 1 20.4 0
      vertex 20.4 1 0
      vertex 19.4 1 0
    endloop
  endfacet
  facet normal 0 0 -1
    outer loop
      vertex 10.2 1 0
      vertex 19.4 1 0
      vertex 10.2 0 0
    endloop
  endfacet
  facet normal 0 0 -1
    outer loop
      vertex 1 19.4 0
      vertex 19.4 1 0
      vertex 10.2 1 0
    endloop
  endfacet
  facet normal 0 0 -1
    outer loop
      vertex 1 10.2 0
      vertex 10.2 1 0
      vertex 9.2 1 0
    endloop
  endfacet
  facet normal 0 0 -1
    outer loop
      vertex 1 10.2 0
      vertex 9.2 1 0
      vertex 1 9.2 0
    endloop
  endfacet
  facet normal 0 0 -1
    outer loop
      vertex 10.2 1 0
      vertex 1 10.2 0
      vertex 1 19.4 0
    endloop
  endfacet
  facet normal 0 0 -1
    outer loop
      vertex 19.4 1 0
      vertex 1 19.4 0
      vertex 1 20.4 0
    endloop
  endfacet
  facet normal 0 0 -1
    outer loop
      vertex 20.4 1 0
      vertex 1 20.4 0
      vertex 1 29.6 0
    endloop
  endfacet
  facet normal 0 0 -1
    outer loop
      vertex 29.6 1 0
      vertex 1 29.6 0
      vertex 1 30.6 0
    endloop
  endfacet
  facet normal 0 0 -1
    outer loop
      vertex 30.6 1 0
      vertex 1 30.6 0
      vertex 1 39.8 0
    endloop
  endfacet
  facet normal 0 0 -1
    outer loop
      vertex 39.8 1 0
      vertex 1 39.8 0
      vertex 1 40.8 0
    endloop
  endfacet
  facet normal 0 0 -1
    outer loop
      vertex 40.8 1 0
      vertex 1 40.8 0
      vertex 1 50 0
    endloop
  endfacet
  facet normal 0 0 -1
    outer loop
      vertex 50 1 0
      vertex 1 50 0
      vertex 1 51 0
    endloop
  endfacet
  facet normal 0 0 -1
    outer loop
      vertex 51 1 0
      vertex 1 51 0
      vertex 1 60.2 0
    endloop
  endfacet
  facet normal 0 0 -1
    outer loop
      vertex 60.2 1 0
      vertex 1 60.2 0
      vertex 1 61.2 0
    endloop
  endfacet
  facet normal 0 0 -1
    outer loop
      vertex 61.2 1 0
      vertex 1 61.2 0
      vertex 111.5 111.5 0
    endloop
  endfacet
  facet normal 0 0 -1
    outer loop
      vertex 1 70.4 0
      vertex 111.5 111.5 0
      vertex 1 61.2 0
    endloop
  endfacet
  facet normal 0 0 -1
    outer loop
      vertex 1 71.4 0
      vertex 111.5 111.5 0
      vertex 1 70.4 0
    endloop
  endfacet
  facet normal 0 0 -1
    outer loop
      vertex 1 80.6 0
      vertex 111.5 111.5 0
      vertex 1 71.4 0
    endloop
  endfacet
  facet normal 0 0 -1
    outer loop
      vertex 1 81.6 0
      vertex 111.5 111.5 0
      vertex 1 80.6 0
    endloop
  endfacet
  facet normal 0 0 -1
    outer loop
      vertex 1 90.8 0
      vertex 111.5 111.5 0
      vertex 1 81.6 0
    endloop
  endfacet
  facet normal 0 0 -1
    outer loop
      vertex 1 91.8 0
      vertex 111.5 111.5 0
      vertex 1 90.8 0
    endloop
  endfacet
  facet normal 0 0 -1
    outer loop
      vertex 1 101 0
      vertex 111.5 111.5 0
      vertex 1 91.8 0
    endloop
  endfacet
  facet normal 0 0 -1
    outer loop
      vertex 1 102 0
      vertex 111.5 111.5 0
      vertex 1 101 0
    endloop
  endfacet
  facet normal 0 0 -1
    outer loop
      vertex 1 111.2 0
      vertex 111.5 111.5 0
      vertex 1 102 0
    endloop
  endfacet
  facet normal -0 0 -1
    outer loop
      vertex 111.5 111.5 0
      vertex 1 111.2 0
      vertex 1 111.5 0
    endloop
  endfacet
  facet normal 0 0 -1
    outer loop
      vertex 112.2 112.2 0
      vertex 112.5 112.5 0
      vertex 112.5 112.2 0
    endloop
  endfacet
  facet normal -0 0 -1
    outer loop
      vertex 112.5 112.5 0
      vertex 112.2 112.2 0
      vertex 112.2 112.5 0
    endloop
  endfacet
  facet normal 0 0 -1
    outer loop
      vertex 112.2 102 0
      vertex 112.5 111.2 0
      vertex 112.5 102 0
    endloop
  endfacet
  facet normal -0 0 -1
    outer loop
      vertex 112.5 111.2 0
      vertex 112.2 102 0
      vertex 112.2 111.2 0
    endloop
  endfacet
  facet normal 0 0 -1
    outer loop
      vertex 112.2 91.8 0
      vertex 112.5 101 0
      vertex 112.5 91.8 0
    endloop
  endfacet
  facet normal -0 0 -1
    outer loop
      vertex 112.5 101 0
      vertex 112.2 91.8 0
      vertex 112.2 101 0
    endloop
  endfacet
  facet normal 0 0 -1
    outer loop
      vertex 112.2 81.6 0
      vertex 112.5 90.8 0
      vertex 112.5 81.6 0
    endloop
  endfacet
  facet normal -0 0 -1
    outer loop
      vertex 112.5 90.8 0
      vertex 112.2 81.6 0
      vertex 112.2 90.8 0
    endloop
  endfacet
  facet normal 0 0 -1
    outer loop
      vertex 112.2 71.4 0
      vertex 112.5 80.6 0
      vertex 112.5 71.4 0
    endloop
  endfacet
  facet normal -0 0 -1
    outer loop
      vertex 112.5 80.6 0
      vertex 112.2 71.4 0
      vertex 112.2 80.6 0
    endloop
  endfacet
  facet normal 0 0 -1
    outer loop
      vertex 112.2 61.2 0
      vertex 112.5 70.4 0
      vertex 112.5 61.2 0
    endloop
  endfacet
  facet normal -0 0 -1
    outer loop
      vertex 112.5 70.4 0
      vertex 112.2 61.2 0
      vertex 112.2 70.4 0
    endloop
  endfacet
  facet normal 0 0 -1
    outer loop
      vertex 112.2 51 0
      vertex 112.5 60.2 0
      vertex 112.5 51 0
    endloop
  endfacet
  facet normal -0 0 -1
    outer loop
      vertex 112.5 60.2 0
      vertex 112.2 51 0
      vertex 112.2 60.2 0
    endloop
  endfacet
  facet normal 0 0 -1
    outer loop
      vertex 112.2 40.8 0
      vertex 112.5 50 0
      vertex 112.5 40.8 0
    endloop
  endfacet
  facet normal -0 0 -1
    outer loop
      vertex 112.5 50 0
      vertex 112.2 40.8 0
      vertex 112.2 50 0
    endloop
  endfacet
  facet normal 0 0 -1
    outer loop
      vertex 112.2 30.6 0
      vertex 112.5 39.8 0
      vertex 112.5 30.6 0
    endloop
  endfacet
  facet normal -0 0 -1
    outer loop
      vertex 112.5 39.8 0
      vertex 112.2 30.6 0
      vertex 112.2 39.8 0
    endloop
  endfacet
  facet normal 0 0 -1
    outer loop
      vertex 112.2 20.4 0
      vertex 112.5 29.6 0
      vertex 112.5 20.4 0
    endloop
  endfacet
  facet normal -0 0 -1
    outer loop
      vertex 112.5 29.6 0
      vertex 112.2 20.4 0
      vertex 112.2 29.6 0
    endloop
  endfacet
  facet normal 0 0 -1
    outer loop
      vertex 112.2 10.2 0
      vertex 112.5 19.4 0
      vertex 112.5 10.2 0
    endloop
  endfacet
  facet normal -0 0 -1
    outer loop
      vertex 112.5 19.4 0
      vertex 112.2 10.2 0
      vertex 112.2 19.4 0
    endloop
  endfacet
  facet normal 0 0 -1
    outer loop
      vertex 112.2 0 0
      vertex 112.5 9.2 0
      vertex 112.5 0 0
    endloop
  endfacet
  facet normal -0 0 -1
    outer loop
      vertex 112.5 9.2 0
      vertex 112.2 0 0
      vertex 112.2 9.2 0
    endloop
  endfacet
  facet normal 0 0 -1
    outer loop
      vertex 102 112.2 0
      vertex 111.2 112.5 0
      vertex 111.2 112.2 0
    endloop
  endfacet
  facet normal -0 0 -1
    outer loop
      vertex 111.2 112.5 0
      vertex 102 112.2 0
      vertex 102 112.5 0
    endloop
  endfacet
  facet normal 0 0 -1
    outer loop
      vertex 91.8 112.2 0
      vertex 101 112.5 0
      vertex 101 112.2 0
    endloop
  endfacet
  facet normal -0 0 -1
    outer loop
      vertex 101 112.5 0
      vertex 91.8 112.2 0
      vertex 91.8 112.5 0
    endloop
  endfacet
  facet normal 0 0 -1
    outer loop
      vertex 81.6 112.2 0
      vertex 90.8 112.5 0
      vertex 90.8 112.2 0
    endloop
  endfacet
  facet normal -0 0 -1
    outer loop
      vertex 90.8 112.5 0
      vertex 81.6 112.2 0
      vertex 81.6 112.5 0
    endloop
  endfacet
  facet normal 0 0 -1
    outer loop
      vertex 71.4 112.2 0
      vertex 80.6 112.5 0
      vertex 80.6 112.2 0
    endloop
  endfacet
  facet normal -0 0 -1
    outer loop
      vertex 80.6 112.5 0
      vertex 71.4 112.2 0
      vertex 71.4 112.5 0
    endloop
  endfacet
  facet normal 0 0 -1
    outer loop
      vertex 61.2 112.2 0
      vertex 70.4 112.5 0
      vertex 70.4 112.2 0
    endloop
  endfacet
  facet normal -0 0 -1
    outer loop
      vertex 70.4 112.5 0
      vertex 61.2 112.2 0
      vertex 61.2 112.5 0
    endloop
  endfacet
  facet normal 0 0 -1
    outer loop
      vertex 51 112.2 0
      vertex 60.2 112.5 0
      vertex 60.2 112.2 0
    endloop
  endfacet
  facet normal -0 0 -1
    outer loop
      vertex 60.2 112.5 0
      vertex 51 112.2 0
      vertex 51 112.5 0
    endloop
  endfacet
  facet normal 0 0 -1
    outer loop
      vertex 40.8 112.2 0
      vertex 50 112.5 0
      vertex 50 112.2 0
    endloop
  endfacet
  facet normal -0 0 -1
    outer loop
      vertex 50 112.5 0
      vertex 40.8 112.2 0
      vertex 40.8 112.5 0
    endloop
  endfacet
  facet normal 0 0 -1
    outer loop
      vertex 30.6 112.2 0
      vertex 39.8 112.5 0
      vertex 39.8 112.2 0
    endloop
  endfacet
  facet normal -0 0 -1
    outer loop
      vertex 39.8 112.5 0
      vertex 30.6 112.2 0
      vertex 30.6 112.5 0
    endloop
  endfacet
  facet normal 0 0 -1
    outer loop
      vertex 20.4 112.2 0
      vertex 29.6 112.5 0
      vertex 29.6 112.2 0
    endloop
  endfacet
  facet normal -0 0 -1
    outer loop
      vertex 29.6 112.5 0
      vertex 20.4 112.2 0
      vertex 20.4 112.5 0
    endloop
  endfacet
  facet normal 0 0 -1
    outer loop
      vertex 10.2 112.2 0
      vertex 19.4 112.5 0
      vertex 19.4 112.2 0
    endloop
  endfacet
  facet normal -0 0 -1
    outer loop
      vertex 19.4 112.5 0
      vertex 10.2 112.2 0
      vertex 10.2 112.5 0
    endloop
  endfacet
  facet normal 0 0 -1
    outer loop
      vertex 0 112.2 0
      vertex 9.2 112.5 0
      vertex 9.2 112.2 0
    endloop
  endfacet
  facet normal -0 0 -1
    outer loop
      vertex 9.2 112.5 0
      vertex 0 112.2 0
      vertex 0 112.5 0
    endloop
  endfacet
  facet normal 0 -1 0
    outer loop
      vertex 112.2 0 0
      vertex 112.5 0 5.5
      vertex 112.2 0 5.5
    endloop
  endfacet
  facet normal 0 -1 -0
    outer loop
      vertex 112.5 0 5.5
      vertex 112.2 0 0
      vertex 112.5 0 0
    endloop
  endfacet
  facet normal 0 -1 0
    outer loop
      vertex 102 0 0
      vertex 111.2 0 5.5
      vertex 102 0 5.5
    endloop
  endfacet
  facet normal 0 -1 -0
    outer loop
      vertex 111.2 0 5.5
      vertex 102 0 0
      vertex 111.2 0 0
    endloop
  endfacet
  facet normal 0 -1 0
    outer loop
      vertex 91.8 0 0
      vertex 101 0 5.5
      vertex 91.8 0 5.5
    endloop
  endfacet
  facet normal 0 -1 -0
    outer loop
      vertex 101 0 5.5
      vertex 91.8 0 0
      vertex 101 0 0
    endloop
  endfacet
  facet normal 0 -1 0
    outer loop
      vertex 81.6 0 0
      vertex 90.8 0 5.5
      vertex 81.6 0 5.5
    endloop
  endfacet
  facet normal 0 -1 -0
    outer loop
      vertex 90.8 0 5.5
      vertex 81.6 0 0
      vertex 90.8 0 0
    endloop
  endfacet
  facet normal 0 -1 0
    outer loop
      vertex 71.4 0 0
      vertex 80.6 0 5.5
      vertex 71.4 0 5.5
    endloop
  endfacet
  facet normal 0 -1 -0
    outer loop
      vertex 80.6 0 5.5
      vertex 71.4 0 0
      vertex 80.6 0 0
    endloop
  endfacet
  facet normal 0 -1 0
    outer loop
      vertex 61.2 0 0
      vertex 70.4 0 5.5
      vertex 61.2 0 5.5
    endloop
  endfacet
  facet normal 0 -1 -0
    outer loop
      vertex 70.4 0 5.5
      vertex 61.2 0 0
      vertex 70.4 0 0
    endloop
  endfacet
  facet normal 0 -1 0
    outer loop
      vertex 51 0 0
      vertex 60.2 0 5.5
      vertex 51 0 5.5
    endloop
  endfacet
  facet normal 0 -1 -0
    outer loop
      vertex 60.2 0 5.5
      vertex 51 0 0
      vertex 60.2 0 0
    endloop
  endfacet
  facet normal 0 -1 0
    outer loop
      vertex 40.8 0 0
      vertex 50 0 5.5
      vertex 40.8 0 5.5
    endloop
  endfacet
  facet normal 0 -1 -0
    outer loop
      vertex 50 0 5.5
      vertex 40.8 0 0
      vertex 50 0 0
    endloop
  endfacet
  facet normal 0 -1 0
    outer loop
      vertex 30.6 0 0
      vertex 39.8 0 5.5
      vertex 30.6 0 5.5
    endloop
  endfacet
  facet normal 0 -1 -0
    outer loop
      vertex 39.8 0 5.5
      vertex 30.6 0 0
      vertex 39.8 0 0
    endloop
  endfacet
  facet normal 0 -1 0
    outer loop
      vertex 20.4 0 0
      vertex 29.6 0 5.5
      vertex 20.4 0 5.5
    endloop
  endfacet
  facet normal 0 -1 -0
    outer loop
      vertex 29.6 0 5.5
      vertex 20.4 0 0
      vertex 29.6 0 0
    endloop
  endfacet
  facet normal 0 -1 0
    outer loop
      vertex 10.2 0 0
      vertex 19.4 0 5.5
      vertex 10.2 0 5.5
    endloop
  endfacet
  facet normal 0 -1 -0
    outer loop
      vertex 19.4 0 5.5
      vertex 10.2 0 0
      vertex 19.4 0 0
    endloop
  endfacet
  facet normal 0 -1 0
    outer loop
      vertex 0 0 0
      vertex 9.2 0 5.5
      vertex 0 0 5.5
    endloop
  endfacet
  facet normal 0 -1 -0
    outer loop
      vertex 9.2 0 5.5
      vertex 0 0 0
      vertex 9.2 0 0
    endloop
  endfacet
  facet normal -0 0 1
    outer loop
      vertex 0 19.4 5.5
      vertex 1 10.2 5.5
      vertex 1 19.4 5.5
    endloop
  endfacet
  facet normal 0 0 1
    outer loop
      vertex 1 10.2 5.5
      vertex 0 19.4 5.5
      vertex 0 10.2 5.5
    endloop
  endfacet
  facet normal 0 -1 0
    outer loop
      vertex 0 10.2 0
      vertex 1 10.2 5.5
      vertex 0 10.2 5.5
    endloop
  endfacet
  facet normal 0 -1 -0
    outer loop
      vertex 1 10.2 5.5
      vertex 0 10.2 0
      vertex 1 10.2 0
    endloop
  endfacet
  facet normal 0 1 -0
    outer loop
      vertex 1 19.4 0
      vertex 0 19.4 5.5
      vertex 1 19.4 5.5
    endloop
  endfacet
  facet normal 0 1 0
    outer loop
      vertex 0 19.4 5.5
      vertex 1 19.4 0
      vertex 0 19.4 0
    endloop
  endfacet
  facet normal -0 0 1
    outer loop
      vertex 0 29.6 5.5
      vertex 1 20.4 5.5
      vertex 1 29.6 5.5
    endloop
  endfacet
  facet normal 0 0 1
    outer loop
      vertex 1 20.4 5.5
      vertex 0 29.6 5.5
      vertex 0 20.4 5.5
    endloop
  endfacet
  facet normal 0 1 -0
    outer loop
      vertex 1 29.6 0
      vertex 0 29.6 5.5
      vertex 1 29.6 5.5
    endloop
  endfacet
  facet normal 0 1 0
    outer loop
      vertex 0 29.6 5.5
      vertex 1 29.6 0
      vertex 0 29.6 0
    endloop
  endfacet
  facet normal 0 -1 0
    outer loop
      vertex 0 20.4 0
      vertex 1 20.4 5.5
      vertex 0 20.4 5.5
    endloop
  endfacet
  facet normal 0 -1 -0
    outer loop
      vertex 1 20.4 5.5
      vertex 0 20.4 0
      vertex 1 20.4 0
    endloop
  endfacet
  facet normal -0 0 1
    outer loop
      vertex 0 39.8 5.5
      vertex 1 30.6 5.5
      vertex 1 39.8 5.5
    endloop
  endfacet
  facet normal 0 0 1
    outer loop
      vertex 1 30.6 5.5
      vertex 0 39.8 5.5
      vertex 0 30.6 5.5
    endloop
  endfacet
  facet normal 0 -1 0
    outer loop
      vertex 0 30.6 0
      vertex 1 30.6 5.5
      vertex 0 30.6 5.5
    endloop
  endfacet
  facet normal 0 -1 -0
    outer loop
      vertex 1 30.6 5.5
      vertex 0 30.6 0
      vertex 1 30.6 0
    endloop
  endfacet
  facet normal 0 1 -0
    outer loop
      vertex 1 39.8 0
      vertex 0 39.8 5.5
      vertex 1 39.8 5.5
    endloop
  endfacet
  facet normal 0 1 0
    outer loop
      vertex 0 39.8 5.5
      vertex 1 39.8 0
      vertex 0 39.8 0
    endloop
  endfacet
  facet normal -0 0 1
    outer loop
      vertex 0 50 5.5
      vertex 1 40.8 5.5
      vertex 1 50 5.5
    endloop
  endfacet
  facet normal 0 0 1
    outer loop
      vertex 1 40.8 5.5
      vertex 0 50 5.5
      vertex 0 40.8 5.5
    endloop
  endfacet
  facet normal 0 -1 0
    outer loop
      vertex 0 40.8 0
      vertex 1 40.8 5.5
      vertex 0 40.8 5.5
    endloop
  endfacet
  facet normal 0 -1 -0
    outer loop
      vertex 1 40.8 5.5
      vertex 0 40.8 0
      vertex 1 40.8 0
    endloop
  endfacet
  facet normal 0 1 -0
    outer loop
      vertex 1 50 0
      vertex 0 50 5.5
      vertex 1 50 5.5
    endloop
  endfacet
  facet normal 0 1 0
    outer loop
      vertex 0 50 5.5
      vertex 1 50 0
      vertex 0 50 0
    endloop
  endfacet
  facet normal -0 0 1
    outer loop
      vertex 0 60.2 5.5
      vertex 1 51 5.5
      vertex 1 60.2 5.5
    endloop
  endfacet
  facet normal 0 0 1
    outer loop
      vertex 1 51 5.5
      vertex 0 60.2 5.5
      vertex 0 51 5.5
    endloop
  endfacet
  facet normal 0 -1 0
    outer loop
      vertex 0 51 0
      vertex 1 51 5.5
      vertex 0 51 5.5
    endloop
  endfacet
  facet normal 0 -1 -0
    outer loop
      vertex 1 51 5.5
      vertex 0 51 0
      vertex 1 51 0
    endloop
  endfacet
  facet normal 0 1 -0
    outer loop
      vertex 1 60.2 0
      vertex 0 60.2 5.5
      vertex 1 60.2 5.5
    endloop
  endfacet
  facet normal 0 1 0
    outer loop
      vertex 0 60.2 5.5
      vertex 1 60.2 0
      vertex 0 60.2 0
    endloop
  endfacet
  facet normal -0 0 1
    outer loop
      vertex 0 70.4 5.5
      vertex 1 61.2 5.5
      vertex 1 70.4 5.5
    endloop
  endfacet
  facet normal 0 0 1
    outer loop
      vertex 1 61.2 5.5
      vertex 0 70.4 5.5
      vertex 0 61.2 5.5
    endloop
  endfacet
  facet normal 0 -1 0
    outer loop
      vertex 0 61.2 0
      vertex 1 61.2 5.5
      vertex 0 61.2 5.5
    endloop
  endfacet
  facet normal 0 -1 -0
    outer loop
      vertex 1 61.2 5.5
      vertex 0 61.2 0
      vertex 1 61.2 0
    endloop
  endfacet
  facet normal 0 1 -0
    outer loop
      vertex 1 70.4 0
      vertex 0 70.4 5.5
      vertex 1 70.4 5.5
    endloop
  endfacet
  facet normal 0 1 0
    outer loop
      vertex 0 70.4 5.5
      vertex 1 70.4 0
      vertex 0 70.4 0
    endloop
  endfacet
  facet normal -0 0 1
    outer loop
      vertex 0 80.6 5.5
      vertex 1 71.4 5.5
      vertex 1 80.6 5.5
    endloop
  endfacet
  facet normal 0 0 1
    outer loop
      vertex 1 71.4 5.5
      vertex 0 80.6 5.5
      vertex 0 71.4 5.5
    endloop
  endfacet
  facet normal 0 1 -0
    outer loop
      vertex 1 80.6 0
      vertex 0 80.6 5.5
      vertex 1 80.6 5.5
    endloop
  endfacet
  facet normal 0 1 0
    outer loop
      vertex 0 80.6 5.5
      vertex 1 80.6 0
      vertex 0 80.6 0
    endloop
  endfacet
  facet normal 0 -1 0
    outer loop
      vertex 0 71.4 0
      vertex 1 71.4 5.5
      vertex 0 71.4 5.5
    endloop
  endfacet
  facet normal 0 -1 -0
    outer loop
      vertex 1 71.4 5.5
      vertex 0 71.4 0
      vertex 1 71.4 0
    endloop
  endfacet
  facet normal -0 0 1
    outer loop
      vertex 0 90.8 5.5
      vertex 1 81.6 5.5
      vertex 1 90.8 5.5
    endloop
  endfacet
  facet normal 0 0 1
    outer loop
      vertex 1 81.6 5.5
      vertex 0 90.8 5.5
      vertex 0 81.6 5.5
    endloop
  endfacet
  facet normal 0 1 -0
    outer loop
      vertex 1 90.8 0
      vertex 0 90.8 5.5
      vertex 1 90.8 5.5
    endloop
  endfacet
  facet normal 0 1 0
    outer loop
      vertex 0 90.8 5.5
      vertex 1 90.8 0
      vertex 0 90.8 0
    endloop
  endfacet
  facet normal 0 -1 0
    outer loop
      vertex 0 81.6 0
      vertex 1 81.6 5.5
      vertex 0 81.6 5.5
    endloop
  endfacet
  facet normal 0 -1 -0
    outer loop
      vertex 1 81.6 5.5
      vertex 0 81.6 0
      vertex 1 81.6 0
    endloop
  endfacet
  facet normal -0 0 1
    outer loop
      vertex 0 101 5.5
      vertex 1 91.8 5.5
      vertex 1 101 5.5
    endloop
  endfacet
  facet normal 0 0 1
    outer loop
      vertex 1 91.8 5.5
      vertex 0 101 5.5
      vertex 0 91.8 5.5
    endloop
  endfacet
  facet normal 0 1 -0
    outer loop
      vertex 1 101 0
      vertex 0 101 5.5
      vertex 1 101 5.5
    endloop
  endfacet
  facet normal 0 1 0
    outer loop
      vertex 0 101 5.5
      vertex 1 101 0
      vertex 0 101 0
    endloop
  endfacet
  facet normal 0 -1 0
    outer loop
      vertex 0 91.8 0
      vertex 1 91.8 5.5
      vertex 0 91.8 5.5
    endloop
  endfacet
  facet normal 0 -1 -0
    outer loop
      vertex 1 91.8 5.5
      vertex 0 91.8 0
      vertex 1 91.8 0
    endloop
  endfacet
  facet normal -0 0 1
    outer loop
      vertex 0 111.2 5.5
      vertex 1 102 5.5
      vertex 1 111.2 5.5
    endloop
  endfacet
  facet normal 0 0 1
    outer loop
      vertex 1 102 5.5
      vertex 0 111.2 5.5
      vertex 0 102 5.5
    endloop
  endfacet
  facet normal 0 -1 0
    outer loop
      vertex 0 102 0
      vertex 1 102 5.5
      vertex 0 102 5.5
    endloop
  endfacet
  facet normal 0 -1 -0
    outer loop
      vertex 1 102 5.5
      vertex 0 102 0
      vertex 1 102 0
    endloop
  endfacet
  facet normal 0 1 -0
    outer loop
      vertex 1 111.2 0
      vertex 0 111.2 5.5
      vertex 1 111.2 5.5
    endloop
  endfacet
  facet normal 0 1 0
    outer loop
      vertex 0 111.2 5.5
      vertex 1 111.2 0
      vertex 0 111.2 0
    endloop
  endfacet
  facet normal -0 0 1
    outer loop
      vertex 0 112.5 5.5
      vertex 9.2 112.2 5.5
      vertex 9.2 112.5 5.5
    endloop
  endfacet
  facet normal 0 0 1
    outer loop
      vertex 9.2 112.2 5.5
      vertex 0 112.5 5.5
      vertex 0 112.2 5.5
    endloop
  endfacet
  facet normal 1 -0 0
    outer loop
      vertex 9.2 112.2 5.5
      vertex 9.2 112.5 0
      vertex 9.2 112.5 5.5
    endloop
  endfacet
  facet normal 1 0 0
    outer loop
      vertex 9.2 112.5 0
      vertex 9.2 112.2 5.5
      vertex 9.2 112.2 0
    endloop
  endfacet
  facet normal 0 -1 0
    outer loop
      vertex 0 112.2 0
      vertex 9.2 112.2 5.5
      vertex 0 112.2 5.5
    endloop
  endfacet
  facet normal 0 -1 -0
    outer loop
      vertex 9.2 112.2 5.5
      vertex 0 112.2 0
      vertex 9.2 112.2 0
    endloop
  endfacet
  facet normal -1 0 0
    outer loop
      vertex 10.2 0 0
      vertex 10.2 1 5.5
      vertex 10.2 1 0
    endloop
  endfacet
  facet normal -1 -0 0
    outer loop
      vertex 10.2 1 5.5
      vertex 10.2 0 0
      vertex 10.2 0 5.5
    endloop
  endfacet
  facet normal -0 0 1
    outer loop
      vertex 10.2 1 5.5
      vertex 19.4 0 5.5
      vertex 19.4 1 5.5
    endloop
  endfacet
  facet normal 0 0 1
    outer loop
      vertex 19.4 0 5.5
      vertex 10.2 1 5.5
      vertex 10.2 0 5.5
    endloop
  endfacet
  facet normal 1 -0 0
    outer loop
      vertex 19.4 0 5.5
      vertex 19.4 1 0
      vertex 19.4 1 5.5
    endloop
  endfacet
  facet normal 1 0 0
    outer loop
      vertex 19.4 1 0
      vertex 19.4 0 5.5
      vertex 19.4 0 0
    endloop
  endfacet
  facet normal -1 0 0
    outer loop
      vertex 10.2 112.2 0
      vertex 10.2 112.5 5.5
      vertex 10.2 112.5 0
    endloop
  endfacet
  facet normal -1 -0 0
    outer loop
      vertex 10.2 112.5 5.5
      vertex 10.2 112.2 0
      vertex 10.2 112.2 5.5
    endloop
  endfacet
  facet normal -0 0 1
    outer loop
      vertex 10.2 112.5 5.5
      vertex 19.4 112.2 5.5
      vertex 19.4 112.5 5.5
    endloop
  endfacet
  facet normal 0 0 1
    outer loop
      vertex 19.4 112.2 5.5
      vertex 10.2 112.5 5.5
      vertex 10.2 112.2 5.5
    endloop
  endfacet
  facet normal 1 -0 0
    outer loop
      vertex 19.4 112.2 5.5
      vertex 19.4 112.5 0
      vertex 19.4 112.5 5.5
    endloop
  endfacet
  facet normal 1 0 0
    outer loop
      vertex 19.4 112.5 0
      vertex 19.4 112.2 5.5
      vertex 19.4 112.2 0
    endloop
  endfacet
  facet normal 0 -1 0
    outer loop
      vertex 10.2 112.2 0
      vertex 19.4 112.2 5.5
      vertex 10.2 112.2 5.5
    endloop
  endfacet
  facet normal 0 -1 -0
    outer loop
      vertex 19.4 112.2 5.5
      vertex 10.2 112.2 0
      vertex 19.4 112.2 0
    endloop
  endfacet
  facet normal -1 0 0
    outer loop
      vertex 20.4 0 0
      vertex 20.4 1 5.5
      vertex 20.4 1 0
    endloop
  endfacet
  facet normal -1 -0 0
    outer loop
      vertex 20.4 1 5.5
      vertex 20.4 0 0
      vertex 20.4 0 5.5
    endloop
  endfacet
  facet normal -0 0 1
    outer loop
      vertex 20.4 1 5.5
      vertex 29.6 0 5.5
      vertex 29.6 1 5.5
    endloop
  endfacet
  facet normal 0 0 1
    outer loop
      vertex 29.6 0 5.5
      vertex 20.4 1 5.5
      vertex 20.4 0 5.5
    endloop
  endfacet
  facet normal 1 -0 0
    outer loop
      vertex 29.6 0 5.5
      vertex 29.6 1 0
      vertex 29.6 1 5.5
    endloop
  endfacet
  facet normal 1 0 0
    outer loop
      vertex 29.6 1 0
      vertex 29.6 0 5.5
      vertex 29.6 0 0
    endloop
  endfacet
  facet normal -1 0 0
    outer loop
      vertex 20.4 112.2 0
      vertex 20.4 112.5 5.5
      vertex 20.4 112.5 0
    endloop
  endfacet
  facet normal -1 -0 0
    outer loop
      vertex 20.4 112.5 5.5
      vertex 20.4 112.2 0
      vertex 20.4 112.2 5.5
    endloop
  endfacet
  facet normal -0 0 1
    outer loop
      vertex 20.4 112.5 5.5
      vertex 29.6 112.2 5.5
      vertex 29.6 112.5 5.5
    endloop
  endfacet
  facet normal 0 0 1
    outer loop
      vertex 29.6 112.2 5.5
      vertex 20.4 112.5 5.5
      vertex 20.4 112.2 5.5
    endloop
  endfacet
  facet normal 1 -0 0
    outer loop
      vertex 29.6 112.2 5.5
      vertex 29.6 112.5 0
      vertex 29.6 112.5 5.5
    endloop
  endfacet
  facet normal 1 0 0
    outer loop
      vertex 29.6 112.5 0
      vertex 29.6 112.2 5.5
      vertex 29.6 112.2 0
    endloop
  endfacet
  facet normal 0 -1 0
    outer loop
      vertex 20.4 112.2 0
      vertex 29.6 112.2 5.5
      vertex 20.4 112.2 5.5
    endloop
  endfacet
  facet normal 0 -1 -0
    outer loop
      vertex 29.6 112.2 5.5
      vertex 20.4 112.2 0
      vertex 29.6 112.2 0
    endloop
  endfacet
  facet normal -1 0 0
    outer loop
      vertex 30.6 0 0
      vertex 30.6 1 5.5
      vertex 30.6 1 0
    endloop
  endfacet
  facet normal -1 -0 0
    outer loop
      vertex 30.6 1 5.5
      vertex 30.6 0 0
      vertex 30.6 0 5.5
    endloop
  endfacet
  facet normal -0 0 1
    outer loop
      vertex 30.6 1 5.5
      vertex 39.8 0 5.5
      vertex 39.8 1 5.5
    endloop
  endfacet
  facet normal 0 0 1
    outer loop
      vertex 39.8 0 5.5
      vertex 30.6 1 5.5
      vertex 30.6 0 5.5
    endloop
  endfacet
  facet normal 1 -0 0
    outer loop
      vertex 39.8 0 5.5
      vertex 39.8 1 0
      vertex 39.8 1 5.5
    endloop
  endfacet
  facet normal 1 0 0
    outer loop
      vertex 39.8 1 0
      vertex 39.8 0 5.5
      vertex 39.8 0 0
    endloop
  endfacet
  facet normal -1 0 0
    outer loop
      vertex 30.6 112.2 0
      vertex 30.6 112.5 5.5
      vertex 30.6 112.5 0
    endloop
  endfacet
  facet normal -1 -0 0
    outer loop
      vertex 30.6 112.5 5.5
      vertex 30.6 112.2 0
      vertex 30.6 112.2 5.5
    endloop
  endfacet
  facet normal -0 0 1
    outer loop
      vertex 30.6 112.5 5.5
      vertex 39.8 112.2 5.5
      vertex 39.8 112.5 5.5
    endloop
  endfacet
  facet normal 0 0 1
    outer loop
      vertex 39.8 112.2 5.5
      vertex 30.6 112.5 5.5
      vertex 30.6 112.2 5.5
    endloop
  endfacet
  facet normal 1 -0 0
    outer loop
      vertex 39.8 112.2 5.5
      vertex 39.8 112.5 0
      vertex 39.8 112.5 5.5
    endloop
  endfacet
  facet normal 1 0 0
    outer loop
      vertex 39.8 112.5 0
      vertex 39.8 112.2 5.5
      vertex 39.8 112.2 0
    endloop
  endfacet
  facet normal 0 -1 0
    outer loop
      vertex 30.6 112.2 0
      vertex 39.8 112.2 5.5
      vertex 30.6 112.2 5.5
    endloop
  endfacet
  facet normal 0 -1 -0
    outer loop
      vertex 39.8 112.2 5.5
      vertex 30.6 112.2 0
      vertex 39.8 112.2 0
    endloop
  endfacet
  facet normal -1 0 0
    outer loop
      vertex 40.8 0 0
      vertex 40.8 1 5.5
      vertex 40.8 1 0
    endloop
  endfacet
  facet normal -1 -0 0
    outer loop
      vertex 40.8 1 5.5
      vertex 40.8 0 0
      vertex 40.8 0 5.5
    endloop
  endfacet
  facet normal -0 0 1
    outer loop
      vertex 40.8 1 5.5
      vertex 50 0 5.5
      vertex 50 1 5.5
    endloop
  endfacet
  facet normal 0 0 1
    outer loop
      vertex 50 0 5.5
      vertex 40.8 1 5.5
      vertex 40.8 0 5.5
    endloop
  endfacet
  facet normal 1 -0 0
    outer loop
      vertex 50 0 5.5
      vertex 50 1 0
      vertex 50 1 5.5
    endloop
  endfacet
  facet normal 1 0 0
    outer loop
      vertex 50 1 0
      vertex 50 0 5.5
      vertex 50 0 0
    endloop
  endfacet
  facet normal -1 0 0
    outer loop
      vertex 40.8 112.2 0
      vertex 40.8 112.5 5.5
      vertex 40.8 112.5 0
    endloop
  endfacet
  facet normal -1 -0 0
    outer loop
      vertex 40.8 112.5 5.5
      vertex 40.8 112.2 0
      vertex 40.8 112.2 5.5
    endloop
  endfacet
  facet normal -0 0 1
    outer loop
      vertex 40.8 112.5 5.5
      vertex 50 112.2 5.5
      vertex 50 112.5 5.5
    endloop
  endfacet
  facet normal 0 0 1
    outer loop
      vertex 50 112.2 5.5
      vertex 40.8 112.5 5.5
      vertex 40.8 112.2 5.5
    endloop
  endfacet
  facet normal 1 -0 0
    outer loop
      vertex 50 112.2 5.5
      vertex 50 112.5 0
      vertex 50 112.5 5.5
    endloop
  endfacet
  facet normal 1 0 0
    outer loop
      vertex 50 112.5 0
      vertex 50 112.2 5.5
      vertex 50 112.2 0
    endloop
  endfacet
  facet normal 0 -1 0
    outer loop
      vertex 40.8 112.2 0
      vertex 50 112.2 5.5
      vertex 40.8 112.2 5.5
    endloop
  endfacet
  facet normal 0 -1 -0
    outer loop
      vertex 50 112.2 5.5
      vertex 40.8 112.2 0
      vertex 50 112.2 0
    endloop
  endfacet
  facet normal -1 0 0
    outer loop
      vertex 51 0 0
      vertex 51 1 5.5
      vertex 51 1 0
    endloop
  endfacet
  facet normal -1 -0 0
    outer loop
      vertex 51 1 5.5
      vertex 51 0 0
      vertex 51 0 5.5
    endloop
  endfacet
  facet normal -0 0 1
    outer loop
      vertex 51 1 5.5
      vertex 60.2 0 5.5
      vertex 60.2 1 5.5
    endloop
  endfacet
  facet normal 0 0 1
    outer loop
      vertex 60.2 0 5.5
      vertex 51 1 5.5
      vertex 51 0 5.5
    endloop
  endfacet
  facet normal 1 -0 0
    outer loop
      vertex 60.2 0 5.5
      vertex 60.2 1 0
      vertex 60.2 1 5.5
    endloop
  endfacet
  facet normal 1 0 0
    outer loop
      vertex 60.2 1 0
      vertex 60.2 0 5.5
      vertex 60.2 0 0
    endloop
  endfacet
  facet normal -1 0 0
    outer loop
      vertex 51 112.2 0
      vertex 51 112.5 5.5
      vertex 51 112.5 0
    endloop
  endfacet
  facet normal -1 -0 0
    outer loop
      vertex 51 112.5 5.5
      vertex 51 112.2 0
      vertex 51 112.2 5.5
    endloop
  endfacet
  facet normal -0 0 1
    outer loop
      vertex 51 112.5 5.5
      vertex 60.2 112.2 5.5
      vertex 60.2 112.5 5.5
    endloop
  endfacet
  facet normal 0 0 1
    outer loop
      vertex 60.2 112.2 5.5
      vertex 51 112.5 5.5
      vertex 51 112.2 5.5
    endloop
  endfacet
  facet normal 1 -0 0
    outer loop
      vertex 60.2 112.2 5.5
      vertex 60.2 112.5 0
      vertex 60.2 112.5 5.5
    endloop
  endfacet
  facet normal 1 0 0
    outer loop
      vertex 60.2 112.5 0
      vertex 60.2 112.2 5.5
      vertex 60.2 112.2 0
    endloop
  endfacet
  facet normal 0 -1 0
    outer loop
      vertex 51 112.2 0
      vertex 60.2 112.2 5.5
      vertex 51 112.2 5.5
    endloop
  endfacet
  facet normal 0 -1 -0
    outer loop
      vertex 60.2 112.2 5.5
      vertex 51 112.2 0
      vertex 60.2 112.2 0
    endloop
  endfacet
  facet normal -1 0 0
    outer loop
      vertex 61.2 0 0
      vertex 61.2 1 5.5
      vertex 61.2 1 0
    endloop
  endfacet
  facet normal -1 -0 0
    outer loop
      vertex 61.2 1 5.5
      vertex 61.2 0 0
      vertex 61.2 0 5.5
    endloop
  endfacet
  facet normal -0 0 1
    outer loop
      vertex 61.2 1 5.5
      vertex 70.4 0 5.5
      vertex 70.4 1 5.5
    endloop
  endfacet
  facet normal 0 0 1
    outer loop
      vertex 70.4 0 5.5
      vertex 61.2 1 5.5
      vertex 61.2 0 5.5
    endloop
  endfacet
  facet normal 1 -0 0
    outer loop
      vertex 70.4 0 5.5
      vertex 70.4 1 0
      vertex 70.4 1 5.5
    endloop
  endfacet
  facet normal 1 0 0
    outer loop
      vertex 70.4 1 0
      vertex 70.4 0 5.5
      vertex 70.4 0 0
    endloop
  endfacet
  facet normal -1 0 0
    outer loop
      vertex 61.2 112.2 0
      vertex 61.2 112.5 5.5
      vertex 61.2 112.5 0
    endloop
  endfacet
  facet normal -1 -0 0
    outer loop
      vertex 61.2 112.5 5.5
      vertex 61.2 112.2 0
      vertex 61.2 112.2 5.5
    endloop
  endfacet
  facet normal -0 0 1
    outer loop
      vertex 61.2 112.5 5.5
      vertex 70.4 112.2 5.5
      vertex 70.4 112.5 5.5
    endloop
  endfacet
  facet normal 0 0 1
    outer loop
      vertex 70.4 112.2 5.5
      vertex 61.2 112.5 5.5
      vertex 61.2 112.2 5.5
    endloop
  endfacet
  facet normal 1 -0 0
    outer loop
      vertex 70.4 112.2 5.5
      vertex 70.4 112.5 0
      vertex 70.4 112.5 5.5
    endloop
  endfacet
  facet normal 1 0 0
    outer loop
      vertex 70.4 112.5 0
      vertex 70.4 112.2 5.5
      vertex 70.4 112.2 0
    endloop
  endfacet
  facet normal 0 -1 0
    outer loop
      vertex 61.2 112.2 0
      vertex 70.4 112.2 5.5
      vertex 61.2 112.2 5.5
    endloop
  endfacet
  facet normal 0 -1 -0
    outer loop
      vertex 70.4 112.2 5.5
      vertex 61.2 112.2 0
      vertex 70.4 112.2 0
    endloop
  endfacet
  facet normal -1 0 0
    outer loop
      vertex 71.4 0 0
      vertex 71.4 1 5.5
      vertex 71.4 1 0
    endloop
  endfacet
  facet normal -1 -0 0
    outer loop
      vertex 71.4 1 5.5
      vertex 71.4 0 0
      vertex 71.4 0 5.5
    endloop
  endfacet
  facet normal -0 0 1
    outer loop
      vertex 71.4 1 5.5
      vertex 80.6 0 5.5
      vertex 80.6 1 5.5
    endloop
  endfacet
  facet normal 0 0 1
    outer loop
      vertex 80.6 0 5.5
      vertex 71.4 1 5.5
      vertex 71.4 0 5.5
    endloop
  endfacet
  facet normal 1 -0 0
    outer loop
      vertex 80.6 0 5.5
      vertex 80.6 1 0
      vertex 80.6 1 5.5
    endloop
  endfacet
  facet normal 1 0 0
    outer loop
      vertex 80.6 1 0
      vertex 80.6 0 5.5
      vertex 80.6 0 0
    endloop
  endfacet
  facet normal -1 0 0
    outer loop
      vertex 71.4 112.2 0
      vertex 71.4 112.5 5.5
      vertex 71.4 112.5 0
    endloop
  endfacet
  facet normal -1 -0 0
    outer loop
      vertex 71.4 112.5 5.5
      vertex 71.4 112.2 0
      vertex 71.4 112.2 5.5
    endloop
  endfacet
  facet normal -0 0 1
    outer loop
      vertex 71.4 112.5 5.5
      vertex 80.6 112.2 5.5
      vertex 80.6 112.5 5.5
    endloop
  endfacet
  facet normal 0 0 1
    outer loop
      vertex 80.6 112.2 5.5
      vertex 71.4 112.5 5.5
      vertex 71.4 112.2 5.5
    endloop
  endfacet
  facet normal 1 -0 0
    outer loop
      vertex 80.6 112.2 5.5
      vertex 80.6 112.5 0
      vertex 80.6 112.5 5.5
    endloop
  endfacet
  facet normal 1 0 0
    outer loop
      vertex 80.6 112.5 0
      vertex 80.6 112.2 5.5
      vertex 80.6 112.2 0
    endloop
  endfacet
  facet normal 0 -1 0
    outer loop
      vertex 71.4 112.2 0
      vertex 80.6 112.2 5.5
      vertex 71.4 112.2 5.5
    endloop
  endfacet
  facet normal 0 -1 -0
    outer loop
      vertex 80.6 112.2 5.5
      vertex 71.4 112.2 0
      vertex 80.6 112.2 0
    endloop
  endfacet
  facet normal -1 0 0
    outer loop
      vertex 81.6 0 0
      vertex 81.6 1 5.5
      vertex 81.6 1 0
    endloop
  endfacet
  facet normal -1 -0 0
    outer loop
      vertex 81.6 1 5.5
      vertex 81.6 0 0
      vertex 81.6 0 5.5
    endloop
  endfacet
  facet normal -0 0 1
    outer loop
      vertex 81.6 1 5.5
      vertex 90.8 0 5.5
      vertex 90.8 1 5.5
    endloop
  endfacet
  facet normal 0 0 1
    outer loop
      vertex 90.8 0 5.5
      vertex 81.6 1 5.5
      vertex 81.6 0 5.5
    endloop
  endfacet
  facet normal 1 -0 0
    outer loop
      vertex 90.8 0 5.5
      vertex 90.8 1 0
      vertex 90.8 1 5.5
    endloop
  endfacet
  facet normal 1 0 0
    outer loop
      vertex 90.8 1 0
      vertex 90.8 0 5.5
      vertex 90.8 0 0
    endloop
  endfacet
  facet normal -1 0 0
    outer loop
      vertex 81.6 112.2 0
      vertex 81.6 112.5 5.5
      vertex 81.6 112.5 0
    endloop
  endfacet
  facet normal -1 -0 0
    outer loop
      vertex 81.6 112.5 5.5
      vertex 81.6 112.2 0
      vertex 81.6 112.2 5.5
    endloop
  endfacet
  facet normal -0 0 1
    outer loop
      vertex 81.6 112.5 5.5
      vertex 90.8 112.2 5.5
      vertex 90.8 112.5 5.5
    endloop
  endfacet
  facet normal 0 0 1
    outer loop
      vertex 90.8 112.2 5.5
      vertex 81.6 112.5 5.5
      vertex 81.6 112.2 5.5
    endloop
  endfacet
  facet normal 1 -0 0
    outer loop
      vertex 90.8 112.2 5.5
      vertex 90.8 112.5 0
      vertex 90.8 112.5 5.5
    endloop
  endfacet
  facet normal 1 0 0
    outer loop
      vertex 90.8 112.5 0
      vertex 90.8 112.2 5.5
      vertex 90.8 112.2 0
    endloop
  endfacet
  facet normal 0 -1 0
    outer loop
      vertex 81.6 112.2 0
      vertex 90.8 112.2 5.5
      vertex 81.6 112.2 5.5
    endloop
  endfacet
  facet normal 0 -1 -0
    outer loop
      vertex 90.8 112.2 5.5
      vertex 81.6 112.2 0
      vertex 90.8 112.2 0
    endloop
  endfacet
  facet normal -1 0 0
    outer loop
      vertex 91.8 0 0
      vertex 91.8 1 5.5
      vertex 91.8 1 0
    endloop
  endfacet
  facet normal -1 -0 0
    outer loop
      vertex 91.8 1 5.5
      vertex 91.8 0 0
      vertex 91.8 0 5.5
    endloop
  endfacet
  facet normal -0 0 1
    outer loop
      vertex 91.8 1 5.5
      vertex 101 0 5.5
      vertex 101 1 5.5
    endloop
  endfacet
  facet normal 0 0 1
    outer loop
      vertex 101 0 5.5
      vertex 91.8 1 5.5
      vertex 91.8 0 5.5
    endloop
  endfacet
  facet normal 1 -0 0
    outer loop
      vertex 101 0 5.5
      vertex 101 1 0
      vertex 101 1 5.5
    endloop
  endfacet
  facet normal 1 0 0
    outer loop
      vertex 101 1 0
      vertex 101 0 5.5
      vertex 101 0 0
    endloop
  endfacet
  facet normal -1 0 0
    outer loop
      vertex 91.8 112.2 0
      vertex 91.8 112.5 5.5
      vertex 91.8 112.5 0
    endloop
  endfacet
  facet normal -1 -0 0
    outer loop
      vertex 91.8 112.5 5.5
      vertex 91.8 112.2 0
      vertex 91.8 112.2 5.5
    endloop
  endfacet
  facet normal -0 0 1
    outer loop
      vertex 91.8 112.5 5.5
      vertex 101 112.2 5.5
      vertex 101 112.5 5.5
    endloop
  endfacet
  facet normal 0 0 1
    outer loop
      vertex 101 112.2 5.5
      vertex 91.8 112.5 5.5
      vertex 91.8 112.2 5.5
    endloop
  endfacet
  facet normal 1 -0 0
    outer loop
      vertex 101 112.2 5.5
      vertex 101 112.5 0
      vertex 101 112.5 5.5
    endloop
  endfacet
  facet normal 1 0 0
    outer loop
      vertex 101 112.5 0
      vertex 101 112.2 5.5
      vertex 101 112.2 0
    endloop
  endfacet
  facet normal 0 -1 0
    outer loop
      vertex 91.8 112.2 0
      vertex 101 112.2 5.5
      vertex 91.8 112.2 5.5
    endloop
  endfacet
  facet normal 0 -1 -0
    outer loop
      vertex 101 112.2 5.5
      vertex 91.8 112.2 0
      vertex 101 112.2 0
    endloop
  endfacet
  facet normal -1 0 0
    outer loop
      vertex 102 0 0
      vertex 102 1 5.5
      vertex 102 1 0
    endloop
  endfacet
  facet normal -1 -0 0
    outer loop
      vertex 102 1 5.5
      vertex 102 0 0
      vertex 102 0 5.5
    endloop
  endfacet
  facet normal -0 0 1
    outer loop
      vertex 102 1 5.5
      vertex 111.2 0 5.5
      vertex 111.2 1 5.5
    endloop
  endfacet
  facet normal 0 0 1
    outer loop
      vertex 111.2 0 5.5
      vertex 102 1 5.5
      vertex 102 0 5.5
    endloop
  endfacet
  facet normal 1 -0 0
    outer loop
      vertex 111.2 0 5.5
      vertex 111.2 1 0
      vertex 111.2 1 5.5
    endloop
  endfacet
  facet normal 1 0 0
    outer loop
      vertex 111.2 1 0
      vertex 111.2 0 5.5
      vertex 111.2 0 0
    endloop
  endfacet
  facet normal -1 0 0
    outer loop
      vertex 102 112.2 0
      vertex 102 112.5 5.5
      vertex 102 112.5 0
    endloop
  endfacet
  facet normal -1 -0 0
    outer loop
      vertex 102 112.5 5.5
      vertex 102 112.2 0
      vertex 102 112.2 5.5
    endloop
  endfacet
  facet normal -0 0 1
    outer loop
      vertex 102 112.5 5.5
      vertex 111.2 112.2 5.5
      vertex 111.2 112.5 5.5
    endloop
  endfacet
  facet normal 0 0 1
    outer loop
      vertex 111.2 112.2 5.5
      vertex 102 112.5 5.5
      vertex 102 112.2 5.5
    endloop
  endfacet
  facet normal 1 -0 0
    outer loop
      vertex 111.2 112.2 5.5
      vertex 111.2 112.5 0
      vertex 111.2 112.5 5.5
    endloop
  endfacet
  facet normal 1 0 0
    outer loop
      vertex 111.2 112.5 0
      vertex 111.2 112.2 5.5
      vertex 111.2 112.2 0
    endloop
  endfacet
  facet normal 0 -1 0
    outer loop
      vertex 102 112.2 0
      vertex 111.2 112.2 5.5
      vertex 102 112.2 5.5
    endloop
  endfacet
  facet normal 0 -1 -0
    outer loop
      vertex 111.2 112.2 5.5
      vertex 102 112.2 0
      vertex 111.2 112.2 0
    endloop
  endfacet
  facet normal -1 0 0
    outer loop
      vertex 112.2 0 0
      vertex 112.2 9.2 5.5
      vertex 112.2 9.2 0
    endloop
  endfacet
  facet normal -1 -0 0
    outer loop
      vertex 112.2 9.2 5.5
      vertex 112.2 0 0
      vertex 112.2 0 5.5
    endloop
  endfacet
  facet normal -0 0 1
    outer loop
      vertex 112.2 9.2 5.5
      vertex 112.5 0 5.5
      vertex 112.5 9.2 5.5
    endloop
  endfacet
  facet normal 0 0 1
    outer loop
      vertex 112.5 0 5.5
      vertex 112.2 9.2 5.5
      vertex 112.2 0 5.5
    endloop
  endfacet
  facet normal 0 1 -0
    outer loop
      vertex 112.5 9.2 0
      vertex 112.2 9.2 5.5
      vertex 112.5 9.2 5.5
    endloop
  endfacet
  facet normal 0 1 0
    outer loop
      vertex 112.2 9.2 5.5
      vertex 112.5 9.2 0
      vertex 112.2 9.2 0
    endloop
  endfacet
  facet normal -1 0 0
    outer loop
      vertex 112.2 10.2 0
      vertex 112.2 19.4 5.5
      vertex 112.2 19.4 0
    endloop
  endfacet
  facet normal -1 -0 0
    outer loop
      vertex 112.2 19.4 5.5
      vertex 112.2 10.2 0
      vertex 112.2 10.2 5.5
    endloop
  endfacet
  facet normal -0 0 1
    outer loop
      vertex 112.2 19.4 5.5
      vertex 112.5 10.2 5.5
      vertex 112.5 19.4 5.5
    endloop
  endfacet
  facet normal 0 0 1
    outer loop
      vertex 112.5 10.2 5.5
      vertex 112.2 19.4 5.5
      vertex 112.2 10.2 5.5
    endloop
  endfacet
  facet normal 0 1 -0
    outer loop
      vertex 112.5 19.4 0
      vertex 112.2 19.4 5.5
      vertex 112.5 19.4 5.5
    endloop
  endfacet
  facet normal 0 1 0
    outer loop
      vertex 112.2 19.4 5.5
      vertex 112.5 19.4 0
      vertex 112.2 19.4 0
    endloop
  endfacet
  facet normal 0 -1 0
    outer loop
      vertex 112.2 10.2 0
      vertex 112.5 10.2 5.5
      vertex 112.2 10.2 5.5
    endloop
  endfacet
  facet normal 0 -1 -0
    outer loop
      vertex 112.5 10.2 5.5
      vertex 112.2 10.2 0
      vertex 112.5 10.2 0
    endloop
  endfacet
  facet normal -1 0 0
    outer loop
      vertex 112.2 20.4 0
      vertex 112.2 29.6 5.5
      vertex 112.2 29.6 0
    endloop
  endfacet
  facet normal -1 -0 0
    outer loop
      vertex 112.2 29.6 5.5
      vertex 112.2 20.4 0
      vertex 112.2 20.4 5.5
    endloop
  endfacet
  facet normal -0 0 1
    outer loop
      vertex 112.2 29.6 5.5
      vertex 112.5 20.4 5.5
      vertex 112.5 29.6 5.5
    endloop
  endfacet
  facet normal 0 0 1
    outer loop
      vertex 112.5 20.4 5.5
      vertex 112.2 29.6 5.5
      vertex 112.2 20.4 5.5
    endloop
  endfacet
  facet normal 0 1 -0
    outer loop
      vertex 112.5 29.6 0
      vertex 112.2 29.6 5.5
      vertex 112.5 29.6 5.5
    endloop
  endfacet
  facet normal 0 1 0
    outer loop
      vertex 112.2 29.6 5.5
      vertex 112.5 29.6 0
      vertex 112.2 29.6 0
    endloop
  endfacet
  facet normal 0 -1 0
    outer loop
      vertex 112.2 20.4 0
      vertex 112.5 20.4 5.5
      vertex 112.2 20.4 5.5
    endloop
  endfacet
  facet normal 0 -1 -0
    outer loop
      vertex 112.5 20.4 5.5
      vertex 112.2 20.4 0
      vertex 112.5 20.4 0
    endloop
  endfacet
  facet normal -1 0 0
    outer loop
      vertex 112.2 30.6 0
      vertex 112.2 39.8 5.5
      vertex 112.2 39.8 0
    endloop
  endfacet
  facet normal -1 -0 0
    outer loop
      vertex 112.2 39.8 5.5
      vertex 112.2 30.6 0
      vertex 112.2 30.6 5.5
    endloop
  endfacet
  facet normal -0 0 1
    outer loop
      vertex 112.2 39.8 5.5
      vertex 112.5 30.6 5.5
      vertex 112.5 39.8 5.5
    endloop
  endfacet
  facet normal 0 0 1
    outer loop
      vertex 112.5 30.6 5.5
      vertex 112.2 39.8 5.5
      vertex 112.2 30.6 5.5
    endloop
  endfacet
  facet normal 0 1 -0
    outer loop
      vertex 112.5 39.8 0
      vertex 112.2 39.8 5.5
      vertex 112.5 39.8 5.5
    endloop
  endfacet
  facet normal 0 1 0
    outer loop
      vertex 112.2 39.8 5.5
      vertex 112.5 39.8 0
      vertex 112.2 39.8 0
    endloop
  endfacet
  facet normal 0 -1 0
    outer loop
      vertex 112.2 30.6 0
      vertex 112.5 30.6 5.5
      vertex 112.2 30.6 5.5
    endloop
  endfacet
  facet normal 0 -1 -0
    outer loop
      vertex 112.5 30.6 5.5
      vertex 112.2 30.6 0
      vertex 112.5 30.6 0
    endloop
  endfacet
  facet normal -1 0 0
    outer loop
      vertex 112.2 40.8 0
      vertex 112.2 50 5.5
      vertex 112.2 50 0
    endloop
  endfacet
  facet normal -1 -0 0
    outer loop
      vertex 112.2 50 5.5
      vertex 112.2 40.8 0
      vertex 112.2 40.8 5.5
    endloop
  endfacet
  facet normal -0 0 1
    outer loop
      vertex 112.2 50 5.5
      vertex 112.5 40.8 5.5
      vertex 112.5 50 5.5
    endloop
  endfacet
  facet normal 0 0 1
    outer loop
      vertex 112.5 40.8 5.5
      vertex 112.2 50 5.5
      vertex 112.2 40.8 5.5
    endloop
  endfacet
  facet normal 0 -1 0
    outer loop
      vertex 112.2 40.8 0
      vertex 112.5 40.8 5.5
      vertex 112.2 40.8 5.5
    endloop
  endfacet
  facet normal 0 -1 -0
    outer loop
      vertex 112.5 40.8 5.5
      vertex 112.2 40.8 0
      vertex 112.5 40.8 0
    endloop
  endfacet
  facet normal 0 1 -0
    outer loop
      vertex 112.5 50 0
      vertex 112.2 50 5.5
      vertex 112.5 50 5.5
    endloop
  endfacet
  facet normal 0 1 0
    outer loop
      vertex 112.2 50 5.5
      vertex 112.5 50 0
      vertex 112.2 50 0
    endloop
  endfacet
  facet normal -1 0 0
    outer loop
      vertex 112.2 51 0
      vertex 112.2 60.2 5.5
      vertex 112.2 60.2 0
    endloop
  endfacet
  facet normal -1 -0 0
    outer loop
      vertex 112.2 60.2 5.5
      vertex 112.2 51 0
      vertex 112.2 51 5.5
    endloop
  endfacet
  facet normal -0 0 1
    outer loop
      vertex 112.2 60.2 5.5
      vertex 112.5 51 5.5
      vertex 112.5 60.2 5.5
    endloop
  endfacet
  facet normal 0 0 1
    outer loop
      vertex 112.5 51 5.5
      vertex 112.2 60.2 5.5
      vertex 112.2 51 5.5
    endloop
  endfacet
  facet normal 0 1 -0
    outer loop
      vertex 112.5 60.2 0
      vertex 112.2 60.2 5.5
      vertex 112.5 60.2 5.5
    endloop
  endfacet
  facet normal 0 1 0
    outer loop
      vertex 112.2 60.2 5.5
      vertex 112.5 60.2 0
      vertex 112.2 60.2 0
    endloop
  endfacet
  facet normal 0 -1 0
    outer loop
      vertex 112.2 51 0
      vertex 112.5 51 5.5
      vertex 112.2 51 5.5
    endloop
  endfacet
  facet normal 0 -1 -0
    outer loop
      vertex 112.5 51 5.5
      vertex 112.2 51 0
      vertex 112.5 51 0
    endloop
  endfacet
  facet normal -1 0 0
    outer loop
      vertex 112.2 61.2 0
      vertex 112.2 70.4 5.5
      vertex 112.2 70.4 0
    endloop
  endfacet
  facet normal -1 -0 0
    outer loop
      vertex 112.2 70.4 5.5
      vertex 112.2 61.2 0
      vertex 112.2 61.2 5.5
    endloop
  endfacet
  facet normal -0 0 1
    outer loop
      vertex 112.2 70.4 5.5
      vertex 112.5 61.2 5.5
      vertex 112.5 70.4 5.5
    endloop
  endfacet
  facet normal 0 0 1
    outer loop
      vertex 112.5 61.2 5.5
      vertex 112.2 70.4 5.5
      vertex 112.2 61.2 5.5
    endloop
  endfacet
  facet normal 0 -1 0
    outer loop
      vertex 112.2 61.2 0
      vertex 112.5 61.2 5.5
      vertex 112.2 61.2 5.5
    endloop
  endfacet
  facet normal 0 -1 -0
    outer loop
      vertex 112.5 61.2 5.5
      vertex 112.2 61.2 0
      vertex 112.5 61.2 0
    endloop
  endfacet
  facet normal 0 1 -0
    outer loop
      vertex 112.5 70.4 0
      vertex 112.2 70.4 5.5
      vertex 112.5 70.4 5.5
    endloop
  endfacet
  facet normal 0 1 0
    outer loop
      vertex 112.2 70.4 5.5
      vertex 112.5 70.4 0
      vertex 112.2 70.4 0
    endloop
  endfacet
  facet normal -1 0 0
    outer loop
      vertex 112.2 71.4 0
      vertex 112.2 80.6 5.5
      vertex 112.2 80.6 0
    endloop
  endfacet
  facet normal -1 -0 0
    outer loop
      vertex 112.2 80.6 5.5
      vertex 112.2 71.4 0
      vertex 112.2 71.4 5.5
    endloop
  endfacet
  facet normal -0 0 1
    outer loop
      vertex 112.2 80.6 5.5
      vertex 112.5 71.4 5.5
      vertex 112.5 80.6 5.5
    endloop
  endfacet
  facet normal 0 0 1
    outer loop
      vertex 112.5 71.4 5.5
      vertex 112.2 80.6 5.5
      vertex 112.2 71.4 5.5
    endloop
  endfacet
  facet normal 0 -1 0
    outer loop
      vertex 112.2 71.4 0
      vertex 112.5 71.4 5.5
      vertex 112.2 71.4 5.5
    endloop
  endfacet
  facet normal 0 -1 -0
    outer loop
      vertex 112.5 71.4 5.5
      vertex 112.2 71.4 0
      vertex 112.5 71.4 0
    endloop
  endfacet
  facet normal 0 1 -0
    outer loop
      vertex 112.5 80.6 0
      vertex 112.2 80.6 5.5
      vertex 112.5 80.6 5.5
    endloop
  endfacet
  facet normal 0 1 0
    outer loop
      vertex 112.2 80.6 5.5
      vertex 112.5 80.6 0
      vertex 112.2 80.6 0
    endloop
  endfacet
  facet normal -1 0 0
    outer loop
      vertex 112.2 81.6 0
      vertex 112.2 90.8 5.5
      vertex 112.2 90.8 0
    endloop
  endfacet
  facet normal -1 -0 0
    outer loop
      vertex 112.2 90.8 5.5
      vertex 112.2 81.6 0
      vertex 112.2 81.6 5.5
    endloop
  endfacet
  facet normal -0 0 1
    outer loop
      vertex 112.2 90.8 5.5
      vertex 112.5 81.6 5.5
      vertex 112.5 90.8 5.5
    endloop
  endfacet
  facet normal 0 0 1
    outer loop
      vertex 112.5 81.6 5.5
      vertex 112.2 90.8 5.5
      vertex 112.2 81.6 5.5
    endloop
  endfacet
  facet normal 0 1 -0
    outer loop
      vertex 112.5 90.8 0
      vertex 112.2 90.8 5.5
      vertex 112.5 90.8 5.5
    endloop
  endfacet
  facet normal 0 1 0
    outer loop
      vertex 112.2 90.8 5.5
      vertex 112.5 90.8 0
      vertex 112.2 90.8 0
    endloop
  endfacet
  facet normal 0 -1 0
    outer loop
      vertex 112.2 81.6 0
      vertex 112.5 81.6 5.5
      vertex 112.2 81.6 5.5
    endloop
  endfacet
  facet normal 0 -1 -0
    outer loop
      vertex 112.5 81.6 5.5
      vertex 112.2 81.6 0
      vertex 112.5 81.6 0
    endloop
  endfacet
  facet normal -1 0 0
    outer loop
      vertex 112.2 91.8 0
      vertex 112.2 101 5.5
      vertex 112.2 101 0
    endloop
  endfacet
  facet normal -1 -0 0
    outer loop
      vertex 112.2 101 5.5
      vertex 112.2 91.8 0
      vertex 112.2 91.8 5.5
    endloop
  endfacet
  facet normal -0 0 1
    outer loop
      vertex 112.2 101 5.5
      vertex 112.5 91.8 5.5
      vertex 112.5 101 5.5
    endloop
  endfacet
  facet normal 0 0 1
    outer loop
      vertex 112.5 91.8 5.5
      vertex 112.2 101 5.5
      vertex 112.2 91.8 5.5
    endloop
  endfacet
  facet normal 0 1 -0
    outer loop
      vertex 112.5 101 0
      vertex 112.2 101 5.5
      vertex 112.5 101 5.5
    endloop
  endfacet
  facet normal 0 1 0
    outer loop
      vertex 112.2 101 5.5
      vertex 112.5 101 0
      vertex 112.2 101 0
    endloop
  endfacet
  facet normal 0 -1 0
    outer loop
      vertex 112.2 91.8 0
      vertex 112.5 91.8 5.5
      vertex 112.2 91.8 5.5
    endloop
  endfacet
  facet normal 0 -1 -0
    outer loop
      vertex 112.5 91.8 5.5
      vertex 112.2 91.8 0
      vertex 112.5 91.8 0
    endloop
  endfacet
  facet normal -1 0 0
    outer loop
      vertex 112.2 102 0
      vertex 112.2 111.2 5.5
      vertex 112.2 111.2 0
    endloop
  endfacet
  facet normal -1 -0 0
    outer loop
      vertex 112.2 111.2 5.5
      vertex 112.2 102 0
      vertex 112.2 102 5.5
    endloop
  endfacet
  facet normal -0 0 1
    outer loop
      vertex 112.2 111.2 5.5
      vertex 112.5 102 5.5
      vertex 112.5 111.2 5.5
    endloop
  endfacet
  facet normal 0 0 1
    outer loop
      vertex 112.5 102 5.5
      vertex 112.2 111.2 5.5
      vertex 112.2 102 5.5
    endloop
  endfacet
  facet normal 0 -1 0
    outer loop
      vertex 112.2 102 0
      vertex 112.5 102 5.5
      vertex 112.2 102 5.5
    endloop
  endfacet
  facet normal 0 -1 -0
    outer loop
      vertex 112.5 102 5.5
      vertex 112.2 102 0
      vertex 112.5 102 0
    endloop
  endfacet
  facet normal 0 1 -0
    outer loop
      vertex 112.5 111.2 0
      vertex 112.2 111.2 5.5
      vertex 112.5 111.2 5.5
    endloop
  endfacet
  facet normal 0 1 0
    outer loop
      vertex 112.2 111.2 5.5
      vertex 112.5 111.2 0
      vertex 112.2 111.2 0
    endloop
  endfacet
  facet normal -1 0 0
    outer loop
      vertex 112.2 112.2 0
      vertex 112.2 112.5 5.5
      vertex 112.2 112.5 0
    endloop
  endfacet
  facet normal -1 -0 0
    outer loop
      vertex 112.2 112.5 5.5
      vertex 112.2 112.2 0
      vertex 112.2 112.2 5.5
    endloop
  endfacet
  facet normal -0 0 1
    outer loop
      vertex 112.2 112.5 5.5
      vertex 112.5 112.2 5.5
      vertex 112.5 112.5 5.5
    endloop
  endfacet
  facet normal 0 0 1
    outer loop
      vertex 112.5 112.2 5.5
      vertex 112.2 112.5 5.5
      vertex 112.2 112.2 5.5
    endloop
  endfacet
  facet normal 0 -1 0
    outer loop
      vertex 112.2 112.2 0
      vertex 112.5 112.2 5.5
      vertex 112.2 112.2 5.5
    endloop
  endfacet
  facet normal 0 -1 -0
    outer loop
      vertex 112.5 112.2 5.5
      vertex 112.2 112.2 0
      vertex 112.5 112.2 0
    endloop
  endfacet
  facet normal 1 -0 0
    outer loop
      vertex 112.5 0 5.5
      vertex 112.5 9.2 0
      vertex 112.5 9.2 5.5
    endloop
  endfacet
  facet normal 1 0 0
    outer loop
      vertex 112.5 9.2 0
      vertex 112.5 0 5.5
      vertex 112.5 0 0
    endloop
  endfacet
  facet normal 1 -0 0
    outer loop
      vertex 112.5 112.2 5.5
      vertex 112.5 112.5 0
      vertex 112.5 112.5 5.5
    endloop
  endfacet
  facet normal 1 0 0
    outer loop
      vertex 112.5 112.5 0
      vertex 112.5 112.2 5.5
      vertex 112.5 112.2 0
    endloop
  endfacet
  facet normal 1 -0 0
    outer loop
      vertex 112.5 102 5.5
      vertex 112.5 111.2 0
      vertex 112.5 111.2 5.5
    endloop
  endfacet
  facet normal 1 0 0
    outer loop
      vertex 112.5 111.2 0
      vertex 112.5 102 5.5
      vertex 112.5 102 0
    endloop
  endfacet
  facet normal 1 -0 0
    outer loop
      vertex 112.5 91.8 5.5
      vertex 112.5 101 0
      vertex 112.5 101 5.5
    endloop
  endfacet
  facet normal 1 0 0
    outer loop
      vertex 112.5 101 0
      vertex 112.5 91.8 5.5
      vertex 112.5 91.8 0
    endloop
  endfacet
  facet normal 1 -0 0
    outer loop
      vertex 112.5 81.6 5.5
      vertex 112.5 90.8 0
      vertex 112.5 90.8 5.5
    endloop
  endfacet
  facet normal 1 0 0
    outer loop
      vertex 112.5 90.8 0
      vertex 112.5 81.6 5.5
      vertex 112.5 81.6 0
    endloop
  endfacet
  facet normal 1 -0 0
    outer loop
      vertex 112.5 71.4 5.5
      vertex 112.5 80.6 0
      vertex 112.5 80.6 5.5
    endloop
  endfacet
  facet normal 1 0 0
    outer loop
      vertex 112.5 80.6 0
      vertex 112.5 71.4 5.5
      vertex 112.5 71.4 0
    endloop
  endfacet
  facet normal 1 -0 0
    outer loop
      vertex 112.5 61.2 5.5
      vertex 112.5 70.4 0
      vertex 112.5 70.4 5.5
    endloop
  endfacet
  facet normal 1 0 0
    outer loop
      vertex 112.5 70.4 0
      vertex 112.5 61.2 5.5
      vertex 112.5 61.2 0
    endloop
  endfacet
  facet normal 1 -0 0
    outer loop
      vertex 112.5 51 5.5
      vertex 112.5 60.2 0
      vertex 112.5 60.2 5.5
    endloop
  endfacet
  facet normal 1 0 0
    outer loop
      vertex 112.5 60.2 0
      vertex 112.5 51 5.5
      vertex 112.5 51 0
    endloop
  endfacet
  facet normal 1 -0 0
    outer loop
      vertex 112.5 40.8 5.5
      vertex 112.5 50 0
      vertex 112.5 50 5.5
    endloop
  endfacet
  facet normal 1 0 0
    outer loop
      vertex 112.5 50 0
      vertex 112.5 40.8 5.5
      vertex 112.5 40.8 0
    endloop
  endfacet
  facet normal 1 -0 0
    outer loop
      vertex 112.5 30.6 5.5
      vertex 112.5 39.8 0
      vertex 112.5 39.8 5.5
    endloop
  endfacet
  facet normal 1 0 0
    outer loop
      vertex 112.5 39.8 0
      vertex 112.5 30.6 5.5
      vertex 112.5 30.6 0
    endloop
  endfacet
  facet normal 1 -0 0
    outer loop
      vertex 112.5 20.4 5.5
      vertex 112.5 29.6 0
      vertex 112.5 29.6 5.5
    endloop
  endfacet
  facet normal 1 0 0
    outer loop
      vertex 112.5 29.6 0
      vertex 112.5 20.4 5.5
      vertex 112.5 20.4 0
    endloop
  endfacet
  facet normal 1 -0 0
    outer loop
      vertex 112.5 10.2 5.5
      vertex 112.5 19.4 0
      vertex 112.5 19.4 5.5
    endloop
  endfacet
  facet normal 1 0 0
    outer loop
      vertex 112.5 19.4 0
      vertex 112.5 10.2 5.5
      vertex 112.5 10.2 0
    endloop
  endfacet
  facet normal 0 1 -0
    outer loop
      vertex 9.2 112.5 0
      vertex 0 112.5 5.5
      vertex 9.2 112.5 5.5
    endloop
  endfacet
  facet normal 0 1 0
    outer loop
      vertex 0 112.5 5.5
      vertex 9.2 112.5 0
      vertex 0 112.5 0
    endloop
  endfacet
  facet normal 0 1 -0
    outer loop
      vertex 112.5 112.5 0
      vertex 112.2 112.5 5.5
      vertex 112.5 112.5 5.5
    endloop
  endfacet
  facet normal 0 1 0
    outer loop
      vertex 112.2 112.5 5.5
      vertex 112.5 112.5 0
      vertex 112.2 112.5 0
    endloop
  endfacet
  facet normal 0 1 -0
    outer loop
      vertex 19.4 112.5 0
      vertex 10.2 112.5 5.5
      vertex 19.4 112.5 5.5
    endloop
  endfacet
  facet normal 0 1 0
    outer loop
      vertex 10.2 112.5 5.5
      vertex 19.4 112.5 0
      vertex 10.2 112.5 0
    endloop
  endfacet
  facet normal 0 1 -0
    outer loop
      vertex 29.6 112.5 0
      vertex 20.4 112.5 5.5
      vertex 29.6 112.5 5.5
    endloop
  endfacet
  facet normal 0 1 0
    outer loop
      vertex 20.4 112.5 5.5
      vertex 29.6 112.5 0
      vertex 20.4 112.5 0
    endloop
  endfacet
  facet normal 0 1 -0
    outer loop
      vertex 39.8 112.5 0
      vertex 30.6 112.5 5.5
      vertex 39.8 112.5 5.5
    endloop
  endfacet
  facet normal 0 1 0
    outer loop
      vertex 30.6 112.5 5.5
      vertex 39.8 112.5 0
      vertex 30.6 112.5 0
    endloop
  endfacet
  facet normal 0 1 -0
    outer loop
      vertex 50 112.5 0
      vertex 40.8 112.5 5.5
      vertex 50 112.5 5.5
    endloop
  endfacet
  facet normal 0 1 0
    outer loop
      vertex 40.8 112.5 5.5
      vertex 50 112.5 0
      vertex 40.8 112.5 0
    endloop
  endfacet
  facet normal 0 1 -0
    outer loop
      vertex 60.2 112.5 0
      vertex 51 112.5 5.5
      vertex 60.2 112.5 5.5
    endloop
  endfacet
  facet normal 0 1 0
    outer loop
      vertex 51 112.5 5.5
      vertex 60.2 112.5 0
      vertex 51 112.5 0
    endloop
  endfacet
  facet normal 0 1 -0
    outer loop
      vertex 70.4 112.5 0
      vertex 61.2 112.5 5.5
      vertex 70.4 112.5 5.5
    endloop
  endfacet
  facet normal 0 1 0
    outer loop
      vertex 61.2 112.5 5.5
      vertex 70.4 112.5 0
      vertex 61.2 112.5 0
    endloop
  endfacet
  facet normal 0 1 -0
    outer loop
      vertex 80.6 112.5 0
      vertex 71.4 112.5 5.5
      vertex 80.6 112.5 5.5
    endloop
  endfacet
  facet normal 0 1 0
    outer loop
      vertex 71.4 112.5 5.5
      vertex 80.6 112.5 0
      vertex 71.4 112.5 0
    endloop
  endfacet
  facet normal 0 1 -0
    outer loop
      vertex 90.8 112.5 0
      vertex 81.6 112.5 5.5
      vertex 90.8 112.5 5.5
    endloop
  endfacet
  facet normal 0 1 0
    outer loop
      vertex 81.6 112.5 5.5
      vertex 90.8 112.5 0
      vertex 81.6 112.5 0
    endloop
  endfacet
  facet normal 0 1 -0
    outer loop
      vertex 101 112.5 0
      vertex 91.8 112.5 5.5
      vertex 101 112.5 5.5
    endloop
  endfacet
  facet normal 0 1 0
    outer loop
      vertex 91.8 112.5 5.5
      vertex 101 112.5 0
      vertex 91.8 112.5 0
    endloop
  endfacet
  facet normal 0 1 -0
    outer loop
      vertex 111.2 112.5 0
      vertex 102 112.5 5.5
      vertex 111.2 112.5 5.5
    endloop
  endfacet
  facet normal 0 1 0
    outer loop
      vertex 102 112.5 5.5
      vertex 111.2 112.5 0
      vertex 102 112.5 0
    endloop
  endfacet
  facet normal -1 0 0
    outer loop
      vertex 1 10.2 0
      vertex 1 9.2 0
      vertex 1 10.2 5.5
    endloop
  endfacet
  facet normal -1 0 0
    outer loop
      vertex 1 20.4 0
      vertex 1 19.4 0
      vertex 1 20.4 5.5
    endloop
  endfacet
  facet normal -1 0 0
    outer loop
      vertex 1 30.6 0
      vertex 1 29.6 0
      vertex 1 30.6 5.5
    endloop
  endfacet
  facet normal -1 0 0
    outer loop
      vertex 1 40.8 0
      vertex 1 39.8 0
      vertex 1 40.8 5.5
    endloop
  endfacet
  facet normal -1 0 0
    outer loop
      vertex 1 51 0
      vertex 1 50 0
      vertex 1 51 5.5
    endloop
  endfacet
  facet normal -1 0 0
    outer loop
      vertex 1 61.2 0
      vertex 1 60.2 0
      vertex 1 61.2 5.5
    endloop
  endfacet
  facet normal -1 0 0
    outer loop
      vertex 1 71.4 0
      vertex 1 70.4 0
      vertex 1 71.4 5.5
    endloop
  endfacet
  facet normal -1 0 0
    outer loop
      vertex 1 81.6 0
      vertex 1 80.6 0
      vertex 1 81.6 5.5
    endloop
  endfacet
  facet normal -1 0 0
    outer loop
      vertex 1 91.8 0
      vertex 1 90.8 0
      vertex 1 91.8 5.5
    endloop
  endfacet
  facet normal -1 0 0
    outer loop
      vertex 1 102 0
      vertex 1 101 0
      vertex 1 102 5.5
    endloop
  endfacet
  facet normal -1 0 0
    outer loop
      vertex 1 111.2 5.5
      vertex 1 111.5 0
      vertex 1 111.2 0
    endloop
  endfacet
  facet normal -1 0 0
    outer loop
      vertex 1 111.5 0
      vertex 1 111.2 5.5
      vertex 1 111.5 6
    endloop
  endfacet
  facet normal -1 0 0
    outer loop
      vertex 1 102 5.5
      vertex 1 111.5 6
      vertex 1 111.2 5.5
    endloop
  endfacet
  facet normal -1 0 0
    outer loop
      vertex 1 101 5.5
      vertex 1 102 5.5
      vertex 1 101 0
    endloop
  endfacet
  facet normal -1 0 0
    outer loop
      vertex 1 101 5.5
      vertex 1 111.5 6
      vertex 1 102 5.5
    endloop
  endfacet
  facet normal -1 0 0
    outer loop
      vertex 1 91.8 5.5
      vertex 1 111.5 6
      vertex 1 101 5.5
    endloop
  endfacet
  facet normal -1 0 0
    outer loop
      vertex 1 90.8 5.5
      vertex 1 91.8 5.5
      vertex 1 90.8 0
    endloop
  endfacet
  facet normal -1 0 0
    outer loop
      vertex 1 90.8 5.5
      vertex 1 111.5 6
      vertex 1 91.8 5.5
    endloop
  endfacet
  facet normal -1 0 0
    outer loop
      vertex 1 81.6 5.5
      vertex 1 111.5 6
      vertex 1 90.8 5.5
    endloop
  endfacet
  facet normal -1 0 0
    outer loop
      vertex 1 80.6 5.5
      vertex 1 81.6 5.5
      vertex 1 80.6 0
    endloop
  endfacet
  facet normal -1 0 0
    outer loop
      vertex 1 80.6 5.5
      vertex 1 111.5 6
      vertex 1 81.6 5.5
    endloop
  endfacet
  facet normal -1 0 0
    outer loop
      vertex 1 71.4 5.5
      vertex 1 111.5 6
      vertex 1 80.6 5.5
    endloop
  endfacet
  facet normal -1 0 0
    outer loop
      vertex 1 70.4 5.5
      vertex 1 71.4 5.5
      vertex 1 70.4 0
    endloop
  endfacet
  facet normal -1 0 0
    outer loop
      vertex 1 70.4 5.5
      vertex 1 111.5 6
      vertex 1 71.4 5.5
    endloop
  endfacet
  facet normal -1 0 0
    outer loop
      vertex 1 61.2 5.5
      vertex 1 111.5 6
      vertex 1 70.4 5.5
    endloop
  endfacet
  facet normal -1 0 0
    outer loop
      vertex 1 60.2 5.5
      vertex 1 61.2 5.5
      vertex 1 60.2 0
    endloop
  endfacet
  facet normal -1 0 0
    outer loop
      vertex 1 60.2 5.5
      vertex 1 111.5 6
      vertex 1 61.2 5.5
    endloop
  endfacet
  facet normal -1 0 0
    outer loop
      vertex 1 51 5.5
      vertex 1 111.5 6
      vertex 1 60.2 5.5
    endloop
  endfacet
  facet normal -1 0 0
    outer loop
      vertex 1 50 5.5
      vertex 1 51 5.5
      vertex 1 50 0
    endloop
  endfacet
  facet normal -1 0 0
    outer loop
      vertex 1 50 5.5
      vertex 1 111.5 6
      vertex 1 51 5.5
    endloop
  endfacet
  facet normal -1 0 0
    outer loop
      vertex 1 40.8 5.5
      vertex 1 111.5 6
      vertex 1 50 5.5
    endloop
  endfacet
  facet normal -1 0 0
    outer loop
      vertex 1 39.8 5.5
      vertex 1 40.8 5.5
      vertex 1 39.8 0
    endloop
  endfacet
  facet normal -1 0 0
    outer loop
      vertex 1 39.8 5.5
      vertex 1 111.5 6
      vertex 1 40.8 5.5
    endloop
  endfacet
  facet normal -1 0 0
    outer loop
      vertex 1 30.6 5.5
      vertex 1 111.5 6
      vertex 1 39.8 5.5
    endloop
  endfacet
  facet normal -1 0 0
    outer loop
      vertex 1 29.6 5.5
      vertex 1 30.6 5.5
      vertex 1 29.6 0
    endloop
  endfacet
  facet normal -1 0 0
    outer loop
      vertex 1 1 6
      vertex 1 30.6 5.5
      vertex 1 29.6 5.5
    endloop
  endfacet
  facet normal -1 0 0
    outer loop
      vertex 1 1 6
      vertex 1 29.6 5.5
      vertex 1 20.4 5.5
    endloop
  endfacet
  facet normal -1 0 0
    outer loop
      vertex 1 19.4 5.5
      vertex 1 20.4 5.5
      vertex 1 19.4 0
    endloop
  endfacet
  facet normal -1 0 0
    outer loop
      vertex 1 1 6
      vertex 1 20.4 5.5
      vertex 1 19.4 5.5
    endloop
  endfacet
  facet normal -1 0 0
    outer loop
      vertex 1 1 6
      vertex 1 19.4 5.5
      vertex 1 10.2 5.5
    endloop
  endfacet
  facet normal -1 0 0
    outer loop
      vertex 1 9.2 5.5
      vertex 1 10.2 5.5
      vertex 1 9.2 0
    endloop
  endfacet
  facet normal -1 0 0
    outer loop
      vertex 1 1 6
      vertex 1 10.2 5.5
      vertex 1 9.2 5.5
    endloop
  endfacet
  facet normal -1 0 0
    outer loop
      vertex 1 1 6
      vertex 1 9.2 5.5
      vertex 1 1 5.5
    endloop
  endfacet
  facet normal -1 0 0
    outer loop
      vertex 1 30.6 5.5
      vertex 1 1 6
      vertex 1 111.5 6
    endloop
  endfacet
  facet normal -0 0 1
    outer loop
      vertex 1 111.5 6
      vertex 111.5 1 6
      vertex 111.5 111.5 6
    endloop
  endfacet
  facet normal 0 0 1
    outer loop
      vertex 111.5 1 6
      vertex 1 111.5 6
      vertex 1 1 6
    endloop
  endfacet
  facet normal 1 -0 0
    outer loop
      vertex 111.5 1 6
      vertex 111.5 111.5 0
      vertex 111.5 111.5 6
    endloop
  endfacet
  facet normal 1 0 0
    outer loop
      vertex 111.5 111.5 0
      vertex 111.5 1 6
      vertex 111.5 1 0
    endloop
  endfacet
  facet normal 0 -1 0
    outer loop
      vertex 101 1 0
      vertex 102 1 5.5
      vertex 101 1 5.5
    endloop
  endfacet
  facet normal 0 -1 -0
    outer loop
      vertex 102 1 5.5
      vertex 101 1 0
      vertex 102 1 0
    endloop
  endfacet
  facet normal 0 -1 0
    outer loop
      vertex 90.8 1 0
      vertex 91.8 1 5.5
      vertex 90.8 1 5.5
    endloop
  endfacet
  facet normal 0 -1 -0
    outer loop
      vertex 91.8 1 5.5
      vertex 90.8 1 0
      vertex 91.8 1 0
    endloop
  endfacet
  facet normal 0 -1 0
    outer loop
      vertex 80.6 1 0
      vertex 81.6 1 5.5
      vertex 80.6 1 5.5
    endloop
  endfacet
  facet normal 0 -1 -0
    outer loop
      vertex 81.6 1 5.5
      vertex 80.6 1 0
      vertex 81.6 1 0
    endloop
  endfacet
  facet normal 0 -1 0
    outer loop
      vertex 70.4 1 0
      vertex 71.4 1 5.5
      vertex 70.4 1 5.5
    endloop
  endfacet
  facet normal 0 -1 -0
    outer loop
      vertex 71.4 1 5.5
      vertex 70.4 1 0
      vertex 71.4 1 0
    endloop
  endfacet
  facet normal 0 -1 0
    outer loop
      vertex 60.2 1 0
      vertex 61.2 1 5.5
      vertex 60.2 1 5.5
    endloop
  endfacet
  facet normal 0 -1 -0
    outer loop
      vertex 61.2 1 5.5
      vertex 60.2 1 0
      vertex 61.2 1 0
    endloop
  endfacet
  facet normal 0 -1 0
    outer loop
      vertex 50 1 0
      vertex 51 1 5.5
      vertex 50 1 5.5
    endloop
  endfacet
  facet normal 0 -1 -0
    outer loop
      vertex 51 1 5.5
      vertex 50 1 0
      vertex 51 1 0
    endloop
  endfacet
  facet normal 0 -1 0
    outer loop
      vertex 39.8 1 0
      vertex 40.8 1 5.5
      vertex 39.8 1 5.5
    endloop
  endfacet
  facet normal 0 -1 -0
    outer loop
      vertex 40.8 1 5.5
      vertex 39.8 1 0
      vertex 40.8 1 0
    endloop
  endfacet
  facet normal 0 -1 0
    outer loop
      vertex 29.6 1 0
      vertex 30.6 1 5.5
      vertex 29.6 1 5.5
    endloop
  endfacet
  facet normal 0 -1 -0
    outer loop
      vertex 30.6 1 5.5
      vertex 29.6 1 0
      vertex 30.6 1 0
    endloop
  endfacet
  facet normal 0 -1 0
    outer loop
      vertex 19.4 1 0
      vertex 20.4 1 5.5
      vertex 19.4 1 5.5
    endloop
  endfacet
  facet normal 0 -1 -0
    outer loop
      vertex 20.4 1 5.5
      vertex 19.4 1 0
      vertex 20.4 1 0
    endloop
  endfacet
  facet normal 0 -1 0
    outer loop
      vertex 9.2 1 0
      vertex 10.2 1 5.5
      vertex 9.2 1 5.5
    endloop
  endfacet
  facet normal 0 -1 -0
    outer loop
      vertex 10.2 1 5.5
      vertex 9.2 1 0
      vertex 10.2 1 0
    endloop
  endfacet
  facet normal 0 -1 0
    outer loop
      vertex 9.2 1 5.5
      vertex 1 1 6
      vertex 1 1 5.5
    endloop
  endfacet
  facet normal 0 -1 0
    outer loop
      vertex 10.2 1 5.5
      vertex 1 1 6
      vertex 9.2 1 5.5
    endloop
  endfacet
  facet normal 0 -1 0
    outer loop
      vertex 19.4 1 5.5
      vertex 1 1 6
      vertex 10.2 1 5.5
    endloop
  endfacet
  facet normal 0 -1 0
    outer loop
      vertex 20.4 1 5.5
      vertex 1 1 6
      vertex 19.4 1 5.5
    endloop
  endfacet
  facet normal 0 -1 0
    outer loop
      vertex 29.6 1 5.5
      vertex 1 1 6
      vertex 20.4 1 5.5
    endloop
  endfacet
  facet normal 0 -1 0
    outer loop
      vertex 30.6 1 5.5
      vertex 1 1 6
      vertex 29.6 1 5.5
    endloop
  endfacet
  facet normal 0 -1 0
    outer loop
      vertex 1 1 6
      vertex 30.6 1 5.5
      vertex 111.5 1 6
    endloop
  endfacet
  facet normal 0 -1 0
    outer loop
      vertex 39.8 1 5.5
      vertex 111.5 1 6
      vertex 30.6 1 5.5
    endloop
  endfacet
  facet normal 0 -1 0
    outer loop
      vertex 40.8 1 5.5
      vertex 111.5 1 6
      vertex 39.8 1 5.5
    endloop
  endfacet
  facet normal 0 -1 0
    outer loop
      vertex 50 1 5.5
      vertex 111.5 1 6
      vertex 40.8 1 5.5
    endloop
  endfacet
  facet normal 0 -1 0
    outer loop
      vertex 51 1 5.5
      vertex 111.5 1 6
      vertex 50 1 5.5
    endloop
  endfacet
  facet normal 0 -1 0
    outer loop
      vertex 60.2 1 5.5
      vertex 111.5 1 6
      vertex 51 1 5.5
    endloop
  endfacet
  facet normal 0 -1 0
    outer loop
      vertex 61.2 1 5.5
      vertex 111.5 1 6
      vertex 60.2 1 5.5
    endloop
  endfacet
  facet normal 0 -1 0
    outer loop
      vertex 70.4 1 5.5
      vertex 111.5 1 6
      vertex 61.2 1 5.5
    endloop
  endfacet
  facet normal 0 -1 0
    outer loop
      vertex 71.4 1 5.5
      vertex 111.5 1 6
      vertex 70.4 1 5.5
    endloop
  endfacet
  facet normal 0 -1 0
    outer loop
      vertex 80.6 1 5.5
      vertex 111.5 1 6
      vertex 71.4 1 5.5
    endloop
  endfacet
  facet normal 0 -1 0
    outer loop
      vertex 81.6 1 5.5
      vertex 111.5 1 6
      vertex 80.6 1 5.5
    endloop
  endfacet
  facet normal 0 -1 0
    outer loop
      vertex 90.8 1 5.5
      vertex 111.5 1 6
      vertex 81.6 1 5.5
    endloop
  endfacet
  facet normal 0 -1 0
    outer loop
      vertex 91.8 1 5.5
      vertex 111.5 1 6
      vertex 90.8 1 5.5
    endloop
  endfacet
  facet normal 0 -1 0
    outer loop
      vertex 101 1 5.5
      vertex 111.5 1 6
      vertex 91.8 1 5.5
    endloop
  endfacet
  facet normal 0 -1 0
    outer loop
      vertex 102 1 5.5
      vertex 111.5 1 6
      vertex 101 1 5.5
    endloop
  endfacet
  facet normal 0 -1 0
    outer loop
      vertex 111.2 1 5.5
      vertex 111.5 1 6
      vertex 102 1 5.5
    endloop
  endfacet
  facet normal 0 -1 0
    outer loop
      vertex 111.5 1 0
      vertex 111.2 1 5.5
      vertex 111.2 1 0
    endloop
  endfacet
  facet normal 0 -1 0
    outer loop
      vertex 111.2 1 5.5
      vertex 111.5 1 0
      vertex 111.5 1 6
    endloop
  endfacet
  facet normal 0 1 -0
    outer loop
      vertex 111.5 111.5 0
      vertex 1 111.5 6
      vertex 111.5 111.5 6
    endloop
  endfacet
  facet normal 0 1 0
    outer loop
      vertex 1 111.5 6
      vertex 111.5 111.5 0
      vertex 1 111.5 0
    endloop
  endfacet
endsolid OpenSCAD_Model
