solid OpenSCAD_Model
  facet normal -1 0 0
    outer loop
      vertex 0 30.6 0
      vertex 0 37.5 5.5
      vertex 0 37.5 0
    endloop
  endfacet
  facet normal -1 -0 0
    outer loop
      vertex 0 37.5 5.5
      vertex 0 30.6 0
      vertex 0 30.6 5.5
    endloop
  endfacet
  facet normal -1 0 0
    outer loop
      vertex 0 20.4 0
      vertex 0 29.6 5.5
      vertex 0 29.6 0
    endloop
  endfacet
  facet normal -1 -0 0
    outer loop
      vertex 0 29.6 5.5
      vertex 0 20.4 0
      vertex 0 20.4 5.5
    endloop
  endfacet
  facet normal -1 0 0
    outer loop
      vertex 0 10.2 0
      vertex 0 19.4 5.5
      vertex 0 19.4 0
    endloop
  endfacet
  facet normal -1 -0 0
    outer loop
      vertex 0 19.4 5.5
      vertex 0 10.2 0
      vertex 0 10.2 5.5
    endloop
  endfacet
  facet normal -1 0 0
    outer loop
      vertex 0 0 0
      vertex 0 9.2 5.5
      vertex 0 9.2 0
    endloop
  endfacet
  facet normal -1 -0 0
    outer loop
      vertex 0 9.2 5.5
      vertex 0 0 0
      vertex 0 0 5.5
    endloop
  endfacet
  facet normal 0 0 1
    outer loop
      vertex 1 9.2 5.5
      vertex 0 9.2 5.5
      vertex 1 1 5.5
    endloop
  endfacet
  facet normal -0 0 1
    outer loop
      vertex 1 1 5.5
      vertex 9.2 0 5.5
      vertex 9.2 1 5.5
    endloop
  endfacet
  facet normal 0 0 1
    outer loop
      vertex 1 1 5.5
      vertex 0 0 5.5
      vertex 9.2 0 5.5
    endloop
  endfacet
  facet normal 0 0 1
    outer loop
      vertex 0 0 5.5
      vertex 1 1 5.5
      vertex 0 9.2 5.5
    endloop
  endfacet
  facet normal 1 -0 0
    outer loop
      vertex 9.2 0 5.5
      vertex 9.2 1 0
      vertex 9.2 1 5.5
    endloop
  endfacet
  facet normal 1 0 0
    outer loop
      vertex 9.2 1 0
      vertex 9.2 0 5.5
      vertex 9.2 0 0
    endloop
  endfacet
  facet normal 0 1 -0
    outer loop
      vertex 1 9.2 0
      vertex 0 9.2 5.5
      vertex 1 9.2 5.5
    endloop
  endfacet
  facet normal 0 1 0
    outer loop
      vertex 0 9.2 5.5
      vertex 1 9.2 0
      vertex 0 9.2 0
    endloop
  endfacet
  facet normal 0 0 -1
    outer loop
      vertex 37.5 0 0
      vertex 36.5 9.2 0
      vertex 37.5 9.2 0
    endloop
  endfacet
  facet normal 0 0 -1
    outer loop
      vertex 29.6 1 0
      vertex 36.5 10.2 0
      vertex 36.5 9.2 0
    endloop
  endfacet
  facet normal -0 0 -1
    outer loop
      vertex 36.5 10.2 0
      vertex 20.4 1 0
      vertex 36.5 19.4 0
    endloop
  endfacet
  facet normal 0 0 -1
    outer loop
      vertex 19.4 1 0
      vertex 36.5 19.4 0
      vertex 20.4 1 0
    endloop
  endfacet
  facet normal 0 0 -1
    outer loop
      vertex 36.5 20.4 0
      vertex 20.4 36.5 0
      vertex 36.5 29.6 0
    endloop
  endfacet
  facet normal 0 0 -1
    outer loop
      vertex 37.5 0 0
      vertex 30.6 1 0
      vertex 36.5 9.2 0
    endloop
  endfacet
  facet normal 0 0 -1
    outer loop
      vertex 30.6 1 0
      vertex 37.5 0 0
      vertex 30.6 0 0
    endloop
  endfacet
  facet normal 0 0 -1
    outer loop
      vertex 36.5 10.2 0
      vertex 37.5 19.4 0
      vertex 37.5 10.2 0
    endloop
  endfacet
  facet normal -0 0 -1
    outer loop
      vertex 37.5 19.4 0
      vertex 36.5 10.2 0
      vertex 36.5 19.4 0
    endloop
  endfacet
  facet normal 0 0 -1
    outer loop
      vertex 36.5 20.4 0
      vertex 37.5 29.6 0
      vertex 37.5 20.4 0
    endloop
  endfacet
  facet normal -0 0 -1
    outer loop
      vertex 37.5 29.6 0
      vertex 36.5 20.4 0
      vertex 36.5 29.6 0
    endloop
  endfacet
  facet normal 0 0 -1
    outer loop
      vertex 36.5 30.6 0
      vertex 37.5 37.5 0
      vertex 37.5 30.6 0
    endloop
  endfacet
  facet normal 0 0 -1
    outer loop
      vertex 29.6 1 0
      vertex 36.5 9.2 0
      vertex 30.6 1 0
    endloop
  endfacet
  facet normal 0 0 -1
    outer loop
      vertex 36.5 10.2 0
      vertex 29.6 1 0
      vertex 20.4 1 0
    endloop
  endfacet
  facet normal 0 0 -1
    outer loop
      vertex 36.5 30.6 0
      vertex 30.6 36.5 0
      vertex 37.5 37.5 0
    endloop
  endfacet
  facet normal -0 0 -1
    outer loop
      vertex 37.5 37.5 0
      vertex 30.6 36.5 0
      vertex 30.6 37.5 0
    endloop
  endfacet
  facet normal 0 0 -1
    outer loop
      vertex 0 20.4 0
      vertex 1 29.6 0
      vertex 1 20.4 0
    endloop
  endfacet
  facet normal -0 0 -1
    outer loop
      vertex 1 29.6 0
      vertex 0 20.4 0
      vertex 0 29.6 0
    endloop
  endfacet
  facet normal 0 0 -1
    outer loop
      vertex 0 10.2 0
      vertex 1 19.4 0
      vertex 1 10.2 0
    endloop
  endfacet
  facet normal -0 0 -1
    outer loop
      vertex 1 19.4 0
      vertex 0 10.2 0
      vertex 0 19.4 0
    endloop
  endfacet
  facet normal 0 0 -1
    outer loop
      vertex 0 0 0
      vertex 9.2 1 0
      vertex 9.2 0 0
    endloop
  endfacet
  facet normal 0 0 -1
    outer loop
      vertex 9.2 1 0
      vertex 1 19.4 0
      vertex 9.2 36.5 0
    endloop
  endfacet
  facet normal 0 0 -1
    outer loop
      vertex 9.2 1 0
      vertex 1 9.2 0
      vertex 1 10.2 0
    endloop
  endfacet
  facet normal -0 0 -1
    outer loop
      vertex 9.2 1 0
      vertex 0 0 0
      vertex 1 9.2 0
    endloop
  endfacet
  facet normal -0 0 -1
    outer loop
      vertex 1 9.2 0
      vertex 0 0 0
      vertex 0 9.2 0
    endloop
  endfacet
  facet normal 0 0 -1
    outer loop
      vertex 9.2 1 0
      vertex 10.2 36.5 0
      vertex 10.2 1 0
    endloop
  endfacet
  facet normal -0 0 -1
    outer loop
      vertex 10.2 36.5 0
      vertex 9.2 1 0
      vertex 9.2 36.5 0
    endloop
  endfacet
  facet normal 0 0 -1
    outer loop
      vertex 10.2 1 0
      vertex 19.4 1 0
      vertex 19.4 0 0
    endloop
  endfacet
  facet normal 0 0 -1
    outer loop
      vertex 19.4 1 0
      vertex 10.2 1 0
      vertex 19.4 36.5 0
    endloop
  endfacet
  facet normal 0 0 -1
    outer loop
      vertex 10.2 1 0
      vertex 19.4 0 0
      vertex 10.2 0 0
    endloop
  endfacet
  facet normal 0 0 -1
    outer loop
      vertex 10.2 36.5 0
      vertex 19.4 36.5 0
      vertex 10.2 1 0
    endloop
  endfacet
  facet normal 0 0 -1
    outer loop
      vertex 19.4 36.5 0
      vertex 10.2 36.5 0
      vertex 19.4 37.5 0
    endloop
  endfacet
  facet normal -0 0 -1
    outer loop
      vertex 19.4 37.5 0
      vertex 10.2 36.5 0
      vertex 10.2 37.5 0
    endloop
  endfacet
  facet normal 0 0 -1
    outer loop
      vertex 36.5 19.4 0
      vertex 19.4 36.5 0
      vertex 36.5 20.4 0
    endloop
  endfacet
  facet normal 0 0 -1
    outer loop
      vertex 36.5 20.4 0
      vertex 19.4 36.5 0
      vertex 20.4 36.5 0
    endloop
  endfacet
  facet normal 0 0 -1
    outer loop
      vertex 20.4 1 0
      vertex 29.6 1 0
      vertex 29.6 0 0
    endloop
  endfacet
  facet normal -0 -0 -1
    outer loop
      vertex 29.6 36.5 0
      vertex 36.5 29.6 0
      vertex 20.4 36.5 0
    endloop
  endfacet
  facet normal 0 0 -1
    outer loop
      vertex 20.4 1 0
      vertex 29.6 0 0
      vertex 20.4 0 0
    endloop
  endfacet
  facet normal 0 0 -1
    outer loop
      vertex 36.5 29.6 0
      vertex 29.6 36.5 0
      vertex 36.5 30.6 0
    endloop
  endfacet
  facet normal 0 0 -1
    outer loop
      vertex 29.6 36.5 0
      vertex 20.4 36.5 0
      vertex 29.6 37.5 0
    endloop
  endfacet
  facet normal -0 0 -1
    outer loop
      vertex 29.6 37.5 0
      vertex 20.4 36.5 0
      vertex 20.4 37.5 0
    endloop
  endfacet
  facet normal 0 0 -1
    outer loop
      vertex 19.4 36.5 0
      vertex 36.5 19.4 0
      vertex 19.4 1 0
    endloop
  endfacet
  facet normal 0 0 -1
    outer loop
      vertex 36.5 30.6 0
      vertex 29.6 36.5 0
      vertex 30.6 36.5 0
    endloop
  endfacet
  facet normal 0 0 -1
    outer loop
      vertex 9.2 1 0
      vertex 1 10.2 0
      vertex 1 19.4 0
    endloop
  endfacet
  facet normal 0 0 -1
    outer loop
      vertex 1 20.4 0
      vertex 9.2 36.5 0
      vertex 1 19.4 0
    endloop
  endfacet
  facet normal 0 0 -1
    outer loop
      vertex 1 29.6 0
      vertex 9.2 36.5 0
      vertex 1 20.4 0
    endloop
  endfacet
  facet normal 0 0 -1
    outer loop
      vertex 1 30.6 0
      vertex 9.2 36.5 0
      vertex 1 29.6 0
    endloop
  endfacet
  facet normal 0 0 -1
    outer loop
      vertex 0 37.5 0
      vertex 9.2 36.5 0
      vertex 1 30.6 0
    endloop
  endfacet
  facet normal 0 0 -1
    outer loop
      vertex 0 37.5 0
      vertex 1 30.6 0
      vertex 0 30.6 0
    endloop
  endfacet
  facet normal 0 0 -1
    outer loop
      vertex 9.2 36.5 0
      vertex 0 37.5 0
      vertex 9.2 37.5 0
    endloop
  endfacet
  facet normal 0 -1 0
    outer loop
      vertex 30.6 0 0
      vertex 37.5 0 5.5
      vertex 30.6 0 5.5
    endloop
  endfacet
  facet normal 0 -1 -0
    outer loop
      vertex 37.5 0 5.5
      vertex 30.6 0 0
      vertex 37.5 0 0
    endloop
  endfacet
  facet normal 0 -1 0
    outer loop
      vertex 20.4 0 0
      vertex 29.6 0 5.5
      vertex 20.4 0 5.5
    endloop
  endfacet
  facet normal 0 -1 -0
    outer loop
      vertex 29.6 0 5.5
      vertex 20.4 0 0
      vertex 29.6 0 0
    endloop
  endfacet
  facet normal 0 -1 0
    outer loop
      vertex 10.2 0 0
      vertex 19.4 0 5.5
      vertex 10.2 0 5.5
    endloop
  endfacet
  facet normal 0 -1 -0
    outer loop
      vertex 19.4 0 5.5
      vertex 10.2 0 0
      vertex 19.4 0 0
    endloop
  endfacet
  facet normal 0 -1 0
    outer loop
      vertex 0 0 0
      vertex 9.2 0 5.5
      vertex 0 0 5.5
    endloop
  endfacet
  facet normal 0 -1 -0
    outer loop
      vertex 9.2 0 5.5
      vertex 0 0 0
      vertex 9.2 0 0
    endloop
  endfacet
  facet normal -0 0 1
    outer loop
      vertex 0 19.4 5.5
      vertex 1 10.2 5.5
      vertex 1 19.4 5.5
    endloop
  endfacet
  facet normal 0 0 1
    outer loop
      vertex 1 10.2 5.5
      vertex 0 19.4 5.5
      vertex 0 10.2 5.5
    endloop
  endfacet
  facet normal 0 1 -0
    outer loop
      vertex 1 19.4 0
      vertex 0 19.4 5.5
      vertex 1 19.4 5.5
    endloop
  endfacet
  facet normal 0 1 0
    outer loop
      vertex 0 19.4 5.5
      vertex 1 19.4 0
      vertex 0 19.4 0
    endloop
  endfacet
  facet normal 0 -1 0
    outer loop
      vertex 0 10.2 0
      vertex 1 10.2 5.5
      vertex 0 10.2 5.5
    endloop
  endfacet
  facet normal 0 -1 -0
    outer loop
      vertex 1 10.2 5.5
      vertex 0 10.2 0
      vertex 1 10.2 0
    endloop
  endfacet
  facet normal -0 0 1
    outer loop
      vertex 0 29.6 5.5
      vertex 1 20.4 5.5
      vertex 1 29.6 5.5
    endloop
  endfacet
  facet normal 0 0 1
    outer loop
      vertex 1 20.4 5.5
      vertex 0 29.6 5.5
      vertex 0 20.4 5.5
    endloop
  endfacet
  facet normal 0 -1 0
    outer loop
      vertex 0 20.4 0
      vertex 1 20.4 5.5
      vertex 0 20.4 5.5
    endloop
  endfacet
  facet normal 0 -1 -0
    outer loop
      vertex 1 20.4 5.5
      vertex 0 20.4 0
      vertex 1 20.4 0
    endloop
  endfacet
  facet normal 0 1 -0
    outer loop
      vertex 1 29.6 0
      vertex 0 29.6 5.5
      vertex 1 29.6 5.5
    endloop
  endfacet
  facet normal 0 1 0
    outer loop
      vertex 0 29.6 5.5
      vertex 1 29.6 0
      vertex 0 29.6 0
    endloop
  endfacet
  facet normal 0 0 1
    outer loop
      vertex 9.2 37.5 5.5
      vertex 1 36.5 5.5
      vertex 9.2 36.5 5.5
    endloop
  endfacet
  facet normal -0 0 1
    outer loop
      vertex 0 37.5 5.5
      vertex 1 36.5 5.5
      vertex 9.2 37.5 5.5
    endloop
  endfacet
  facet normal 0 0 1
    outer loop
      vertex 0 30.6 5.5
      vertex 1 36.5 5.5
      vertex 0 37.5 5.5
    endloop
  endfacet
  facet normal 0 0 1
    outer loop
      vertex 1 36.5 5.5
      vertex 0 30.6 5.5
      vertex 1 30.6 5.5
    endloop
  endfacet
  facet normal 1 -0 0
    outer loop
      vertex 9.2 36.5 5.5
      vertex 9.2 37.5 0
      vertex 9.2 37.5 5.5
    endloop
  endfacet
  facet normal 1 0 0
    outer loop
      vertex 9.2 37.5 0
      vertex 9.2 36.5 5.5
      vertex 9.2 36.5 0
    endloop
  endfacet
  facet normal 0 -1 0
    outer loop
      vertex 0 30.6 0
      vertex 1 30.6 5.5
      vertex 0 30.6 5.5
    endloop
  endfacet
  facet normal 0 -1 -0
    outer loop
      vertex 1 30.6 5.5
      vertex 0 30.6 0
      vertex 1 30.6 0
    endloop
  endfacet
  facet normal -1 0 0
    outer loop
      vertex 10.2 0 0
      vertex 10.2 1 5.5
      vertex 10.2 1 0
    endloop
  endfacet
  facet normal -1 -0 0
    outer loop
      vertex 10.2 1 5.5
      vertex 10.2 0 0
      vertex 10.2 0 5.5
    endloop
  endfacet
  facet normal -0 0 1
    outer loop
      vertex 10.2 1 5.5
      vertex 19.4 0 5.5
      vertex 19.4 1 5.5
    endloop
  endfacet
  facet normal 0 0 1
    outer loop
      vertex 19.4 0 5.5
      vertex 10.2 1 5.5
      vertex 10.2 0 5.5
    endloop
  endfacet
  facet normal 1 -0 0
    outer loop
      vertex 19.4 0 5.5
      vertex 19.4 1 0
      vertex 19.4 1 5.5
    endloop
  endfacet
  facet normal 1 0 0
    outer loop
      vertex 19.4 1 0
      vertex 19.4 0 5.5
      vertex 19.4 0 0
    endloop
  endfacet
  facet normal -1 0 0
    outer loop
      vertex 10.2 36.5 0
      vertex 10.2 37.5 5.5
      vertex 10.2 37.5 0
    endloop
  endfacet
  facet normal -1 -0 0
    outer loop
      vertex 10.2 37.5 5.5
      vertex 10.2 36.5 0
      vertex 10.2 36.5 5.5
    endloop
  endfacet
  facet normal -0 0 1
    outer loop
      vertex 10.2 37.5 5.5
      vertex 19.4 36.5 5.5
      vertex 19.4 37.5 5.5
    endloop
  endfacet
  facet normal 0 0 1
    outer loop
      vertex 19.4 36.5 5.5
      vertex 10.2 37.5 5.5
      vertex 10.2 36.5 5.5
    endloop
  endfacet
  facet normal 1 -0 0
    outer loop
      vertex 19.4 36.5 5.5
      vertex 19.4 37.5 0
      vertex 19.4 37.5 5.5
    endloop
  endfacet
  facet normal 1 0 0
    outer loop
      vertex 19.4 37.5 0
      vertex 19.4 36.5 5.5
      vertex 19.4 36.5 0
    endloop
  endfacet
  facet normal -1 0 0
    outer loop
      vertex 20.4 0 0
      vertex 20.4 1 5.5
      vertex 20.4 1 0
    endloop
  endfacet
  facet normal -1 -0 0
    outer loop
      vertex 20.4 1 5.5
      vertex 20.4 0 0
      vertex 20.4 0 5.5
    endloop
  endfacet
  facet normal -0 0 1
    outer loop
      vertex 20.4 1 5.5
      vertex 29.6 0 5.5
      vertex 29.6 1 5.5
    endloop
  endfacet
  facet normal 0 0 1
    outer loop
      vertex 29.6 0 5.5
      vertex 20.4 1 5.5
      vertex 20.4 0 5.5
    endloop
  endfacet
  facet normal 1 -0 0
    outer loop
      vertex 29.6 0 5.5
      vertex 29.6 1 0
      vertex 29.6 1 5.5
    endloop
  endfacet
  facet normal 1 0 0
    outer loop
      vertex 29.6 1 0
      vertex 29.6 0 5.5
      vertex 29.6 0 0
    endloop
  endfacet
  facet normal -1 0 0
    outer loop
      vertex 20.4 36.5 0
      vertex 20.4 37.5 5.5
      vertex 20.4 37.5 0
    endloop
  endfacet
  facet normal -1 -0 0
    outer loop
      vertex 20.4 37.5 5.5
      vertex 20.4 36.5 0
      vertex 20.4 36.5 5.5
    endloop
  endfacet
  facet normal -0 0 1
    outer loop
      vertex 20.4 37.5 5.5
      vertex 29.6 36.5 5.5
      vertex 29.6 37.5 5.5
    endloop
  endfacet
  facet normal 0 0 1
    outer loop
      vertex 29.6 36.5 5.5
      vertex 20.4 37.5 5.5
      vertex 20.4 36.5 5.5
    endloop
  endfacet
  facet normal 1 -0 0
    outer loop
      vertex 29.6 36.5 5.5
      vertex 29.6 37.5 0
      vertex 29.6 37.5 5.5
    endloop
  endfacet
  facet normal 1 0 0
    outer loop
      vertex 29.6 37.5 0
      vertex 29.6 36.5 5.5
      vertex 29.6 36.5 0
    endloop
  endfacet
  facet normal -1 0 0
    outer loop
      vertex 30.6 0 0
      vertex 30.6 1 5.5
      vertex 30.6 1 0
    endloop
  endfacet
  facet normal -1 -0 0
    outer loop
      vertex 30.6 1 5.5
      vertex 30.6 0 0
      vertex 30.6 0 5.5
    endloop
  endfacet
  facet normal 0 0 1
    outer loop
      vertex 36.5 1 5.5
      vertex 37.5 9.2 5.5
      vertex 36.5 9.2 5.5
    endloop
  endfacet
  facet normal 0 0 1
    outer loop
      vertex 37.5 9.2 5.5
      vertex 36.5 1 5.5
      vertex 37.5 0 5.5
    endloop
  endfacet
  facet normal 0 0 1
    outer loop
      vertex 30.6 0 5.5
      vertex 36.5 1 5.5
      vertex 30.6 1 5.5
    endloop
  endfacet
  facet normal 0 0 1
    outer loop
      vertex 36.5 1 5.5
      vertex 30.6 0 5.5
      vertex 37.5 0 5.5
    endloop
  endfacet
  facet normal 0 1 -0
    outer loop
      vertex 37.5 9.2 0
      vertex 36.5 9.2 5.5
      vertex 37.5 9.2 5.5
    endloop
  endfacet
  facet normal 0 1 0
    outer loop
      vertex 36.5 9.2 5.5
      vertex 37.5 9.2 0
      vertex 36.5 9.2 0
    endloop
  endfacet
  facet normal -0 0 1
    outer loop
      vertex 36.5 19.4 5.5
      vertex 37.5 10.2 5.5
      vertex 37.5 19.4 5.5
    endloop
  endfacet
  facet normal 0 0 1
    outer loop
      vertex 37.5 10.2 5.5
      vertex 36.5 19.4 5.5
      vertex 36.5 10.2 5.5
    endloop
  endfacet
  facet normal 0 -1 0
    outer loop
      vertex 36.5 10.2 0
      vertex 37.5 10.2 5.5
      vertex 36.5 10.2 5.5
    endloop
  endfacet
  facet normal 0 -1 -0
    outer loop
      vertex 37.5 10.2 5.5
      vertex 36.5 10.2 0
      vertex 37.5 10.2 0
    endloop
  endfacet
  facet normal 0 1 -0
    outer loop
      vertex 37.5 19.4 0
      vertex 36.5 19.4 5.5
      vertex 37.5 19.4 5.5
    endloop
  endfacet
  facet normal 0 1 0
    outer loop
      vertex 36.5 19.4 5.5
      vertex 37.5 19.4 0
      vertex 36.5 19.4 0
    endloop
  endfacet
  facet normal -0 0 1
    outer loop
      vertex 36.5 29.6 5.5
      vertex 37.5 20.4 5.5
      vertex 37.5 29.6 5.5
    endloop
  endfacet
  facet normal 0 0 1
    outer loop
      vertex 37.5 20.4 5.5
      vertex 36.5 29.6 5.5
      vertex 36.5 20.4 5.5
    endloop
  endfacet
  facet normal 0 -1 0
    outer loop
      vertex 36.5 20.4 0
      vertex 37.5 20.4 5.5
      vertex 36.5 20.4 5.5
    endloop
  endfacet
  facet normal 0 -1 -0
    outer loop
      vertex 37.5 20.4 5.5
      vertex 36.5 20.4 0
      vertex 37.5 20.4 0
    endloop
  endfacet
  facet normal 0 1 -0
    outer loop
      vertex 37.5 29.6 0
      vertex 36.5 29.6 5.5
      vertex 37.5 29.6 5.5
    endloop
  endfacet
  facet normal 0 1 0
    outer loop
      vertex 36.5 29.6 5.5
      vertex 37.5 29.6 0
      vertex 36.5 29.6 0
    endloop
  endfacet
  facet normal -1 0 0
    outer loop
      vertex 30.6 36.5 0
      vertex 30.6 37.5 5.5
      vertex 30.6 37.5 0
    endloop
  endfacet
  facet normal -1 -0 0
    outer loop
      vertex 30.6 37.5 5.5
      vertex 30.6 36.5 0
      vertex 30.6 36.5 5.5
    endloop
  endfacet
  facet normal 0 0 1
    outer loop
      vertex 37.5 37.5 5.5
      vertex 36.5 36.5 5.5
      vertex 37.5 30.6 5.5
    endloop
  endfacet
  facet normal -0 0 1
    outer loop
      vertex 30.6 37.5 5.5
      vertex 36.5 36.5 5.5
      vertex 37.5 37.5 5.5
    endloop
  endfacet
  facet normal 0 0 1
    outer loop
      vertex 36.5 36.5 5.5
      vertex 30.6 37.5 5.5
      vertex 30.6 36.5 5.5
    endloop
  endfacet
  facet normal 0 0 1
    outer loop
      vertex 37.5 30.6 5.5
      vertex 36.5 36.5 5.5
      vertex 36.5 30.6 5.5
    endloop
  endfacet
  facet normal 0 -1 0
    outer loop
      vertex 36.5 30.6 0
      vertex 37.5 30.6 5.5
      vertex 36.5 30.6 5.5
    endloop
  endfacet
  facet normal 0 -1 -0
    outer loop
      vertex 37.5 30.6 5.5
      vertex 36.5 30.6 0
      vertex 37.5 30.6 0
    endloop
  endfacet
  facet normal 1 -0 0
    outer loop
      vertex 37.5 0 5.5
      vertex 37.5 9.2 0
      vertex 37.5 9.2 5.5
    endloop
  endfacet
  facet normal 1 0 0
    outer loop
      vertex 37.5 9.2 0
      vertex 37.5 0 5.5
      vertex 37.5 0 0
    endloop
  endfacet
  facet normal 1 -0 0
    outer loop
      vertex 37.5 30.6 5.5
      vertex 37.5 37.5 0
      vertex 37.5 37.5 5.5
    endloop
  endfacet
  facet normal 1 0 0
    outer loop
      vertex 37.5 37.5 0
      vertex 37.5 30.6 5.5
      vertex 37.5 30.6 0
    endloop
  endfacet
  facet normal 1 -0 0
    outer loop
      vertex 37.5 20.4 5.5
      vertex 37.5 29.6 0
      vertex 37.5 29.6 5.5
    endloop
  endfacet
  facet normal 1 0 0
    outer loop
      vertex 37.5 29.6 0
      vertex 37.5 20.4 5.5
      vertex 37.5 20.4 0
    endloop
  endfacet
  facet normal 1 -0 0
    outer loop
      vertex 37.5 10.2 5.5
      vertex 37.5 19.4 0
      vertex 37.5 19.4 5.5
    endloop
  endfacet
  facet normal 1 0 0
    outer loop
      vertex 37.5 19.4 0
      vertex 37.5 10.2 5.5
      vertex 37.5 10.2 0
    endloop
  endfacet
  facet normal 0 1 -0
    outer loop
      vertex 9.2 37.5 0
      vertex 0 37.5 5.5
      vertex 9.2 37.5 5.5
    endloop
  endfacet
  facet normal 0 1 0
    outer loop
      vertex 0 37.5 5.5
      vertex 9.2 37.5 0
      vertex 0 37.5 0
    endloop
  endfacet
  facet normal 0 1 -0
    outer loop
      vertex 37.5 37.5 0
      vertex 30.6 37.5 5.5
      vertex 37.5 37.5 5.5
    endloop
  endfacet
  facet normal 0 1 0
    outer loop
      vertex 30.6 37.5 5.5
      vertex 37.5 37.5 0
      vertex 30.6 37.5 0
    endloop
  endfacet
  facet normal 0 1 -0
    outer loop
      vertex 19.4 37.5 0
      vertex 10.2 37.5 5.5
      vertex 19.4 37.5 5.5
    endloop
  endfacet
  facet normal 0 1 0
    outer loop
      vertex 10.2 37.5 5.5
      vertex 19.4 37.5 0
      vertex 10.2 37.5 0
    endloop
  endfacet
  facet normal 0 1 -0
    outer loop
      vertex 29.6 37.5 0
      vertex 20.4 37.5 5.5
      vertex 29.6 37.5 5.5
    endloop
  endfacet
  facet normal 0 1 0
    outer loop
      vertex 20.4 37.5 5.5
      vertex 29.6 37.5 0
      vertex 20.4 37.5 0
    endloop
  endfacet
  facet normal -1 0 0
    outer loop
      vertex 1 10.2 0
      vertex 1 9.2 0
      vertex 1 10.2 5.5
    endloop
  endfacet
  facet normal -1 0 0
    outer loop
      vertex 1 20.4 0
      vertex 1 19.4 0
      vertex 1 20.4 5.5
    endloop
  endfacet
  facet normal -1 0 0
    outer loop
      vertex 1 30.6 0
      vertex 1 29.6 0
      vertex 1 30.6 5.5
    endloop
  endfacet
  facet normal -1 0 0
    outer loop
      vertex 1 30.6 5.5
      vertex 1 36.5 6
      vertex 1 36.5 5.5
    endloop
  endfacet
  facet normal -1 0 0
    outer loop
      vertex 1 29.6 5.5
      vertex 1 30.6 5.5
      vertex 1 29.6 0
    endloop
  endfacet
  facet normal -1 0 0
    outer loop
      vertex 1 29.6 5.5
      vertex 1 36.5 6
      vertex 1 30.6 5.5
    endloop
  endfacet
  facet normal -1 0 0
    outer loop
      vertex 1 20.4 5.5
      vertex 1 36.5 6
      vertex 1 29.6 5.5
    endloop
  endfacet
  facet normal -1 0 0
    outer loop
      vertex 1 19.4 5.5
      vertex 1 20.4 5.5
      vertex 1 19.4 0
    endloop
  endfacet
  facet normal -1 0 0
    outer loop
      vertex 1 19.4 5.5
      vertex 1 36.5 6
      vertex 1 20.4 5.5
    endloop
  endfacet
  facet normal -1 0 0
    outer loop
      vertex 1 1 6
      vertex 1 19.4 5.5
      vertex 1 10.2 5.5
    endloop
  endfacet
  facet normal -1 0 0
    outer loop
      vertex 1 9.2 5.5
      vertex 1 10.2 5.5
      vertex 1 9.2 0
    endloop
  endfacet
  facet normal -1 0 0
    outer loop
      vertex 1 1 6
      vertex 1 10.2 5.5
      vertex 1 9.2 5.5
    endloop
  endfacet
  facet normal -1 0 0
    outer loop
      vertex 1 1 6
      vertex 1 9.2 5.5
      vertex 1 1 5.5
    endloop
  endfacet
  facet normal -1 0 0
    outer loop
      vertex 1 19.4 5.5
      vertex 1 1 6
      vertex 1 36.5 6
    endloop
  endfacet
  facet normal -0 0 1
    outer loop
      vertex 1 36.5 6
      vertex 36.5 1 6
      vertex 36.5 36.5 6
    endloop
  endfacet
  facet normal 0 0 1
    outer loop
      vertex 36.5 1 6
      vertex 1 36.5 6
      vertex 1 1 6
    endloop
  endfacet
  facet normal 1 0 0
    outer loop
      vertex 36.5 36.5 6
      vertex 36.5 30.6 5.5
      vertex 36.5 36.5 5.5
    endloop
  endfacet
  facet normal 1 0 0
    outer loop
      vertex 36.5 30.6 5.5
      vertex 36.5 29.6 5.5
      vertex 36.5 30.6 0
    endloop
  endfacet
  facet normal 1 0 0
    outer loop
      vertex 36.5 36.5 6
      vertex 36.5 29.6 5.5
      vertex 36.5 30.6 5.5
    endloop
  endfacet
  facet normal 1 0 0
    outer loop
      vertex 36.5 36.5 6
      vertex 36.5 20.4 5.5
      vertex 36.5 29.6 5.5
    endloop
  endfacet
  facet normal 1 0 0
    outer loop
      vertex 36.5 20.4 5.5
      vertex 36.5 19.4 5.5
      vertex 36.5 20.4 0
    endloop
  endfacet
  facet normal 1 0 0
    outer loop
      vertex 36.5 36.5 6
      vertex 36.5 19.4 5.5
      vertex 36.5 20.4 5.5
    endloop
  endfacet
  facet normal 1 -0 0
    outer loop
      vertex 36.5 1 6
      vertex 36.5 19.4 5.5
      vertex 36.5 36.5 6
    endloop
  endfacet
  facet normal 1 0 0
    outer loop
      vertex 36.5 10.2 5.5
      vertex 36.5 9.2 5.5
      vertex 36.5 10.2 0
    endloop
  endfacet
  facet normal 1 0 0
    outer loop
      vertex 36.5 19.4 5.5
      vertex 36.5 1 6
      vertex 36.5 10.2 5.5
    endloop
  endfacet
  facet normal 1 0 0
    outer loop
      vertex 36.5 10.2 5.5
      vertex 36.5 1 6
      vertex 36.5 9.2 5.5
    endloop
  endfacet
  facet normal 1 0 0
    outer loop
      vertex 36.5 9.2 5.5
      vertex 36.5 1 6
      vertex 36.5 1 5.5
    endloop
  endfacet
  facet normal 1 0 0
    outer loop
      vertex 36.5 30.6 0
      vertex 36.5 29.6 5.5
      vertex 36.5 29.6 0
    endloop
  endfacet
  facet normal 1 0 0
    outer loop
      vertex 36.5 20.4 0
      vertex 36.5 19.4 5.5
      vertex 36.5 19.4 0
    endloop
  endfacet
  facet normal 1 0 0
    outer loop
      vertex 36.5 10.2 0
      vertex 36.5 9.2 5.5
      vertex 36.5 9.2 0
    endloop
  endfacet
  facet normal 0 -1 0
    outer loop
      vertex 29.6 1 0
      vertex 30.6 1 5.5
      vertex 29.6 1 5.5
    endloop
  endfacet
  facet normal 0 -1 -0
    outer loop
      vertex 30.6 1 5.5
      vertex 29.6 1 0
      vertex 30.6 1 0
    endloop
  endfacet
  facet normal 0 -1 0
    outer loop
      vertex 19.4 1 0
      vertex 20.4 1 5.5
      vertex 19.4 1 5.5
    endloop
  endfacet
  facet normal 0 -1 -0
    outer loop
      vertex 20.4 1 5.5
      vertex 19.4 1 0
      vertex 20.4 1 0
    endloop
  endfacet
  facet normal 0 -1 0
    outer loop
      vertex 9.2 1 0
      vertex 10.2 1 5.5
      vertex 9.2 1 5.5
    endloop
  endfacet
  facet normal 0 -1 -0
    outer loop
      vertex 10.2 1 5.5
      vertex 9.2 1 0
      vertex 10.2 1 0
    endloop
  endfacet
  facet normal 0 -1 0
    outer loop
      vertex 9.2 1 5.5
      vertex 1 1 6
      vertex 1 1 5.5
    endloop
  endfacet
  facet normal 0 -1 0
    outer loop
      vertex 10.2 1 5.5
      vertex 1 1 6
      vertex 9.2 1 5.5
    endloop
  endfacet
  facet normal 0 -1 0
    outer loop
      vertex 19.4 1 5.5
      vertex 1 1 6
      vertex 10.2 1 5.5
    endloop
  endfacet
  facet normal 0 -1 0
    outer loop
      vertex 1 1 6
      vertex 19.4 1 5.5
      vertex 36.5 1 6
    endloop
  endfacet
  facet normal 0 -1 0
    outer loop
      vertex 20.4 1 5.5
      vertex 36.5 1 6
      vertex 19.4 1 5.5
    endloop
  endfacet
  facet normal 0 -1 0
    outer loop
      vertex 29.6 1 5.5
      vertex 36.5 1 6
      vertex 20.4 1 5.5
    endloop
  endfacet
  facet normal 0 -1 0
    outer loop
      vertex 30.6 1 5.5
      vertex 36.5 1 6
      vertex 29.6 1 5.5
    endloop
  endfacet
  facet normal 0 -1 -0
    outer loop
      vertex 36.5 1 6
      vertex 30.6 1 5.5
      vertex 36.5 1 5.5
    endloop
  endfacet
  facet normal 0 1 -0
    outer loop
      vertex 10.2 36.5 0
      vertex 9.2 36.5 5.5
      vertex 10.2 36.5 5.5
    endloop
  endfacet
  facet normal 0 1 0
    outer loop
      vertex 9.2 36.5 5.5
      vertex 10.2 36.5 0
      vertex 9.2 36.5 0
    endloop
  endfacet
  facet normal 0 1 -0
    outer loop
      vertex 20.4 36.5 0
      vertex 19.4 36.5 5.5
      vertex 20.4 36.5 5.5
    endloop
  endfacet
  facet normal 0 1 0
    outer loop
      vertex 19.4 36.5 5.5
      vertex 20.4 36.5 0
      vertex 19.4 36.5 0
    endloop
  endfacet
  facet normal 0 1 -0
    outer loop
      vertex 30.6 36.5 0
      vertex 29.6 36.5 5.5
      vertex 30.6 36.5 5.5
    endloop
  endfacet
  facet normal 0 1 0
    outer loop
      vertex 29.6 36.5 5.5
      vertex 30.6 36.5 0
      vertex 29.6 36.5 0
    endloop
  endfacet
  facet normal 0 1 0
    outer loop
      vertex 30.6 36.5 5.5
      vertex 36.5 36.5 6
      vertex 36.5 36.5 5.5
    endloop
  endfacet
  facet normal 0 1 0
    outer loop
      vertex 29.6 36.5 5.5
      vertex 36.5 36.5 6
      vertex 30.6 36.5 5.5
    endloop
  endfacet
  facet normal 0 1 0
    outer loop
      vertex 20.4 36.5 5.5
      vertex 36.5 36.5 6
      vertex 29.6 36.5 5.5
    endloop
  endfacet
  facet normal 0 1 0
    outer loop
      vertex 36.5 36.5 6
      vertex 20.4 36.5 5.5
      vertex 1 36.5 6
    endloop
  endfacet
  facet normal 0 1 -0
    outer loop
      vertex 19.4 36.5 5.5
      vertex 1 36.5 6
      vertex 20.4 36.5 5.5
    endloop
  endfacet
  facet normal 0 1 -0
    outer loop
      vertex 10.2 36.5 5.5
      vertex 1 36.5 6
      vertex 19.4 36.5 5.5
    endloop
  endfacet
  facet normal 0 1 -0
    outer loop
      vertex 9.2 36.5 5.5
      vertex 1 36.5 6
      vertex 10.2 36.5 5.5
    endloop
  endfacet
  facet normal 0 1 0
    outer loop
      vertex 1 36.5 6
      vertex 9.2 36.5 5.5
      vertex 1 36.5 5.5
    endloop
  endfacet
endsolid OpenSCAD_Model
